<?xml version="1.0" encoding="utf-8"?>
<!-- Generator: Adobe Illustrator 16.0.0, SVG Export Plug-In . SVG Version: 6.00 Build 0)  -->
<!DOCTYPE svg PUBLIC "-//W3C//DTD SVG 1.1//EN" "http://www.w3.org/Graphics/SVG/1.1/DTD/svg11.dtd">
<svg version="1.1" id="Layer_1" xmlns="http://www.w3.org/2000/svg" xmlns:xlink="http://www.w3.org/1999/xlink" x="0px" y="0px"
	 width="198.667px" height="298px" viewBox="0 0 198.667 298" enable-background="new 0 0 198.667 298" xml:space="preserve">
<path fill="none" stroke="#F3F3F3" stroke-width="8" stroke-linecap="round" stroke-linejoin="round" stroke-miterlimit="10" d="
	M146.912,140.157c17.588-20.087,3.9-36.618-2.663-42.704c0.153-2.169,0.247-3.401,0.247-3.401s2.896-12.973,2.685-22.408
	s1.833-54.166-42.015-51.167C52.622,24.07,55.428,64.797,54.396,74.288c-0.867,7.972-0.592,67.268-0.592,67.268
	s0.058,3.25,0.125,8.262c-1.953,1.943-4.075,3.803-6.385,5.514c-4.741,3.512-4.938,8.46-2.558,13.797
	c-0.889,3.775-1.797,8.057-1.853,10.007c-0.113,3.885,1.722,16.139,10.724,18.606c-0.093,2.19-0.212,3.897-0.364,4.938
	c-1.242,8.472,3.416,26.627,3.727,38.124c0.311,11.498-3.635,14.791-3.635,14.791c1.511,0.883,3.441,2.364,6.942,4.842
	c-0.097,2.103-0.073,4.443,0.366,5.784c0.932,2.846,9.922,12.474,24.529,4.709c7.94-4.222,11.192-9.648,12.511-13.725
	c1.12,0.36,2.22,0.85,3.266,1.347c-0.092,1.896-0.077,4.034,0.321,5.25c0.829,2.53,8.824,11.093,21.814,4.187
	c7.388-3.928,10.214-9.029,11.279-12.701c2.872,1.051,4.912,2.462,4.912,2.462c9.008-12.104,4.683-60.577,2.485-82.302
	c-0.695-6.874-0.66-18.088-0.302-30.024C143.46,143.846,145.2,142.112,146.912,140.157z"/>
<g>
	
		<path fill="#6D6F70" stroke="#2A2B2E" stroke-width="2" stroke-linecap="round" stroke-linejoin="round" stroke-miterlimit="10" d="
		M60.894,256.019c0,0-0.932,7.355,0,10.2c0.932,2.846,9.922,12.474,24.529,4.709c14.605-7.766,13.363-19.619,13.363-19.619
		L60.894,256.019z"/>
	
		<path fill="#6D6F70" stroke="#2A2B2E" stroke-width="1.7787" stroke-linecap="round" stroke-linejoin="round" stroke-miterlimit="10" d="
		M101.521,254.729c0,0-0.829,6.541,0,9.071s8.824,11.093,21.814,4.187c12.989-6.905,11.885-17.448,11.885-17.448L101.521,254.729z"
		/>
	
		<path fill="#F2F2F2" stroke="#2A2B2E" stroke-width="2" stroke-linecap="round" stroke-linejoin="round" stroke-miterlimit="10" d="
		M54.396,74.288c1.032-9.49-1.773-50.218,50.771-53.812c43.848-2.999,41.803,41.731,42.015,51.167s-2.685,22.408-2.685,22.408
		s-4.591,60.584-2.484,81.395c2.197,21.725,6.522,70.198-2.485,82.302c0,0-8.695-6.052-15.529-2.422
		c-6.833,3.632-13.718,6.393-18.377,5.145c-4.072-1.09-10.87-7.06-16.098-1.513c-2.733,2.897-17.81,9.339-28.265,1.994
		c-3.986-2.801-6.058-4.414-7.673-5.358c0,0,3.945-3.293,3.635-14.791c-0.311-11.497-4.969-29.652-3.727-38.124
		c1.242-8.474,0.311-61.123,0.311-61.123S53.528,82.259,54.396,74.288z"/>
	
		<path fill="#FFFFFF" stroke="#2A2B2E" stroke-width="2" stroke-linecap="round" stroke-linejoin="round" stroke-miterlimit="10" d="
		M46.728,162.148c0,0-3.482,13.105-3.594,16.986c-0.16,5.494,3.557,27.756,25.973,15.347c22.415-12.409-9.717-17.848-17.468-18.521"
		/>
	<path fill="#2A2B2E" d="M81.437,103.372c1.322-1.735,2.466-2.737,8.063-1.429c3.802,0.889,3.209,2.329,3.353,3.411
		c0.213,1.608-1.392,2.839-3.995,3.005c-1.985,0.126-5.54,0.113-6.42-0.3C81.113,107.44,80.114,105.108,81.437,103.372z"/>
	
		<path fill="#2A2B2E" stroke="#2A2B2E" stroke-width="2" stroke-linecap="round" stroke-linejoin="round" stroke-miterlimit="10" d="
		M117.513,164.173c0,0-17.351-1.739-30.017-15.151c-12.667-13.413-10.83-34.179-10.83-34.179s10.918,4.386,19.31,13.981
		c8.395,9.597,22.09,19.535,21.866,23.861C117.616,157.011,117.513,164.173,117.513,164.173z"/>
	
		<path fill="#F2F2F2" stroke="#2A2B2E" stroke-width="2" stroke-linecap="round" stroke-linejoin="round" stroke-miterlimit="10" d="
		M141.244,94.941c0,0,27.962,19.753,5.668,45.216c-22.295,25.463-49.024,17.099-49.024,17.099s-22.27-5.777-3.145-22.63
		c19.126-16.854,17.21-15.045,19.809-19.009"/>
	
		<path fill="#F49F1F" stroke="#2A2B2E" stroke-width="2" stroke-linecap="round" stroke-linejoin="round" stroke-miterlimit="10" d="
		M116.077,161.911"/>
	
		<path fill="#F49F1F" stroke="#2A2B2E" stroke-width="2" stroke-linecap="round" stroke-linejoin="round" stroke-miterlimit="10" d="
		M73.323,118.135c-1.111,2.118-8.002,24.027-25.779,37.195c-17.777,13.167,28.322,46.539,34.672,44.808
		c6.351-1.731,0.657-8.991,11.018-12.733c10.361-3.745,25.485-21.954,24.279-23.231c-1.207-1.277-7.968-5.482-17.731-10.141
		c-14.929-7.121-19.438-21.063-20.627-22.961s-0.613-15.709-2.074-16.217S74.459,115.971,73.323,118.135z"/>
	<polygon fill="#FDDD59" points="69.56,130.22 76.72,130.702 76.519,137.738 80.31,138.883 80.002,149.645 88.927,148.122 
		88.629,158.542 100.045,155.543 99.785,164.608 108.136,159.722 112.362,170.043 107.961,174.93 97.212,184.1 94.599,184.967 
		84.878,187.693 85.15,178.172 76.117,181.644 74.108,170.192 63.131,169.463 64.661,161.221 54.396,157.983 58.583,149.241 
		57.955,147.088 	"/>
	<polygon fill="#F17123" points="76.69,175.985 80.316,173.207 81.365,177.653 85.932,177.538 84.167,181.75 87.928,184.341 
		84.024,186.711 85.546,191.019 80.994,190.642 79.692,195.02 76.231,192.041 72.604,194.818 71.556,190.372 66.99,190.488 
		68.756,186.274 64.993,183.685 68.897,181.313 67.376,177.006 71.927,177.382 73.229,173.004 	"/>
	<g>
		<path fill="#F2CB29" d="M70.073,190.39c0,0-0.011-0.215,0.006-0.566c0.069-1.56,0.622-5.802,4.587-5.871
			c0,0,1.596,0.106,2.183,0.325c0.585,0.219,2.582,1.805,5.344,3.23c1.666,0.861,2.665,2.676,1.768,2.728
			c-0.898,0.053-5.152-1.769-6.456-1.914C75.252,188.07,71.734,192.882,70.073,190.39z"/>
		<path fill="#F6EA86" d="M77.434,184.497c0,0,5.22,5.198,6.133,5.502c0.907,0.302,3.389-1.29,0.019-3.83
			C83.585,186.168,80.047,186.844,77.434,184.497z"/>
	</g>
	<g>
		<path fill="#F7D43F" d="M68.663,189.334c0,0-0.084-0.197-0.194-0.532c-0.49-1.481-1.481-5.643,2.197-7.119
			c0,0,1.531-0.469,2.155-0.473c0.626-0.004,3.057,0.768,6.145,1.118c1.861,0.211,3.443,1.551,2.622,1.919
			c-0.82,0.369-5.443,0.181-6.713,0.509C72.679,185.324,71.104,191.072,68.663,189.334z"/>
		<path fill="#F6EA86" d="M73.447,181.207c0,0,6.729,3.001,7.688,2.96c0.957-0.041,2.707-2.411-1.347-3.587
			C79.789,180.58,76.724,182.471,73.447,181.207z"/>
	</g>
	<g>
		<path fill="#FFD34A" d="M68.48,185.408c0,0,7.047,1.06,9.704,3.437c2.659,2.377-7.025-1.116-7.025-1.116
			S67.19,185.937,68.48,185.408z"/>
		<path fill="#FFEE9B" d="M71.501,187.849l3.467-1.673c0,0,1.194-0.603,3.422,0.612c2.231,1.214,2.313,3.663,1.539,5.547
			c0,0-1.12-2.401-4.139-3.157C72.773,188.421,71.501,187.849,71.501,187.849z"/>
	</g>
	<path fill="#FFFFFF" d="M63.18,157.524"/>
	
		<polygon fill="#F7F8F9" stroke="#2A2B2E" stroke-width="2" stroke-linecap="round" stroke-linejoin="round" stroke-miterlimit="10" points="
		67.521,130.739 74.359,132.5 72.502,141.781 78.175,141.944 77.846,153.433 85.746,153.659 85.548,160.6 96.454,162.007 
		99.064,169.919 107.992,165.504 109.435,175.039 99.266,184.159 97.788,179.165 89.771,183.06 89.463,172.533 80.045,175.77 
		78.693,162.531 68.05,164.908 70.106,154.655 59.402,153.523 64.087,145.407 61.398,141.463 	"/>
	<g>
		
			<polyline fill="none" stroke="#2A2B2E" stroke-width="2" stroke-linecap="round" stroke-linejoin="round" stroke-miterlimit="10" points="
			65.96,74.781 77.452,82.989 66.805,86.333 		"/>
		
			<line fill="none" stroke="#2A2B2E" stroke-width="2" stroke-linecap="round" stroke-linejoin="round" stroke-miterlimit="10" x1="68.429" y1="80.948" x2="76.402" y2="82.237"/>
	</g>
	<g>
		
			<polyline fill="none" stroke="#2A2B2E" stroke-width="2.3" stroke-linecap="round" stroke-linejoin="round" stroke-miterlimit="10" points="
			121.304,92.028 106.864,84.69 120.116,74.288 		"/>
		
			<line fill="none" stroke="#2A2B2E" stroke-width="2.3" stroke-linecap="round" stroke-linejoin="round" stroke-miterlimit="10" x1="118.929" y1="84.456" x2="109.304" y2="85.539"/>
	</g>
</g>
</svg>
