<?xml version="1.0" encoding="utf-8"?>
<!-- Generator: Adobe Illustrator 16.0.0, SVG Export Plug-In . SVG Version: 6.00 Build 0)  -->
<!DOCTYPE svg PUBLIC "-//W3C//DTD SVG 1.1//EN" "http://www.w3.org/Graphics/SVG/1.1/DTD/svg11.dtd">
<svg version="1.1" id="Layer_1" xmlns="http://www.w3.org/2000/svg" xmlns:xlink="http://www.w3.org/1999/xlink" x="0px" y="0px"
	 width="232.667px" height="354.667px" viewBox="0 0 232.667 354.667" enable-background="new 0 0 232.667 354.667"
	 xml:space="preserve">
<g>
	<path fill="none" stroke="#F3F3F3" stroke-width="8" stroke-linecap="round" stroke-linejoin="round" stroke-miterlimit="10" d="
		M31.688,192.302l-0.218,1.083l12.247,15.324l0,0l0.357,0.487c0.886-0.814,1.729-1.486,2.531-2.044
		c7.225-3.393,10.558-0.88,11.688,0.417c0.313,0.381,0.471,0.647,0.471,0.647s-0.025-0.046-0.072-0.12l-23.396-39.186l-0.805,9.419
		l-0.852,4.246c-1.975,8.433-2.523,8.946-2.523,8.946L31.688,192.302z"/>
	<path fill="none" stroke="#F3F3F3" stroke-width="8" stroke-linecap="round" stroke-linejoin="round" stroke-miterlimit="10" d="
		M220.483,267.496c-0.809-13.774,1.225-21.769-13.602-25.261c2.521-3.109,5.418-8.129,5.862-15.14
		c0.538-8.488-4.556-18.358-9.3-19.442c-0.633-0.145-1.131-0.412-1.531-0.758c0.649-1.291,1.082-2.937,0.951-5
		c-0.102-1.605-0.443-2.947-0.944-4.072c1.999-2.845,6.516-10.942-1.06-17.682c1.396-1.438,2.596-2.797,3.606-3.73
		c4.732-4.375,6.14-19.029,1.937-32.629c-4.202-13.596-23.086-23.275-23.096-23.28l-0.633-1.665l-0.002-0.004v0.001l-9.13-23.989
		l-9.524-20.853c3.117,0.154,7.344,0.183,10.311-0.509c5.25-1.222,9.147-5.5,10.214-7.496c1.589-2.976,1.589-7.309,1.589-7.309
		s-10.779-1.039-18.09,1.764c0.312-0.627,0.58-1.275,0.781-1.953c3.709-12.51-3.911-20.219-4.161-25.692s5.167-10.535,11.714-8.631
		c0,0-2.525-12.992-19.406-11.166c-8.951,0.968-15.588,10.788-16.405,17.849c-0.667,5.764,1.623,9.514,2.221,12.907
		c-2.154-2.228-3.96-3.653-5.009-3.577c-4.063,0.296-20.33,4.019-30.68,4.839c-0.525-1.382-0.826-3.004-0.613-4.866
		c0.744-6.536,7.526-12.887,2.416-20.779c-7.127-11.004-27.96-4.812-27.96-4.812s11.04,3.247,8.883,11.132
		c-2.157,7.887-7.25,9.641-9.129,17.257c-0.798,3.232-0.355,7.012,1.118,10.228c-4.945-1.195-9.853-2.106-10.637-1.248
		c0,0,4.201,5.25,7.861,9.75c2.215,2.724,4.558,4.343,6.065,5.201c-0.42,1.582-0.809,3.235-1.161,4.965
		c-3.397,16.667,4.529,14.667,4.529,14.667l2.853-0.07c0,0.001,0,0.001,0,0.001l-2.831,5.52c-0.119,0.059-0.233,0.119-0.365,0.175
		c-3.535,1.5-6.125,1.135-9.045,2.042c-4.232,1.314-6.58,3.666-8.12,6.666h-5.598c-0.409,0.439-0.759,0.873-1.056,1.299
		c-0.209,0.153-0.4,0.441-0.555,0.916c-2.871,5.393,2.792,9.403,6.479,10.03c0.826,2.748,1.877,4.755,1.877,4.755l6.93-0.78h-0.002
		l-6.928,0.78l2.73,4.776l3.178-4.984l5.244,5.127l2.006-6.752l4.172,5.167l2.938-8l7.092,2.869l3.584-7.929l8.574,1.81l1.917-6.417
		c0,0,4.97,3.331,8.492,6.959c-0.218,0.27-0.471,0.575-0.76,0.913l-5.192-2.17l-3.957,5.715l-5.88-2.167l-0.833,6.917l-4.589-1
		l-1.656,5.117l-5.625-3.867l-3.714,7.961c-0.415,0.036-0.825,0.074-1.223,0.119l-2.381-2.563l-1.184,3.229
		c-0.322,0.094-0.647,0.186-0.937,0.297c-0.558,0.216-1.134,0.469-1.716,0.756l-2.227-2.799l-0.657,4.518
		c-0.769,0.545-1.522,1.157-2.238,1.842l-2.478-1.947l0.15,4.665c-0.341,0.491-0.66,1.007-0.955,1.549l-2.811-1.71l0.934,5.834
		h0.309c-0.614,2.606-0.686,5.627,0.057,9.108c-3.809,7.417-11.395,24.371-6.057,32.831c0.912,1.443,3.079,2.885,5.074,3.991
		l-4.342-2.115c0,0-0.646,7.053,1.158,9.245c3.756,4.561,10.609,6.566,13.813,7.532l-1.994-0.319c0,0-1.387,0.419-1.451,4.375
		c-0.03,1.836,1.502,4.134,2.805,5.753c-0.133,0.069-0.262,0.135-0.396,0.209c-2.316,1.282-4.93,3.825-5.607,7.617
		c-4.317,2.267-7.553,5.741-9.966,11.503c0,0-2.427-0.17-5.546,0.432c-12.521-15.991-26.475-33.375-30.199-38.006l-0.668-4.074
		l-1.76-1.675l-6.031-3.218l1.306,9.854c0,0,1.31,0.715,2.51,1.218l-15.017,4.678l23.92,24.428c0,0-1.918-5.666,1.596-9.996
		c0.446-0.49,0.948-0.992,1.527-1.507c0.305-0.239,0.617-0.476,0.97-0.697l-6.56-9.334l23.479,29.907
		c-3.573,1.689-6.975,4.76-8.179,10.334c-1.583,7.33,6.057,8.721,6.057,8.721s1.392,5.321,2.779,5.981
		c1.387,0.66,10.716-0.139,10.716-0.139s0.216-0.059,0.578-0.163c1.913-0.353,3.979-1.07,5.921-1.97l5.673,7.227
		c0,0,2.805,0.599,3.196-1.97c0.075-0.488-1.798-3.282-4.874-7.48c2.289-1.527,3.889-3.14,3.955-4.288
		c0.09-1.52-2.227-3.523-3.117-4.235c1.854-0.654,4.02-1.693,5.531-3.294c3.726-3.943,6.515-7.122,4.465-10.559
		c3.56,3.525,10.343-3.331,12.777-6.045c0.165,1.196,0.376,2.609,0.653,4.306c1.175,7.186,11.188,9.604,11.188,9.604l0.004,0.004
		c0.802,1.052,1.42,1.684,1.42,1.684l-0.186-0.352c2.244,2.611,6.798,8.856,7.281,17c0.017,0.277,0.246,0.583,0.625,0.904
		c-0.672-0.084-1.047-0.147-1.047-0.147s-0.316,2.221-0.191,3.968l-0.031,0.003l-0.777,3.546l-1.576,10.829l2.143-2.475
		c-0.234,8.775-0.104,20.6,1.934,26.1c1.25,3.375,0.873,8.904,1.125,12.125c0.156,1.999,0.386,10.909,0.475,14.53
		c-0.383-0.226-0.759-0.492-1.127-0.793c-2.079,0.34-3.625,2.243-5.432,2.334c-3.471,0.174-5.584-0.668-6.082,0.554
		c-0.785,1.921,1.557,3.806,4.908,5.917c4.613,2.552,10.705,2.103,15.095-1.542s-0.49-10.592-0.49-10.592
		c-0.253,0.55-0.506,1.026-0.759,1.468l0.171-10.501c0,0,1.021-4.833,1.021-7s-1.021-6.5-1.021-6.5s2.101-2.167,2.38-4.333
		c0.226-1.737,1.078-9.366,1.047-16.446l2.778,4.446c0,0,0.667,2.688,3.667,6.594c3,3.906,2.5,2.572,2.5,2.572l0.031-5.166
		l3.696,3.242l0.772-1.242v-0.97c0.274,0.372,0.557,0.698,0.846,0.97c0.068,0.063,0.186,0.128,0.336,0.192
		c-0.396,0.014-0.635,0.125-0.563,0.401c0.615,2.334,1.58,6.674,4.5,6.506c0,0,6.777,14.595,17.719,20.494c-0.001,0-0.002,0-0.002,0
		c-3.717,4.906-10.615,5.704-9.883,7.572c0.756,1.933,6,3.615,9.883,2.834c5.102-1.334,10.489-5.334,11.156-11
		c0.666-5.667-7.659-7.334-7.659-7.334c0.28,0.817,0.478,1.549,0.61,2.209l-0.13-0.375l-7.837-6.334c0,0-2.232-6.208-5.992-12.666
		c0,0,0.327-0.883,0.694-2.188l0.153,0.282l1.834-0.928c0,0,2-6.5,2.167-9.333s0-4.667,0-4.667l2.812,2.275
		c0,0-2.479-15.775-4.312-17.608c-0.268-0.268-0.622-0.495-1.023-0.696c0.297-0.24,0.487-0.478,0.523-0.711
		c0.5-3.24-1.833-4.593-1.833-4.593s-0.604,0.145-1.658,0.38l0.158-0.38c0,0-3.256-13.375-2.029-20.333
		c0.889-5.039,3.695-28.728,3.695-28.728l0.313-1.383c3.432,2.549,7.158,3.151,7.158,3.151l-5.949-0.949
		c0,0-5.303,23.647,5.865,25.944c1.686,0.347,3.119,0.57,4.347,0.704l-2.599,0.521c0,0-2.633,9.252,0.002,13.944
		c2.707,4.817,8.854,4.531,8.854,4.531s-2.921,6.623-0.727,9.611c2.193,2.988,6.17,7.746,6.17,7.746l0.615-0.419
		c0.012,0.243,0.02,0.486,0.033,0.729c0.855,14.546,6.58,24.337,15.624,23.807C215.23,292.53,221.339,282.042,220.483,267.496z
		 M26.51,197.327l-0.748-1.139c0.022,0.008,0.044,0.015,0.065,0.022l0.85,1.082L26.51,197.327z M125.139,118.106
		c-0.179,0.68-0.421,1.392-0.722,2.133c0.032-0.277,0.048-0.55,0.071-0.824L125.139,118.106z M87.706,114.858h-0.002l3.187-1.399
		L87.706,114.858z M117.787,114.178l2.543-1.728c-2.436,2.668-6.471,6.455-11.817,9.296L117.787,114.178z M108.511,121.748
		c-1.549,0.823-3.205,1.568-4.968,2.181c-0.928,0.322-1.849,0.657-2.763,1.004L108.511,121.748z M95.019,127.305
		c-0.016,0.007-0.031,0.014-0.047,0.021l0.021-0.011L95.019,127.305z M99.46,220.044l0.223-0.301
		c0.076,0.041,0.159,0.082,0.244,0.123c0.005,0.003,0.025,0.017,0.025,0.017s-0.012,0.391,0.074,1.451L99.46,220.044z"/>
</g>
<g>
	
		<path fill="#CDC9C0" stroke="#2A2B2E" stroke-width="2" stroke-linecap="round" stroke-linejoin="round" stroke-miterlimit="10" d="
		M111.199,50.381c0,0-5.462-3.695-4.716-10.23c0.744-6.536,7.526-12.887,2.416-20.779c-7.127-11.004-27.96-4.812-27.96-4.812
		s11.04,3.247,8.883,11.132c-2.157,7.887-7.25,9.641-9.129,17.257c-1.88,7.616,3.103,18.278,12.317,17.423
		s18.741-6.119,18.741-6.119L111.199,50.381z"/>
	
		<path fill="#343342" stroke="#2A2B2E" stroke-width="2" stroke-linecap="round" stroke-linejoin="round" stroke-miterlimit="10" d="
		M122.995,109.213c0,0-7.268,10.482-19.452,14.715c-14.159,4.916-27.017,12.821-28.1,17.087c-2.067,8.142,19.045,4.829,19.045,4.829
		s18.392-6.85,21.333-9.182C125.247,129.188,126.086,115.02,122.995,109.213z"/>
	
		<path fill="#7C8480" stroke="#2A2B2E" stroke-width="2" stroke-linecap="round" stroke-linejoin="round" stroke-miterlimit="10" d="
		M71.175,51.928c0,0,8.929,0.25,9.44,2.5c0.511,2.25,3.325,4.061,3.325,4.061s-1.564,4.939,4.186,5.439l-1.408,3.75
		c0,0-4.021-1.5-7.682-6S71.175,51.928,71.175,51.928z"/>
	
		<path fill="#7C8480" stroke="#2A2B2E" stroke-width="2" stroke-linecap="round" stroke-linejoin="round" stroke-miterlimit="10" d="
		M159.876,73.678c0,0,9.203,1.027,14.453-0.195c5.25-1.222,9.147-5.5,10.214-7.496c1.589-2.976,1.589-7.309,1.589-7.309
		l-26.256,11.25V73.678z"/>
	
		<path fill="#6B4D5B" stroke="#2A2B2E" stroke-width="2" stroke-linecap="round" stroke-linejoin="round" stroke-miterlimit="10" d="
		M92.826,56.178c0,0-19.997-6.061-21.651-4.25c3.395,4.226,6.723,5.297,10.674,8.952c3.186,2.946,6.277,5.464,6.277,5.464
		L92.826,56.178z"/>
	
		<path fill="#6B4D5B" stroke="#2A2B2E" stroke-width="2" stroke-linecap="round" stroke-linejoin="round" stroke-miterlimit="10" d="
		M140.181,267.844c0,0,2.766,18,7.375,22.334c0.579,0.545,4.594,1.139,4.594,1.139s-5.127-1.711-4.82-0.545
		c0.615,2.334,1.58,6.674,4.5,6.506c0,0,7.533,16.236,19.541,21.384l3.536-2.983l-1.383-4l-7.837-6.334
		c0,0-2.232-6.208-5.992-12.666c0,0,2.612-7,1.383-11s-5.07-19.667-5.07-19.667s-15.826,0.167-15.826,3
		S140.181,267.844,140.181,267.844z"/>
	
		<path fill="#6B4D5B" stroke="#2A2B2E" stroke-width="2" stroke-linecap="round" stroke-linejoin="round" stroke-miterlimit="10" d="
		M120.522,263.678c0,0-2.021,27.508,1.432,36.833c1.25,3.375,0.873,8.904,1.125,12.125c0.197,2.523,0.512,16.071,0.512,16.071
		l6.02-0.666l0.228-14.03c0,0,1.021-4.833,1.021-7s-1.021-6.5-1.021-6.5s2.101-2.167,2.38-4.333c0.281-2.167,1.541-13.5,0.841-21.5
		s-0.841-9.167-1.54-8.334C130.818,267.178,120.522,263.678,120.522,263.678z"/>
	
		<path fill="#6B4D5B" stroke="#2A2B2E" stroke-width="2" stroke-linecap="round" stroke-linejoin="round" stroke-miterlimit="10" d="
		M74.436,147.165c0,0-14.97,25.438-8.019,36.453c1.885,2.984,9.139,5.97,9.139,5.97l-8.406-4.094c0,0-0.646,7.053,1.158,9.245
		c3.868,4.697,11.036,6.688,14.103,7.62c4.026,1.224,7.911,1.839,7.911,1.839l-2.353-17.891l-4.285-31.283l-3.45-10.205
		L74.436,147.165z"/>
	
		<path fill="#6B4D5B" stroke="#2A2B2E" stroke-width="2" stroke-linecap="round" stroke-linejoin="round" stroke-miterlimit="10" d="
		M92.831,207.106l2.584,7.654l-12.148-0.67c0,0-4.645-4.583-4.592-7.764c0.064-3.956,1.451-4.375,1.451-4.375l12.188,1.954
		L92.831,207.106z"/>
	
		<path fill="#6B4D5B" stroke="#2A2B2E" stroke-width="2" stroke-linecap="round" stroke-linejoin="round" stroke-miterlimit="10" d="
		M89.321,209.64c0.001,0.001-3.553,0.058-8.238,2.648c-2.316,1.282-4.93,3.825-5.607,7.617c-4.317,2.267-7.553,5.741-9.966,11.503
		c0,0-15.743-1.129-18.652,12.344c-1.583,7.33,6.057,8.721,6.057,8.721s1.392,5.321,2.779,5.981
		c1.387,0.66,10.716-0.139,10.716-0.139s11.904-3.222,10.404-5.577c-1.5-2.357-2.75-6.336-2.75-6.336s6.044-0.909,9.209-4.261
		c4.137-4.379,7.141-7.814,3.619-11.707c3.885,7.153,14.523-5.938,14.523-5.938l-1.955-4.452l4.5-6.078L89.321,209.64z"/>
	
		<path fill="#6B4D5B" stroke="#2A2B2E" stroke-width="2" stroke-linecap="round" stroke-linejoin="round" stroke-miterlimit="10" d="
		M76.714,148.339l15.662-2.661c0,0,19.057-5.5,23.445-11.5s9.173-13.047,9.632-17.714s-11.91-12.953-11.91-12.953l-29.603,13
		l-11.832,1.333c0,0-4.381-8.333-2.279-14.333c1.496-4.271,3.832-7.65,9.252-9.333c2.92-0.907,5.51-0.542,9.045-2.042
		c3.536-1.5,2.703-4.149,3.203-5.721l37.881-0.904l-40.74,1c0,0-7.927,2-4.529-14.667c3.398-16.666,9.936-26.666,19.603-26.666
		s29.667-4.667,34.233-5c4.567-0.334,23.434,27.666,23.434,27.666l12.333,27l17,44.667l-20.333,24.536l-9.334,41.403
		c0,0-2.807,23.688-3.695,28.728c-1.227,6.958,2.029,20.333,2.029,20.333l-1.667,4l-10.086,5.546l-14.081-0.379
		c0,0-12.373-3.77-12.5-5.895c-0.645-10.854-8.52-18.336-8.52-18.336s-10.014-2.418-11.188-9.604
		c-1.286-7.867-1.216-9.961-1.216-9.961s-8.386-5.336-10.504-13.771c-2.119-8.434-0.979-13.601-0.979-13.601l-10.927-39.109"/>
	
		<path fill="#6B4D5B" stroke="#2A2B2E" stroke-width="2" stroke-linecap="round" stroke-linejoin="round" stroke-miterlimit="10" d="
		M116.39,189.383c0,0,12.303,9.104,23.479,8.562c9.9-0.479,18.014-13.514,18.014-13.514s-3.06,12.559,0.729,17.199
		c3.787,4.64,9.736,5.589,9.736,5.589l-5.949-0.949c0,0-5.303,23.647,5.865,25.944c11.168,2.298,11.477-0.729,11.477-0.729
		l-9.729,1.954c0,0-2.633,9.252,0.002,13.944c2.707,4.817,8.854,4.531,8.854,4.531s-2.921,6.623-0.727,9.611
		c2.193,2.988,6.17,7.746,6.17,7.746l17.929-12.216l0.771-11.008c0,0,8.926-6.203,9.735-18.954c0.538-8.488-4.556-18.358-9.3-19.442
		c-4.746-1.085-2.328-8.778-2.328-8.778s9.105-10.406-0.256-18.733l2.879-20.45l-20.749-26.943"/>
	
		<path fill="#6B4D5B" stroke="#2A2B2E" stroke-width="2" stroke-linecap="round" stroke-linejoin="round" stroke-miterlimit="10" d="
		M165.662,103.511c0,0-14.127,30.535-26.833,32.333c-10.412,1.475-7.971,0.188-13.249,4.417
		c-4.952,3.966-33.69,17.503-36.196,16.544"/>
	
		<path fill="#6B4D5B" stroke="#2A2B2E" stroke-width="2" stroke-linecap="round" stroke-linejoin="round" stroke-miterlimit="10" d="
		M145.663,70.145c0,0,16.213,6.533,24.963,0.783s15.506-12.25,15.506-12.25s-12.554-1.213-19.753,2.5
		c-7.198,3.713-17.003,6.25-17.003,6.25L145.663,70.145z"/>
	
		<path fill="#6B4D5B" stroke="#2A2B2E" stroke-width="2" stroke-linecap="round" stroke-linejoin="round" stroke-miterlimit="10" d="
		M183.308,120.501c0,0,18.893,9.681,23.096,23.28s2.796,28.254-1.937,32.629c-4.732,4.373-13.552,18.029-27.851,5.876"/>
	
		<path fill="#5A3D48" stroke="#2A2B2E" stroke-width="2" stroke-linecap="round" stroke-linejoin="round" stroke-miterlimit="10" d="
		M169.546,317.772c3.131-0.238,5.664-1.594,3.497-7.928c0,0,8.325,1.667,7.659,7.334c-0.667,5.666-6.055,9.666-11.156,11
		c-3.883,0.781-9.127-0.901-9.883-2.834C158.931,323.476,165.829,322.678,169.546,317.772z"/>
	
		<path fill="#5A3D48" stroke="#2A2B2E" stroke-width="2" stroke-linecap="round" stroke-linejoin="round" stroke-miterlimit="10" d="
		M122.427,326.374c2.432,1.986,5.201,2.752,7.999-3.329c0,0,4.88,6.947,0.49,10.592s-10.481,4.094-15.095,1.542
		c-3.352-2.111-5.693-3.996-4.908-5.917c0.498-1.222,2.611-0.38,6.082-0.554C118.802,328.617,120.348,326.713,122.427,326.374z"/>
	
		<path fill="#323F3F" stroke="#2A2B2E" stroke-width="2" stroke-linecap="round" stroke-linejoin="round" stroke-miterlimit="10" d="
		M121.376,272.844v8.334l2.5-1.334l3.667,10.928l5.167-11.928l3.333,5.334c0,0,0.667,2.688,3.667,6.594c3,3.906,2.5,2.572,2.5,2.572
		l0.031-5.166l3.696,3.242l0.772-1.242v-5.334l2.666,5.928l2.834,1.406c0,0-1.167-15.667,0-15.834l0,0l2.333,6.167
		c0,0-2,5.667-0.667,7c1.334,1.333,2.167-0.833,2.167-0.833l1.138,6.583l1.862-7.25l1.499,2.761l1.834-0.928c0,0,2-6.5,2.167-9.333
		s0-4.667,0-4.667l2.812,2.275c0,0-2.479-15.775-4.312-17.608s-7.5-2-7.5-2l-35.312,4l-0.777,3.546l-1.576,10.829L121.376,272.844z"
		/>
	
		<path fill="#7C8480" stroke="#2A2B2E" stroke-width="2" stroke-linecap="round" stroke-linejoin="round" stroke-miterlimit="10" d="
		M120.454,258.541c0,0,7.422,1.304,18.256-0.029c10.833-1.333,22-4,22-4s2.333,1.353,1.833,4.593s-27.998,7.225-30,7.24
		c-2.001,0.016-11.589-0.971-12.089-2.637C119.954,262.041,120.454,258.541,120.454,258.541z"/>
	
		<path fill="#7C8480" stroke="#2A2B2E" stroke-width="2" stroke-linecap="round" stroke-linejoin="round" stroke-miterlimit="10" d="
		M25.519,195.817l53.063,67.593c0,0,2.805,0.599,3.196-1.97c0.392-2.566-52.97-68.795-52.97-68.795l-7.502-7.777L25.519,195.817z"/>
	<g>
		
			<path fill="#2A2B2E" stroke="#2A2B2E" stroke-width="2" stroke-linecap="round" stroke-linejoin="round" stroke-miterlimit="10" d="
			M27.126,197.203l-17.021,3.415l23.92,24.428c0,0-2.715-7.935,4.093-12.2L27.126,197.203z"/>
		
			<path fill="#2A2B2E" stroke="#2A2B2E" stroke-width="2" stroke-linecap="round" stroke-linejoin="round" stroke-miterlimit="10" d="
			M25.519,195.817l-15.414,4.801l23.92,24.428c0,0-4.49-4.746,3.132-11.511L25.519,195.817z"/>
		<path fill="none" stroke="#2A2B2E" stroke-width="2" stroke-linecap="round" stroke-linejoin="round" stroke-miterlimit="10" d="
			M13.628,199.521"/>
		
			<path fill="#7C8480" stroke="#2A2B2E" stroke-width="2" stroke-linecap="round" stroke-linejoin="round" stroke-miterlimit="10" d="
			M33.056,215.893l-17.189-16.834l-5.762,1.559l23.92,24.428C34.024,225.045,32.154,220.54,33.056,215.893z"/>
		<path fill="none" stroke="#2A2B2E" stroke-width="2" stroke-linecap="round" stroke-linejoin="round" stroke-miterlimit="10" d="
			M25.753,222.578"/>
	</g>
	
		<path fill="#CDC9C0" stroke="#2A2B2E" stroke-width="2" stroke-linecap="round" stroke-linejoin="round" stroke-miterlimit="10" d="
		M22.611,194.722c0,0,1.66,0.907,2.954,1.397c0.685,0.26,1.268,0.404,1.445,0.232c0.512-0.492,2.857-1.891,2.857-1.891l-0.771-4.701
		l-1.76-1.675l-6.031-3.218L22.611,194.722z"/>
	<g>
		
			<path fill="#2A2B2E" stroke="#2A2B2E" stroke-width="2" stroke-linecap="round" stroke-linejoin="round" stroke-miterlimit="10" d="
			M31.471,193.385l3.021-15.055l0.805-9.419l23.469,39.306c0,0-3.428-6.545-15.047,0.492L31.471,193.385z"/>
		
			<path fill="#2A2B2E" stroke="#2A2B2E" stroke-width="2" stroke-linecap="round" stroke-linejoin="round" stroke-miterlimit="10" d="
			M31.116,191.523c0,0,0.549-0.514,2.525-8.958c1.889-8.068,1.654-13.653,1.654-13.653l23.469,39.306c0,0-4.779-8.142-14.689,0.979
			L31.116,191.523z"/>
		<path fill="none" stroke="#2A2B2E" stroke-width="2" stroke-linecap="round" stroke-linejoin="round" stroke-miterlimit="10" d="
			M44.548,167.251"/>
		
			<path fill="#7C8480" stroke="#2A2B2E" stroke-width="2" stroke-linecap="round" stroke-linejoin="round" stroke-miterlimit="10" d="
			M51.558,205.388l-17.066-27.058l0.805-9.419l23.469,39.306C58.765,208.217,56.514,204.105,51.558,205.388z"/>
		<path fill="none" stroke="#2A2B2E" stroke-width="2" stroke-linecap="round" stroke-linejoin="round" stroke-miterlimit="10" d="
			M65.884,201.224"/>
		<path fill="none" stroke="#2A2B2E" stroke-width="2" stroke-linecap="round" stroke-linejoin="round" stroke-miterlimit="10" d="
			M48.901,165.534"/>
	</g>
	
		<path fill="#6B4D5B" stroke="#2A2B2E" stroke-width="2" stroke-linecap="round" stroke-linejoin="round" stroke-miterlimit="10" d="
		M55.485,238.724c0,0,3.293-0.211,5.868-1.663c2.159-1.217,1.854-3.523,4.11-3.4c2.255,0.123,6.61,4.681,5.758,5.649
		c-3.576,4.064-14.295,10.293-16.716,7.311"/>
	
		<path fill="#6B4D5B" stroke="#2A2B2E" stroke-width="2" stroke-linecap="round" stroke-linejoin="round" stroke-miterlimit="10" d="
		M64.018,258.374c6.175,0.4,16.667-5.719,16.841-8.702c0.11-1.88-3.461-4.502-3.461-4.502l-17.962,7.106
		C59.436,252.276,63.239,258.323,64.018,258.374z"/>
	<path fill="none" stroke="#2A2B2E" stroke-width="2" stroke-linecap="round" stroke-linejoin="round" stroke-miterlimit="10" d="
		M171.012,201.813c0,0-3.435,9.068,7.492,10.212"/>
	
		<path fill="#6B4D5B" stroke="#2A2B2E" stroke-width="2" stroke-linecap="round" stroke-linejoin="round" stroke-miterlimit="10" d="
		M191.435,192.098c0,0,10.764-0.684,11.43,9.797c0.412,6.487-4.732,8.885-4.732,8.885s6.336,5.917,2.379,11.996
		c-3.955,6.081-13.043,1.539-13.043,1.539"/>
	<path fill="none" stroke="#2A2B2E" stroke-width="2" stroke-linecap="round" stroke-linejoin="round" stroke-miterlimit="10" d="
		M120.647,199.362c0,0,12.832-1.079,13.75,6.194"/>
	<path fill="none" stroke="#2A2B2E" stroke-width="2" stroke-linecap="round" stroke-linejoin="round" stroke-miterlimit="10" d="
		M99.104,207.577c0,0,1.357-7.402,9.781-6.305"/>
	<path fill="none" stroke="#2A2B2E" stroke-width="2" stroke-linecap="round" stroke-linejoin="round" stroke-miterlimit="10" d="
		M119.489,211.278c0,0,5.453,5.448,11.619,3.043"/>
	<path fill="none" stroke="#2A2B2E" stroke-width="2" stroke-linecap="round" stroke-linejoin="round" stroke-miterlimit="10" d="
		M103.995,216.178c0,0,9.548,1.471,11.826-4.143"/>
	<path fill="none" stroke="#2A2B2E" stroke-width="2" stroke-linecap="round" stroke-linejoin="round" stroke-miterlimit="10" d="
		M109.908,223.501c0,0,8.302,1.123,10.968-2.934c0,0,8.667,5.466,12.5,1.538"/>
	<path fill="none" stroke="#2A2B2E" stroke-width="2" stroke-linecap="round" stroke-linejoin="round" stroke-miterlimit="10" d="
		M113.78,235.261c0,0,7.143,5.917,10.549-1.083c0,0,10.766,4,12.49,0"/>
	<path fill="none" stroke="#2A2B2E" stroke-width="2" stroke-linecap="round" stroke-linejoin="round" stroke-miterlimit="10" d="
		M149.329,234.178c0,0,7.852,0,9.313-10.534"/>
	<path fill="none" stroke="#2A2B2E" stroke-width="2" stroke-linecap="round" stroke-linejoin="round" stroke-miterlimit="10" d="
		M156.968,240.054c0,0,0.213,4.524-4.092,7.756"/>
	
		<path fill="#343342" stroke="#2A2B2E" stroke-width="2" stroke-linecap="round" stroke-linejoin="round" stroke-miterlimit="10" d="
		M65.363,100.844h9.647c0,0,2.343-3,5.604-3c1.081,0,2.28,0.11,3.327,0.5c2.111,0.787,3.604,2.711,2.268,7.167
		c-2,6.667-11.07,7.667-15.035,7.667S58.851,107.844,65.363,100.844z"/>
	<path fill="#2A2B2E" d="M77.21,105.511c0,0,2.799-7.333,6.732-7.167c3.934,0.167,2.734,11.351-3.219,12.971
		C74.769,112.935,77.21,105.511,77.21,105.511z"/>
	<path fill="#2A2B2E" d="M63.34,107.93c0,0,4.347,1.113,3.185-2.986C65.363,100.844,63.136,100.35,63.34,107.93z"/>
	
		<polygon fill="#CDC9C0" stroke="#2A2B2E" stroke-width="2" stroke-linecap="round" stroke-linejoin="round" stroke-miterlimit="10" points="
		121.663,111.545 116.083,109.213 112.126,114.928 106.246,112.761 105.413,119.678 100.824,118.678 99.168,123.795 93.543,119.928 
		89.384,128.844 86.226,125.446 83.94,131.678 80.163,126.928 79.036,134.678 74.79,131.34 75.011,138.178 71.175,135.844 
		72.108,141.678 75.011,141.678 76.714,135.844 82.876,133.178 94.992,127.316 108.513,121.747 117.787,114.178 	"/>
	
		<polygon fill="#CDC9C0" stroke="#2A2B2E" stroke-width="2" stroke-linecap="round" stroke-linejoin="round" stroke-miterlimit="10" points="
		72.108,117.844 74.839,122.621 78.017,117.636 83.261,122.763 85.267,116.011 89.438,121.178 92.376,113.178 99.468,116.047 
		103.052,108.119 111.626,109.928 113.543,103.511 95.247,111.545 87.706,114.858 79.036,117.064 	"/>
	
		<path fill="#CDC9C0" stroke="#2A2B2E" stroke-width="2" stroke-linecap="round" stroke-linejoin="round" stroke-miterlimit="10" d="
		M132.751,56.379c-2.168,3.565-1.327,7.846,2.912,12.132c6.333,6.403,29.478,2.395,33.16-10.022
		c3.709-12.51-3.911-20.219-4.161-25.692s5.167-10.535,11.714-8.631c0,0-2.525-12.992-19.406-11.166
		c-8.951,0.968-15.588,10.788-16.405,17.849c-1.062,9.17,5.366,13.244,0.546,18.893C139.729,51.36,135.663,51.59,132.751,56.379z"/>
	<path fill="none" stroke="#2A2B2E" stroke-width="2" stroke-linecap="round" stroke-linejoin="round" stroke-miterlimit="10" d="
		M79.144,225.106c0,0,12.355,4.604,11.953-7.854"/>
	<g>
		
			<path fill="#7C8480" stroke="#2A2B2E" stroke-width="2" stroke-linecap="round" stroke-linejoin="round" stroke-miterlimit="10" d="
			M220.483,267.496c0.855,14.546-5.253,25.034-19.901,25.895c-9.044,0.53-14.769-9.261-15.624-23.807
			c-0.854-14.547,4.14-30.598,19.282-27.896C221.958,244.846,219.63,252.95,220.483,267.496z"/>
		
			<path fill="#913437" stroke="#2A2B2E" stroke-width="2" stroke-linecap="round" stroke-linejoin="round" stroke-miterlimit="10" d="
			M212.415,266.909c0.33,5.613-2.822,8.789-7.566,9.067c-4.745,0.278-7.6-3.151-8.479-8.706
			c-1.598-10.104,4.518-11.926,9.261-12.204S212.087,261.296,212.415,266.909z"/>
		
			<line fill="none" stroke="#2A2B2E" stroke-width="2" stroke-linecap="round" stroke-linejoin="round" stroke-miterlimit="10" x1="203.505" y1="281.196" x2="203.888" y2="287.805"/>
		
			<line fill="none" stroke="#2A2B2E" stroke-width="2" stroke-linecap="round" stroke-linejoin="round" stroke-miterlimit="10" x1="195.342" y1="275.417" x2="191.104" y2="279.603"/>
		
			<line fill="none" stroke="#2A2B2E" stroke-width="2" stroke-linecap="round" stroke-linejoin="round" stroke-miterlimit="10" x1="188.101" y1="257.557" x2="192.548" y2="259.205"/>
		
			<line fill="none" stroke="#2A2B2E" stroke-width="2" stroke-linecap="round" stroke-linejoin="round" stroke-miterlimit="10" x1="199.254" y1="245.128" x2="200.643" y2="251.681"/>
		
			<line fill="none" stroke="#2A2B2E" stroke-width="2" stroke-linecap="round" stroke-linejoin="round" stroke-miterlimit="10" x1="209.63" y1="252.097" x2="212.289" y2="248.595"/>
		
			<line fill="none" stroke="#2A2B2E" stroke-width="2" stroke-linecap="round" stroke-linejoin="round" stroke-miterlimit="10" x1="215.14" y1="264.83" x2="218.142" y2="264.654"/>
		
			<line fill="none" stroke="#2A2B2E" stroke-width="2" stroke-linecap="round" stroke-linejoin="round" stroke-miterlimit="10" x1="213.379" y1="274.332" x2="216.009" y2="279.631"/>
		
			<path fill="#202C2D" stroke="#2A2B2E" stroke-width="2" stroke-linecap="round" stroke-linejoin="round" stroke-miterlimit="10" d="
			M209.276,264.139l-1.922,0.806c-0.045,1.789-0.837,3.196-1.881,3.258c-1.151,0.067-2.186-1.528-2.305-3.573
			c-0.121-2.036,0.719-3.75,1.871-3.818c0.937-0.055,1.787,0.982,2.141,2.461L209.276,264.139z"/>
	</g>
	
		<path fill="#6B4D5B" stroke="#2A2B2E" stroke-width="2" stroke-linecap="round" stroke-linejoin="round" stroke-miterlimit="10" d="
		M78.543,157.511c0,0-0.022,0.975-2.214,4.833c-1.963,3.455-3.84,10.22-1.576,15.5c3.781,8.822,4.283,10.084,13.711,13.209
		c6.92,2.295,15.079-3.209,15.079-3.209"/>
	
		<path fill="#913437" stroke="#2A2B2E" stroke-width="2" stroke-linecap="round" stroke-linejoin="round" stroke-miterlimit="10" d="
		M79.036,179.406c0,0,6.371-1.895,10.412-7.319c2.482-3.334,4.75-13.035,0.078-21c-5.088-8.675,10.879-11.908,10.879-11.908
		l19.392-10.334l5.808-11.674c0,0,0.463-3.06-2.321-5.325c0,0-5.692,9.056-11.907,13.028c-6.213,3.971-20.937,1.65-27.271,4.098
		c-6.334,2.449-14.93,9.449-11.315,23.145c2.534,9.603,7.815,11.072,9.314,15.805C83.771,173.178,82.147,175.578,79.036,179.406z"/>
	
		<path fill="#CDC9C0" stroke="#2A2B2E" stroke-width="2" stroke-linecap="round" stroke-linejoin="round" stroke-miterlimit="10" d="
		M94.543,143.178l3.202-8.25l4.709,3.958l2.291-7.875l4.959,4.208l1.959-7l3.75,3.25l2.666-7.541l3.249,2.177
		c0,0-3.371,7.28-7.118,10.239c-3.693,2.917-20.667,10.167-20.667,10.167L94.543,143.178z"/>
	
		<path fill="#6B4D5B" stroke="#2A2B2E" stroke-width="2" stroke-linecap="round" stroke-linejoin="round" stroke-miterlimit="10" d="
		M162.613,160.178c0,0-13.206,20-1.722,27.75"/>
	
		<path fill="#6B4D5B" stroke="#2A2B2E" stroke-width="2" stroke-linecap="round" stroke-linejoin="round" stroke-miterlimit="10" d="
		M68.208,251.133c5.504-1.489,9.213-6.473,9.455-8.045s-2.371-5.104-3.58-5.969c-2.498-1.783-2.853,3.182-8.773,6.885
		c-5.559,3.477-10.221,2.824-10.221,2.824s1.826,4.514,2.882,5.09C59.028,252.496,62.702,252.624,68.208,251.133z"/>
	
		<path fill="#5A3D48" stroke="#2A2B2E" stroke-width="2" stroke-linecap="round" stroke-linejoin="round" stroke-miterlimit="10" d="
		M188.541,137.779c0,0-0.821-4.674-1.665-7.158c-0.846-2.482-4.203-11.788-4.203-11.788"/>
	
		<path fill="#5A3D48" stroke="#2A2B2E" stroke-width="2" stroke-linecap="round" stroke-linejoin="round" stroke-miterlimit="10" d="
		M113.78,241.135c0,0-4.316-4.405-4.936-9.354"/>
	
		<path fill="#5A3D48" stroke="#2A2B2E" stroke-width="2" stroke-linecap="round" stroke-linejoin="round" stroke-miterlimit="10" d="
		M98.794,219.178c0,0,1.916,1.613,4.749,1.39"/>
	
		<path fill="#6B4D5B" stroke="#2A2B2E" stroke-width="2" stroke-linecap="round" stroke-linejoin="round" stroke-miterlimit="10" d="
		M185.72,257.41c0,0-8.486-1.577-3.145-12.444"/>
	<g>
		
			<polyline fill="none" stroke="#2A2B2E" stroke-width="2" stroke-linecap="round" stroke-linejoin="round" stroke-miterlimit="10" points="
			91.322,86.442 101.476,90.668 86.718,95.418 		"/>
		
			<line fill="none" stroke="#2A2B2E" stroke-width="2" stroke-linecap="round" stroke-linejoin="round" stroke-miterlimit="10" x1="91.559" y1="90.653" x2="100.31" y2="90.115"/>
	</g>
	<g>
		
			<polyline fill="none" stroke="#2A2B2E" stroke-width="2" stroke-linecap="round" stroke-linejoin="round" stroke-miterlimit="10" points="
			129.597,96.322 116.839,90.265 131.597,85.515 		"/>
		
			<line fill="none" stroke="#2A2B2E" stroke-width="2" stroke-linecap="round" stroke-linejoin="round" stroke-miterlimit="10" x1="126.472" y1="91.287" x2="118.005" y2="90.819"/>
	</g>
</g>
</svg>
