<?xml version="1.0" encoding="utf-8"?>
<!-- Generator: Adobe Illustrator 16.0.0, SVG Export Plug-In . SVG Version: 6.00 Build 0)  -->
<!DOCTYPE svg PUBLIC "-//W3C//DTD SVG 1.1//EN" "http://www.w3.org/Graphics/SVG/1.1/DTD/svg11.dtd">
<svg version="1.1" id="Layer_1" xmlns="http://www.w3.org/2000/svg" xmlns:xlink="http://www.w3.org/1999/xlink" x="0px" y="0px"
	 width="232.667px" height="354.667px" viewBox="0 0 232.667 354.667" enable-background="new 0 0 232.667 354.667"
	 xml:space="preserve">
<path fill="none" stroke="#F3F3F3" stroke-width="8" stroke-linecap="round" stroke-linejoin="round" stroke-miterlimit="10" d="
	M216.156,252.659c0,0,13.144-3.001,8.113-15.251c-4.844-11.795-15.535-9.151-15.535-9.151s11.048-7.756,3.193-25.072
	c-5.351-11.791-16.712-4.313-16.712-4.313s6.06-8.236-0.747-12.702c-6.806-4.466-11.559,4.852-11.559,4.852s0.709-4.158-1.801-6.582
	c-2.311-2.231-4.794-1.413-6.583-0.201c-1.494-0.299-2.777-0.047-3.736,0.329c-0.23-0.323-0.499-0.672-0.799-1.032
	c1.535-3.686,3.149-11.082-7.627-12.705c6.444-9.684-3.37-13.386-3.37-13.386s8.66-3.387,4.864-12.349s-16.273-6.818-16.273-6.818
	s6.819-6.197,2.863-10.777c-3.956-4.581-14.112-0.061-14.112-0.061c9.31-11.564,3.543-17.96-2.017-23.121
	c-6.511-6.043-15.553-7.658-23.134-6.156c-1.278-8.522-9.212-13.999-14.244-15.468c-5.107-1.495-12.894-1.061-15.311,3.387
	c-1.749,3.219,5.587,5.217,9.773,6.075c-2.947-0.299-7.899-0.16-12.976,2.848c-2.141,1.269-3.43,3.112-4.178,5.132
	c-0.313-0.667-0.676-1.384-1.096-2.162c-3.396-6.299-6.482-6.738-8.403-8.814c2.057-2.624,1.438-6.752-1.412-11.227
	c-2.852-4.474-6.181-9.422-10.295-9.622c-0.011-1.506-2.264-4.725-5.141-7.897c-2.581-2.841-5.759-5.709-6.734-6.205
	c-1.078-0.55,1.173,4.944,2.93,9.364c1.607,4.046,2.644,6.971,3.598,8.129c-2.933,3.027,2.917,19.442,9.204,19.588
	c-0.792,4.713-3.074,9.153,0.225,14.809c2.384,4.088,3.432,4.115,5.922,6.192c-0.347,0.47-0.651,0.974-0.925,1.499
	c-10.983-7.34-20.763-7.485-24.972-6.51c-3.176,0.736-7.776,0.7-9.145,3.916l-0.003,0.001c-0.001,0.002,0,0.006-0.001,0.008
	c-0.094,0.22-0.172,0.454-0.233,0.706c-0.45,1.845,0.531,4.068,3.44,8.933c1.672,2.794,3.754,5.919,6.151,8.845
	c0.006,0.009,0.012,0.018,0.018,0.026c2.563,3.687,5.226,5.878,7.47,7.196c1.646,1.171,3.365,2.129,5.15,2.755
	c0.001,0.002-1.353,3.157-1.652,8.627c-0.181,3.319,1.96,9.756,1.165,12.326c-0.796,2.57-3.854,4.831-7.11,10.207
	c-2.13,3.519-4.004,7.27-4.376,10.056c-0.94,7.039,0.553,19.646,6.234,22.424c4.276,2.092,21.268,6.514,32.919,5.647
	c-1.412,4.521-2.342,10.034-0.894,14.888c3.342,11.197,5.516,11.713,5.516,11.713l1.852,2.47v1.077c0,0,1.533,9.428,0.893,18.314
	c-0.287,3.989-1.012,7.863-1.623,11.043l0,0c0,0-1.907,4.274-0.928,6.837c0.038,0.268,0.103,0.486,0.217,0.614
	c0.126,0.142,0.281,0.27,0.431,0.399c0.019,0.019,0.031,0.04,0.05,0.058c0.025,0.023,0.058,0.044,0.085,0.066
	c0.058,0.048,0.116,0.095,0.177,0.141c0.177,0.138,0.369,0.267,0.579,0.386c3.061,1.834,8.621,2.186,12.088,0.862
	c0.008-0.001,0.017-0.002,0.024-0.004c0.954-0.175,1.646-0.691,2.161-1.375c0.064-0.068,0.144-0.131,0.201-0.203
	c0.154,0.478,0.389,0.91,0.755,1.248c1.542,1.426,4.794,1.944,8.073,1.906c0.105,0,0.209,0,0.314-0.003
	c1.592-0.035,3.178-0.198,4.565-0.452c3.386-0.62,3.598-5.398,3.528-7.474c1.28-8.732,1.696-26.444,0.005-30.747
	c0,0,4.733-1.35,5.864-8.055c-0.423,3.041-1.576,7.086-4.698,8.324l0.539,4.83c0,0,6.717,1.399,12.801,1.917l-0.152-0.013
	c0,0,0.85,10.815,0.14,15.473c-0.35,0.828-2.316,5.797-0.175,7.777c1.507,1.395,4.647,1.921,7.852,1.909
	c-0.008,0.036-0.015,0.075-0.023,0.11c-0.216,0.914-0.224,1.72-0.029,2.419c0.097,0.813,0.371,1.552,0.939,2.077
	c2.34,2.164,8.615,2.245,12.954,1.451c4.339-0.795,3.468-8.439,3.468-8.439c-0.084,0.05-0.171,0.083-0.256,0.131
	c0.825-6.7,2.762-17.561,2.433-24.943c3.383-4.57,6.872-13.509,6.621-22.519c0.875-0.865,1.834-1.995,3.021-3.049
	c2.896,5.714,7.479,6.192,10.942,5.512c-5.986,3.237-7.125,9.077-1.561,16.071c6.812,8.561,15.292,2.146,15.292,2.146
	c-8.855,13.22,5.877,14.962,8.379,12.882c2.248,4.132,6.483,1.294,6.483,1.294c7.16,12.56,19.345-3.335,19.345-3.335
	C218.09,257.81,216.156,252.659,216.156,252.659z M86.214,125.381c0.028-0.161,0.051-0.322,0.062-0.486
	c0.115-0.564,0.35-1.178,0.637-1.807l0.344,0.287c-0.646,1.323-1.063,2.185-1.063,2.185
	C86.194,125.503,86.21,125.439,86.214,125.381z M99.088,238.739c0,0,1.138,9.428,0.959,20.021c-0.062,3.668-0.475,7.014-0.841,9.879
	C99.814,258.153,99.351,240.569,99.088,238.739z M121.339,230.098c0.008-0.348,0.024-0.685,0.015-1.054
	C121.354,229.044,121.363,229.445,121.339,230.098z M129.824,247.738c2.751,0.231,5.368,0.28,7.167-0.065
	c0,0-4.823-4.93-5.942-12.523c0,0,2.307,9.759,6.48,11.747c0,0,0.047,0.55,0.114,1.481c-0.016-0.101-0.474-2.998-0.185-0.01
	l0.185,0.016c0.072,0.979,0.166,2.385,0.258,4.058c-0.223-1.944-0.362-3.238-0.442-4.073L129.824,247.738z M137.779,265.602
	c0.186-1.807,0.34-3.869,0.394-6.022c0.039,2.023,0.04,4.092-0.021,6.049C138.028,265.618,137.901,265.614,137.779,265.602z"/>
<g>
	
		<path fill="#A32842" stroke="#2A2B2E" stroke-width="2" stroke-linecap="round" stroke-linejoin="round" stroke-miterlimit="10" d="
		M74.247,112.516c0,0-3.822-12.771,4.182-17.513c8.003-4.741,15.714-2.357,15.714-2.357s-14.928-2.118-12.512-6.565
		c2.417-4.447,10.203-4.882,15.311-3.387c5.032,1.469,12.966,6.945,14.244,15.468c7.581-1.502,16.623,0.113,23.134,6.156
		c5.56,5.161,11.326,11.557,2.017,23.121c0,0,10.156-4.521,14.112,0.061c3.956,4.58-2.863,10.777-2.863,10.777
		s12.478-2.144,16.273,6.818s-4.864,12.349-4.864,12.349s9.814,3.702,3.37,13.386c14.488,2.183,6.579,14.807,6.579,14.807
		s4.314-3.915,9.642,0.733c5.327,4.646-7.204,10.069-7.204,10.069s8.739,7.502-0.439,13.408c-9.934,6.393-36.6-12.209-36.6-12.209
		L120.633,158.3l-10.344-15.697L74.247,112.516z"/>
	
		<path fill="#BFA9BA" stroke="#2A2B2E" stroke-width="2" stroke-linecap="round" stroke-linejoin="round" stroke-miterlimit="10" d="
		M129.602,247.72c0,0,0.952,12.117,0,16.225s-3.241,8.955,7.262,8.147c0,0,2.08-10.59,1.04-19.637
		c-1.04-9.046-0.259-4.071-0.259-4.071L129.602,247.72z"/>
	
		<path fill="#A32842" stroke="#2A2B2E" stroke-width="2" stroke-linecap="round" stroke-linejoin="round" stroke-miterlimit="10" d="
		M138.976,204.487c0,0-2.332-21.787,16.304-26.012c11.688-2.648,16.729,8.081,16.729,8.081s4.846-6.227,9.101-2.118
		c2.51,2.424,1.801,6.582,1.801,6.582s4.753-9.317,11.559-4.852c6.807,4.466,0.747,12.702,0.747,12.702s11.361-7.478,16.712,4.313
		c7.854,17.316-3.193,25.072-3.193,25.072s10.691-2.644,15.535,9.151c5.03,12.25-8.113,15.251-8.113,15.251s1.934,5.15,9.27,2.027
		c0,0-12.185,15.895-19.345,3.335c0,0-4.235,2.838-6.483-1.294c-2.502,2.08-17.234,0.338-8.379-12.882c0,0-8.48,6.415-15.292-2.146
		c-6.81-8.561-3.585-15.393,6.288-17.839c0,0-10.513,6.434-15.67-3.744c-4.071,3.615-5.462,8.147-10.005-0.29
		C151.997,211.391,138.976,204.487,138.976,204.487z"/>
	
		<path fill="#9F7F9B" stroke="#2A2B2E" stroke-width="2" stroke-linecap="round" stroke-linejoin="round" stroke-miterlimit="10" d="
		M129.797,263.062c0,0,8.918,5.252,16.191,0.92c0,0,0.871,7.645-3.468,8.439s-10.614,0.713-12.954-1.451
		S129.797,263.062,129.797,263.062z"/>
	
		<path fill="#BFA9BA" stroke="#2A2B2E" stroke-width="2" stroke-linecap="round" stroke-linejoin="round" stroke-miterlimit="10" d="
		M81.096,199.821c0,0-7.935,13.548-4.811,24.018c3.342,11.197,5.516,11.713,5.516,11.713l1.852,2.47v1.077
		c0,0,1.533,9.428,0.893,18.314c-0.641,8.889-3.455,17.238-2.334,18.494c3.04,3.402,13.113,3.713,15.801,0.325
		c2.18-2.749,1.437-34.979,1.076-37.493c0,0-5.181-2.422-7.182-8.168c0,0,1.796,6.193,7.182,8.168c0,0,1.138,9.428,0.959,20.021
		c-0.179,10.592-3.294,18.587,0.298,19.662c3.591,1.075,12.389,2.512,14.185-3.413s2.694-29.268,0.719-34.294
		c0,0,6.373-1.796,6.105-11.672c0,0,0.268,9.876-4.939,11.941l0.539,4.83c0,0,14.248,2.969,20.038,1.857
		c0,0-4.823-4.93-5.942-12.523c0,0,2.307,9.759,6.48,11.747c0,0,1.598,18.775-0.135,26.093c-0.837,3.54,1.396,5.478,6.757,5.747
		c5.36,0.269,9.519,0.492,10.058-5.702s3.066-19.001,2.694-27.35c7.134-9.638,14.771-38.694-13.288-46.894
		c-3.979-1.163-6.083-6.062-8.322-8.708c-1.975-2.334-4.914-11.941-5.836-17.236c-4.643-26.67-17.168-45.566-17.168-45.566
		L81.096,199.821z"/>
	
		<path fill="#BFA9BA" stroke="#2A2B2E" stroke-width="2" stroke-linecap="round" stroke-linejoin="round" stroke-miterlimit="10" d="
		M128.691,170.57c-4.224-19.383-12.202-36.251-12.202-36.251l-3.92,5.944c1.881-2.894,4.049-5.835,4.849-7.628
		c1.48-3.323,4.41-11.436,5.486-16.076c1.831-7.893,2.131-11.616,0.813-13.144c-1.318-1.526-10.938-0.629-14.713-0.019
		c-8.41,1.357-16.497,9.339-18.797,13.973c-2.038,4.108-4.014,8.189-4.014,8.189c0.073-3.227,5.504-8.852,2.391-9.021
		c-4.86-0.265-2.276-1.345-20.324,2.051c-13.346-12.052-26.128-12.465-31.108-11.311c-3.396,0.787-8.422,0.689-9.382,4.631
		c-0.45,1.845,0.531,4.068,3.44,8.933c4.177,6.98,10.882,16.051,18.789,18.822c0.001,0.002-1.353,3.157-1.652,8.627
		c-0.181,3.319,1.96,9.756,1.165,12.326c-0.796,2.57-3.854,4.831-7.11,10.207c-2.13,3.519-4.004,7.27-4.376,10.056
		c-0.94,7.039,0.553,19.646,6.234,22.424s33.807,9.675,42.035,2.813c8.229-6.863,11.611-16.993,11.611-16.993"/>
	
		<path fill="#E2DEE7" stroke="#2A2B2E" stroke-width="2" stroke-linecap="round" stroke-linejoin="round" stroke-miterlimit="10" d="
		M74.088,133.237c7.605-1.801,13.221-5.267,12.057-9.798c-1.162-4.533-3.738-11.604-10.619-13.294
		c0.737-3.561,1.026-5.873-2.37-12.173c-3.396-6.299-6.482-6.738-8.403-8.814c2.057-2.624,1.438-6.752-1.412-11.227
		c-2.852-4.474-6.181-9.422-10.295-9.622c-0.011-1.506-2.264-4.725-5.141-7.897c-2.581-2.841-5.759-5.709-6.734-6.205
		c-1.078-0.55,1.173,4.944,2.93,9.364c1.607,4.046,2.644,6.971,3.598,8.129c-2.933,3.027,2.917,19.442,9.204,19.588
		c-0.792,4.713-3.074,9.153,0.225,14.809c2.384,4.088,3.432,4.115,5.922,6.192c-3.095,4.187-3.276,10.841-0.611,15.887
		C65.1,133.224,71.911,133.752,74.088,133.237z"/>
	
		<path fill="#BFA9BA" stroke="#2A2B2E" stroke-width="2" stroke-linecap="round" stroke-linejoin="round" stroke-miterlimit="10" d="
		M48.016,172.509c0,0,1.279-2.56,3.699-1.848c2.417,0.711,2.701,2.844,2.701,2.844"/>
	
		<path fill="#BFA9BA" stroke="#2A2B2E" stroke-width="2" stroke-linecap="round" stroke-linejoin="round" stroke-miterlimit="10" d="
		M60.648,175.019c0,0,1.378-2.652,3.795-1.94c2.42,0.711,2.605,2.937,2.605,2.937"/>
	
		<path fill="#9F7F9B" stroke="#2A2B2E" stroke-width="2" stroke-linecap="round" stroke-linejoin="round" stroke-miterlimit="10" d="
		M82.922,268.456c0,0,8.918,5.252,16.191,0.92c0,0,0.871,7.646-3.469,8.439c-4.338,0.795-10.613,0.713-12.953-1.451
		C80.352,274.201,82.922,268.456,82.922,268.456z"/>
	
		<path fill="#9F7F9B" stroke="#2A2B2E" stroke-width="2" stroke-linecap="round" stroke-linejoin="round" stroke-miterlimit="10" d="
		M98.992,269.576c0,0,8.918,5.253,16.19,0.921c0,0,0.871,7.645-3.468,8.439c-4.338,0.794-10.613,0.713-12.953-1.451
		S98.992,269.576,98.992,269.576z"/>
	
		<path fill="#9F7F9B" stroke="#2A2B2E" stroke-width="2" stroke-linecap="round" stroke-linejoin="round" stroke-miterlimit="10" d="
		M138.535,269.576c0,0,8.918,5.253,16.191,0.921c0,0,0.871,7.645-3.468,8.439c-4.339,0.794-10.614,0.713-12.954-1.451
		S138.535,269.576,138.535,269.576z"/>
	
		<path fill="#BFA9BA" stroke="#2A2B2E" stroke-width="2" stroke-linecap="round" stroke-linejoin="round" stroke-miterlimit="10" d="
		M49.999,139.664c0,0,4.274-11.306,11.452-11.566"/>
	
		<path fill="#9F7F9B" stroke="#2A2B2E" stroke-width="2" stroke-linecap="round" stroke-linejoin="round" stroke-miterlimit="10" d="
		M28.004,111.195c0,0,12.419-2.546,20.11,5.151c7.691,7.696,10.014,12.206,10.014,12.206s-6.29,5.068-7.801,10.325
		c0,0-6.778-0.293-12.948-9.165C31.21,120.842,27.515,112.024,28.004,111.195z"/>
	
		<path fill="#9F7F9B" stroke="#2A2B2E" stroke-width="2" stroke-linecap="round" stroke-linejoin="round" stroke-miterlimit="10" d="
		M120.007,108.555c0,0-0.515,9.017-5.584,18.646c-3.364,6.387-6.361,9.199-6.361,9.199s-0.399-2.527-3.749-4.885
		c-2.196-1.545-9.861-2.196-12.76-0.883c0,0,0.03-4.298,6.459-12.981C104.441,108.966,113.468,107.222,120.007,108.555z"/>
	<g>
		
			<polyline fill="none" stroke="#2A2B2E" stroke-width="1.5" stroke-linecap="round" stroke-linejoin="round" stroke-miterlimit="10" points="
			54.403,153.503 61.665,157.794 53.4,159.753 		"/>
		
			<line fill="none" stroke="#2A2B2E" stroke-width="1.5" stroke-linecap="round" stroke-linejoin="round" stroke-miterlimit="10" x1="54.887" y1="156.728" x2="60.578" y2="157.098"/>
	</g>
	<g>
		
			<polyline fill="none" stroke="#2A2B2E" stroke-width="1.5" stroke-linecap="round" stroke-linejoin="round" stroke-miterlimit="10" points="
			87.135,160.589 76.93,157.495 86.947,152.528 		"/>
		
			<line fill="none" stroke="#2A2B2E" stroke-width="1.5" stroke-linecap="round" stroke-linejoin="round" stroke-miterlimit="10" x1="85.595" y1="156.755" x2="78.165" y2="157.87"/>
	</g>
</g>
</svg>
