<?xml version="1.0" encoding="utf-8"?>
<!-- Generator: Adobe Illustrator 16.0.0, SVG Export Plug-In . SVG Version: 6.00 Build 0)  -->
<!DOCTYPE svg PUBLIC "-//W3C//DTD SVG 1.1//EN" "http://www.w3.org/Graphics/SVG/1.1/DTD/svg11.dtd">
<svg version="1.1" id="Layer_1" xmlns="http://www.w3.org/2000/svg" xmlns:xlink="http://www.w3.org/1999/xlink" x="0px" y="0px"
	 width="198.667px" height="169.333px" viewBox="0 0 198.667 169.333" enable-background="new 0 0 198.667 169.333"
	 xml:space="preserve">
<path fill="none" stroke="#F3F3F3" stroke-width="8" stroke-linecap="round" stroke-linejoin="round" stroke-miterlimit="10" d="
	M170.649,91.932c2.111-0.784,4.641-4.163,2.114-6.947c-2.889-3.186-7.562,1.242-7.562,1.242c-0.578-2.741-1.753-4.255-4.031-4.156
	c-0.415-9.757-2.861-19.264-2.861-19.264c-5.556-13.112-13.877-18.45-21.408-20.338c2.84-8.327-2.547-13.741-2.656-12.854
	c-0.165,1.33-7.918,7.105-19.951,1.598c-2.083-0.953-4.12-1.604-6.107-2.02c4.169-10.938-5.247-13.619-5.247-13.619
	c-3.814,9.343-24.61,1.809-39.054,12.355c-13.22,9.653-14.843,21.001-15.005,24.699c-0.59,0.123-1.312,0.396-2.269,0.876
	c-0.848,0.425-1.865,1.018-2.968,1.751c-3.3,1.827-7.161,4.828-9.89,9.609c-1.163,1.806-2.026,3.725-2.379,5.692
	c-0.003,0.017-0.006,0.036-0.009,0.054c-0.159,0.566-0.308,1.145-0.435,1.745c-1.438,6.777-1.608,13.595-0.931,19.331
	c0.196,2.82,0.62,5.272,1.373,6.924c1.337,4.496,3.323,7.44,5.558,7.745c0,0-0.749,0.076-1.672,0.601
	c-1.571,0.416-2.499,1.535-3.226,3.325c-0.082,0.202-0.119,0.388-0.131,0.565c-1.163,2.358-1.488,5.814,0.778,10.759
	c0.203,0.443,0.436,0.86,0.683,1.263c0.104,0.192,0.208,0.365,0.311,0.491c0.01,0.012,0.029,0.03,0.04,0.043
	c1.551,2.252,3.777,3.831,6.316,4.897c1.937,3.756,5.937,9.819,11.277,9.007c0,0-2.375,1.5-2.105,3.289
	c0.3,1.977,4.687,2.211,11.105-0.205c0,0-4.492,4.467,1.914,4.295c7.694-0.205,12.419-1.045,12.586-3.379
	c0,0,50.065,2.471,50.5,1.166c1.083-3.25,4.5-6.332,4.5-6.332c-9,8.832,0.833,7.166,0.833,7.166
	c10.333-0.166,10.399-5.451,13.333-9.666c1.877-2.697,7.213-13.816,11.421-24.701c0.019,0.011,0.037,0.026,0.056,0.037
	c2.165,1.273,4.813-3.641,4.813-3.641c-0.188,2.266,0.958,4.193,3.625,3.813c3.938-0.563,3.275-3.98,3.275-3.98
	c2.6,2.48,5.81,0.891,6.393-1.587c0.6-2.548-1.712-4.601-1.23-4.472c4.265,1.13,4.625-3.461,4.625-3.461
	C176.802,91.108,172.388,91.572,170.649,91.932z"/>
<g>
	<g>
		<path fill="#BDBCC4" d="M48.877,53.867c0,0-1.034-14.223,15.009-25.938c14.443-10.547,35.239-3.013,39.054-12.355
			c0,0,17.857,5.077-6.479,29.794c0,0-5.021,8.046-13.284,10.946C83.176,56.314,55.311,74.634,48.877,53.867"/>
		<path fill="none" stroke="#2A2B2E" stroke-width="2" stroke-linecap="round" stroke-linejoin="round" stroke-miterlimit="10" d="
			M48.877,53.867c0,0-1.034-14.223,15.009-25.938c14.443-10.547,35.239-3.013,39.054-12.355c0,0,17.857,5.077-6.479,29.794
			c0,0-5.021,8.046-13.284,10.946C83.176,56.314,55.311,74.634,48.877,53.867z"/>
	</g>
	
		<path fill="#EFEEEE" stroke="#2A2B2E" stroke-width="2" stroke-linecap="round" stroke-linejoin="round" stroke-miterlimit="10" d="
		M158.534,88.393c0,0-1.423-5.492,1.5-6.166c3.043-0.703,4.5,0.834,5.168,4c0,0,4.673-4.428,7.562-1.242
		c2.813,3.102-0.646,6.951-2.812,7.117c0,0,6.813-2.109,7,3.547c0,0-0.36,4.591-4.625,3.461c-0.481-0.129,1.83,1.924,1.23,4.472
		c-0.583,2.478-3.793,4.067-6.393,1.587c0,0,0.662,3.418-3.275,3.98c-2.667,0.381-3.813-1.547-3.625-3.813
		c0,0-2.647,4.914-4.813,3.641c-2.168-1.273-4.685-5.799-3-6.875c1.684-1.076,1.014-8.541,1.014-8.541L158.534,88.393z"/>
	<path fill="#BDBCC4" stroke="#2A2B2E" stroke-width="2" stroke-linejoin="round" stroke-miterlimit="10" d="M38.733,125.463
		c0,0,4.909,13.01,12.576,11.844c0,0-2.375,1.5-2.105,3.289c0.3,1.977,4.687,2.211,11.105-0.205c0,0-4.492,4.467,1.914,4.295
		c7.694-0.205,12.419-1.045,12.586-3.379c0,0,50.065,2.471,50.5,1.166c1.083-3.25,4.5-6.332,4.5-6.332
		c-9,8.832,0.833,7.166,0.833,7.166c10.333-0.166,10.399-5.451,13.333-9.666c3.03-4.355,15.084-30.668,16.834-42.5
		c1.75-11.834-2.5-28.334-2.5-28.334c-12.5-29.5-39-19.666-39-19.666L38.733,125.463z"/>
	<path fill="#BDBCC4" d="M82.183,47.356c0,0-24.54,10.977-28.064,8.5c-3.525-2.477-2.994-4.617-7.506-2.352
		c-4.515,2.264-13.843,9.275-15.236,17.053c-1.395,7.775-2.555,22.459,0,28.057c2.556,5.6,5.557,7.742,5.557,7.742
		s-3.38,0.316-4.648,4.656c-1.267,4.34,0.164,10.84,1.392,12.348c1.228,1.51,9.771,8.1,17.999,6.857
		c8.229-1.244,10.258-2.361,10.258-2.361s20.291,5.9,24.02,1.576c0,0,9.23-2.826,10.48-8.326c0,0,17.25-3.098,19.25-17.924
		s4.5-37.076,2-41.326s-6.5-9.205-10.5-8.352c-4,0.852-15.117-2.148-15.117-2.148l-5.008-4H82.183z"/>
	<path fill="#C54881" d="M106.289,113.069c0,2.578-2.358,4.5-5.545,4.5s-5.488-0.201-5.488-2.779c0-2.576,2.527-4.91,5.714-4.91
		S106.289,110.493,106.289,113.069"/>
	<path fill="none" stroke="#2A2B2E" stroke-width="2" stroke-miterlimit="10" d="M106.289,113.069c0,2.578-2.358,4.5-5.545,4.5
		s-5.488-0.201-5.488-2.779c0-2.576,2.527-4.91,5.714-4.91S106.289,110.493,106.289,113.069z"/>
	<path fill="#C54881" d="M41.679,110.711c0,2.072-2.454,3.014-5.016,3.014s-5.158-0.793-4.377-2.713
		c0.937-2.307,2.193-3.516,4.754-3.516C39.603,107.497,41.679,108.639,41.679,110.711"/>
	<path fill="none" stroke="#2A2B2E" stroke-width="2" stroke-miterlimit="10" d="M41.428,109.981c0,2.072-2.454,3.014-5.016,3.014
		s-5.158-0.793-4.377-2.713c0.937-2.307,2.193-3.516,4.754-3.516C39.352,106.766,41.428,107.909,41.428,109.981z"/>
	<path fill="none" stroke="#2A2B2E" stroke-width="2" stroke-linecap="round" stroke-linejoin="round" stroke-miterlimit="10" d="
		M50.199,52.653c0,0-15.767,3.203-19.267,19.703s0.5,33.25,6,34c0,0-9.75,3.25-4.25,15.25s27.5,8.75,29.25,6.25
		c0,0,28,8.75,34.5-6.75"/>
	<path fill="#2A2B2E" d="M60.452,107.793c0,0,1.75-0.313,2.375,1.375c0,0,1.875-1.672,2.5-1.398s0.125,1.273-0.438,2.336
		s-1.719,3.375-1.719,3.375l-1.656-2.871C61.515,110.61,60.266,108.793,60.452,107.793"/>
	
		<path fill="#BDBCC4" stroke="#2A2B2E" stroke-width="2" stroke-linecap="round" stroke-linejoin="round" stroke-miterlimit="10" d="
		M78.141,51.379"/>
	
		<path fill="#BDBCC4" stroke="#2A2B2E" stroke-width="2" stroke-linecap="round" stroke-linejoin="round" stroke-miterlimit="10" d="
		M105.14,25.295"/>
	
		<path fill="#BDBCC4" stroke="#2A2B2E" stroke-width="2" stroke-linecap="round" stroke-linejoin="round" stroke-miterlimit="10" d="
		M79.06,49.782"/>
	<g>
		
			<path fill="#BDBCC4" stroke="#2A2B2E" stroke-width="2" stroke-linecap="round" stroke-linejoin="round" stroke-miterlimit="10" d="
			M73.11,46.293c0,0,17.911-25.735,41.184-15.081c12.033,5.508,19.786-0.268,19.951-1.598c0.164-1.33,12.223,11.5-9.441,27.091
			c-10.155,7.309-22.925,0.66-31.697,2.361"/>
	</g>
	<g>
		
			<polyline fill="none" stroke="#2A2B2E" stroke-width="1.5" stroke-linecap="round" stroke-linejoin="round" stroke-miterlimit="10" points="
			39.765,99.292 52.522,105.349 43.825,108.148 		"/>
		
			<line fill="none" stroke="#2A2B2E" stroke-width="1.5" stroke-linecap="round" stroke-linejoin="round" stroke-miterlimit="10" x1="44.032" y1="104.794" x2="51.356" y2="104.794"/>
	</g>
	<g>
		
			<polyline fill="none" stroke="#2A2B2E" stroke-width="1.5" stroke-linecap="round" stroke-linejoin="round" stroke-miterlimit="10" points="
			94.15,109.567 80.503,105.934 94.148,98.577 		"/>
		
			<line fill="none" stroke="#2A2B2E" stroke-width="1.5" stroke-linecap="round" stroke-linejoin="round" stroke-miterlimit="10" x1="90.161" y1="105.185" x2="81.751" y2="106.267"/>
	</g>
</g>
</svg>
