<?xml version="1.0" encoding="utf-8"?>
<!-- Generator: Adobe Illustrator 16.0.0, SVG Export Plug-In . SVG Version: 6.00 Build 0)  -->
<!DOCTYPE svg PUBLIC "-//W3C//DTD SVG 1.1//EN" "http://www.w3.org/Graphics/SVG/1.1/DTD/svg11.dtd">
<svg version="1.1" id="Layer_1" xmlns="http://www.w3.org/2000/svg" xmlns:xlink="http://www.w3.org/1999/xlink" x="0px" y="0px"
	 width="232.667px" height="354.667px" viewBox="0 0 232.667 354.667" enable-background="new 0 0 232.667 354.667"
	 xml:space="preserve">
<g>
	<path fill="none" stroke="#F3F3F3" stroke-width="8" stroke-linecap="round" stroke-linejoin="round" stroke-miterlimit="10" d="
		M144.019,257.941c0.246-0.222,0.469-0.51,0.672-0.844C144.241,257.559,144.019,257.941,144.019,257.941z"/>
	<path fill="none" stroke="#F3F3F3" stroke-width="8" stroke-linecap="round" stroke-linejoin="round" stroke-miterlimit="10" d="
		M207.903,155.197c-0.625-1.875-6.625-6.75-18.875-6c-3.063,0.188-5.5,0.523-7.434,0.922c-0.061,0.013-0.113,0.025-0.173,0.038
		l7.606-1.802l0.917-8.117c0,0-0.292-1.194-2.398-2.659c0.517-0.381,0.887-0.747,1.048-1.089c1.939-4.11-7.559-15.435-12.817-24.415
		c-5.26-8.98-12.618-8.426-14.552-7.711s-18.4-0.374-21.094,0.173c-0.432,0.088-0.793,0.322-1.114,0.656l-21.917-6.858
		c0,0-5.506-4.619-9.67-3.287l-2.563-1.446c0,0,0.332-2.168-1.677-2.244c0.16-0.482,0.209-0.898,0.104-1.219
		c-0.667-1.999-2.396-2.904-3.525-3.296c-0.242-1.992-0.695-6.071-0.971-10.636c-0.041-0.684-0.162-1.29-0.32-1.856
		c0.59-0.35,1.213-0.703,1.869-1.028c2.788-1.384,6.347-1.843,8.667-3.063c0.655-0.345,0.567-0.983,0.023-1.748
		c1.687-1.718,0.201-5.021,0.059-8.088c-0.153-3.293,0.432-4.644,0.699-6.131c0,0-4.488,3.296-8.397,4.587
		c-2.264,0.748-3.533,2.54-4.236,4.136c-3.59,0.808-6.435,3.296-7.733,4.612c-1.831-0.554-5.589-0.338-11.173,7.819
		c-4.197,6.132-1.307,13.78,1.462,18.666c-0.24,0.496-0.423,1.023-0.533,1.588c-1.676,8.597,12.452,9.125,12.452,9.125
		s0.786,2.079,3.092,1.044l5.414,1.298c0.123,1.597,1.359,2.484,4.642,1.749c0,0,5.181,3.703,10.37,7.147
		c-1.141,2.78-3.104,6.73-5.127,6.927c0,0,1.91,1.02,3.435,2.086c1.523,1.066,2.813,3.248,2.813,3.248s-0.104-4.972,1.548-10.516
		c3.537,2.271,6.637,4.078,7.511,4.047c0.947-0.033,3.453,0.23,6.096,0.558c-0.221,1.486,0.651,2.691,4.149,2.867
		c6.656,0.336,11.316,8.57,14.152,13.038c0.806,1.268,2.116,2.967,3.329,4.47c-1.546,1.61-2.595,3.325-2.447,4.95l6.598,4.939
		c-2.734-1.949-9.82-6.397-16.931-5.855c-9.84,0.75-21.455,1.375-23.455,10.875s3.519,12.996,9.148,12.496
		c5.136-0.457-0.318-10.15,4.557-11.948c0,0-3.375,6.361,2.75,7.611c0,0,4-1.034,2.375-5.409c0,0,6.375,7,6.875-1
		c0,0,1.875-2.779,7.25-1.202c1.661,0.487,2.938,0.739,3.913,0.856l-4.038,0.221c0,0-4.75,6.25-5.25,9.625
		c-0.202,1.364-0.24,2.724-0.214,3.865c-3.068,3.032-7.19,7.099-10.718,10.553c-2.729-6.946-2.387-12.899-2.387-12.899
		s-6.394,2.05-5.324,8.887c0.279,1.79,0.623,3.784,0.836,5.789l0,0l0,0c0.17,1.594,0.259,3.194,0.166,4.704
		c-0.007,0.007-0.016,0.016-0.022,0.021c-1.811,1.663-11.541,2.686-20.313,3.28c0.232-1.405,0.332-3.057,0.281-5.074
		c-0.012-0.445-0.029-0.9-0.052-1.362c0,0,0-0.001,0-0.002h-0.001c-0.137-2.737-0.508-5.72-1.29-8.498
		c-0.002-0.007,0.001-0.018-0.001-0.023l-0.005,0.002c-1.288-4.562-3.7-8.56-8.109-9.952c-7.556-2.386-12.11,0.027-10.592,10.394
		c0,0,2.954-4.455,5.698-4.193l0.098,2.093c0.481-0.569,0.869-1.092,1.182-1.573c0.318,0.245,0.627,0.581,0.92,1.03
		c0.307,0.473,0.537,1.055,0.71,1.7c-0.136,0.117-0.239,0.244-0.271,0.401l0.3-0.308c1.31,5.165-1.688,14.981-10.419,18.89
		c-1.096,0.49-2.902,2.766-1.773,3.173l-2.262,0.729c-1.755-0.383-2.979-0.566-3.4-0.446c-2.205,0.625-10.279,15.256-12.256,22.679
		c-0.937,3.515-11.096,8.02-11.141,8.04l-0.024,0.007c-1.487-1.454-3.474-1.977-6.075-1.771c0,0-12.616,8.464-11.042,20.625
		c0.257,1.989,1.794,3.758,4.173,5.327c-1.643-0.291-3.056-0.52-3.056-0.52s-2.742,4.849,1.946,6.267
		c1.244,0.376,2.216,0.595,2.981,0.72c-2.165,1.845-4.121,3.524-5.727,4.907c-0.007-0.001-4.119-0.557-3.563,3.08
		c-0.51,0.442-0.803,0.697-0.803,0.697s1.947,0.618,5.128,1.571c-2.758-0.726-4.413-1.175-4.413-1.175s-3.463,8.49-1.988,10.056
		s1.922,4.457,2.031,9.065c0.107,4.608,4.215-0.695,4.215-0.695s9.086,6.893,9.193,11.501c0.109,4.608,3.463-8.49,6.648-9.134
		c0,0-1.314,4.072,0.498,3.921c1.814-0.151,1.964,1.025,5.971-5.063c0,0,2.666-2.531,0.867,3.994c0,0-0.311,3.506,1.377,2.056
		c0,0-1.776,5.765,0.209,5.393c1.984-0.372,2.389-5.644,2.389-5.644s2.648,0.142,3.333-0.742c0.685-0.885,0.802-3.41,1.906-2.555
		c1.105,0.855-0.185,4.806-0.185,4.806s-3.935,5.721,0.676,6.25c0,0,4.29,0.211,3.909-5.599c0,0,2.589-4.075,4.063-3.146
		c1.474,0.928,0.65,5.734,1.949,5.609s3.275-4.322,3.075-5.891c-0.199-1.568,3.607,1.732,7.063,1.014
		c3.455-0.718,30.868-20.146,33.041-24.049c1.082-1.942,3.299-6.278,4.562-10.062v0.001c0,0,14.63-13.541,15.463-13.886
		c0.293-0.121,1.399-1.452,2.853-3.27c0.008,0.763,0.056,9.215-1.996,12.586c0.986-1.012,3.063-2.4,6.271-0.96l5.308,0.555
		c0,0-5.435-6.639-6.525-16.031c2.086-2.624,4.277-5.33,5.777-6.879c3.522-3.637,4.828-11.533,4.828-11.533
		s3.158-3.454,8.771-11.418c-0.056,2.326-0.38,8.898-2.274,10.82c0,0,2.626-1.344,6.403,0.383l3.585,0.379
		c0,0-4.204-6.813-5.168-15.266c0.201-0.296,0.395-0.577,0.601-0.883c2.406-3.573,3.261-7.426,3.312-11.021
		c0.815-1.408,1.781-2.937,2.451-3.546c1.375-1.25,2.625-5.875,2.625-5.875l-1-7.375l6.292-17.041l-5.917,2.832l-2-2.832
		c-1.072,0.421-5.188,0.541-8.25,0.541l8.769-0.744l1.481,3.035c0,0,1.435-0.707,5.917-2.832c0,0,0.501,9.007,3.416,6.041
		c3.026-3.078,2.417-6.416,2.292-11.125c0,0,6.669,15.961,11.292,15.584C212.111,171.156,208.528,157.072,207.903,155.197z
		 M126.927,253.059c-0.218-0.172-1.072-0.485-2.398-0.903c0.319-0.313,0.614-0.634,0.882-0.965
		C126.041,251.654,126.532,252.31,126.927,253.059z M46.291,257.692c0.056,0.022,0.11,0.046,0.166,0.068
		c-0.001,0.233,0.004,0.478,0.028,0.734c-0.11,0.093-0.223,0.188-0.332,0.28C46.215,258.404,46.264,258.036,46.291,257.692z
		 M85.431,282.252c0.335,0.016,0.668,0.03,0.99,0.038C86.086,282.291,85.758,282.273,85.431,282.252z M127.131,254.928
		c0,0-6.661,7.487-15.364,14.631c8.736-7.507,15.357-15.671,15.209-16.413c0.28,0.549,0.506,1.146,0.688,1.766
		C127.499,254.901,127.323,254.904,127.131,254.928z M179.931,150.511c-0.023,0.007-0.049,0.013-0.071,0.019l0.006-0.003
		L179.931,150.511z"/>
</g>
<g>
	
		<path fill="#6AA46D" stroke="#2A2B2E" stroke-width="2" stroke-linecap="round" stroke-linejoin="round" stroke-miterlimit="10" d="
		M144.019,257.941c0,0,2.271-3.901,6.942-1.804l5.308,0.555c0,0-7.47-9.086-6.669-21.055l-2.914,8.813
		C146.686,244.45,146.872,255.376,144.019,257.941z"/>
	
		<path fill="#6AA46D" stroke="#2A2B2E" stroke-width="2" stroke-linecap="round" stroke-linejoin="round" stroke-miterlimit="10" d="
		M166.845,221.651c0,0,2.626-1.344,6.403,0.383l3.585,0.379c0,0-5.997-9.678-5.322-20.287l-2.38,7.875
		C169.131,210.001,169.16,219.303,166.845,221.651z"/>
	
		<path fill="#6AA46D" stroke="#2A2B2E" stroke-width="2" stroke-linecap="round" stroke-linejoin="round" stroke-miterlimit="10" d="
		M110.026,122.99c0,0,1.91,1.02,3.435,2.086c1.523,1.066,2.813,3.248,2.813,3.248s-0.257-11.848,6.106-19.36l-6.221,4.397
		C116.159,113.361,113.16,122.687,110.026,122.99z"/>
	
		<path fill="#97BD5F" stroke="#2A2B2E" stroke-width="2" stroke-linecap="round" stroke-linejoin="round" stroke-miterlimit="10" d="
		M96.325,65.973c0,0,0.574-5.608,5.072-7.094c3.909-1.291,8.397-4.587,8.397-4.587c-0.268,1.487-0.853,2.838-0.699,6.131
		c0.153,3.298,1.865,6.874-0.493,8.452C107.058,69.907,99.981,67.878,96.325,65.973z"/>
	
		<path fill="#6AA46D" stroke="#2A2B2E" stroke-width="2" stroke-linecap="round" stroke-linejoin="round" stroke-miterlimit="10" d="
		M88.657,68.463c0,0,4.567-5.59,10.586-5.709c3-0.06,12.413,6.114,9.771,7.505c-2.32,1.221-5.879,1.68-8.667,3.063
		c-3.338,1.654-5.836,4.052-7.351,2.778C90.214,73.763,87.274,69.157,88.657,68.463z"/>
	
		<path fill="#97BD5F" stroke="#2A2B2E" stroke-width="2" stroke-linecap="round" stroke-linejoin="round" stroke-miterlimit="10" d="
		M83.007,98.996c0,0-11.479-13.723-4.752-23.55s10.807-8.13,12.056-7.445c1.25,0.686,8.078,1.421,8.487,8.206
		c0.388,6.434,1.133,11.927,1.133,11.927S86.275,101.451,83.007,98.996z"/>
	
		<path fill="#6AA46D" stroke="#2A2B2E" stroke-width="2" stroke-linecap="round" stroke-linejoin="round" stroke-miterlimit="10" d="
		M91.636,104.825c0,0-14.128-0.528-12.452-9.125s19.54-9.132,19.54-9.132s3.545,0.497,4.57,3.57
		C104.317,93.213,91.636,104.825,91.636,104.825z"/>
	
		<path fill="#97BD5F" stroke="#2A2B2E" stroke-width="2" stroke-linecap="round" stroke-linejoin="round" stroke-miterlimit="10" d="
		M108.83,95.837l-3.963-2.235c0,0,0.485-3.098-3.112-2.032s-12.586,9.065-10.119,13.256c0,0,0.786,2.079,3.092,1.044l5.955,1.428
		l3.111-2.789L108.83,95.837z"/>
	
		<path fill="#6AA46D" stroke="#2A2B2E" stroke-width="2" stroke-linecap="round" stroke-linejoin="round" stroke-miterlimit="10" d="
		M117.101,98.335c0,0-8.141-6.837-12.111-1.491c-2.521,3.396-9.441,14.142-0.206,12.072c0,0,18.216,13.022,20.549,12.939
		c2.334-0.083,14.125,1.645,14.125,1.645s1.624-5.631,3.869-7.485c2.244-1.854,7.732-7.053,7.732-7.053L117.101,98.335z"/>
	
		<path fill="#97BD5F" stroke="#2A2B2E" stroke-width="2" stroke-linecap="round" stroke-linejoin="round" stroke-miterlimit="10" d="
		M155.966,146.271c0,0-4.413-5.082-6.236-7.952c-2.836-4.468-7.496-12.702-14.152-13.038c-8.199-0.412-1.996-6.473-1.008-8.593
		c2.717-5.826,2.869-11.604,5.563-12.15s19.16,0.542,21.094-0.173s9.292-1.27,14.552,7.711c5.259,8.98,14.757,20.305,12.817,24.415
		C186.656,140.602,156.56,148.116,155.966,146.271z"/>
	
		<path fill="#6AA46D" stroke="#2A2B2E" stroke-width="2" stroke-linecap="round" stroke-linejoin="round" stroke-miterlimit="10" d="
		M158.403,153.572c0,0-9.06-7.441-18.125-6.75c-9.84,0.75-21.455,1.375-23.455,10.875s3.519,12.996,9.148,12.496
		c5.136-0.457-0.318-10.15,4.557-11.948c0,0-3.375,6.361,2.75,7.611c0,0,4-1.034,2.375-5.409c0,0,6.375,7,6.875-1
		c0,0,1.875-2.779,7.25-1.202s6.75,0.702,6.75,0.702l-6.875,0.375c0,0-4.75,6.25-5.25,9.625s0,6.75,0,6.75l4.375,1.25l25.25,15.375
		v5.75c0,0,2.625-5.125,4-6.375s2.625-5.875,2.625-5.875l-1-7.375l6.292-17.041l-5.917,2.832l-2-2.832
		c-1.072,0.421-5.188,0.541-8.25,0.541l8.769-0.744l1.481,3.035c0,0,1.435-0.707,5.917-2.832c0,0,0.501,9.007,3.416,6.041
		c3.026-3.078,2.417-6.416,2.292-11.125c0,0,6.669,15.961,11.292,15.584c9.166-0.75,5.583-14.834,4.958-16.709s-6.625-6.75-18.875-6
		c-3.063,0.188-5.5,0.523-7.434,0.922c-5.801,1.195-7.066,2.953-7.066,2.953l5.337-2.546l9.163-2.171l0.917-8.117
		c0,0-0.792-3.416-9.917-5.791s-16.75,1.25-16.75,1.25s-13.167,6.541-12.667,12.041L158.403,153.572z"/>
	
		<path fill="#97BD5F" stroke="#2A2B2E" stroke-width="2" stroke-linecap="round" stroke-linejoin="round" stroke-miterlimit="10" d="
		M172.072,180.989c0,0,7.768,14.03,0.193,25.275c-7.574,11.244-11.917,15.984-11.917,15.984s-1.306,7.896-4.828,11.533
		c-3.522,3.636-10.854,13.654-11.687,13.999s-15.463,13.886-15.463,13.886s0.527-9.049-3.693-10.902s-33.132-56.896-33.132-56.896
		s31.77-0.855,35.194-4.001s21.966-21.524,21.966-21.524S169.22,173.498,172.072,180.989z"/>
	
		<path fill="#6AA46D" stroke="#2A2B2E" stroke-width="2" stroke-linecap="round" stroke-linejoin="round" stroke-miterlimit="10" d="
		M127.131,254.928c0,0-26.214,29.476-42.595,27.257c-16.381-2.218-50.967-11.604-50.967-11.604s-3.463,8.49-1.988,10.056
		s1.922,4.457,2.031,9.065c0.107,4.608,4.215-0.695,4.215-0.695s9.086,6.893,9.193,11.501c0.109,4.608,3.463-8.49,6.648-9.134
		c0,0-1.314,4.072,0.498,3.921c1.814-0.151,1.964,1.025,5.971-5.063c0,0,2.666-2.531,0.867,3.994c0,0-0.311,3.506,1.377,2.056
		c0,0-1.776,5.765,0.209,5.393c1.984-0.372,2.389-5.644,2.389-5.644s2.648,0.142,3.333-0.742c0.685-0.885,0.802-3.41,1.906-2.555
		c1.105,0.855-0.185,4.806-0.185,4.806s-3.935,5.721,0.676,6.25c0,0,4.29,0.211,3.909-5.599c0,0,2.589-4.075,4.063-3.146
		c1.474,0.928,0.65,5.734,1.949,5.609s3.275-4.322,3.075-5.891c-0.199-1.568,3.607,1.732,7.063,1.014
		c3.455-0.718,30.868-20.146,33.041-24.049C125.983,267.825,132.743,254.253,127.131,254.928z"/>
	
		<path fill="#5A3D48" stroke="#2A2B2E" stroke-width="2" stroke-linecap="round" stroke-linejoin="round" stroke-miterlimit="10" d="
		M82.214,241.079c0,0,44.225,10.908,44.766,12.035c0.542,1.126-23.67,29.509-40.361,29.184
		c-16.693-0.325-53.764-12.113-53.764-12.113s36.361-31.675,38.813-31.189C74.12,239.479,82.214,241.079,82.214,241.079z"/>
	
		<path fill="#EBE6B1" stroke="#2A2B2E" stroke-width="2" stroke-linecap="round" stroke-linejoin="round" stroke-miterlimit="10" d="
		M51.541,271.84c0,0,3.429-1.87,4.828-0.574c1.4,1.296-1.347,4.801-1.347,4.801l-4.117-1.009L51.541,271.84z"/>
	
		<path fill="#F0E7A2" stroke="#2A2B2E" stroke-width="2" stroke-linecap="round" stroke-linejoin="round" stroke-miterlimit="10" d="
		M78.704,280.747c0,0-0.529-2.476,3.393-3.621c3.922-1.146,3.148,4.053,3.148,4.053L78.704,280.747z"/>
	
		<path fill="#F0E7A2" stroke="#2A2B2E" stroke-width="2" stroke-linecap="round" stroke-linejoin="round" stroke-miterlimit="10" d="
		M39.405,271.353c0,0,2.358-5.248-2.184-4.945c0,0-4.121-0.56-3.564,3.081C33.657,269.488,36.073,272.096,39.405,271.353z"/>
	
		<path fill="#F0E7A2" stroke="#2A2B2E" stroke-width="2" stroke-linecap="round" stroke-linejoin="round" stroke-miterlimit="10" d="
		M75.868,264.799l9.011,1.145c0,0-0.294,6.695-5.416,6.319C74.34,271.888,75.868,264.799,75.868,264.799z"/>
	
		<path fill="#F0E7A2" stroke="#2A2B2E" stroke-width="2" stroke-linecap="round" stroke-linejoin="round" stroke-miterlimit="10" d="
		M67.433,263.642l6.131,1.212c0,0,0.914,3.111-0.727,3.679s-6.531-1.125-6.383-2.517C66.602,264.624,67.433,263.642,67.433,263.642z
		"/>
	
		<path fill="#F0E7A2" stroke="#2A2B2E" stroke-width="2" stroke-linecap="round" stroke-linejoin="round" stroke-miterlimit="10" d="
		M53.472,258.206c0,0,0.867,4.639-3.607,4.068c-4.475-0.569-3.261-6.063-3.261-6.063L53.472,258.206z"/>
	
		<path fill="#F0E7A2" stroke="#2A2B2E" stroke-width="2" stroke-linecap="round" stroke-linejoin="round" stroke-miterlimit="10" d="
		M38.02,254.514c0,0-2.742,4.849,1.946,6.267c4.689,1.416,5.604,0.658,5.604,0.658s1.354-4.91,0.421-5.349
		C45.058,255.65,38.02,254.514,38.02,254.514z"/>
	
		<path fill="#6AA46D" stroke="#2A2B2E" stroke-width="2" stroke-linecap="round" stroke-linejoin="round" stroke-miterlimit="10" d="
		M118.539,211.052c0,0,12.146,0.109,15.585,2.7c3.438,2.591,3.575,9.626-2.305,21.971c-5.881,12.344-1.773,17.997-20.959,22.232
		c-19.186,4.234-21.583,6.691-21.583,6.691s-0.902-19.929,0.666-20.128s16.938-4.624,19.556-6.109
		C111.216,237.436,120.54,234.767,118.539,211.052z"/>
	
		<path fill="#6AA46D" stroke="#2A2B2E" stroke-width="2" stroke-linecap="round" stroke-linejoin="round" stroke-miterlimit="10" d="
		M83.103,199.844c0,0,11.393-2.845,20.32-0.952c8.928,1.892,30.176,6.013,32.154,16.573c0,0-0.16-3.753-6.349-3.382
		c-6.188,0.37-10.313-0.7-10.313-0.7l-1.78,1.177l-40.021-10.787L83.103,199.844z"/>
	
		<path fill="#97BD5F" stroke="#2A2B2E" stroke-width="2" stroke-linecap="round" stroke-linejoin="round" stroke-miterlimit="10" d="
		M77.44,200.126c2.205-0.625,26.023,6.938,34.746,8.579c2.26,0.425,4.797,0.872,5.911,2.644c1.472,2.339,1.13,6.326,1.001,9.117
		c-0.278,6.014,1.079,19.637-27.263,23.709C66.221,247.856,50.79,231.81,50.79,231.81l21.656-6.422l-18.404,5.458
		c0,0,10.204-4.519,11.143-8.041C67.161,215.382,75.235,200.751,77.44,200.126z"/>
	
		<path fill="#B4CA74" stroke="#2A2B2E" stroke-width="2" stroke-linecap="round" stroke-linejoin="round" stroke-miterlimit="10" d="
		M47.944,229.081c0,0-12.616,8.464-11.042,20.625c1.575,12.161,50.735,16.146,50.735,16.146s10.762-11.252,4.921-24.894
		c0,0-1.285-2.547-8.292-1.257c-7.005,1.291-27.117-3.321-28.645-6.554S51.623,228.789,47.944,229.081z"/>
	<path fill="#2A2B2E" d="M89.688,246.775c-0.248,1.257-2.195,1.37-3.454,1.121c-1.257-0.248-2.075-1.469-1.826-2.726
		c0.249-1.258,1.47-2.076,2.727-1.828C88.393,243.592,89.937,245.519,89.688,246.775z"/>
	<path fill="#2A2B2E" d="M51.257,236.251c-0.249,1.258-1.47,2.076-2.727,1.827c-1.257-0.248-2.693-1.163-2.444-2.42
		s2.088-2.383,3.345-2.135C50.688,233.772,51.505,234.993,51.257,236.251z"/>
	
		<path fill="#F0E7A2" stroke="#2A2B2E" stroke-width="2" stroke-linecap="round" stroke-linejoin="round" stroke-miterlimit="10" d="
		M120.924,198.019c0,0-10.513,4.193-6.347,7.615c4.165,3.422,16.113,7.439,19.728,1.401c3.614-6.039,5.657-11.369,0.971-19.813
		s-4.19-16.756-4.19-16.756s-6.394,2.05-5.324,8.887S128.838,196.016,120.924,198.019z"/>
	
		<path fill="#F0E7A2" stroke="#2A2B2E" stroke-width="2" stroke-linecap="round" stroke-linejoin="round" stroke-miterlimit="10" d="
		M84.876,196.671c-1.096,0.49-2.902,2.766-1.773,3.173c4.621,1.667,16.3,3.14,18.633,1.135c3.377-2.899,5.16-5.478,4.973-12.905
		c-0.188-7.428-1.902-17.45-9.458-19.836s-12.11,0.027-10.592,10.394c0,0,4.856-7.322,7.897-2.644
		C97.31,180.225,94.765,192.244,84.876,196.671z"/>
	<path fill="none" stroke="#2A2B2E" stroke-width="2" stroke-linecap="round" stroke-linejoin="round" stroke-miterlimit="10" d="
		M132.589,181.387c-0.183,0.004-4.905-3.08-6.504-1.285"/>
	<path fill="none" stroke="#2A2B2E" stroke-width="2" stroke-miterlimit="10" d="M126.597,185.142c0,0,7.287,3.721,7.973,0.732"/>
	<path fill="none" stroke="#2A2B2E" stroke-width="2" stroke-miterlimit="10" d="M126.687,190.706c0,0,7.813,5.403,9.982-0.599"/>
	<path fill="none" stroke="#2A2B2E" stroke-width="2" stroke-linecap="round" stroke-linejoin="round" stroke-miterlimit="10" d="
		M119.923,198.456c0,0-2.918,3.248,5.144,5.988s11.451-1.589,11.451-1.589"/>
	<path fill="none" stroke="#2A2B2E" stroke-width="2" stroke-miterlimit="10" d="M124.429,196.108c0,0,3.325,3.709,6.957,3.35
		c5.428-0.539,6.587-3.962,6.587-3.962"/>
	<path fill="none" stroke="#2A2B2E" stroke-width="2" stroke-linecap="round" stroke-linejoin="round" stroke-miterlimit="10" d="
		M92.127,169.533c0,0,5.563,0.806,0.327,6.997"/>
	<path fill="none" stroke="#2A2B2E" stroke-width="2" stroke-linecap="round" stroke-linejoin="round" stroke-miterlimit="10" d="
		M94.995,178.089c0.316-1.595,6.699-0.691,5.896-6.054"/>
	<path fill="none" stroke="#2A2B2E" stroke-width="2" stroke-linecap="round" stroke-linejoin="round" stroke-miterlimit="10" d="
		M95.788,180.816c0,0,1.077,2.687,4.691,1.981c3.653-0.713,5.143-3.751,4.885-4.61"/>
	<path fill="none" stroke="#2A2B2E" stroke-width="2" stroke-linecap="round" stroke-linejoin="round" stroke-miterlimit="10" d="
		M92.804,190.089c0,0,3.822,1.809,7.314,1.446c2.748-0.285,6.601-3.249,6.538-4.826"/>
	<path fill="none" stroke="#2A2B2E" stroke-width="2" stroke-linecap="round" stroke-linejoin="round" stroke-miterlimit="10" d="
		M152.171,204.49c0,0,14.167-12.842,14.667-20.681"/>
	
		<path fill="#97BD5F" stroke="#2A2B2E" stroke-width="1.5" stroke-linecap="round" stroke-linejoin="round" stroke-miterlimit="10" d="
		M142.445,115.484c0,0,9.333,5.088,10.166,8.088"/>
	<path fill="#97BD5F" stroke="#2A2B2E" stroke-linecap="round" stroke-linejoin="round" stroke-miterlimit="10" d="M110.472,105.058
		c0,0,11.152,3.062,15.553,4.78"/>
	<path fill="#97BD5F" stroke="#2A2B2E" stroke-linecap="round" stroke-linejoin="round" stroke-miterlimit="10" d="M86.234,72.852
		c-3.612,2.732-7.594,10.518-3.06,14.69"/>
	<path fill="none" stroke="#2A2B2E" stroke-linecap="round" stroke-linejoin="round" stroke-miterlimit="10" d="M87.429,94.311
		c0,0,0.369,2.46,5.064,3.04"/>
	<path fill="#97BD5F" stroke="#2A2B2E" stroke-linecap="round" stroke-linejoin="round" stroke-miterlimit="10" d="M96.505,100.056
		c0,0,2.179,0.068,3.146,0.755"/>
	<path fill="#97BD5F" stroke="#2A2B2E" stroke-linecap="round" stroke-linejoin="round" stroke-miterlimit="10" d="M100.47,69.238
		c0,0-1.711,0.645-3.162,2.696"/>
	
		<line fill="none" stroke="#2A2B2E" stroke-width="2" stroke-linecap="round" stroke-linejoin="round" stroke-miterlimit="10" x1="176.498" y1="161.406" x2="175.111" y2="165.856"/>
	
		<line fill="none" stroke="#2A2B2E" stroke-width="2" stroke-linecap="round" stroke-linejoin="round" stroke-miterlimit="10" x1="176.498" y1="147.738" x2="176.498" y2="151.072"/>
	<path fill="none" stroke="#2A2B2E" stroke-width="2" stroke-linecap="round" stroke-linejoin="round" stroke-miterlimit="10" d="
		M88.158,194.747c0,0,12.52,5.95,17.997-0.277"/>
	<g>
		
			<polyline fill="none" stroke="#2A2B2E" stroke-width="1.5" stroke-linecap="round" stroke-linejoin="round" stroke-miterlimit="10" points="
			72.007,214.792 81.148,220.907 69.503,222.267 		"/>
		
			<line fill="none" stroke="#2A2B2E" stroke-width="1.5" stroke-linecap="round" stroke-linejoin="round" stroke-miterlimit="10" x1="72.606" y1="219.128" x2="80.112" y2="220.138"/>
	</g>
	<g>
		
			<polyline fill="none" stroke="#2A2B2E" stroke-width="1.5" stroke-linecap="round" stroke-linejoin="round" stroke-miterlimit="10" points="
			108.575,231.899 100.013,225.545 111.118,224.248 		"/>
		
			<line fill="none" stroke="#2A2B2E" stroke-width="1.5" stroke-linecap="round" stroke-linejoin="round" stroke-miterlimit="10" x1="108.419" y1="227.771" x2="101.049" y2="226.313"/>
	</g>
</g>
</svg>
