<?xml version="1.0" encoding="utf-8"?>
<!-- Generator: Adobe Illustrator 16.0.0, SVG Export Plug-In . SVG Version: 6.00 Build 0)  -->
<!DOCTYPE svg PUBLIC "-//W3C//DTD SVG 1.1//EN" "http://www.w3.org/Graphics/SVG/1.1/DTD/svg11.dtd">
<svg version="1.1" id="Layer_1" xmlns="http://www.w3.org/2000/svg" xmlns:xlink="http://www.w3.org/1999/xlink" x="0px" y="0px"
	 width="198.667px" height="298px" viewBox="0 0 198.667 298" enable-background="new 0 0 198.667 298" xml:space="preserve">
<path fill="#2A2B2E" stroke="#F3F3F3" stroke-width="8" stroke-miterlimit="3" d="M170.171,163.756
	c7.472,1.127,21.087-7.874,19.46-17.961c-1.066-6.614-6.756-4.196-10.715-1.599l0.548-0.542c0,0,8.75-12.193,6.25-48.193
	s-23.75-45.5-33.25-54s-51.5-8-64-3.25s-22.84,6.998-31.459,21c-10.875,17.666-3.333,35.836-3.333,35.836
	c0-0.002,0-0.004,0.001-0.006c0.221,9.95,1.13,22.641,3.819,34.342c-2.586-0.42-4.73-0.498-5.79,0.068l-1.134,1.654l7.684,1.383
	c0.69,2.631,1.477,5.193,2.378,7.64c0,0-8.371,4.667-7.019,13.333c0.373,2.388,2.19,5.662,4.755,9.173l-3.403-2.315l-0.408-0.082
	l-0.479-0.446l-4.079-0.472l-21.559-4.344l-3.362,5.243l2.448-4.716c0,0-7.867-6.281-11.906-3.901
	c-3.372,1.986-1.611,5.025-0.383,6.635c0,0-4.67-2.6-6.064,0.718c-1.395,3.318,3.124,5.615,3.124,5.615s-3.198,0.286-3.29,3.477
	c-0.092,3.096,5.139,4.593,7.752,5.146l-0.47,0.731c0,0,5.14,14.611,21.307,16.876c4.612,0.646,9.126,0.915,13.225,0.971
	c0.05,0.001,0.085,0.002,0.085,0.002v-0.001c5.806,0.075,10.768-0.277,13.973-0.597l0.143,0.079
	c-2.914,7.33-4.821,16.357-4.929,22.649c-0.094,5.495-0.885,10.383,0.25,12.996c0.823,1.896,2.098,2.957,3.274,3.552
	c-1.078-0.13-2.316-0.101-3.462,0.364c-2.875,1.168-2.063,7.313-2.063,7.313l19.597,2.444l5.029,13.457
	c-10.98-0.183-13.037,8.456-13.037,8.456l32.056,0.702c0,0-0.018-0.032-0.036-0.063l7.061,0.017l1.313,0.047h3.246v-0.035
	l14.636,0.035c0,0-0.357-1.378-1.819-2.973l5.399-18.003h5.681l8.957,0.033c0,0,1.152-7.854-5.832-8.367
	c-3.751-0.276-7.952,1.463-9.429,2.141c1.796-0.866,7.525-3.705,8.263-4.975c0.875-1.507,0.416-8.166,0.666-10.832
	c0.046-0.482-0.033-2.079-0.19-4.354c10.037,6.119,18.531,9.996,18.531,9.996l4.802-3.957l-3.771,3.735c0,0,5.565,8.39,10.141,7.36
	c3.818-0.858,3.072-4.29,2.396-6.197c0,0,3.646,3.904,5.991,1.175c2.345-2.731-1.253-6.303-1.253-6.303s3.133,0.707,4.197-2.302
	c1.035-2.92-3.484-5.946-5.803-7.274l0.671-0.553c0,0-0.417-15.483-15.112-22.591c-9.064-4.384-18.232-6.955-23.934-8.284
	l1.916-1.426l-0.908,0.078c12.719-3.65,25.198-7.865,27.7-10.029C166.781,167.93,168.561,165.897,170.171,163.756z M93.464,230.532
	l0.875-24.279l-0.191,23.959l0.181,0.502l-0.934,0.126L93.464,230.532z"/>
<g>
	
		<path fill="#D7BE48" stroke="#2A2B2E" stroke-width="2" stroke-linecap="round" stroke-linejoin="round" stroke-miterlimit="10" d="
		M18.203,173.456l9.32-17.953c0,0-7.867-6.281-11.906-3.901c-3.372,1.986-1.611,5.025-0.383,6.635c0,0-4.67-2.6-6.064,0.718
		c-1.395,3.318,3.124,5.615,3.124,5.615s-3.198,0.286-3.29,3.477C8.883,172.169,18.203,173.456,18.203,173.456z"/>
	<path fill="#A3827C" stroke="#2A2B2E" stroke-width="2" stroke-miterlimit="10" d="M28.438,154.975l-12.151,18.948
		c0,0,5.14,14.611,21.307,16.876c16.167,2.264,31.15-0.092,31.15-0.092l9.226-6.425l0.609-7.895l-23.615-16.069L28.438,154.975z"/>
	
		<path fill="#A43739" stroke="#2A2B2E" stroke-width="2" stroke-linecap="round" stroke-linejoin="round" stroke-miterlimit="10" d="
		M61.291,166.505l-10.389,25.267c0,0-16.727-0.33-22.065-4.487l13.784-28.82l11.454,1.326L61.291,166.505z"/>
	<circle fill="#BDB393" cx="45.138" cy="177.104" r="7.875"/>
	<polyline fill="none" stroke="#2A2B2E" stroke-width="2" stroke-miterlimit="10" points="43.209,170.964 41.501,175.91 
		48.973,177.682 47.365,182.401 	"/>
	<polyline fill="none" stroke="#2A2B2E" stroke-width="2" stroke-miterlimit="10" points="39.422,179.696 43.398,180.792 
		46.427,172.869 50.443,173.824 	"/>
	
		<path fill="#D7BE48" stroke="#2A2B2E" stroke-width="2" stroke-linecap="round" stroke-linejoin="round" stroke-miterlimit="10" d="
		M173.584,211.396l-14.373,14.235c0,0,5.565,8.39,10.141,7.36c3.818-0.858,3.072-4.29,2.396-6.197c0,0,3.646,3.904,5.991,1.175
		c2.345-2.731-1.253-6.303-1.253-6.303s3.133,0.707,4.197-2.302C182.063,215.475,173.584,211.396,173.584,211.396z"/>
	<path fill="#A3827C" stroke="#2A2B2E" stroke-width="2" stroke-miterlimit="10" d="M158.18,225.853l17.372-14.315
		c0,0-0.417-15.483-15.112-22.591c-14.697-7.107-29.683-9.457-29.683-9.457l-10.749,3.292l-8.359,19.28
		c0,0,10.827,2.619,22.918,10.579C146.64,220.588,158.18,225.853,158.18,225.853z"/>
	
		<polygon fill="#D0C7AC" stroke="#2A2B2E" stroke-width="2" stroke-linecap="round" stroke-linejoin="round" stroke-miterlimit="10" points="
		138.422,179.237 119.665,193.199 93.964,205.711 81.108,190.215 71.839,178.711 92.214,183.211 	"/>
	
		<path fill="#D7BE48" stroke="#2A2B2E" stroke-width="2" stroke-linecap="round" stroke-linejoin="round" stroke-miterlimit="10" d="
		M53.964,77.128c0,0-2.666,37.667,6.666,63c0,0-8.371,4.667-7.019,13.333c1.353,8.667,21.687,29,28.019,30
		c0,0,8.334,7.667,15.668,1.667c0,0,2,2.667,15.332,0.333c13.334-2.333,48.209-12.393,52.584-16.176s10.416-12.824,9.75-14.824
		l6.346-18.583c0,0,0.988-33.417-0.346-33.417s0,1.667-1.334,0c-1.332-1.666-85.666-54.666-92-53
		c-6.332,1.667-23.666,14.334-23.666,14.334L53.964,77.128z"/>
	
		<path fill="#D7BE48" stroke="#2A2B2E" stroke-width="2" stroke-linecap="round" stroke-linejoin="round" stroke-miterlimit="10" d="
		M175.006,147.175c0,0,12.958-11.714,14.625-1.38c1.667,10.333-12.667,19.533-20,17.866
		C172.131,147.752,175.006,147.175,175.006,147.175z"/>
	
		<polygon fill="#BDB393" stroke="#2A2B2E" stroke-width="2" stroke-linecap="round" stroke-linejoin="round" stroke-miterlimit="10" points="
		113.317,228.153 113.317,263.187 110.071,263.187 85.815,262.329 74.978,233.323 	"/>
	
		<polygon fill="#BDB393" stroke="#2A2B2E" stroke-width="2" stroke-linecap="round" stroke-linejoin="round" stroke-miterlimit="10" points="
		133.13,236.889 125.244,263.18 127.953,263.187 101.008,263.118 105.953,238.323 	"/>
	<path fill="none" stroke="#2A2B2E" stroke-width="2" stroke-linecap="round" stroke-linejoin="round" stroke-miterlimit="10" d="
		M88.964,224.211"/>
	
		<path fill="#A3827C" stroke="#2A2B2E" stroke-width="2" stroke-linecap="round" stroke-linejoin="round" stroke-miterlimit="10" d="
		M139.839,220.211c-0.25,2.666,0.209,9.325-0.666,10.832c-0.875,1.508-8.813,5.238-8.813,5.238s5.336-2.746,9.979-2.404
		c6.984,0.514,5.832,8.367,5.832,8.367l-8.957-0.033h-38.75l-4.316-12l0.191-23.959l-0.875,24.279l-2.637,11.68l-32.738-4.084
		c0,0-0.813-6.145,2.063-7.313s6.354,0.396,6.354,0.396s-4.273,0.043-6.166-4.313c-1.135-2.613-0.344-7.501-0.25-12.996
		c0.184-10.76,5.625-29.524,12.375-34.107l21.5,25.916l42.625-24.584C136.589,181.127,140.089,217.544,139.839,220.211z"/>
	<path fill="none" stroke="#2A2B2E" stroke-width="2" stroke-linecap="round" stroke-linejoin="round" stroke-miterlimit="10" d="
		M181.964,150.788c0,0-6.491,8.002-10.583,7.684"/>
	
		<path fill="#2A2B2E" stroke="#2A2B2E" stroke-width="2" stroke-linecap="round" stroke-linejoin="round" stroke-miterlimit="10" d="
		M100.339,130.367c0.459-1.75,3.125-3.405,3.125-3.405l-0.625,7.478c0,0,35.25-12.812,42.416-8.978l2,2.916l-46.75,8.416
		C100.505,136.793,99.88,132.117,100.339,130.367z"/>
	
		<path fill="#2A2B2E" stroke="#2A2B2E" stroke-width="2" stroke-linecap="round" stroke-linejoin="round" stroke-miterlimit="10" d="
		M77.171,132.234c-0.26-0.992-1.771-1.931-1.771-1.931l0.354,4.24c0,0-19.986-7.265-24.051-5.092l-1.134,1.654l26.508,4.772
		C77.076,135.878,77.431,133.226,77.171,132.234z"/>
	
		<polygon fill="#2A2B2E" stroke="#2A2B2E" stroke-width="2" stroke-linecap="round" stroke-linejoin="round" stroke-miterlimit="10" points="
		90.964,160.961 88.298,160.961 86.714,157.877 85.13,159.711 84.47,161.067 82.157,161.157 82.157,155.756 80.298,155.919 
		81.603,152.432 91.851,152.432 93.745,156.794 91.159,157.275 91.159,158.526 	"/>
	<path fill="none" stroke="#2A2B2E" stroke-width="2" stroke-linecap="round" stroke-linejoin="round" stroke-miterlimit="10" d="
		M79.798,170.295c0,0,0,9.082,9,9.5"/>
	<path fill="#2A2B2E" d="M81.135,56.616c0,0,0.029,0.247,0.083,0.709c0.061,0.46,0.154,1.164,0.302,2.053
		c0.292,1.781,0.78,4.338,1.56,7.365c0.781,3.027,1.855,6.525,3.322,10.152c0.732,1.814,1.578,3.65,2.504,5.482
		c0.492,0.9,0.988,1.809,1.486,2.719c0.547,0.883,1.098,1.768,1.646,2.653c0.607,0.848,1.213,1.694,1.818,2.538
		c0.277,0.385,0.652,0.82,0.973,1.227l0.996,1.149c1.375,1.518,2.857,2.906,4.379,4.153c3.045,2.5,2.313,3.732-1.054,1.398
		c-1.683-1.166-3.349-2.49-4.931-3.974l-1.179-1.159c-0.37-0.397-0.722-0.74-1.11-1.188c-0.711-0.832-1.424-1.67-2.137-2.506
		c-0.657-0.882-1.313-1.763-1.969-2.642c-0.604-0.913-1.205-1.821-1.803-2.724c-1.135-1.84-2.188-3.693-3.116-5.533
		c-1.862-3.674-3.3-7.247-4.391-10.358c-1.091-3.114-1.833-5.769-2.31-7.651c-0.238-0.941-0.404-1.687-0.52-2.215
		c-0.105-0.527-0.163-0.809-0.163-0.809c-0.313-1.537,0.679-3.037,2.216-3.35c1.538-0.314,3.039,0.68,3.352,2.217
		c0.016,0.078,0.028,0.154,0.037,0.232L81.135,56.616z"/>
	<path fill="#2A2B2E" d="M176.13,110.211c0,0-48.916,3.75-64.166-11S78.007,57.779,78.007,57.779s-21.168,9.436-24.335,37.269
		c0,0-7.542-18.17,3.333-35.836c8.619-14.002,18.959-16.25,31.459-21s54.5-5.25,64,3.25s30.75,18,33.25,54s-6.25,48.193-6.25,48.193
		l-5.708,5.639c0,0-1.967-2.823-1.568-5.427c0.62-4.049,1.472-9.579,1.776-11.405C174.464,129.461,176.13,110.211,176.13,110.211z"
		/>
	
		<path fill="#5A3D48" stroke="#2A2B2E" stroke-width="2" stroke-linecap="round" stroke-linejoin="round" stroke-miterlimit="10" d="
		M101.464,69.211c-2.291,3,3.708,15.5,15.25,23.5s37.708,14.334,38.5,10.75s-29.042-9.666-25.75-15.75s8.052-6.039,17.734-9.426
		c6.322-2.212,17.891,0.094,19.266-0.824s-2.042-3.416,0-3.75s9.291,11.5,10.75,11.25c0.912-0.156-0.37-9.507-3.498-16.545
		c-3.127-7.039-13.961-14.037-15.002-12.705s2.25,9,0.5,12.5s-30.917,14.5-40.834,12.5
		C108.464,78.711,103.755,66.211,101.464,69.211z"/>
	
		<path fill="#5A3D48" stroke="#2A2B2E" stroke-width="2" stroke-linecap="round" stroke-linejoin="round" stroke-miterlimit="10" d="
		M69.678,262.485c0,0,2.318-9.758,15.204-8.316c12.887,1.441,16.852,9.019,16.852,9.019L69.678,262.485z"/>
	
		<path fill="#5A3D48" stroke="#2A2B2E" stroke-width="2" stroke-linecap="round" stroke-linejoin="round" stroke-miterlimit="10" d="
		M98.516,263.116c0,0,1.687-8.182,14.803-7.668c12.76,0.5,14.635,7.739,14.635,7.739L98.516,263.116z"/>
	<polygon fill="#2A2B2E" points="89.714,187.422 92.089,191.516 86.61,198.274 93.964,205.711 100.88,202.103 95.589,191.516 
		99.798,186.139 97.276,185.877 	"/>
	<path fill="#2A2B2E" d="M100.348,212.295c0,0.914-0.797,1.309-1.832,1.309s-1.258-0.693-1.258-1.608s0.84-1.608,1.875-1.608
		S100.348,211.38,100.348,212.295z"/>
	<path fill="#2A2B2E" d="M100.348,218.924c0,0.914-0.797,1.309-1.832,1.309s-1.258-0.693-1.258-1.608s0.84-1.608,1.875-1.608
		S100.348,218.009,100.348,218.924z"/>
	<path fill="#2A2B2E" d="M99.973,226.119c0,0.915-0.797,1.309-1.832,1.309s-1.258-0.692-1.258-1.608c0-0.914,0.84-1.607,1.875-1.607
		S99.973,225.204,99.973,226.119z"/>
	
		<polygon fill="#A3827C" stroke="#2A2B2E" stroke-width="2" stroke-linecap="round" stroke-linejoin="round" stroke-miterlimit="10" points="
		93.964,205.711 115.483,207.928 121.173,199.043 144.505,193.877 136.589,181.127 	"/>
	
		<polygon fill="#A3827C" stroke="#2A2B2E" stroke-width="2" stroke-linecap="round" stroke-linejoin="round" stroke-miterlimit="10" points="
		93.964,205.711 77.408,207.086 74.964,196.752 58.089,187.422 71.839,178.711 	"/>
	<g>
		
			<polyline fill="none" stroke="#2A2B2E" stroke-width="2" stroke-linecap="round" stroke-linejoin="round" stroke-miterlimit="10" points="
			64.444,136.782 77.202,142.838 62.444,147.588 		"/>
		
			<line fill="none" stroke="#2A2B2E" stroke-width="2" stroke-linecap="round" stroke-linejoin="round" stroke-miterlimit="10" x1="67.285" y1="142.823" x2="76.036" y2="142.285"/>
	</g>
	<g>
		
			<polyline fill="none" stroke="#2A2B2E" stroke-width="2" stroke-linecap="round" stroke-linejoin="round" stroke-miterlimit="10" points="
			118.255,149.472 105.497,143.416 120.255,138.666 		"/>
		
			<line fill="none" stroke="#2A2B2E" stroke-width="2" stroke-linecap="round" stroke-linejoin="round" stroke-miterlimit="10" x1="115.13" y1="144.437" x2="106.663" y2="143.969"/>
	</g>
	<path fill="#2A2B2E" d="M89.52,166.163c0,1.097-1.6,1.667-2.889,1.667s-3.111-0.653-3.111-1.75c0-1.098,1.822-2.222,3.111-2.222
		S89.52,165.065,89.52,166.163z"/>
</g>
</svg>
