<?xml version="1.0" encoding="utf-8"?>
<!-- Generator: Adobe Illustrator 16.0.0, SVG Export Plug-In . SVG Version: 6.00 Build 0)  -->
<!DOCTYPE svg PUBLIC "-//W3C//DTD SVG 1.1//EN" "http://www.w3.org/Graphics/SVG/1.1/DTD/svg11.dtd">
<svg version="1.1" id="Layer_1" xmlns="http://www.w3.org/2000/svg" xmlns:xlink="http://www.w3.org/1999/xlink" x="0px" y="0px"
	 width="236px" height="363.542px" viewBox="0 0 236 363.542" enable-background="new 0 0 236 363.542" xml:space="preserve">
<path fill="#818D5C" stroke="#F3F3F3" stroke-width="8" stroke-linejoin="round" stroke-miterlimit="3" d="M185.758,178.01
	c2.298-2.731,5.139-7.854,3.772-15.639c-2.052-11.698-3.135-3.622-3.248-2.694c0.092-0.794,0.73-6.99-1.098-11.861
	c-1.953-5.214-11.295-21.967-14.336-26.625c-3.044-4.657-9.705-15.55-16.365-16.077c0,0-0.005,0.002-0.006,0.002
	c0.768-1.188,0.938-2.036,0.511-3.221c-0.556-1.543-2.397-3.458-3.949-4.876c-0.129-0.997-1.024-2.122-2.052-3.087
	c2.906-2.739,4.924-5.924,5.615-9.942c0.89-5.181,6.419-20.329,8.276-33.559c0.004-0.003,0.009-0.007,0.013-0.01
	c2.884-2.272,2.29-10.521,0.191-10.958c0,0,0,0-0.001,0c-2.035-9.47-11.589-16.207-21.871-20.388
	c-7.057-2.867-16.215-6.124-25.503-3.539c-9.289,2.583-15.75,5.293-20.111,6.949c-4.361,1.653-4.59,7.098-8.775,14.465
	c-1.043,1.835-1.711,3.729-2.131,5.636c-0.631-0.171-1.2-0.339-1.662-0.499c-2.114-0.734-6.466,13.513-2.774,17.26
	c0.533,0.541,1.94,1.069,3.968,1.577c-0.627,6.281-3.377,15.001-4.678,17.595c-1.447,2.889,0.616,9.27,0.355,13.177
	c-0.02,0.309,0.004,0.667,0.048,1.046c-0.864-0.894-1.633-1.495-2.208-1.528c-1.868-0.111-2.554,8.003-1.865,9.547
	c0.584,1.314,4.615,7.277,6.926,10.871c-1.293,1.185-2.953,3.484-3.443,7.727c-0.248,2.141-0.523,4.047-0.813,5.695
	c-0.189,0.054-0.383,0.103-0.564,0.17c-4.676,1.737-8.228,12.875-10.033,17.812c-4.928,13.445-4.313,19.631-3.547,22.084
	c-0.484-0.434-1.261-0.182-2.391,2.757c-2.174,5.648-4.129,17.741-6.084,21.651c-1.956,3.911,0,12.384,0,12.384
	s-1.738,6.301,0.436,7.604c0.783,0.471,2.922-0.305,5.337-1.576c3.601,6.751,19.114,17.571,19.114,17.571s-1.424-5.93-0.988-4.48
	c0.434,1.448,2.607,11.297,2.316,17.524c-0.291,6.227-3.188,15.931-3.773,16.583c-0.586,0.651,5.365,1.521,6.669,0.869
	s0.87-8.907,1.956-14.121c0.067-0.322,0.127-0.63,0.181-0.925c-0.521,5.45-1.077,13.935-0.106,18.601
	c0.507,2.435,1.816,4.725,3.319,6.7c-0.063,0.66-1.097,12.252,3.124,16.684c0.199,0.21,0.364,0.383,0.531,0.558
	c-0.01,0.079-1.766,16.042,0.77,20.657c-0.705-0.896-2.327-1.777-2.575,8.548c0,0-0.682,0.435-1.55,1.52
	c-0.869,1.087-1.303,10.428-1.303,10.428s1.361-0.676,3.489-1.322c-0.001,0.002-2.365,2.672-5.385,4.364
	c-3.231,1.812-7.108,2.665-6.36,3.114c0.156,0.094,0.418,0.164,0.733,0.221c-1.55,0.313-2.851,0.829-3.485,1.663
	c-2.316,3.041-1.158,11.15,0,12.021c1.158,0.869,17.09,1.304,20.277,0c2.535-1.038,7.532-3.907,9.468-5.036
	c0.142,2.202,0.578,4.037,1.083,4.416c1.158,0.869,17.09,1.304,20.275,0c3.188-1.303,10.271-5.503,10.271-5.503
	s4.875-4.522,6.758-6.116c0.401-0.34,0.438-0.695,0.268-1.045c0.248-0.195,0.495-0.533,0.756-1.054
	c1.375-2.754-2.246-21.001-2.246-21.001l-1.991,2.365c0.567-1.141,1.092-2.663,1.412-4.683c1.013-6.372-2.171-1.738-2.171-1.738
	c4.487-10.137,1.737-30.993,1.737-30.993c2.173-4.49,2.214-17.512,2.214-17.512l-0.006,0.008c1.627-3.454,2.395-8.38,2.724-13.151
	c1.364,0.172,2.872,0.08,3.15-0.318c0.255-0.364,1.363-1.938,1.554-4.271c0.109,0.379,0.245,0.646,0.431,0.713
	c0.681,0.243,5.036,0.108,5.815-2.072c0.426-1.19-0.633-3.09-1.829-4.652c17.06-5.14,21.248-11.478,21.248-11.478
	s-3.791-5.854-5.172-3.925c-1.382,1.928,3.558,3.925,3.558,3.925s-0.885,2.506-10.579,6.252c-3.747,1.448-7.719,2.267-11.454,2.705
	c-0.034-0.022-0.074-0.053-0.103-0.067c-0.908-0.479,0.728-0.418,1.361-2.19c0.633-1.771-2.216-4.844-2.226-4.854
	c3.965-4.512,15.339-14.701,18.596-18.455c3.664-4.227,12.383-15.343,12.383-15.343c-0.241,0.051-0.482,0.073-0.724,0.112
	c1.045-0.641,1.812-1.432,2.146-2.396c1.955-5.648,0-10.863,0-10.863L185.758,178.01z M69.253,202.9
	c1.143-0.981,1.879-1.821,1.879-2.293c0-1.955-4.613-8.906-4.613-8.906s3.527,4.127,4.613-2.391s1.071-9.124,5.316-11.079
	c3.258-1.501,4.777-3.524,5.016-7.724c0.543,10.605,1.891,33.576,1.891,33.576s-0.635,4.007-0.802,8.392
	C75.513,210.221,69.256,202.905,69.253,202.9z M84.896,228.699c-0.984-2.688-1.551-5.833-1.883-8.64
	c0.098,0.423,0.209,0.822,0.342,1.186c0.78,2.146,1.064,4.841,1.547,7.469C84.899,228.708,84.897,228.704,84.896,228.699z
	 M87.734,235.862c0,0-0.107,0.814-0.258,2.156c0.003-1.036-0.136-1.989-0.411-3.051c0.227,0.342,0.48,0.664,0.756,0.97
	C87.763,235.888,87.734,235.862,87.734,235.862z M89.034,125.786c-0.005-0.001-0.01-0.002-0.015-0.003
	c0.08-0.096,0.157-0.19,0.226-0.286C89.183,125.596,89.104,125.69,89.034,125.786z M89.94,123.938
	c0.768-2.818-0.007-5.932-0.495-7.443C89.499,116.642,90.917,120.631,89.94,123.938z M90.599,116.525l-1.159-0.05
	c-0.095-0.293-0.18-0.528-0.238-0.684c0.519,0.149,1.06,0.297,1.622,0.439C90.739,116.322,90.661,116.417,90.599,116.525z
	 M123.091,112.869c0.003-0.001,0.005-0.002,0.008-0.004c-0.745,1.372-2.2,3.994-3.893,6.735c-0.046,0.021-0.093,0.043-0.14,0.065
	C120.247,117.818,121.582,115.583,123.091,112.869z M122.358,113.224c-1.694,1.162-5.443,3.597-7.662,3.975
	c-0.528,0.091-0.959,0.164-1.314,0.225C115.747,116.382,118.888,114.907,122.358,113.224z M107.63,242.862
	c-4.341-0.973-7.768-1.917-10.471-2.782c8.694,2.426,21.393,4.938,25.025,5.279c0.281,0.026,0.646-0.014,1.074-0.107l-0.222,0.112
	C120.067,245.602,116.061,244.751,107.63,242.862z M119.166,283.68c0.182,1.94,0.375,4.441,0.485,7.591
	C119.546,289.722,119.282,286.507,119.166,283.68z M119.243,304.021c-0.012,0.74-0.02,1.553-0.024,2.471
	c-0.03-0.782-0.034-1.602,0.022-2.437C119.242,304.043,119.242,304.033,119.243,304.021z M119.867,297.426
	c0.257-0.095,0.321-0.532,0.291-1.209c0.218,1.188,0.49,2.217,0.798,3.104c-0.324-0.654-0.574-1.152-0.727-1.243
	c-0.379-0.229-0.639,0.037-0.801,1.646C119.475,298.279,119.53,297.551,119.867,297.426z M120.314,278.873
	c0.214,0.173,0.05,0.161,0.05,0.161c-0.241-0.213-0.447-0.388-0.627-0.53c0.235,0.135,0.401,0.238,0.505,0.313
	c0.072,0.13,0.122,0.218,0.122,0.218L120.314,278.873z M109.563,331.634c0.161-0.688,0.364-1.288,0.615-1.752
	c0.302,0.175,0.995,0.29,1.906,0.365C110.977,330.534,110.07,330.975,109.563,331.634z M115.638,327.152
	c-2.056,0.942-4.212,1.721-5.111,2.229c0.049-0.054,0.093-0.12,0.145-0.164c1.882-1.594,5.008-2.152,5.008-2.152
	c-0.522-0.493-1.447-1.082-2.638-1.687c1.544,0.552,2.775,0.965,3.396,0.996C116.047,326.695,115.624,327.065,115.638,327.152z
	 M117.05,325.886c0,0-0.057,0.044-0.146,0.113c0.065-0.127,0.125-0.283,0.178-0.467C117.062,325.756,117.05,325.886,117.05,325.886z
	 M118.454,312.851c-0.237,1.39-0.593,4.697-0.887,7.633c0.143-3.841,0.19-8.148,1.25-8.177c0.002,0,0.004-0.001,0.006-0.001
	C118.64,312.338,118.513,312.507,118.454,312.851z M119.491,310.657c0.205,0.996,0.518,1.891,0.913,2.688
	c-0.687-0.671-1.235-1.099-1.58-1.04C119.375,312.286,119.511,311.662,119.491,310.657z M122.944,324.872
	c0,0-1.695-0.238-4.02,0.678c2.131-0.894,4.911-1.67,7.506-2.097C125.281,323.741,124.115,324.197,122.944,324.872z
	 M130.792,323.122c0.1,0.004,0.205,0.005,0.301,0.012c0.547,0.041,1.114,0.151,1.691,0.309
	C132.137,323.292,131.472,323.183,130.792,323.122z M155.221,153.464c0,0-0.083,0.014-0.229,0.016
	C155.067,153.474,155.144,153.477,155.221,153.464z M146.3,138.692c0,0,2.555,11.392,6.672,14.187
	C150.94,151.714,148.017,148.342,146.3,138.692z M151.096,226.484c0.034-0.068,0.057-0.13,0.085-0.195
	c0.533,0.303,0.881,0.523,1.108,0.652C151.973,226.852,151.566,226.694,151.096,226.484z M152.747,227.027
	c-0.002,0-0.006-0.001-0.008-0.001c0.186-0.174,0.251-0.853,1.099-2.174c0.233-0.363,0.621-0.846,1.119-1.413
	C154.955,223.464,154.721,227.091,152.747,227.027z M164.821,188.462c-2.037,2.146-4.681,5.14-6.758,8.216
	c-2.786,4.134-5.941,8.208-8.625,11.27c-1.301-7.786-2.579-16.391-1.836-22.616c1.291-10.815,5.873-26.21,7.233-30.632
	c-0.708,2.865-1.417,10.182,7.277,16.111c-1.595-1.038-5.245-3.198-3.193,0.251c2.587,4.345,3.89,6.518,3.89,6.518
	s-1.303,5.943,4.562,7.752C167.371,185.332,164.947,186.76,164.821,188.462z"/>
<g>
	<path fill="#818D5C" stroke="#2A2B2E" stroke-width="2" stroke-miterlimit="10" d="M141.211,19.076
		c11.758,4.78,22.563,12.903,22.264,24.633c-0.367,14.328-7.826,34.191-8.872,40.281c-1.771,10.287-12.141,15.147-24.228,20.89
		c-12.082,5.742-24.048,5.153-34.938,2.944c-10.893-2.209-15.797-12.221-15.537-16.128c0.261-3.907-1.803-10.288-0.355-13.177
		c1.447-2.887,4.7-13.371,4.811-19.625c0.109-6.256-1.718-14.576,2.467-21.943c4.186-7.367,4.414-12.812,8.775-14.465
		c4.361-1.656,10.822-4.366,20.111-6.949C124.996,12.952,134.154,16.208,141.211,19.076z"/>
	<path fill="#6A7249" stroke="#2A2B2E" stroke-width="2" stroke-miterlimit="10" d="M98.997,115.421
		c-4.895,0.092-9.711-1.187-8.49,3.604s2.006,22.996,6.264,22.055c4.26-0.941,17.625-19.564,15.916-23.539
		S103.89,115.33,98.997,115.421z"/>
	<path fill="#818D5C" stroke="#2A2B2E" stroke-width="2" stroke-miterlimit="10" d="M77.739,91.213
		c-1.868-0.111-2.554,8.003-1.865,9.547c0.686,1.543,6.131,9.504,7.954,12.501c1.821,2.996,22.307,6.086,25.415,5.737
		c3.106-0.349,39.345-18.674,41.337-20.62c1.987-1.943-2.674-5.579-4.311-6.509c-0.828-0.471-8.647,3.867-18.377,7.087
		c-9.514,3.147-20.935,5.176-22.531,5.268c-1.177,0.069-3.729-1.12-6.382-1.511c-4.634-0.682-9.94-0.845-11.355-1.391
		C85.395,100.466,80.027,91.346,77.739,91.213z"/>
	<path fill="#A32842" stroke="#2A2B2E" stroke-width="2" stroke-linejoin="round" stroke-miterlimit="10" d="M83.028,42.087
		c-2.114-0.734-6.466,13.513-2.774,17.26c3.691,3.745,49.055,6.88,54.308,6.867c5.256-0.013,6.888-3.503,12.084-6.619
		c5.197-3.115,13.364-6.899,16.246-9.174c2.884-2.272,2.29-10.521,0.191-10.958c-0.706-0.146-3.561,2.383-7.249,4.077
		c-7.303,3.349-17.671,7.212-19.692,7.107C133.094,50.496,91.817,45.133,83.028,42.087z"/>
	<path fill="#645742" stroke="#2A2B2E" stroke-width="2" stroke-linejoin="round" stroke-miterlimit="10" d="M116.771,267.484
		c-0.58,4.344,3.594,11.55,3.594,11.55c-2.896-2.557-1.148-0.219-0.713,12.237c0.433,12.455,5.793,13.615,5.793,13.615
		s-1.555-0.896-2.79-2.572c-1.196-1.622-2.067-4.022-2.425-4.236c-0.723-0.435-1.014,0.87-1.014,9.994s8.691,11.441,8.691,11.441
		c-4.202-1.015-8.98-9.414-9.453-6.662c-0.471,2.753-1.404,13.035-1.404,13.035s-3.193,2.461,0,0.579
		c3.195-1.884,10.133-3.621,14.043-3.332c3.91,0.29,8.834,3.91,11.441,5.794c2.605,1.883,3.62,4.199,4.996,1.449
		c1.375-2.754-2.246-21.001-2.246-21.001l-4.633,5.503c0,0,3.043-1.448,4.054-7.82c1.013-6.372-2.171-1.738-2.171-1.738
		c4.487-10.137,1.737-30.993,1.737-30.993c2.173-4.49,2.214-17.512,2.214-17.512l-2.938,3.752
		c7.819-5.213,5.576-31.868,5.576-31.868c-1.709,2.612-16.047,12.299-20.91,14.932c-4.863,2.632-6.889,2.302-20.584-0.769
		c-16.493-3.695-19.896-7-19.896-7s-2.177,16.456-0.669,23.698c1.494,7.176,9.92,13.173,9.92,13.173l-6.598-6.505
		c0,0-1.225,12.153,3.121,16.716c4.344,4.563,0.531,0.554,0.531,0.554s-1.921,17.364,1.097,21.171c0,0-2.584-5.22-2.902,8.038
		c0,0-0.682,0.435-1.55,1.52c-0.869,1.087-1.303,10.428-1.303,10.428s6.115-3.059,12.816-2.39c5.07,0.508,12.377,4.017,14.24,4.11
		c1.861,0.095,0.459-14.017,2.379-14.067c1.412-0.036,0.133-3.965,0.424-8.252c0.301-4.419,0.045-6.413,0.626-6.629
		c0.688-0.253,0-2.969-0.216-6.155c-0.217-3.187-1.105-13.436,0-12.817c1.101,0.617,0.713,0.58,0.713,0.58L116.771,267.484z"/>
	
		<path fill="#645742" stroke="#2A2B2E" stroke-width="2" stroke-linecap="round" stroke-linejoin="round" stroke-miterlimit="10" d="
		M106.593,243.63c0,0-1.208,8.292-10.234,14.932c-7.432,4.888-8.516-21.445-8.516-21.445"/>
	<path fill="#3C472E" stroke="#2A2B2E" stroke-width="2" stroke-linejoin="round" stroke-miterlimit="10" d="M77.979,125.223
		c-4.676,1.737-8.228,12.875-10.033,17.812c-6.93,18.909-2.898,23.466-2.898,23.466s-0.867-4.273-3.039,1.375
		c-2.174,5.648-4.129,17.741-6.084,21.651c-1.956,3.911,0,12.384,0,12.384s-1.738,6.301,0.436,7.604
		c2.172,1.305,14.771-6.951,14.771-8.907c0-1.955-4.613-8.906-4.613-8.906s3.527,4.127,4.613-2.391s1.071-9.124,5.316-11.079
		c4.242-1.954,5.547-4.779,4.895-12.166c-0.652-7.386,2.012,38.019,2.012,38.019s-1.896,11.948,0,17.161
		c1.897,5.216,0.84,13.688,6.908,16.512c6.07,2.823,27.073,7.147,31.922,7.603c4.311,0.404,27.373-14.121,29.111-19.335
		c1.738-5.213-5.215-27.946-3.693-40.692c1.521-12.749,7.618-31.867,7.618-31.867s-6.097,1.103-8.921-14.772
		c0,0,3.504,15.643,8.921,14.772c0,0-4.358,10.212,7.589,17.814c0,0-6.474-4.562-3.89-0.217c2.587,4.345,3.89,6.518,3.89,6.518
		s-1.303,5.943,4.562,7.752c0,0-4.562,2.675-1.519,5.065c3.041,2.391,19.55,2.607,21.506-3.041c1.955-5.648,0-10.863,0-10.863
		l-4.127,3.911c0,0,8.472-5.648,6.299-18.032c-2.172-12.382-3.259-2.606-3.259-2.606s0.87-6.735-1.087-11.949
		c-1.953-5.214-11.295-21.967-14.336-26.625c-3.044-4.657-9.705-15.55-16.365-16.077c0,0-47.215,17.285-52.791,25.106
		c-5.578,7.82-5.143,6.735-5.359,10.862c-0.219,4.127,2.664,29.545,2.664,29.545s-2.664-32.739-2.447-34.728
		c0.217-1.986-0.449-8.722-3.375-9.156S82.653,123.486,77.979,125.223z"/>
	<path fill="#D0D1D2" stroke="#2A2B2E" stroke-width="2" stroke-linejoin="round" stroke-miterlimit="10" d="M87.136,127.413
		c0,0-1.335,1.537,1.158,1.504c2.764-0.037,7.055-0.587,7.713-2.391c0.689-1.887-3.85-5.322-2.832-6.734
		c0.551-0.766,6.273-0.768,5.793-2.031l-5.793-1.124l-3.736-0.161C89.438,116.475,92.46,124.676,87.136,127.413z"/>
	<path fill="#D0D1D2" stroke="#2A2B2E" stroke-width="2" stroke-linejoin="round" stroke-miterlimit="10" d="M111.765,117.7
		c0,0-5.004,6.22-8.59,8.718c-3.584,2.499,3.043,9.017,5.648,9.451c2.607,0.434,4.896-3.652,4.896-3.652s-3.283-1.7-2.785-2.826
		c0.496-1.126,3.484-0.854,12.304-16.784c0,0-5.61,4.093-8.542,4.593C111.765,117.7,111.765,117.7,111.765,117.7z"/>
	<path fill="#483927" stroke="#2A2B2E" stroke-width="2" stroke-linejoin="round" stroke-miterlimit="10" d="M105.167,142.676
		c0,1.839-0.973,3.33-2.172,3.33c-1.201,0-2.172-1.491-2.172-3.33c0-1.84,0.113-3.695,1.313-3.695S105.167,140.836,105.167,142.676z
		"/>
	<path fill="#483927" stroke="#2A2B2E" stroke-width="2" stroke-linejoin="round" stroke-miterlimit="10" d="M105.672,157.448
		c0,2-0.509,3.621-1.585,3.621c-1.078,0-2.251-0.754-2.251-2.753c0-2,1.173-4.489,2.251-4.489
		C105.163,153.827,105.672,155.448,105.672,157.448z"/>
	<path fill="#483927" stroke="#2A2B2E" stroke-width="2" stroke-linejoin="round" stroke-miterlimit="10" d="M108.228,170.79
		c0,1.302-0.379,2.445-1.541,2.445c-1.158,0-2.1-1.055-2.1-2.354c0-1.299,0.941-1.99,2.1-1.99
		C107.849,168.89,108.228,169.491,108.228,170.79z"/>
	<path fill="#2A2B2E" d="M132.327,230.162l7.255,0.329c0,0,15.183,2.229,27.797-2.646c9.694-3.746,10.579-6.252,10.579-6.252
		s-4.939-1.997-3.558-3.925c1.381-1.93,5.172,3.925,5.172,3.925s-6.829,10.341-38.594,15.317l-7.379,1.62
		C133.6,238.531,137.269,232.692,132.327,230.162z"/>
	<path fill="#60492E" stroke="#2A2B2E" stroke-width="2" stroke-linejoin="round" stroke-miterlimit="10" d="M141.345,215.617
		c0,0-2.237,0.241-2.189,2.255c0.048,2.02,11.612,9.093,13.592,9.155c1.98,0.064,2.21-3.59,2.21-3.59s2.86,3.082,2.227,4.855
		c-0.634,1.772-2.27,1.711-1.361,2.19c0.904,0.478,5.111,5.058,4.331,7.24c-0.779,2.181-5.135,2.315-5.815,2.072
		c-0.684-0.244-0.71-3.177-1.09-4.696c-0.38-1.521-2.824-5.009-3.814-5.672c-0.994-0.661,1.306,0.186,3.572,4.996
		c2.266,4.81-0.252,8.357-0.652,8.93c-0.505,0.724-5.061,0.44-5.454-0.604c-0.626-1.654,2.14-5.772,0.917-10.977
		c-0.531-2.278-3.816-2.21-3.816-2.21s3.416-0.088,4.037,2.904c0.623,2.991-1.72,11.689-2.692,12.264c0,0-2.794,2-5.04,2.045
		c-2.244,0.042-2.487-2.504-2.487-2.504s3.444-0.385,4-1.725c0.558-1.339,0.176-9.088-0.238-10.083
		c-0.416-0.995-1.538-2.37-4.281-2.442c-2.744-0.07-6.664,0.145-6.664,0.145s3.305-3.777,4.236-7.33
		C136.343,217.21,138.042,214.246,141.345,215.617z"/>
	<path fill="#60492E" stroke="#2A2B2E" stroke-width="2" stroke-linejoin="round" stroke-miterlimit="10" d="M141.645,236.794
		c0,0-4.736,0.768-7.6,1.896c-2.864,1.13-3.05,2.294-2.812,3.995c0.237,1.7,0.203,2.227,1.729,2.694
		c1.523,0.466,4.692-0.664,6.85-1.528C141.97,242.986,142.424,241.072,141.645,236.794z"/>
	<path fill="#818D5C" stroke="#2A2B2E" stroke-width="2" stroke-miterlimit="10" d="M69.252,202.9c0,0,6.259,7.32,13.301,9.575
		c0,0-0.103,9.546,2.343,16.224c2.447,6.678,3.182,7.971,2.096,13.186c-1.086,5.214-0.652,13.47-1.956,14.121
		s-7.255-0.218-6.669-0.869c0.585-0.652,3.482-10.356,3.773-16.583c0.291-6.228-1.883-16.076-2.316-17.524
		c-0.436-1.449,0.988,4.48,0.988,4.48s-15.516-10.821-19.115-17.572L69.252,202.9z"/>
	<path fill="#483927" stroke="#2A2B2E" stroke-width="2" stroke-linejoin="round" stroke-miterlimit="10" d="M92.871,323.332
		c0,0-2.364,2.671-5.385,4.364c-3.231,1.812-7.108,2.665-6.36,3.114c1.447,0.87,10.717,0,10.717,0s-11.15-1.158-13.469,1.884
		c-2.316,3.041-1.158,11.15,0,12.021c1.158,0.869,17.09,1.304,20.277,0c3.185-1.304,10.268-5.505,10.268-5.505
		s-0.129-8.398,1.752-9.992c1.882-1.594,5.008-2.152,5.008-2.152C112.843,324.39,98.247,318.894,92.871,323.332z"/>
	<path fill="#2A2B2E" d="M136.271,234.434c0,2.668-1.654,4.832-3.693,4.832c-2.04,0-3.693-2.164-3.693-4.832
		c0-2.672,1.653-4.834,3.693-4.834C134.617,229.6,136.271,231.762,136.271,234.434z"/>
	<path fill="#483927" stroke="#2A2B2E" stroke-width="2" stroke-linejoin="round" stroke-miterlimit="10" d="M122.944,324.872
		c0,0-2.396-0.361-5.414,1.331c-3.232,1.811-8.11,3.225-7.362,3.675c1.45,0.868,12.504,0.313,12.504,0.313
		s-10.796-1.592-13.114,1.45c-2.319,3.042-1.514,11.584-0.355,12.453s17.09,1.304,20.275,0c3.188-1.303,10.271-5.503,10.271-5.503
		s4.875-4.522,6.758-6.116s-3.973-3.548-3.973-3.548C139.698,326.254,131.417,319.984,122.944,324.872z"/>
	<path fill="#3C472E" stroke="#2A2B2E" stroke-width="2" stroke-linejoin="round" stroke-miterlimit="10" d="M84.448,110.508
		c0,0-4.254,1.607-5.092,8.85c-0.838,7.24-1.996,11.875-2.865,12.455c-0.869,0.579,11.613-3.041,13.193-7.098
		c1.58-4.055-0.572-9.148-0.572-9.148L84.448,110.508z"/>
	<path fill="#3C472E" stroke="#2A2B2E" stroke-width="2" stroke-linejoin="round" stroke-miterlimit="10" d="M123.63,111.874
		c0,0-8.18,15.595-12.09,17.043s11.296,6.952,13.613,13.18c2.318,6.228,16.945-20.276,22.74-28.387
		c5.793-8.11,8.11-9.004,7.095-11.814c-1.013-2.814-6.312-6.877-6.312-6.877L123.63,111.874z"/>
	
		<path fill="#645742" stroke="#2A2B2E" stroke-width="2" stroke-linecap="round" stroke-linejoin="round" stroke-miterlimit="10" d="
		M114.296,245.438c0,0-0.334,9.241,2.5,13.124"/>
	<path fill="none" stroke="#2A2B2E" stroke-width="2" stroke-linecap="round" stroke-linejoin="round" stroke-miterlimit="10" d="
		M122.89,245.438c0,0,3.703,8.508,9.703,13.758s10.535-12.293,9.535-23.48"/>
	
		<line fill="none" stroke="#2A2B2E" stroke-width="2" stroke-linecap="round" stroke-linejoin="round" stroke-miterlimit="10" x1="145.218" y1="236.284" x2="145.218" y2="238.658"/>
	
		<line fill="none" stroke="#2A2B2E" stroke-width="2" stroke-linecap="round" stroke-linejoin="round" stroke-miterlimit="10" x1="144.969" y1="242.234" x2="144.839" y2="245.027"/>
	
		<line fill="none" stroke="#2A2B2E" stroke-width="2" stroke-linecap="round" stroke-linejoin="round" stroke-miterlimit="10" x1="144.116" y1="248.173" x2="143.519" y2="250.904"/>
	
		<line fill="none" stroke="#2A2B2E" stroke-width="2" stroke-linecap="round" stroke-linejoin="round" stroke-miterlimit="10" x1="135.192" y1="263.458" x2="132.497" y2="262.714"/>
	
		<line fill="none" stroke="#2A2B2E" stroke-width="2" stroke-linecap="round" stroke-linejoin="round" stroke-miterlimit="10" x1="129.985" y1="261.199" x2="128.13" y2="259.107"/>
	
		<line fill="none" stroke="#2A2B2E" stroke-width="2" stroke-linecap="round" stroke-linejoin="round" stroke-miterlimit="10" x1="126.009" y1="256.593" x2="124.493" y2="254.245"/>
	
		<line fill="none" stroke="#2A2B2E" stroke-width="2" stroke-linecap="round" stroke-linejoin="round" stroke-miterlimit="10" x1="104.422" y1="256.009" x2="105.442" y2="254.389"/>
	
		<line fill="none" stroke="#2A2B2E" stroke-width="2" stroke-linecap="round" stroke-linejoin="round" stroke-miterlimit="10" x1="99.705" y1="260.1" x2="101.786" y2="258.234"/>
	
		<line fill="none" stroke="#2A2B2E" stroke-width="2" stroke-linecap="round" stroke-linejoin="round" stroke-miterlimit="10" x1="93.909" y1="262.255" x2="96.243" y2="261.952"/>
	<polygon fill="#D0D1D2" stroke="#2A2B2E" stroke-width="2" stroke-linejoin="round" stroke-miterlimit="10" points="
		140.013,35.049 136.736,33.01 135.096,27.898 133.143,33.578 128.713,35.965 131.775,37.535 135.869,45.072 136.003,38.098 	"/>
	<circle fill="#F2F2F2" cx="105.534" cy="55.182" r="6.569"/>
	<polyline fill="none" stroke="#252628" stroke-miterlimit="10" points="105.974,50.318 102.656,53.272 108.399,57.401 
		105.315,60.076 	"/>
	<polyline fill="none" stroke="#252628" stroke-miterlimit="10" points="100.446,55.803 102.751,57.832 108.37,52.541 
		110.823,54.991 	"/>
	<g>
		<polyline fill="none" stroke="#2A2B2E" stroke-linecap="round" stroke-linejoin="round" stroke-miterlimit="10" points="
			84.695,77.23 91.888,81.791 82.708,83.551 		"/>
		
			<line fill="none" stroke="#2A2B2E" stroke-linecap="round" stroke-linejoin="round" stroke-miterlimit="10" x1="85.953" y1="81.054" x2="91.231" y2="81.374"/>
	</g>
	<g>
		
			<polyline fill="none" stroke="#2A2B2E" stroke-width="1.5" stroke-linecap="round" stroke-linejoin="round" stroke-miterlimit="10" points="
			118.931,91.85 107.003,84.289 122.229,81.367 		"/>
		
			<line fill="none" stroke="#2A2B2E" stroke-width="1.5" stroke-linecap="round" stroke-linejoin="round" stroke-miterlimit="10" x1="116.44" y1="86.472" x2="108.093" y2="84.979"/>
	</g>
	<path fill="#818D5C" stroke="#2A2B2E" stroke-width="2" stroke-miterlimit="10" d="M185.937,189.64c0,0-8.719,11.116-12.383,15.343
		c-3.666,4.227-17.629,16.614-19.716,19.869c-2.087,3.253,0.583,2.668-5.544,0.016c-6.125-2.651-9.166-6.199-7.353-7.396
		c1.812-1.198,2.455-3.43,5.497-6.342c3.038-2.911,7.7-8.628,11.625-14.451c3.932-5.824,9.917-11.379,9.917-11.379
		S177.01,191.513,185.937,189.64z"/>
</g>
</svg>
