<?xml version="1.0" encoding="utf-8"?>
<!-- Generator: Adobe Illustrator 16.0.0, SVG Export Plug-In . SVG Version: 6.00 Build 0)  -->
<!DOCTYPE svg PUBLIC "-//W3C//DTD SVG 1.1//EN" "http://www.w3.org/Graphics/SVG/1.1/DTD/svg11.dtd">
<svg version="1.1" id="Layer_1" xmlns="http://www.w3.org/2000/svg" xmlns:xlink="http://www.w3.org/1999/xlink" x="0px" y="0px"
	 width="300px" height="300px" viewBox="0 0 300 300" enable-background="new 0 0 300 300" xml:space="preserve">
<path fill="none" stroke="#F3F3F3" stroke-width="8" stroke-linecap="round" stroke-linejoin="round" stroke-miterlimit="10" d="
	M270.808,29.596c0,0-9.66-0.539-17.799,3.31c-0.021-0.066-0.036-0.109-0.036-0.109s-26.753,9.975-43.984,36.275
	c0,0-39.954-11.109-65.749,1.361c0,0-7.366-7.896-20.443-12.047c0,0-0.131,3.398-2.331,3.307c-1.699-0.072-2.531-3.242-2.531-3.242
	s-1.345,4.111-5.694,3.242c-3.353-0.672-0.788-5.395-0.788-5.395s-3,0.98-3.996,0.551c-2.826-1.221-1.048-5.254-1.048-5.254
	c-5.571-2.979-12.614-3.695-18.94-3.836c0,0-0.004,0.019-0.006,0.031c0.002-0.027,0.003-0.053,0.006-0.081
	c0,0-12.999-2.115-19.498,2.57c0,0,8.16,13.793,32.069,24.145c0,0-0.487-0.372-1.268-1.074c1.719,1.349,3.673,2.656,5.927,3.884
	c15.609,8.502,26.3,7.709,26.3,7.709s-7.709,14.057-10.43,34.008s-7.708,47.157-14.057,70.284
	c-0.986,3.594-1.589,7.363-1.833,11.178l-5.397-2.885l4.974-13.154l-11.748-6.305l6.057-22.041l-19.806-4.725l23.034-42.255
	L32.591,73.841l-17.938,46.991l14.478,3.408c0,0,1.542-2.185,3.329-1.854c1.786,0.33,2.453,3.217,2.453,3.217
	s0.429-5.906,4.916-5.577c5.589,0.408,1.969,7.196,1.969,7.196s2.183-2.6,4.006-2.138c2.351,0.599,1.49,3.432,1.49,3.432
	l21.655,5.097l-5.205,25.002l17.835,6.559l-2.743,18.125l16.781,6.645l-4.332,11.887l13.072,3.285
	c-0.042,2.948,0.405,5.379,0.405,5.379s0.04-0.006,0.097-0.014c1.593,16.379,9.485,31.487,21.771,34.953
	c3.998,4.724,14.962,16.793,21.306,15.086c6.098-1.642,2.974-10.244-0.408-14.617c9.269-1.443,16.962-4.352,25.187-4.068
	c7.443,0.257,16.193,1.819,24.442,1.648c5.233,5.406,15.754,15.272,21.506,13.725c7.378-1.986-4.068-15.729-6.721-17.009
	c0.855-0.455,1.688-0.962,2.488-1.538c11.337-8.162,7.147-25.125,0-37.182c-1.245-2.102-1.846-3.138-2.169-5.399
	c1.935,3.538,4.472,6.798,7.815,9.304c1.862,1.398,2.11,5.598,4.276,6.146l1.203-3.602l2.035,3.309l1.268-4.174l3.113,4.273
	l0.543-4.982l3.551,1.615c0,0,0.85-4.232,0.047-6.299c-0.686-1.764,5.398-6.043,4.222-16.693c-0.295-2.668-1.015-5.576-2.36-8.705
	c0,0-2.235,1.471-3.818-0.449c-1.271-1.543,0.445-4.094,0.445-4.094s-4.005,4.646-7.363,0.703c-3.229-3.793,2.395-7.553,2.395-7.553
	s-2.328,1.078-3.471-1.018c-1.188-2.18,0.629-4.271,0.629-4.271c-4.512-4.662-8.893-7.813-11.056-9.251
	c0.811-2.068,1.416-3.117,1.416-3.117s5.154-4.406,9.346-10.333c0.139,0.173,0.269,0.347,0.418,0.519c0,0,5.668-7.369,5.668-10.996
	c0-1.444-0.325-2.803-0.775-3.998c-0.499-4.815-4.684-5.622-5.039-12.365c-0.453-8.615-2.362-24.201-6.442-28.283
	c0,0,23.079-12.148,29.409-22.571c-0.31,0.602-0.632,1.205-0.985,1.809C248.749,61.004,270.203,38.667,270.808,29.596z"/>
<g>
	<path fill="#D8BA2A" stroke="#2B2B2E" stroke-width="2" stroke-linecap="round" stroke-miterlimit="10" d="M125.112,243.59
		c0,0,14.963,19.045,22.823,16.93c7.618-2.051,0.844-14.973-2.847-16.93"/>
	<path fill="#D8BA2A" stroke="#2B2B2E" stroke-width="2" stroke-linecap="round" stroke-miterlimit="10" d="M194.024,240.113
		c0,0,16.778,19.209,24.638,17.094c7.619-2.051-4.837-16.641-6.952-17.094"/>
	
		<path fill="#D8BA2A" stroke="#2B2B2E" stroke-width="2" stroke-linecap="round" stroke-linejoin="round" stroke-miterlimit="10" d="
		M87.467,47.759c0,0-3.784,18.027,17.23,29.475c15.609,8.502,26.3,7.709,26.3,7.709s-7.709,14.057-10.43,34.008
		s-7.708,47.157-14.057,70.284s3.174,53.508,22.219,56.682c19.044,3.172,30.835-4.535,43.984-4.082s30.38,4.988,41.716-3.174
		c11.337-8.162,7.147-25.125,0-37.182c-2.796-4.719-2.343-4.047-2.796-24c-0.453-19.951,5.517-30.256,5.517-30.256
		s11.336-9.682,14.058-19.656c2.721-9.977-3.986-8.9-4.44-17.516c-0.453-8.615-2.362-24.201-6.442-28.283
		c0,0,23.231-12.227,29.474-22.672c7.807-13.063,3.174-26.299,3.174-26.299s-26.753,9.975-43.984,36.275
		c0,0-39.954-11.109-65.749,1.361c0,0-7.366-7.896-20.443-12.047c0,0-0.131,3.398-2.331,3.307c-1.699-0.072-2.531-3.242-2.531-3.242
		s-1.345,4.111-5.694,3.242c-3.353-0.672-0.788-5.395-0.788-5.395s-3,0.98-3.996,0.551c-2.826-1.221-1.048-5.254-1.048-5.254
		C100.836,48.617,93.793,47.9,87.467,47.759z"/>
	<path fill="#736E50" stroke="#2B2B2E" stroke-width="2" stroke-miterlimit="10" d="M87.467,47.709c0,0-12.999-2.115-19.498,2.57
		c0,0,8.16,13.793,32.069,24.145C100.038,74.424,85.804,63.581,87.467,47.709z"/>
	<path fill="#736E50" stroke="#2B2B2E" stroke-width="2" stroke-miterlimit="10" d="M252.973,32.922c0,0,4,14.027-4.224,28.082
		c0,0,21.454-22.338,22.059-31.408C270.808,29.596,261.119,29.055,252.973,32.922z"/>
	
		<path fill="#D8BA2A" stroke="#2B2B2E" stroke-width="2" stroke-linecap="round" stroke-linejoin="round" stroke-miterlimit="10" d="
		M109.884,206.504l-18.599-4.674l4.332-11.887l-16.781-6.645l2.743-18.125l-17.835-6.559l5.205-25.002l-21.655-5.097
		c0,0,0.86-2.833-1.49-3.432c-1.823-0.462-4.006,2.138-4.006,2.138s3.62-6.788-1.969-7.196c-4.487-0.329-4.916,5.577-4.916,5.577
		s-0.667-2.887-2.453-3.217c-1.787-0.33-3.329,1.854-3.329,1.854l-14.478-3.408l17.938-46.991l69.202,35.206l-23.034,42.255
		l19.806,4.725l-6.057,22.041l11.748,6.305l-4.974,13.154l10.315,5.514"/>
	<path fill="#736E50" stroke="#2B2B2E" stroke-width="2" stroke-miterlimit="10" d="M229.068,117.797c0,0-3.619,1.984-4.999,5.932
		c-1.135,3.24-1.537,8.615,2.845,13.68c0,0,5.668-7.369,5.668-10.996C232.582,121.651,229.068,117.797,229.068,117.797z"/>
	<path fill="#736E50" stroke="#2B2B2E" stroke-width="2" stroke-miterlimit="10" d="M153.245,132.143
		c0,5.678-4.541,11.387-10.217,11.387s-10.278-4.602-10.278-10.277s4.603-9.523,10.278-9.523S153.245,126.467,153.245,132.143z"/>
	<path fill="#2B2B2E" d="M185.729,120.502c0.091-0.672,5.093-1.219,5.576,0.158c0.235,0.672-1.622,2.461-2.464,2.451
		C188.034,123.104,185.638,121.174,185.729,120.502z"/>
	<path fill="#A42942" stroke="#2B2B2E" stroke-width="2" stroke-miterlimit="10" d="M113.201,162.287c0,0,11.59,3.533,11.906,6.695
		c0.315,3.164-14.729,6.012-14.729,6.012L113.201,162.287z"/>
	<path fill="#A42942" stroke="#2B2B2E" stroke-width="2" stroke-miterlimit="10" d="M104.945,198.418c0,0,14.77,3.531,15.086,6.695
		s-15.269,5.381-15.269,5.381s-0.538-2.916-0.38-6.236C104.542,200.936,104.945,198.418,104.945,198.418z"/>
	
		<path fill="#D8BA2A" stroke="#2B2B2E" stroke-width="2" stroke-linecap="round" stroke-linejoin="round" stroke-miterlimit="10" d="
		M152.857,183.393c0,0,0.698,8.793-2.038,20.32c-2.736,11.523-12.301,17.992-12.542,20.107c-0.241,2.117-3.604,5.473-3.604,5.473
		l-1.465-3.004l-3.225,3.389l-0.527-4.67l-2.438,2.666l-1.619-4.633l-1.828,2.336c0,0-2.598-3.572-1.87-6.6
		c0.378-1.572-4.405-11.619-3.923-18.037c0.879-11.723,5.437-21.504,5.437-21.504"/>
	
		<path fill="#D8BA2A" stroke="#2B2B2E" stroke-width="2" stroke-linecap="round" stroke-linejoin="round" stroke-miterlimit="10" d="
		M206.155,168.553c0,0-0.867,25.746,13.921,36.83c1.862,1.398,2.11,5.598,4.276,6.146l1.203-3.602l2.035,3.309l1.268-4.174
		l3.113,4.273l0.543-4.982l3.551,1.615c0,0,0.85-4.232,0.047-6.299c-0.686-1.764,5.398-6.043,4.222-16.693
		c-0.295-2.668-1.015-5.576-2.36-8.705c0,0-2.235,1.471-3.818-0.449c-1.271-1.543,0.445-4.094,0.445-4.094s-4.005,4.646-7.363,0.703
		c-3.229-3.793,2.395-7.553,2.395-7.553s-2.328,1.078-3.471-1.018c-1.188-2.18,0.629-4.271,0.629-4.271
		c-6.347-6.559-12.459-10.145-12.459-10.145"/>
	<path fill="#A42942" d="M181.646,134.342c0,0,6.52,7.123,8.576,7.123c2.056,0,7.083-8.23,7.083-8.23l-7.435-2.688L181.646,134.342z
		"/>
	<path fill="#EE3D5C" d="M183.947,137.079c0,0,1.144-2.504,5.528-2.734c4.384-0.232,6.336,2.201,6.336,2.201
		s-3.271,6.826-5.484,6.984C188.112,143.688,183.947,137.079,183.947,137.079z"/>
	<path fill="none" stroke="#2B2B2E" stroke-width="2" stroke-linecap="round" stroke-miterlimit="10" d="M182.003,134.727
		c0,0,5.478,8.883,8.324,8.803c2.847-0.078,6.978-10.295,6.978-10.295"/>
	<path fill="#E3E1DE" d="M183.947,133.584c0,0,1.528,3.494,2.172,3.494c0.571,0,0.885-5.271,0.885-5.271"/>
	<path fill="#E3E1DE" d="M191.554,131.5c0,0,0.961,4.564,1.525,4.564c0.502,0,1.523-3.703,1.523-3.703"/>
	<path fill="none" stroke="#2B2B2E" stroke-width="2" stroke-linecap="round" stroke-miterlimit="10" d="M176.108,131.969
		c0,0,4.103,2.295,5.537,2.373c1.434,0.08,6.396-3.875,8.225-3.795c1.83,0.078,6,2.688,7.435,2.688c1.434,0,3.638-2.688,3.638-2.688
		"/>
	<path fill="none" stroke="#2B2B2E" stroke-width="2" stroke-miterlimit="10" d="M125.304,99.698c0,0,32.442-9.047,38.696-33.697"/>
	
		<line fill="none" stroke="#2B2B2E" stroke-width="2" stroke-linecap="round" stroke-linejoin="round" stroke-miterlimit="10" x1="130.588" y1="94.934" x2="132.75" y2="99.698"/>
	
		<line fill="none" stroke="#2B2B2E" stroke-width="2" stroke-linecap="round" stroke-linejoin="round" stroke-miterlimit="10" x1="137.088" y1="91.268" x2="139.922" y2="97.317"/>
	
		<line fill="none" stroke="#2B2B2E" stroke-width="2" stroke-linecap="round" stroke-linejoin="round" stroke-miterlimit="10" x1="144.146" y1="86.434" x2="148.088" y2="93.434"/>
	
		<line fill="none" stroke="#2B2B2E" stroke-width="2" stroke-linecap="round" stroke-linejoin="round" stroke-miterlimit="10" x1="150.088" y1="80.934" x2="155.319" y2="87.102"/>
	
		<line fill="none" stroke="#2B2B2E" stroke-width="2" stroke-linecap="round" stroke-linejoin="round" stroke-miterlimit="10" x1="156.416" y1="75.475" x2="161.588" y2="79.102"/>
	<g>
		
			<polyline fill="none" stroke="#2B2B2E" stroke-width="2" stroke-linecap="round" stroke-linejoin="round" stroke-miterlimit="10" points="
			152.479,104.12 165.236,110.176 150.479,114.926 		"/>
		
			<line fill="none" stroke="#2B2B2E" stroke-width="2" stroke-linecap="round" stroke-linejoin="round" stroke-miterlimit="10" x1="155.319" y1="110.161" x2="164.07" y2="109.623"/>
	</g>
	<g>
		
			<polyline fill="none" stroke="#2B2B2E" stroke-width="2" stroke-linecap="round" stroke-linejoin="round" stroke-miterlimit="10" points="
			215.535,114.926 202.777,108.87 217.535,104.12 		"/>
		
			<line fill="none" stroke="#2B2B2E" stroke-width="2" stroke-linecap="round" stroke-linejoin="round" stroke-miterlimit="10" x1="212.41" y1="109.891" x2="203.943" y2="109.423"/>
	</g>
</g>
</svg>
