<?xml version="1.0" encoding="utf-8"?>
<!-- Generator: Adobe Illustrator 16.0.0, SVG Export Plug-In . SVG Version: 6.00 Build 0)  -->
<!DOCTYPE svg PUBLIC "-//W3C//DTD SVG 1.1//EN" "http://www.w3.org/Graphics/SVG/1.1/DTD/svg11.dtd">
<svg version="1.1" id="Layer_1" xmlns="http://www.w3.org/2000/svg" xmlns:xlink="http://www.w3.org/1999/xlink" x="0px" y="0px"
	 width="223.333px" height="351.667px" viewBox="0 0 223.333 351.667" enable-background="new 0 0 223.333 351.667"
	 xml:space="preserve">
<path fill="none" stroke="#F3F3F3" stroke-width="8" stroke-linejoin="round" stroke-miterlimit="10" d="M188.078,303.035
	c-3.5-6.5-12.75-13.25-17.5-21.5s-10.75-24.25-14.5-28c-1.697-1.697-2.672-1.752-3.237-1.307c1.554-3.832,4.931-13,4.737-19.943
	c-0.129-4.627-0.502-9.986-1.447-14.75c6.973-3.32,12.45-6.367,14.901-11.531l-2.682-0.936c0.288-0.93,0.91-4.176,2.255-13.931
	c2.002-14.527,5.057-28.291,2.816-45.62c2.016-1.61,3.641-3.162,4.34-4.363c0-4.584-6.863-21.105-6.863-21.105
	s-3.25-10.352-6.5-10.623c-1.535-0.128-6.309-0.695-10.917-1.259c5.388-2.965,10.134-6.079,13.306-9.841
	c5.641-6.69,15.564-35.18,15.76-43.192c0.125-5.018-3.184-9.243-5.984-11.804c-0.496-3.236-1.369-5.207-1.369-5.207
	c-5.711-9.793-21.798-16.353-29.074-18.764c-7.279-2.411-10.32-1.883-10.32-1.883s4.26,2.157,2.996,3.318
	c-1.263,1.162-29.137-2.015-42.122,16.507C83.687,55.824,82.89,66.576,82.89,66.576s4.055-8.531,10.693-10.545
	c0,0-4.968,7.045-6.068,10.893l3.508-0.515c0,0-9.676,13.306-12.084,23.22c0,0,4.207-6.332,8.158-6.603
	c0,0-5.604,11.879-5.174,17.464l7.613-8.667c0,0-5.669,13.134-4.764,17.822c0,0,9.578-12.881,16.15-13.653
	c0,0-2.87,8.663-8.82,12.221c0,0,3.135,1.288,7.239,0.06c-0.169,0.659-0.337,1.422-0.454,2.212c-5.1,0.382-12.701,1.024-14.49,1.574
	c-2.75,0.846-4.5,10.596-6.25,13.096s-5.773,13.332-5.721,14.916c0.039,1.156,1.804,2.357,4.184,3.508l2.156,34.712
	c0,0-4.296,5.183-5.117,7.337c0,0,6.024,1.135,7.816-0.752c0,0-2.534,6.149,1.014,8.613c0,0,7.249-10.688,6.215-13.113
	c0,0-0.667-1.487-0.983-17.451c-0.128-6.499-0.175-11.392-0.185-14.938c0.707,0.308,1.271,0.588,1.621,0.834
	c2.486,1.752,4.5-5.916,4.5-5.916s3.5,5.5,3.75,13.25s0.334,20.25-1.584,29.5c-1.916,9.25-1.666,14-1.666,14l4.055-3.494
	c-1.914,2.979-1.877,4.441-3.033,10.5c-1.021,5.354-0.234,12.494-0.234,12.494s1.295-0.191,3.129-0.58
	c0.396,2.689,1.262,5.693,3.014,8.461c0.898,1.418,2.077,3.678,3.406,6.461l-14.479,8.143c0,0-8.272-5.822-13.71-4.857
	c-1.021,0.18-2.146,0.457-3.328,0.813l-14.848-27.576l0.115-4.361c0,0,0.443-15.767,0.18-18.755
	c-0.266-2.988-0.663-7.471-2.908-8.275c-2.246-0.805-7.084-4.392-9.062-4.05s-5.066,5.136-5.066,5.136s0,0,1.911,2.673
	c1.91,2.677,10.568,4.083,10.568,4.083l-2.535-0.277l1.986,9.194l-1.316-1.641c0,0-2.055,4.199-3.073,4.037
	c-1.019-0.16-10.903-12.585-13.498-16.371s1.255-14.166,0.419-15.096c-0.836-0.931-4.593-0.849-6.724,0.596
	c-1.614,1.094-2.78,5.606-2.832,9.984c-0.013-1.462,0.026-2.551-0.207-2.678c-0.791-0.432-15.335,0.596-16.492,1.702
	s1.409,7.405,3.237,8.202c1.827,0.797,3.761-0.038,7.973-0.662c4.211-0.624,7.266-0.142,7.508,2.598
	c0.243,2.739,4.104,15.156,4.104,15.156s-7.632,8.748-8.342,12.074c-0.709,3.324,3.529,15.75,4.841,16.387
	c1.311,0.637,5.457-0.734,5.889-1.527c0.432-0.791-1.643-4.371-3.307-8.992c-1.665-4.621,1.036-8.123,1.036-8.123l0.287,3.236
	c0,0,13.668,1.299,16.295,3.576c1.159,1.006,6.86,12.385,12.862,24.775c-1.298,0.848-2.445,1.732-3.33,2.625
	c-1.352,1.365-0.07,7.344,1.635,7.699c0.991,0.209,3.775-0.717,5.93-1.527c0.061,0.127,0.121,0.254,0.183,0.381
	c-1.669,0.721-4.146,1.447-7.442,1.512c-2.943,0.055-2.869,2.334-1.566,6.906c0.597,2.094,2.522,2.693,5.041,2.277
	c-0.217,0.064-0.421,0.129-0.649,0.195c-2.177,0.633-1.934,4.213,0.052,6.518c3.832,1.092,8.94-1.4,11.475-2.861
	c0.097,0.203,0.193,0.408,0.287,0.605c-1.008,0.912-2.746,2.074-5.671,3.076c-2.765,0.904,0.272,8.627,2.761,8.381
	c2.61-0.26,4.981-0.775,7.728-1.936l0.933,1.104l0.346-0.822l5.031,4.68l0.623-0.074c0,0-1.922,6.797,2.188,9.088
	c4.111,2.291,8.137-4.811,5.455-7.619c0,0,5.709-1.438,3.115-5.152c-2.594-3.717-8.458-1.74-8.458-1.74l-2.612-3.043
	c0.786-0.498,1.604-1.033,2.475-1.625l3.473-0.244l-0.853-1.582c7.581-5.377,7.517-6.033,7.528-7.793
	c0.011-1.84-0.065-6.686-0.065-6.686s5.239-3.729,12.495-8.84c4.539,10.873,8.982,22.889,9.898,27.609
	c-0.016-0.016-0.365,0.139-7.512,8.805c-7.631,9.25-26.381,19-28.631,25.75c-0.643,1.93-0.263,2.139,0.963,1.559
	c-0.004,0.006-1.457,2.193-1.271,4.316c0.006,0.066,0.047,0.119,0.104,0.164c-1.944,0.506-3.535,1.439-4.045,3.086
	c-1.625,5.25-2.125,7.875,2.125,9s20.375,0.875,23-1.5c1.146-1.037,1.506-2.23,1.548-3.244c0.435,0.758,1.307,1.014,3.077-0.756
	c3.75-3.75,11.25-7.25,8.75-12.125c-0.142-0.275-0.322-0.535-0.521-0.787c4.893,1.281,4.834,0.414,5.113-4.213
	c0.408-6.75,7.867-14.621,16.658-21.75c2.102-1.705,2.549-5.455,2.108-9.455c0.767,2.287,1.491,4.602,2.142,6.955
	c2.311,8.354,12.5,18.75,12.5,18.75s-0.75,9.25,0,10.5c0.055,0.092,0.143,0.143,0.248,0.174c-1.735,0.809-3.225,1.656-4.748,2.576
	c0,0-7.52,3.205-7.334,5.33c0.074,0.863,3.785,0.389,5.654,1.057l0,0c-4.16-0.631-10.381-0.953-11.445,2.488
	c-1.625,5.25,2.125,11.75,6.375,12.875s15.596,4.465,18.5,2.441c3.557-2.479,4.115-4.889,3.916-6.537
	c0.746,1.338,2.074,2.438,4.219,0.295c3.133-3.133,14.771-8.525,17.063-13.059C189.515,315.873,191.05,308.555,188.078,303.035z
	 M26.461,180.075c0.005,0.035,0.011,0.067,0.016,0.102c-0.003-0.017-0.008-0.033-0.01-0.05S26.463,180.093,26.461,180.075z
	 M26.406,179.587c0.001,0.005,0.001,0.01,0.002,0.016C26.407,179.597,26.406,179.592,26.406,179.587z M27.246,182.878
	c0.559,1.278,1.405,2.785,2.4,4.377C28.83,186.022,27.902,184.489,27.246,182.878z M67.339,260.791
	c0.779-0.381,1.567-0.811,2.355-1.287C69.695,259.504,69.355,259.947,67.339,260.791z M97.557,304.551
	c-4.128,1.193-7.388,2.463-10.105,3.828C89.88,307.021,93.341,305.262,97.557,304.551z M90.436,313.834
	c2.628-0.105,3.392,0.326,3.392,0.326S92.395,313.934,90.436,313.834z M130.078,238.16l0.233-1.609
	c0.036,0.746,0.114,1.52,0.267,2.318c0.318,1.674,0.66,3.395,1.029,5.115c-0.754-2.383-1.609-4.855-2.604-7.318L130.078,238.16z
	 M151.623,206.764c-0.246-0.258-0.627-0.531-1.088-0.814c1.457-0.848,1.544-1.053,1.902-1.955c0.703-1.771-0.406-0.084,0.578-5.084
	s-0.965-12.533-2.395-18.789c-1.229-5.367-3.473-11.217-3.473-11.217l4,3.75c0,0-3-20.75-2.5-29.75c0,0,8.941,10.688,10.225,11.25
	c0.201,0.088,0.74-0.063,1.515-0.395c0.782,5.728,1.253,12.836,0.348,19.649c-1.99,14.972-5.353,31.472-5.353,31.472l-3.628,2.039
	C151.708,206.871,151.668,206.811,151.623,206.764z"/>
<path fill="#C5C7CD" stroke="#2B2B2E" stroke-width="2" stroke-miterlimit="10" d="M151.578,311.535c0,0-7.52,3.205-7.334,5.33
	c0.074,0.863,3.785,0.389,5.654,1.057c2.77,0.99,3.805,0.748,3.805,0.748s-13.625-3.51-15.25,1.74s2.125,11.75,6.375,12.875
	s15.596,4.465,18.5,2.441c6.375-4.441,3.125-8.67,3.125-8.67s1.26,6.178,5.01,2.428s19.699-10.74,17.199-15.615
	s-19.238-9.236-25.25-7.5C157.833,307.979,154.791,309.596,151.578,311.535z"/>
<path fill="#C5C7CD" stroke="#2B2B2E" stroke-width="2" stroke-miterlimit="10" d="M84.791,309.844c0,0-1.457,2.191-1.271,4.316
	c0.074,0.863,4.545-0.201,6.559-0.314c2.938-0.164,3.75,0.314,3.75,0.314s-12.625-2-14.25,3.25s-2.125,7.875,2.125,9
	s20.375,0.875,23-1.5s1.127-5.566,1.127-5.566s-0.252,5.316,3.498,1.566s11.25-7.25,8.75-12.125s-14.484-5.977-20.498-4.24
	C92.001,306.154,88.003,307.904,84.791,309.844z"/>
<path fill="#A42942" stroke="#2B2B2E" stroke-width="2" stroke-linejoin="round" stroke-miterlimit="10" d="M98.078,210.285
	c0,0-1.75,9.25,3,16.75s17.285,38.398,18.893,46.699c0,0,0.117-0.449-7.512,8.801c-7.631,9.25-26.381,19-28.631,25.75
	s7.977-7.5,23.363-3.25s15.07,5.5,15.479-1.25s7.867-14.621,16.658-21.75c4.625-3.75,1.25-17.404-2-21.828
	c-3.25-4.422-4.938-17.859-10.938-29.234c-1.797-3.406,1.438,4.063,1.438,4.063l2.25,3.125l1.25-8.625c0,0-1.711,4.283-0.75,9.334
	c1.059,5.563,2.336,11.676,4.244,16.367c3.135,7.707,6.4,15.775,8.756,24.299c2.311,8.354,12.5,18.75,12.5,18.75s-0.75,9.25,0,10.5
	s6.25-3.5,16.25-1.5s15,6.25,15.75,8.75s3.5-6.5,0-13s-12.75-13.25-17.5-21.5s-10.75-24.25-14.5-28s-4,0.5-4,0.5
	s5.75-12.75,5.5-21.75s-1.41-20.793-5.955-25.521S104.078,192.035,98.078,210.285z"/>
<path fill="#F3F2F2" stroke="#2B2B2E" stroke-width="2" stroke-miterlimit="10" d="M77.184,274.434l7.524,6.998l0.623-0.074
	c0,0-1.922,6.797,2.188,9.088c4.111,2.291,8.137-4.811,5.455-7.619c0,0,5.709-1.438,3.115-5.152c-2.594-3.717-8.458-1.74-8.458-1.74
	l-6.968-8.119"/>
<path fill="#9EA74E" stroke="#2B2B2E" stroke-width="2" stroke-linejoin="round" stroke-miterlimit="10" d="M77.623,275.551
	c0,0-25.891-55.43-28.517-57.707c-2.627-2.277-16.295-3.576-16.295-3.576l-0.287-3.236c0,0-2.701,3.502-1.036,8.123
	c1.664,4.621,3.738,8.201,3.307,8.992c-0.432,0.793-4.578,2.164-5.889,1.527c-1.312-0.637-5.55-13.063-4.841-16.387
	c0.71-3.326,8.342-12.074,8.342-12.074s-3.861-12.417-4.104-15.156c-0.242-2.739-3.297-3.222-7.508-2.598
	c-4.212,0.624-6.146,1.459-7.973,0.662c-1.828-0.797-4.395-7.096-3.237-8.202s15.701-2.134,16.492-1.702
	c0.388,0.211,0.024,3.074,0.391,5.91c0.382,2.958,2.453,6.083,3.777,8.017c2.595,3.785,9.135,12.452,9.135,12.452
	s-11.823-14.473-12.785-19.658s0.391-12.584,2.521-14.027c2.131-1.444,5.888-1.526,6.724-0.596c0.836,0.93-3.014,11.31-0.419,15.096
	s12.479,16.211,13.498,16.371c1.019,0.162,3.073-4.037,3.073-4.037l1.316,1.641l-1.986-9.194l2.535,0.277
	c0,0-8.658-1.406-10.568-4.083c-1.911-2.673-1.911-2.673-1.911-2.673s3.089-4.794,5.066-5.136s6.815,3.245,9.062,4.05
	c2.245,0.805,2.643,5.287,2.908,8.275c0.264,2.988-0.18,18.755-0.18,18.755l-0.115,4.361l32.848,61.004l-9.146,0.645l-2.488,5.908
	L77.623,275.551z"/>
<path fill="#9EA74E" stroke="#2B2B2E" stroke-width="2" stroke-linejoin="round" stroke-miterlimit="10" d="M76.042,134.434
	l2.725,43.856c0,0-4.296,5.183-5.117,7.337c0,0,6.024,1.135,7.816-0.752c0,0-2.534,6.149,1.014,8.613c0,0,7.249-10.688,6.215-13.113
	c0,0-0.667-1.487-0.983-17.451c-0.315-15.964-0.136-22.381-0.136-22.381L76.042,134.434z"/>
<path fill="#9EA74E" stroke="#2B2B2E" stroke-width="2" stroke-linejoin="round" stroke-miterlimit="10" d="M158.07,142.022
	c0,0,4.655,16.415,2.665,31.387s-5.353,31.472-5.353,31.472l-65.378,36.758c0,0-8.272-5.822-13.71-4.857
	c-5.438,0.963-13.881,4.65-17.656,8.463c-1.352,1.365-0.07,7.344,1.635,7.699c1.701,0.357,8.697-2.629,8.697-2.629
	s-3.327,2.863-10.027,2.994c-2.943,0.055-2.869,2.334-1.566,6.906c1.104,3.877,6.746,2.66,12.318-0.711c0,0-0.848,1.117-7.927,3.184
	c-2.177,0.633-1.934,4.213,0.052,6.518c5.293,1.508,13.045-3.83,13.045-3.83s-1.103,2.648-6.954,4.65
	c-2.765,0.904,0.272,8.627,2.761,8.381c5.356-0.533,9.689-2.121,18.371-8.209c8.682-6.092,8.588-6.711,8.6-8.551
	c0.011-1.84-0.065-6.686-0.065-6.686s20.821-14.814,36.942-25.885c16.121-11.072,31.83-13.209,36.513-23.072l-2.931-1.023
	c0,0,0.02,4.182,2.504-13.843c2.483-18.024,6.594-34.868,0.191-58.812"/>
<path fill="#176740" stroke="#2B2B2E" stroke-width="2" stroke-linejoin="round" stroke-miterlimit="10" d="M103.648,110.148
	c0,0-16.5,1.064-19.25,1.91s-4.5,10.596-6.25,13.096s-5.773,13.332-5.721,14.916c0.111,3.287,14.146,6.938,16.721,8.75
	c2.486,1.752,4.5-5.916,4.5-5.916s3.5,5.5,3.75,13.25s0.334,20.25-1.584,29.5c-1.916,9.25-1.666,14-1.666,14l4.055-3.494
	c-1.914,2.979-1.877,4.441-3.033,10.5c-1.021,5.354-0.234,12.494-0.234,12.494s8.574-1.25,12.992-4c4.416-2.75,8.215-8,9.467-8.75
	c0,0-2.252,3.25,0,4c2.254,0.75,0,5.5,0,5.5s11.801,0.705,19.602-2.537c7.725-3.209,11.078-6.031,11.916-6.5
	c3.064-1.711,3.064-1.711,3.525-2.873c0.703-1.771-0.406-0.084,0.578-5.084s-0.965-12.533-2.395-18.789
	c-1.229-5.367-3.473-11.217-3.473-11.217l4,3.75c0,0-3-20.75-2.5-29.75c0,0,8.941,10.688,10.225,11.25s16.316-8.584,18.889-13
	c0-4.584-6.863-21.105-6.863-21.105s-3.25-10.352-6.5-10.623s-21-2.51-21-2.51L103.648,110.148z"/>
<path fill="#9EA74E" stroke="#2B2B2E" stroke-width="2" stroke-miterlimit="10" d="M99.947,106.246c0,0-1.922,5.34-0.936,8.117
	c0.988,2.778,1.697,6.005,4.021,8.005c2.323,1.999,16.18,7.863,21.71,5.482c5.529-2.382,5.086-7.401,15.432-12.796
	c10.348-5.395,20.973-10.038,26.613-16.729s15.564-35.18,15.76-43.192c0.198-8.011-8.353-14.005-9.617-14.424l-65.678,24.413
	L99.947,106.246z"/>
<path fill="#2B2B2E" stroke="#2B2B2E" stroke-width="3" stroke-miterlimit="10" d="M129.866,107.82
	c2.788,1.912-1.031,8.086-3.735,11.272c-2.703,3.187-6.678,4.635-8.709,0.143c-2.032-4.492-5.672-5.829-8.598-6.931
	c-2.928-1.102-4.502-3.305-2.801-7.842c1.488-3.964,4.382-2.894,7.429-0.664c2.925,2.143,3.601,3.331,7.743,4.046
	C125.339,108.56,126.523,105.527,129.866,107.82z"/>
<path fill="#EBE7E1" d="M110.778,102.207c0,0-1.913,3.613-0.845,4.362s3.969,2.143,5.458,1.809c0.633-0.14,1.028-2.315,1.028-2.315
	S113.158,102.996,110.778,102.207z"/>
<path fill="#EBE7E1" d="M111.383,113.327c0,0,1.853-2.876,0.783-3.625c-1.068-0.749-2.579-1.505-4.067-1.173
	c-0.633,0.143-0.9,2.938-0.9,2.938S108.428,112.453,111.383,113.327z"/>
<path fill="#EBE7E1" d="M116.425,117.479c0,0,1.861-3.775,1.217-4.469c-0.445-0.481-1.951-1.412-3.223-1.401
	c-0.648,0.006-1.409,2.601-1.409,2.601S115.359,115.765,116.425,117.479z"/>
<path fill="#EBE7E1" d="M124.123,120.997c0,0,1.571-3.971,0.927-4.664c-0.446-0.48-2.606-1.503-3.872-1.39
	c-1.188,0.108-2.439,6.247-2.439,6.247S120.79,123.73,124.123,120.997z"/>
<path fill="#EBE7E1" d="M117.544,106.737c0,0-0.994,1.92,0.074,2.669s3.34,1.64,4.828,1.306c0.631-0.141,1.214-2.861,1.214-2.861
	S120.938,108.132,117.544,106.737z"/>
<path fill="#EBE7E1" d="M125.095,107.408c0,0-1.371,3.243-0.861,3.719c0.785,0.735,3.969,2.141,5.457,1.809
	c0.633-0.143,1.412-2.614,1.361-3.438C131.004,108.675,129.826,105.688,125.095,107.408z"/>
<polygon fill="#9EA74E" stroke="#2B2B2E" stroke-width="2" stroke-linejoin="round" stroke-miterlimit="10" points="
	105.875,185.115 101.626,188.781 107.958,192.281 108.958,186.781 108.292,179.115 "/>
<polygon fill="#9EA74E" stroke="#2B2B2E" stroke-width="2" stroke-linejoin="round" stroke-miterlimit="10" points="
	154.375,131.615 157.113,136.535 162.375,129.107 159.054,128.205 153.49,121.68 155.375,127.865 "/>
<g>
	
		<polyline fill="none" stroke="#2B2B2E" stroke-width="2" stroke-linecap="round" stroke-linejoin="round" stroke-miterlimit="10" points="
		109.371,77.225 119.576,86.986 104.072,86.854 	"/>
	
		<line fill="none" stroke="#2B2B2E" stroke-width="2" stroke-linecap="round" stroke-linejoin="round" stroke-miterlimit="10" x1="110.167" y1="83.853" x2="118.643" y2="86.093"/>
</g>
<g>
	
		<polyline fill="none" stroke="#2B2B2E" stroke-width="2" stroke-linecap="round" stroke-linejoin="round" stroke-miterlimit="10" points="
		140.841,99.708 130.636,89.945 146.139,90.079 	"/>
	
		<line fill="none" stroke="#2B2B2E" stroke-width="2" stroke-linecap="round" stroke-linejoin="round" stroke-miterlimit="10" x1="139.458" y1="93.945" x2="131.569" y2="90.839"/>
</g>
<path fill="#2B2B2E" stroke="#2B2B2E" stroke-width="2" stroke-linejoin="round" stroke-miterlimit="10" d="M175.193,38.123
	c-5.711-9.793-21.798-16.353-29.074-18.764c-7.279-2.411-10.32-1.883-10.32-1.883s4.26,2.157,2.996,3.318
	c-1.263,1.162-29.137-2.015-42.122,16.507C83.687,55.824,82.89,66.576,82.89,66.576s4.055-8.531,10.693-10.545
	c0,0-4.968,7.045-6.068,10.893l3.508-0.515c0,0-9.676,13.306-12.084,23.22c0,0,4.207-6.332,8.158-6.603
	c0,0-5.604,11.879-5.174,17.464l7.613-8.667c0,0-5.669,13.134-4.764,17.822c0,0,9.578-12.881,16.15-13.653
	c0,0-2.87,8.663-8.82,12.221c0,0,10.805,4.458,18.577-11.052c7.772-15.509,14.245-21.265,24.364-22.125
	c10.116-0.861,19.506,4.182,25.875-0.732c6.369-4.912,9.063-1.913,11.426-6.396c2.365-4.484,2.078-5.589,3.889-13.987
	C178.193,44.825,175.193,38.123,175.193,38.123z"/>
</svg>
