<?xml version="1.0" encoding="utf-8"?>
<!-- Generator: Adobe Illustrator 16.0.0, SVG Export Plug-In . SVG Version: 6.00 Build 0)  -->
<!DOCTYPE svg PUBLIC "-//W3C//DTD SVG 1.1//EN" "http://www.w3.org/Graphics/SVG/1.1/DTD/svg11.dtd">
<svg version="1.1" id="Layer_1" xmlns="http://www.w3.org/2000/svg" xmlns:xlink="http://www.w3.org/1999/xlink" x="0px" y="0px"
	 width="236.667px" height="351.167px" viewBox="0 0 236.667 351.167" enable-background="new 0 0 236.667 351.167"
	 xml:space="preserve">
<g>
	<path fill="none" stroke="#F3F3F3" stroke-width="8" stroke-linecap="round" stroke-linejoin="round" stroke-miterlimit="10" d="
		M151.297,226.825c-0.352,0.54-0.496,0.958-0.496,0.958C151,227.518,151.162,227.192,151.297,226.825z"/>
	<path fill="none" stroke="#F3F3F3" stroke-width="8" stroke-linecap="round" stroke-linejoin="round" stroke-miterlimit="10" d="
		M201.524,125.226c-0.625-1.875-6.625-6.75-18.875-6c-3.063,0.188-5.5,0.523-7.434,0.922c-0.061,0.012-0.113,0.026-0.173,0.039
		l7.606-1.802l0.917-8.117c0,0-0.295-1.206-2.43-2.681c-0.327-5.197-6.852-15.36-10.487-23.485c-4.25-9.5-11.625-9.75-13.625-9.25
		s-18.25-2.375-20.987-2.125c-0.679,0.062-1.373,0.723-2.084,1.764l-31.429-2.139c0,0-6.431-3.208-10.169-0.941l-2.831-0.809
		c0,0-0.183-2.185-2.153-1.792c0.043-0.506-0.006-0.922-0.185-1.208c-1.114-1.789-3.007-2.266-4.196-2.383
		c-0.699-1.88-2.092-5.742-3.424-10.117c-0.199-0.655-0.459-1.216-0.745-1.73c0.493-0.478,1.016-0.967,1.578-1.437
		c2.389-1.995,5.742-3.271,7.714-5c0.557-0.488,0.322-1.089-0.385-1.705c1.239-2.063-0.976-4.93-1.829-7.878
		c-0.917-3.167-0.663-4.616-0.75-6.125c0,0-3.596,4.252-7.096,6.419c-2.028,1.255-2.844,3.294-3.155,5.01
		c-3.303,1.622-5.49,4.705-6.445,6.288c-1.91-0.112-5.514,0.975-9.041,10.209c-2.652,6.942,1.943,13.706,5.773,17.811
		c-0.117,0.539-0.172,1.095-0.147,1.669c0.375,8.75,14.236,5.97,14.236,5.97s1.25,1.838,3.25,0.294h5.567
		c0.493,1.524,1.901,2.099,4.922,0.618c0,0,5.902,2.394,11.752,4.533c-0.461,2.969-1.45,7.269-3.371,7.931
		c0,0,2.096,0.546,3.826,1.228c1.73,0.682,3.492,2.501,3.492,2.501s-1.262-4.81-0.946-10.586c3.969,1.385,7.405,2.418,8.247,2.184
		c1.064-0.296,4.285-0.691,7.382-1.026c-1.516,1.874-1.993,3.762,2.53,4.489c6.579,1.059,13.641,5.833,15.974,10.583
		c0.904,1.84,2.653,4.577,3.903,6.464c-1.045,1.31-1.688,2.66-1.57,3.953l6.598,4.939c-2.735-1.95-9.82-6.398-16.931-5.856
		c-9.84,0.75-21.455,1.375-23.455,10.875s3.519,12.996,9.148,12.496c5.136-0.456-0.318-10.15,4.557-11.948
		c0,0-3.375,6.361,2.75,7.611c0,0,4-1.034,2.375-5.409c0,0,6.375,7,6.875-1c0,0,1.875-2.78,7.25-1.202
		c1.661,0.487,2.938,0.74,3.913,0.857l-4.038,0.22c0,0-4.75,6.25-5.25,9.625c0,0-6.83,10.099-12.032,17.691
		c-4.024-6.284-4.843-12.191-4.843-12.191s-5.075,2.816-3.873,8.441c-0.001,0.001-0.002,0.002-0.003,0.004h0.004
		c0.09,0.42,0.207,0.853,0.372,1.305c0.622,1.702,1.345,3.592,1.943,5.518c0.476,1.53,0.872,3.083,1.075,4.583
		c-0.006,0.007-0.014,0.018-0.019,0.025c-1.454,1.982-10.802,4.873-19.291,7.157c-0.045-1.424-0.268-3.063-0.709-5.032
		c-0.098-0.435-0.203-0.878-0.315-1.327v0c-0.664-2.652-1.604-5.499-2.904-8.068c-0.006-0.013-0.01-0.031-0.016-0.042l-0.005,0.002
		c-1.555-3.057-3.637-5.694-6.409-7.119c-0.003-0.01-0.004-0.018-0.007-0.027l-0.012,0.018c-1.053-0.539-2.194-0.92-3.457-1.061
		c-2.177-0.242-4.044-0.155-5.552,0.287c-0.04,0-0.063,0.001-0.063,0.001l0.004,0.016c-3.902,1.175-5.285,4.836-2.765,11.946
		c0,0,3.344-8.125,7.234-4.125c3.523,3.623,3.358,15.908-5.484,22.167c-0.979,0.694-2.312,3.277-1.125,3.458l-2.077,1.153
		c-1.796-0.036-3.031,0.022-3.423,0.222c-2.042,1.042-7.125,16.958-7.625,24.625c-0.237,3.637-9.372,10.048-9.372,10.048
		l16.997-8.923l-17.017,8.934c-1.742-1.139-3.793-1.266-6.305-0.559c0,0-10.734,10.75-6.832,22.375
		c0.639,1.901,2.488,3.338,5.127,4.417c-1.668,0.033-3.099,0.083-3.099,0.083s-1.75,5.288,3.125,5.769
		c1.293,0.127,2.288,0.155,3.064,0.128c-1.766,2.23-3.359,4.257-4.667,5.925c-0.005,0-4.148,0.252-2.898,3.713
		c-0.414,0.533-0.652,0.84-0.652,0.84s2.027,0.229,5.329,0.546c-2.843-0.176-4.551-0.296-4.551-0.296s-1.75,9,0,10.25
		s2.75,4,3.75,8.5s4-1.5,4-1.5s10.25,5,11.25,9.5s1.75-9,4.75-10.25c0,0-0.5,4.25,1.25,3.75s2.125,0.625,4.875-6.125
		c0,0,2.125-3,1.625,3.75c0,0,0.375,3.5,1.75,1.75c0,0-0.625,6,1.25,5.25s1.25-6,1.25-6s2.625-0.375,3.125-1.375
		s0.125-3.5,1.375-2.875s0.75,4.75,0.75,4.75s-2.75,6.375,1.875,6c0,0,4.25-0.625,2.75-6.25c0,0,1.75-4.5,3.375-3.875
		s1.75,5.5,3,5.125s2.375-4.875,1.875-6.375s3.875,1,7.125-0.375s26.375-25.75,27.75-30c0.685-2.115,2.018-6.798,2.523-10.755v0
		c0,0,11.727-16.121,12.477-16.621c0.265-0.176,1.089-1.69,2.165-3.759c0.157,0.754,1.84,9.029,0.482,12.733
		c0.771-1.184,2.538-2.95,5.965-2.159l5.314-0.486c0,0-6.619-5.459-9.51-14.461c1.537-2.979,3.162-6.058,4.333-7.868
		c2.75-4.25,2.5-12.25,2.5-12.25s2.429-4.001,6.39-12.902c0.396,2.293,1.354,8.803-0.133,11.056c0,0,2.315-1.827,6.356-0.866
		l3.59-0.324c0,0-5.445-5.867-8.03-13.974c0.141-0.329,0.275-0.643,0.418-0.981c1.086-2.587,1.498-5.162,1.479-7.621
		c0.604-0.965,1.214-1.838,1.681-2.262c1.375-1.25,2.625-5.875,2.625-5.875l-1-7.375l6.292-17.042l-5.917,2.833l-2-2.833
		c-1.072,0.421-5.188,0.542-8.25,0.542l8.769-0.744l1.481,3.035c0,0,1.435-0.708,5.917-2.833c0,0,0.501,9.007,3.416,6.042
		c3.026-3.078,2.417-6.417,2.292-11.125c0,0,6.669,15.961,11.292,15.583C205.732,141.185,202.149,127.101,201.524,125.226z
		 M54.955,247.579c-0.012-0.376-0.035-0.746-0.074-1.089c0.059,0.011,0.116,0.023,0.176,0.035c0.044,0.229,0.096,0.468,0.17,0.715
		C55.137,247.353,55.045,247.467,54.955,247.579z M131.236,224.768c0.709,0.333,1.318,0.88,1.85,1.538
		c-0.249-0.126-1.148-0.268-2.527-0.42C130.811,225.517,131.039,225.146,131.236,224.768z M133.649,228.101
		c0,0-5.084,8.639-12.237,17.335c7.114-9.057,12.026-18.351,11.74-19.053c0.381,0.484,0.719,1.026,1.016,1.599
		C134.006,228.004,133.834,228.041,133.649,228.101z M173.48,120.558l0.006-0.003l0.064-0.015
		C173.528,120.546,173.504,120.552,173.48,120.558z"/>
</g>
<g>
	
		<path fill="#6AA56D" stroke="#2A2B2E" stroke-width="2" stroke-linecap="round" stroke-linejoin="round" stroke-miterlimit="10" d="
		M150.801,227.783c0,0,1.472-4.268,6.461-3.117l5.314-0.486c0,0-9.09-7.464-10.625-19.361l-1.15,9.21
		C150.801,214.03,153.103,224.713,150.801,227.783z"/>
	
		<path fill="#6AA56D" stroke="#2A2B2E" stroke-width="2" stroke-linecap="round" stroke-linejoin="round" stroke-miterlimit="10" d="
		M166.156,187.754c0,0,2.315-1.827,6.356-0.866l3.59-0.324c0,0-7.76-8.331-9.155-18.87l-0.808,8.188
		C166.14,175.883,167.973,185.002,166.156,187.754z"/>
	
		<path fill="#6AA56D" stroke="#2A2B2E" stroke-width="2" stroke-linecap="round" stroke-linejoin="round" stroke-miterlimit="10" d="
		M101.395,97.977c0,0,2.096,0.546,3.826,1.228c1.73,0.682,3.492,2.501,3.492,2.501s-3.012-11.46,1.424-20.25l-5.023,5.727
		C105.113,87.183,104.371,96.951,101.395,97.977z"/>
	
		<path fill="#98BE5F" stroke="#2A2B2E" stroke-width="2" stroke-linecap="round" stroke-linejoin="round" stroke-miterlimit="10" d="
		M74.774,45.726c0,0-0.749-5.587,3.279-8.081c3.5-2.167,7.096-6.419,7.096-6.419c0.087,1.509-0.167,2.958,0.75,6.125
		c0.918,3.172,3.417,6.25,1.491,8.333C86.129,47.049,78.774,46.726,74.774,45.726z"/>
	
		<path fill="#6AA56D" stroke="#2A2B2E" stroke-width="2" stroke-linecap="round" stroke-linejoin="round" stroke-miterlimit="10" d="
		M67.899,49.935c0,0,3.138-6.5,8.963-8.02c2.903-0.757,13.496,3.051,11.251,5.02c-1.972,1.729-5.325,3.005-7.714,5
		c-2.86,2.388-4.729,5.302-6.5,4.417C70.649,54.726,66.717,50.934,67.899,49.935z"/>
	
		<path fill="#98BE5F" stroke="#2A2B2E" stroke-width="2" stroke-linecap="round" stroke-linejoin="round" stroke-miterlimit="10" d="
		M69.525,80.945c0,0-14.363-10.668-10.113-21.793s8.612-10.426,9.987-10.051s8.187-0.502,10.167,6
		c1.877,6.167,3.883,11.333,3.883,11.333S73.275,82.57,69.525,80.945z"/>
	
		<path fill="#6AA56D" stroke="#2A2B2E" stroke-width="2" stroke-linecap="round" stroke-linejoin="round" stroke-miterlimit="10" d="
		M79.274,84.601c0,0-13.861,2.78-14.236-5.97S81.91,65.195,81.91,65.195s3.563-0.344,5.276,2.406S79.274,84.601,79.274,84.601z"/>
	
		<path fill="#98BE5F" stroke="#2A2B2E" stroke-width="2" stroke-linecap="round" stroke-linejoin="round" stroke-miterlimit="10" d="
		M93.899,71.851l-4.375-1.25c0,0-0.25-3.125-3.5-1.25s-10.125,11.75-6.75,15.25c0,0,1.25,1.838,3.25,0.294h6.125l2.375-3.439
		L93.899,71.851z"/>
	
		<path fill="#6AA56D" stroke="#2A2B2E" stroke-width="2" stroke-linecap="round" stroke-linejoin="round" stroke-miterlimit="10" d="
		M102.524,72.351c0,0-9.511-4.75-12.125,1.375c-1.66,3.891-5.884,15.953,2.614,11.787c0,0,20.75,8.417,23,7.792
		s14.119-1.695,14.119-1.695s0.267-5.854,2.017-8.181s5.875-8.661,5.875-8.661L102.524,72.351z"/>
	
		<path fill="#98BE5F" stroke="#2A2B2E" stroke-width="2" stroke-linecap="round" stroke-linejoin="round" stroke-miterlimit="10" d="
		M147.232,115.935c0,0-3.834-5.532-5.333-8.583c-2.333-4.75-9.395-9.525-15.974-10.583c-8.106-1.304-0.156-6.333,1.057-8.333
		c3.336-5.496,6.318-15.458,9.055-15.708c2.737-0.25,18.987,2.625,20.987,2.125s9.375-0.25,13.625,9.25s12.458,21.792,10.083,25.667
		S147.621,117.834,147.232,115.935z"/>
	
		<path fill="#6AA56D" stroke="#2A2B2E" stroke-width="2" stroke-linecap="round" stroke-linejoin="round" stroke-miterlimit="10" d="
		M152.024,123.601c0,0-9.06-7.441-18.125-6.75c-9.84,0.75-21.455,1.375-23.455,10.875s3.519,12.996,9.148,12.496
		c5.136-0.456-0.318-10.15,4.557-11.948c0,0-3.375,6.361,2.75,7.611c0,0,4-1.034,2.375-5.409c0,0,6.375,7,6.875-1
		c0,0,1.875-2.78,7.25-1.202c5.375,1.577,6.75,0.702,6.75,0.702l-6.875,0.375c0,0-4.75,6.25-5.25,9.625s0,6.75,0,6.75l4.375,1.25
		l25.25,15.375v5.75c0,0,2.625-5.125,4-6.375s2.625-5.875,2.625-5.875l-1-7.375l6.292-17.042l-5.917,2.833l-2-2.833
		c-1.072,0.421-5.188,0.542-8.25,0.542l8.769-0.744l1.481,3.035c0,0,1.435-0.708,5.917-2.833c0,0,0.501,9.007,3.416,6.042
		c3.026-3.078,2.417-6.417,2.292-11.125c0,0,6.669,15.961,11.292,15.583c9.166-0.75,5.583-14.833,4.958-16.708s-6.625-6.75-18.875-6
		c-3.063,0.188-5.5,0.523-7.434,0.922c-5.801,1.195-7.066,2.953-7.066,2.953l5.337-2.546l9.163-2.171l0.917-8.117
		c0,0-0.792-3.417-9.917-5.792s-16.75,1.25-16.75,1.25s-13.167,6.542-12.667,12.042L152.024,123.601z"/>
	
		<path fill="#98BE5F" stroke="#2A2B2E" stroke-width="2" stroke-linecap="round" stroke-linejoin="round" stroke-miterlimit="10" d="
		M163.399,146.851c0,0,10.341,12.258,5.091,24.758s-8.591,17.992-8.591,17.992s0.25,8-2.5,12.25s-8,15.5-8.75,16
		s-12.477,16.621-12.477,16.621s-1.237-8.979-5.737-9.979s-43.536-49.392-43.536-49.392s31-7,33.75-10.75
		s17.375-25.375,17.375-25.375S159.148,140.055,163.399,146.851z"/>
	
		<path fill="#6AA56D" stroke="#2A2B2E" stroke-width="2" stroke-linecap="round" stroke-linejoin="round" stroke-miterlimit="10" d="
		M133.649,228.101c0,0-20,34-36.5,35s-52.25-1.5-52.25-1.5s-1.75,9,0,10.25s2.75,4,3.75,8.5s4-1.5,4-1.5s10.25,5,11.25,9.5
		s1.75-9,4.75-10.25c0,0-0.5,4.25,1.25,3.75s2.125,0.625,4.875-6.125c0,0,2.125-3,1.625,3.75c0,0,0.375,3.5,1.75,1.75
		c0,0-0.625,6,1.25,5.25s1.25-6,1.25-6s2.625-0.375,3.125-1.375s0.125-3.5,1.375-2.875s0.75,4.75,0.75,4.75s-2.75,6.375,1.875,6
		c0,0,4.25-0.625,2.75-6.25c0,0,1.75-4.5,3.375-3.875s1.75,5.5,3,5.125s2.375-4.875,1.875-6.375s3.875,1,7.125-0.375
		s26.375-25.75,27.75-30S139.024,226.351,133.649,228.101z"/>
	
		<path fill="#5A3D48" stroke="#2A2B2E" stroke-width="2" stroke-linecap="round" stroke-linejoin="round" stroke-miterlimit="10" d="
		M86.899,223.226c0,0,45.5,2.125,46.25,3.125s-17.498,33.539-33.937,36.457s-55.092-1.457-55.092-1.457s29.528-38.125,32.028-38.125
		S86.899,223.226,86.899,223.226z"/>
	
		<path fill="#ECE7B3" stroke="#2A2B2E" stroke-width="2" stroke-linecap="round" stroke-linejoin="round" stroke-miterlimit="10" d="
		M62.774,259.351c0,0,3-2.5,4.625-1.5s-0.39,4.971-0.39,4.971l-4.235-0.192V259.351z"/>
	
		<path fill="#F1E9A4" stroke="#2A2B2E" stroke-width="2" stroke-linecap="round" stroke-linejoin="round" stroke-miterlimit="10" d="
		M91.149,262.822c0,0-1-2.326,2.625-4.21c3.625-1.885,3.875,3.365,3.875,3.365L91.149,262.822z"/>
	
		<path fill="#F1E9A4" stroke="#2A2B2E" stroke-width="2" stroke-linecap="round" stroke-linejoin="round" stroke-miterlimit="10" d="
		M50.774,261.226c0,0,1.296-5.605-3.102-4.428c0,0-4.151,0.25-2.899,3.714C44.773,260.512,47.649,262.601,50.774,261.226z"/>
	
		<path fill="#F1E9A4" stroke="#2A2B2E" stroke-width="2" stroke-linecap="round" stroke-linejoin="round" stroke-miterlimit="10" d="
		M85.274,247.726l9.062-0.625c0,0,1.01,6.625-4.088,7.25C85.149,254.976,85.274,247.726,85.274,247.726z"/>
	
		<path fill="#F1E9A4" stroke="#2A2B2E" stroke-width="2" stroke-linecap="round" stroke-linejoin="round" stroke-miterlimit="10" d="
		M76.774,248.226h6.25c0,0,1.5,2.875,0,3.75s-6.625,0.163-6.75-1.231S76.774,248.226,76.774,248.226z"/>
	
		<path fill="#F1E9A4" stroke="#2A2B2E" stroke-width="2" stroke-linecap="round" stroke-linejoin="round" stroke-miterlimit="10" d="
		M62.024,245.601c0,0,1.75,4.383-2.75,4.692c-4.5,0.308-4.375-5.317-4.375-5.317L62.024,245.601z"/>
	
		<path fill="#F1E9A4" stroke="#2A2B2E" stroke-width="2" stroke-linecap="round" stroke-linejoin="round" stroke-miterlimit="10" d="
		M46.149,244.976c0,0-1.75,5.288,3.125,5.769s5.624-0.44,5.624-0.44s0.376-5.079-0.624-5.329S46.149,244.976,46.149,244.976z"/>
	
		<path fill="#6AA56D" stroke="#2A2B2E" stroke-width="2" stroke-linecap="round" stroke-linejoin="round" stroke-miterlimit="10" d="
		M116.712,186.724c0,0,11.938-2.248,15.813-0.373s5.375,8.75,2,22s1.75,18-16.25,25.875s-19.875,10.75-19.875,10.75
		s-4.75-19.375-3.25-19.875s15.72-7.821,18-9.786C114.645,214.027,123.274,209.601,116.712,186.724z"/>
	
		<path fill="#6AA56D" stroke="#2A2B2E" stroke-width="2" stroke-linecap="round" stroke-linejoin="round" stroke-miterlimit="10" d="
		M79.774,182.601c0,0,10.625-5,19.75-4.875s30.769,0.047,34.759,10.023c0,0-0.886-3.65-6.885-2.087s-10.253,1.313-10.253,1.313
		l-1.519,1.5l-41.353-2.822L79.774,182.601z"/>
	
		<path fill="#98BE5F" stroke="#2A2B2E" stroke-width="2" stroke-linecap="round" stroke-linejoin="round" stroke-miterlimit="10" d="
		M74.274,183.976c2.042-1.042,26.876,1.76,35.751,1.678c2.299-0.021,4.875-0.074,6.312,1.447c1.896,2.009,2.335,5.986,2.75,8.75
		c0.893,5.954,4.866,19.054-22.147,28.546c-24.415,8.579-42.665-4.171-42.665-4.171l20-10.5l-16.997,8.923
		c0,0,9.135-6.412,9.372-10.048C67.149,200.935,72.232,185.018,74.274,183.976z"/>
	
		<path fill="#B5CB75" stroke="#2A2B2E" stroke-width="2" stroke-linecap="round" stroke-linejoin="round" stroke-miterlimit="10" d="
		M50.953,218.101c0,0-10.734,10.75-6.832,22.375c3.903,11.625,52.903,6,52.903,6s8.375-13.125,0-25.375c0,0-1.755-2.25-8.378,0.375
		c-6.622,2.625-27.247,2-29.372-0.875S54.506,217.101,50.953,218.101z"/>
	<path fill="#2A2B2E" d="M80.594,204.359c0,1.009-0.467,1.828-1.477,1.828s-2.179-0.818-2.179-1.828s1.219-1.828,2.228-1.828
		C80.176,202.532,80.594,203.35,80.594,204.359z"/>
	<path fill="#2A2B2E" d="M113.89,204.971c0.325,1.404-1.009,2.254-2.254,2.254s-2.565-1.049-2.255-2.254
		c0.313-1.205,1.01-2.558,2.255-2.558S113.608,203.758,113.89,204.971z"/>
	<path fill="#2A2B2E" d="M95.337,227.365c0,1.282-1.889,1.77-3.171,1.77c-1.281,0-2.32-1.039-2.32-2.321s1.039-2.321,2.32-2.321
		C93.448,224.493,95.337,226.083,95.337,227.365z"/>
	<path fill="#2A2B2E" d="M55.594,224.493c0,1.282-1.039,2.321-2.32,2.321s-2.867-0.618-2.867-1.9s1.586-2.742,2.867-2.742
		S55.594,223.211,55.594,224.493z"/>
	
		<path fill="#F1E9A4" stroke="#2A2B2E" stroke-width="2" stroke-linecap="round" stroke-linejoin="round" stroke-miterlimit="10" d="
		M116.524,173.476c0,0-9.5,6.153-4.75,8.701c4.75,2.549,17.25,4.174,19.625-2.451s3.345-12.25-2.89-19.625
		c-6.235-7.375-7.36-15.625-7.36-15.625s-5.875,3.25-3.5,9.75S123.899,169.976,116.524,173.476z"/>
	
		<path fill="#F1E9A4" stroke="#2A2B2E" stroke-width="2" stroke-linecap="round" stroke-linejoin="round" stroke-miterlimit="10" d="
		M80.899,179.144c-0.979,0.694-2.312,3.277-1.125,3.458c4.856,0.739,16.6-0.081,18.5-2.5c2.75-3.5,4-6.375,2.375-13.625
		s-5.25-16.75-13.125-17.625s-11.875,2.375-8.375,12.25c0,0,3.344-8.125,7.234-4.125C89.907,160.599,89.742,172.884,80.899,179.144z
		"/>
	<path fill="none" stroke="#2A2B2E" stroke-width="2" stroke-linecap="round" stroke-linejoin="round" stroke-miterlimit="10" d="
		M123.902,152.921c-0.178,0.039-5.409-2.07-6.629,0"/>
	<path fill="none" stroke="#2A2B2E" stroke-width="2" stroke-miterlimit="10" d="M119.593,159.744c0,0,7.87,2.236,7.963-0.828"/>
	<path fill="none" stroke="#2A2B2E" stroke-width="2" stroke-miterlimit="10" d="M120.76,165.186c0,0,8.711,3.785,9.676-2.524"/>
	<path fill="none" stroke="#2A2B2E" stroke-width="2" stroke-linecap="round" stroke-linejoin="round" stroke-miterlimit="10" d="
		M115.627,174.099c0,0-2.232,3.752,6.207,4.877c8.44,1.125,10.926-3.78,10.926-3.78"/>
	<path fill="none" stroke="#2A2B2E" stroke-width="2" stroke-miterlimit="10" d="M119.593,170.922c0,0,3.98,2.994,7.474,1.937
		c5.22-1.581,5.693-5.164,5.693-5.164"/>
	<path fill="none" stroke="#2A2B2E" stroke-width="2" stroke-linecap="round" stroke-linejoin="round" stroke-miterlimit="10" d="
		M81.91,149.139c0,0,5.614-0.288,1.678,6.801"/>
	<path fill="none" stroke="#2A2B2E" stroke-width="2" stroke-linecap="round" stroke-linejoin="round" stroke-miterlimit="10" d="
		M86.384,156.976c0-1.625,6.438-1.976,4.609-7.082"/>
	<path fill="none" stroke="#2A2B2E" stroke-width="2" stroke-linecap="round" stroke-linejoin="round" stroke-miterlimit="10" d="
		M88.529,161.475c0,0,1.578,2.427,4.986,1.035c3.446-1.409,4.318-4.678,3.898-5.472"/>
	<path fill="none" stroke="#2A2B2E" stroke-width="2" stroke-linecap="round" stroke-linejoin="round" stroke-miterlimit="10" d="
		M87.399,171.15c0,0,4.101,1.033,7.457,0c2.641-0.813,5.845-4.468,5.478-6.002"/>
	<path fill="none" stroke="#2A2B2E" stroke-width="2" stroke-linecap="round" stroke-linejoin="round" stroke-miterlimit="10" d="
		M146.232,176.621c0,0,14.167-12.842,14.667-20.681"/>
	
		<path fill="#98BE5F" stroke="#2A2B2E" stroke-width="1.5" stroke-linecap="round" stroke-linejoin="round" stroke-miterlimit="10" d="
		M136.066,85.513c0,0,9.333,5.088,10.166,8.088"/>
	<path fill="#98BE5F" stroke="#2A2B2E" stroke-linecap="round" stroke-linejoin="round" stroke-miterlimit="10" d="M97.646,80.435
		c0,0,11.56,0.376,16.239,1.021"/>
	<path fill="#98BE5F" stroke="#2A2B2E" stroke-linecap="round" stroke-linejoin="round" stroke-miterlimit="10" d="M66.566,54.768
		c-2.875,3.5-4.932,12,0.451,15"/>
	<path fill="none" stroke="#2A2B2E" stroke-linecap="round" stroke-linejoin="round" stroke-miterlimit="10" d="M72.732,75.356
		c0,0,0.933,2.307,5.633,1.776"/>
	<path fill="#98BE5F" stroke="#2A2B2E" stroke-linecap="round" stroke-linejoin="round" stroke-miterlimit="10" d="M82.898,78.827
		c0,0,2.134-0.44,3.234,0"/>
	<path fill="#98BE5F" stroke="#2A2B2E" stroke-linecap="round" stroke-linejoin="round" stroke-miterlimit="10" d="M79.566,47.935
		c0,0-1.513,1.026-2.445,3.36"/>
	
		<line fill="none" stroke="#2A2B2E" stroke-width="2" stroke-linecap="round" stroke-linejoin="round" stroke-miterlimit="10" x1="170.119" y1="131.435" x2="168.732" y2="135.885"/>
	
		<line fill="none" stroke="#2A2B2E" stroke-width="2" stroke-linecap="round" stroke-linejoin="round" stroke-miterlimit="10" x1="170.119" y1="117.768" x2="170.119" y2="121.101"/>
	<path fill="none" stroke="#2A2B2E" stroke-width="2" stroke-linecap="round" stroke-linejoin="round" stroke-miterlimit="10" d="
		M83.746,176.621c0,0,13.436,3.409,17.602-3.762"/>
</g>
</svg>
