<?xml version="1.0" encoding="utf-8"?>
<!-- Generator: Adobe Illustrator 16.0.0, SVG Export Plug-In . SVG Version: 6.00 Build 0)  -->
<!DOCTYPE svg PUBLIC "-//W3C//DTD SVG 1.1//EN" "http://www.w3.org/Graphics/SVG/1.1/DTD/svg11.dtd">
<svg version="1.1" id="Layer_1" xmlns="http://www.w3.org/2000/svg" xmlns:xlink="http://www.w3.org/1999/xlink" x="0px" y="0px"
	 width="224.666px" height="367.333px" viewBox="0 0 224.666 367.333" enable-background="new 0 0 224.666 367.333"
	 xml:space="preserve">
<path fill="#F2F2F2" stroke="#F2F2F2" stroke-width="8" stroke-linejoin="round" stroke-miterlimit="10" d="M195.22,319.21
	c-3.5-6.5-12.75-13.25-17.5-21.5s-10.75-24.25-14.5-28c-1.696-1.696-2.673-1.751-3.237-1.307c1.555-3.831,4.931-13,4.737-19.943
	c-0.129-4.642-0.505-10.02-1.457-14.795c5.269-2.211,9.4-4.648,11.708-8.605l-2.593-1.16c0.366-0.901,1.261-4.083,3.426-13.689
	c3.504-15.549,8.175-30.088,6.353-49.855c1.26-1.117,2.243-2.162,2.746-3.025c0-4.584-6.863-21.105-6.863-21.105
	s-3.25-10.352-6.5-10.623s-21-2.51-21-2.51l-2.201,0.18c0.529-0.623,1.107-1.267,1.757-1.936c8.125-8.375,16.75-16.125,20-24.25
	s3.708-38.291,1.375-45.959c-1.461-4.802-5.931-7.772-9.395-9.322c-1.489-2.916-2.938-4.512-2.938-4.512
	c-8.5-7.5-25.833-8.666-33.5-8.666s-10.388,1.459-10.388,1.459s4.722,0.707,3.888,2.207S90.845,39.544,84.345,61.21
	S80.47,93.335,80.47,93.335s1.166-9.375,6.833-13.375c0,0-2.499,8.25-2.333,12.25l3.167-1.592c0,0-5,15.674-4.167,25.842
	c0,0,2.001-7.334,5.667-8.834c0,0-1.584,13.039,0.583,18.205l4.5-10.621c0,0-0.604,6.905-0.186,12.508
	c-1.376,0.174-2.454,0.349-2.995,0.516c-2.75,0.846-4.5,10.596-6.25,13.096s-5.773,13.332-5.72,14.916
	c0.043,1.271,2.169,2.595,4.906,3.847l7.494,35.618c0,0-3.5,5.75-4,8c0,0,6.125,0.25,7.625-1.875c0,0-1.617,6.451,2.25,8.375
	c0,0,5.625-11.625,4.25-13.875c0,0-0.875-1.375-3.5-17.125c-1.012-6.071-1.743-10.736-2.262-14.193
	c2.466,1.631,4.456-5.938,4.456-5.938s3.5,5.5,3.75,13.25s0.334,20.25-1.583,29.5s-1.667,14-1.667,14l4.056-3.494
	c-1.915,2.979-1.877,4.441-3.033,10.5c-1.021,5.354-0.234,12.494-0.234,12.494s1.294-0.19,3.129-0.58
	c0.397,2.691,1.262,5.693,3.014,8.461c0.372,0.587,0.796,1.332,1.254,2.184L91.22,253.71c0,0-7.75-6.5-13.25-6
	c-0.803,0.073-1.68,0.204-2.597,0.376l-9.069-21.126l0.5-4.334c0,0,1.833-15.666,1.833-18.666s0-7.5-2.166-8.5s-6.667-5-8.667-4.834
	s-5.5,4.668-5.5,4.668s0,0,1.667,2.832c1.667,2.834,10.166,5,10.166,5l-2.5-0.5l1.167,9.334l-1.167-1.75c0,0-2.417,4-3.417,3.75
	s-9.75-13.5-12-17.5s2.5-14,1.75-15s-4.5-1.25-6.75,0c-1.73,0.961-3.309,5.471-3.719,9.891c0.119-1.557,0.276-2.729,0.046-2.881
	c-0.75-0.5-15.327-0.76-16.577,0.24s0.75,7.5,2.5,8.455s3.75,0.295,8,0.045s7.25,0.5,7.25,3.25s2.75,15.461,2.75,15.461
	s-8.375,8.039-9.375,11.289s2.125,16,3.375,16.75s5.5-0.25,6-1s-1.25-4.5-2.5-9.25s1.75-8,1.75-8v3.25c0,0,13.5,2.5,15.915,5
	c0.84,0.869,3.917,8.396,7.571,17.84c-1.776,0.875-3.36,1.839-4.546,2.85c-1.462,1.246-0.69,7.311,0.977,7.811
	c1.142,0.343,4.885-0.667,7.134-1.338c0.039,0.104,0.078,0.207,0.118,0.311c-1.658,0.703-4.554,1.543-8.606,1.277
	c-2.938-0.193-3.057,2.084-2.146,6.75c0.417,2.137,2.283,2.896,4.825,2.696c-0.219,0.046-0.427,0.091-0.658,0.138
	c-2.223,0.447-2.283,4.035-0.5,6.5c4.301,1.629,10.7-1.352,12.692-2.378c0.04,0.107,0.08,0.216,0.119,0.322
	c-0.804,0.855-2.718,2.364-6.812,3.388c-2.833,0.668-0.459,8.619,2.041,8.584c2.853-0.041,5.45-0.41,8.62-1.534
	c1.524,4.153,2.48,6.784,2.48,6.784l1.524,2.166l2.155-4.071l5.22,7.03l0.626,0.041c0,0-3.126,6.334,0.499,9.334
	s8.875-3.25,6.75-6.5c0,0,5.875-0.375,4-4.5s-8-3.25-8-3.25l-2.114-3.639l3.031,0.055l-4.095-9.538
	c7.459-4.422,7.438-5.083,7.595-6.794c0.167-1.834,0.5-6.668,0.5-6.668s7.687-4.542,17.482-10.252
	c5.178,11.909,10.937,27.083,11.992,32.532c-0.016-0.015-0.363,0.138-7.512,8.804c-7.63,9.25-26.38,19-28.63,25.75
	c-0.644,1.93-0.263,2.14,0.962,1.56c-0.004,0.006-1.456,2.193-1.271,4.315c0.006,0.067,0.047,0.12,0.104,0.165
	c-1.944,0.506-3.535,1.438-4.045,3.085c-1.625,5.25-2.125,7.875,2.125,9s20.375,0.875,23-1.5c1.146-1.037,1.506-2.229,1.548-3.244
	c0.434,0.758,1.307,1.015,3.077-0.756c3.75-3.75,11.25-7.25,8.75-12.125c-0.142-0.275-0.322-0.535-0.521-0.787
	c4.893,1.281,4.833,0.415,5.113-4.213c0.408-6.75,7.866-14.621,16.658-21.75c2.102-1.704,2.548-5.453,2.108-9.452
	c0.768,2.285,1.491,4.6,2.142,6.952c2.31,8.354,12.5,18.75,12.5,18.75s-0.75,9.25,0,10.5c0.055,0.092,0.143,0.143,0.248,0.175
	c-1.735,0.809-3.225,1.655-4.748,2.575c0,0-7.52,3.205-7.335,5.33c0.075,0.863,3.785,0.389,5.653,1.057
	c-4.16-0.631-10.379-0.952-11.443,2.488c-1.625,5.25,2.125,11.75,6.375,12.875s15.596,4.465,18.5,2.441
	c3.557-2.478,4.115-4.887,3.916-6.535c0.746,1.336,2.074,2.437,4.218,0.293c3.133-3.133,14.771-8.525,17.063-13.059
	C196.656,332.055,198.193,324.733,195.22,319.21z M37.4,193.778c0.001,0.046,0.001,0.093,0.002,0.138
	C37.401,193.87,37.401,193.824,37.4,193.778z M37.412,194.32c0.002,0.049,0.007,0.096,0.01,0.143
	c-0.002-0.023-0.007-0.047-0.008-0.07S37.413,194.345,37.412,194.32z M37.942,197.185c0.444,1.329,1.159,2.916,2.017,4.602
	C39.25,200.48,38.456,198.86,37.942,197.185z M67.017,270.876c0.808-0.314,1.629-0.674,2.454-1.082
	C69.471,269.794,69.096,270.208,67.017,270.876z M104.699,320.727c-4.127,1.192-7.387,2.462-10.105,3.828
	C97.022,323.198,100.483,321.438,104.699,320.727z M97.578,330.009c2.628-0.104,3.392,0.326,3.392,0.326
	S99.537,330.11,97.578,330.009z M137.453,252.726c0.035,0.746,0.115,1.521,0.267,2.318c0.318,1.673,0.66,3.395,1.029,5.113
	c-0.754-2.383-1.61-4.854-2.604-7.316l1.075,1.494L137.453,252.726z M98.305,127.308c2.041-4.542,5.134-10.134,8.535-11.723
	c0,0-0.004,6.105-2.482,11.201C102.42,126.939,100.286,127.117,98.305,127.308z M158.765,222.939
	c-0.247-0.257-0.627-0.531-1.088-0.813c1.458-0.849,1.544-1.053,1.902-1.956c0.703-1.771-0.406-0.084,0.578-5.084
	s-0.965-12.533-2.396-18.789c-1.228-5.367-3.473-11.217-3.473-11.217l4,3.75c0,0-3-20.75-2.5-29.75c0,0,8.942,10.688,10.226,11.25
	c0.285,0.125,1.248-0.23,2.601-0.904c0.474,6.145,0.571,14.492-1.146,22.285c-3.25,14.75-7.997,30.906-7.997,30.906L158.765,222.939
	L158.765,222.939z"/>
<path fill="#C6C8CE" stroke="#2B2C2E" stroke-width="2" stroke-miterlimit="10" d="M158.72,327.71c0,0-7.52,3.205-7.335,5.33
	c0.075,0.863,3.786,0.389,5.654,1.057c2.771,0.99,3.806,0.748,3.806,0.748s-13.625-3.51-15.25,1.74s2.125,11.75,6.375,12.875
	s15.596,4.465,18.5,2.441c6.375-4.441,3.125-8.67,3.125-8.67s1.259,6.178,5.009,2.428s19.699-10.74,17.199-15.615
	s-19.237-9.236-25.25-7.5C164.975,324.154,161.933,325.771,158.72,327.71z"/>
<path fill="#C6C8CE" stroke="#2B2C2E" stroke-width="2" stroke-miterlimit="10" d="M91.933,326.019c0,0-1.457,2.191-1.272,4.316
	c0.075,0.863,4.546-0.201,6.56-0.314c2.938-0.164,3.75,0.314,3.75,0.314s-12.625-2-14.25,3.25s-2.125,7.875,2.125,9
	s20.375,0.875,23-1.5s1.126-5.566,1.126-5.566s-0.251,5.316,3.499,1.566s11.25-7.25,8.75-12.125s-14.485-5.977-20.498-4.24
	C99.144,322.33,95.146,324.08,91.933,326.019z"/>
<path fill="#A42942" stroke="#2B2C2E" stroke-width="2" stroke-linejoin="round" stroke-miterlimit="10" d="M105.22,226.46
	c0,0-1.75,9.25,3,16.75s17.285,38.398,18.893,46.699c0,0,0.117-0.449-7.513,8.801s-26.38,19-28.63,25.75s7.977-7.5,23.363-3.25
	s15.07,5.5,15.479-1.25s7.866-14.621,16.658-21.75c4.625-3.75,1.25-17.404-2-21.828c-3.25-4.422-4.938-17.859-10.938-29.234
	c-1.797-3.406,1.438,4.063,1.438,4.063l2.25,3.125l1.25-8.625c0,0-1.711,4.283-0.75,9.334c1.059,5.563,2.335,11.676,4.243,16.367
	c3.136,7.707,6.4,15.775,8.757,24.299c2.31,8.354,12.5,18.75,12.5,18.75s-0.75,9.25,0,10.5s6.25-3.5,16.25-1.5s15,6.25,15.75,8.75
	s3.5-6.5,0-13s-12.75-13.25-17.5-21.5s-10.75-24.25-14.5-28s-4,0.5-4,0.5s5.75-12.75,5.5-21.75s-1.41-20.793-5.955-25.521
	S111.22,208.21,105.22,226.46z"/>
<path fill="#F3F3F3" stroke="#2B2C2E" stroke-width="2" stroke-miterlimit="10" d="M82.72,290.835l6.125,8.25l0.626,0.041
	c0,0-3.126,6.334,0.499,9.334s8.875-3.25,6.75-6.5c0,0,5.875-0.375,4-4.5s-8-3.25-8-3.25l-5.375-9.25"/>
<path fill="#9FA84E" stroke="#2B2C2E" stroke-width="2" stroke-linejoin="round" stroke-miterlimit="10" d="M79.945,293.96
	c0,0-20.896-57.5-23.311-60s-15.915-5-15.915-5v-3.25c0,0-3,3.25-1.75,8s3,8.5,2.5,9.25s-4.75,1.75-6,1s-4.375-13.5-3.375-16.75
	s9.375-11.289,9.375-11.289s-2.75-12.711-2.75-15.461s-3-3.5-7.25-3.25s-6.25,0.91-8-0.045s-3.75-7.455-2.5-8.455
	s15.827-0.74,16.577-0.24c0.367,0.244-0.248,3.064-0.133,5.922c0.12,2.98,1.907,6.275,3.056,8.318c2.25,4,8,13.211,8,13.211
	s-10.5-15.461-11-20.711s1.5-12.5,3.75-13.75s6-1,6.75,0s-4,11-1.75,15s11,17.25,12,17.5s3.417-3.75,3.417-3.75l1.167,1.75
	l-1.167-9.334l2.5,0.5c0,0-8.499-2.166-10.166-5c-1.667-2.832-1.667-2.832-1.667-2.832s3.5-4.502,5.5-4.668s6.501,3.834,8.667,4.834
	s2.166,5.5,2.166,8.5s-1.833,18.666-1.833,18.666l-0.5,4.334l27.333,63.666l-9.167-0.166l-3,5.666L79.945,293.96z"/>
<path fill="#9FA84E" stroke="#2B2C2E" stroke-width="2" stroke-linejoin="round" stroke-miterlimit="10" d="M82.922,152.71l9.048,43
	c0,0-3.5,5.75-4,8c0,0,6.125,0.25,7.625-1.875c0,0-1.617,6.451,2.25,8.375c0,0,5.625-11.625,4.25-13.875c0,0-0.875-1.375-3.5-17.125
	s-3.375-22.125-3.375-22.125L82.922,152.71z"/>
<path fill="#9FA84E" stroke="#2B2C2E" stroke-width="2" stroke-linejoin="round" stroke-miterlimit="10" d="M167.47,160.21
	c0,0,3.25,16.75,0,31.5s-7.997,30.906-7.997,30.906L91.22,253.71c0,0-7.75-6.5-13.25-6s-14.226,3.459-18.31,6.939
	c-1.462,1.246-0.69,7.311,0.977,7.811s8.89-1.885,8.89-1.885s-3.557,2.572-10.244,2.135c-2.938-0.193-3.057,2.084-2.146,6.75
	c0.772,3.957,6.496,3.221,12.334,0.334c0,0-0.938,1.041-8.167,2.5c-2.223,0.447-2.283,4.035-0.5,6.5
	c5.146,1.949,13.322-2.713,13.322-2.713s-1.322,2.545-7.322,4.045c-2.833,0.668-0.459,8.619,2.041,8.584
	c5.383-0.078,9.834-1.293,19-6.625c9.166-5.334,9.125-5.959,9.292-7.791c0.167-1.834,0.5-6.668,0.5-6.668s22-13,39-22.666
	c17-9.668,32.834-10.469,38.334-19.9l-2.834-1.268c0,0-0.333,4.168,3.667-13.582s9.521-34.186,5.167-58.584"/>
<path fill="#1A673F" stroke="#2B2C2E" stroke-width="2" stroke-linejoin="round" stroke-miterlimit="10" d="M110.789,126.324
	c0,0-16.5,1.064-19.25,1.91s-4.5,10.596-6.25,13.096s-5.773,13.332-5.72,14.916c0.111,3.287,14.146,6.938,16.72,8.75
	c2.486,1.752,4.5-5.916,4.5-5.916s3.5,5.5,3.75,13.25s0.334,20.25-1.583,29.5s-1.667,14-1.667,14l4.056-3.494
	c-1.915,2.979-1.877,4.441-3.033,10.5c-1.021,5.354-0.234,12.494-0.234,12.494s8.574-1.25,12.991-4s8.215-8,9.468-8.75
	c0,0-2.253,3.25,0,4s0,5.5,0,5.5s11.801,0.705,19.601-2.537c7.725-3.209,11.078-6.031,11.916-6.5
	c3.065-1.711,3.065-1.711,3.526-2.873c0.703-1.771-0.406-0.084,0.578-5.084s-0.965-12.533-2.396-18.789
	c-1.228-5.367-3.473-11.217-3.473-11.217l4,3.75c0,0-3-20.75-2.5-29.75c0,0,8.942,10.688,10.226,11.25s16.315-8.584,18.888-13
	c0-4.584-6.863-21.105-6.863-21.105s-3.25-10.352-6.5-10.623s-21-2.51-21-2.51L110.789,126.324z"/>
<path fill="#9FA84E" stroke="#2B2C2E" stroke-width="2" stroke-miterlimit="10" d="M109.137,125.626c0,0-0.145,5.674,1.667,8
	s3.499,5.166,6.333,6.334c2.834,1.166,17.833,2.375,22.333-1.625s2.5-8.625,10.625-17s16.75-16.125,20-24.25
	s3.708-38.291,1.375-45.959c-2.333-7.666-12.334-10.666-13.667-10.666l-54.666,43.832L109.137,125.626z"/>
<path fill="#2B2C2E" d="M147.595,102.085c0,5.834-2.945,8-7.813,8c-5.813,0-9.971-4.375-8.813-10.563
	c1.073-5.734,3.945-9.688,8.813-9.688C144.345,89.835,147.595,96.251,147.595,102.085z"/>
<path fill="#2B2C2E" d="M123.659,99.085c0,5.834-2.945,8-7.813,8c-5.813,0-9.971-4.375-8.813-10.563
	c1.073-5.734,3.945-9.688,8.813-9.688C120.409,86.835,123.659,93.251,123.659,99.085z"/>
<path fill="#2B2C2E" stroke="#2B2C2E" stroke-width="3" stroke-miterlimit="10" d="M138.034,117.71c3.248,0.938,1.564,8,0,11.875
	s-4.881,6.5-8.223,2.875s-7.217-3.75-10.342-3.875s-5.313-1.721-5.125-6.563c0.165-4.23,3.25-4.125,6.843-2.967
	c3.45,1.113,4.466,2.029,8.624,1.404S134.139,116.585,138.034,117.71z"/>
<path fill="#ECE8E2" d="M118.148,118.386c0,0-0.679,4.031,0.571,4.406s4.441,0.785,5.75,0c0.556-0.332,0.247-2.521,0.247-2.521
	S120.657,118.386,118.148,118.386z"/>
<path fill="#ECE8E2" d="M122.221,128.751c0,0,0.854-3.313-0.396-3.688s-2.921-0.617-4.229,0.166
	c-0.556,0.334,0.069,3.072,0.069,3.072S119.142,128.851,122.221,128.751z"/>
<path fill="#ECE8E2" d="M128.313,131.107c0,0,0.579-4.17-0.25-4.625c-0.575-0.316-2.298-0.727-3.5-0.316
	c-0.613,0.209-0.52,2.912-0.52,2.912S126.762,129.814,128.313,131.107z"/>
<path fill="#ECE8E2" d="M136.728,132.025c0,0,0.241-4.264-0.588-4.719c-0.575-0.316-2.948-0.607-4.113-0.102
	c-1.095,0.477-0.35,6.697-0.35,6.697S134.422,135.667,136.728,132.025z"/>
<path fill="#ECE8E2" d="M125.996,120.558c0,0-0.339,2.135,0.911,2.51s3.685,0.506,4.993-0.279c0.556-0.332,0.252-3.098,0.252-3.098
	S129.657,120.814,125.996,120.558z"/>
<path fill="#ECE8E2" d="M133.376,118.82c0,0-0.281,3.51,0.351,3.801c0.978,0.451,4.441,0.783,5.75,0
	c0.556-0.334,0.518-2.926,0.212-3.691S137.325,115.699,133.376,118.82z"/>
<path fill="none" stroke="#2B2C2E" stroke-linecap="round" stroke-miterlimit="10" d="M136.524,111.21c0,0,6.602,2.563,10.414-2.25"
	/>
<path fill="none" stroke="#2B2C2E" stroke-linecap="round" stroke-miterlimit="10" d="M138.563,113.523
	c0.568,0.16,4.203,1.338,7.344-1.188"/>
<path fill="#2B2C2E" stroke="#2B2C2E" stroke-width="2" stroke-linejoin="round" stroke-miterlimit="10" d="M159.137,37.292
	c-8.5-7.5-25.833-8.666-33.5-8.666s-10.388,1.459-10.388,1.459s4.722,0.707,3.888,2.207S90.845,39.544,84.345,61.21
	S80.47,93.335,80.47,93.335s1.166-9.375,6.833-13.375c0,0-2.499,8.25-2.333,12.25l3.167-1.592c0,0-5,15.674-4.167,25.842
	c0,0,2.001-7.334,5.667-8.834c0,0-1.584,13.039,0.583,18.205l4.5-10.621c0,0-1.25,14.25,1.083,18.416c0,0,5.042-15.24,11.037-18.041
	c0,0,0,9.127-4.528,14.375c0,0,11.658,0.834,14.158-16.334c2.5-17.166,6.834-24.666,16.167-28.666s19.833-2.166,24.333-8.834
	c4.5-6.666,7.999-4.666,8.833-9.666s0.216-5.959-0.708-14.5C164.095,42.71,159.137,37.292,159.137,37.292z"/>
<ellipse fill="#F2F2F2" cx="136.524" cy="98.773" rx="1.087" ry="1.063"/>
<polygon fill="#9FA84E" stroke="#2B2C2E" stroke-width="2" stroke-linejoin="round" stroke-miterlimit="10" points="
	113.017,201.291 108.768,204.957 115.1,208.457 116.1,202.957 115.434,195.291 "/>
<polygon fill="#9FA84E" stroke="#2B2C2E" stroke-width="2" stroke-linejoin="round" stroke-miterlimit="10" points="
	161.517,147.791 164.255,152.71 169.517,145.282 166.195,144.38 160.631,137.854 162.517,144.041 "/>
</svg>
