<?xml version="1.0" encoding="utf-8"?>
<!-- Generator: Adobe Illustrator 16.0.0, SVG Export Plug-In . SVG Version: 6.00 Build 0)  -->
<!DOCTYPE svg PUBLIC "-//W3C//DTD SVG 1.1//EN" "http://www.w3.org/Graphics/SVG/1.1/DTD/svg11.dtd">
<svg version="1.1" id="Layer_1" xmlns="http://www.w3.org/2000/svg" xmlns:xlink="http://www.w3.org/1999/xlink" x="0px" y="0px"
	 width="41.001px" height="40.25px" viewBox="0 0 41.001 40.25" enable-background="new 0 0 41.001 40.25" xml:space="preserve">
<g>
	<path fill="#A32941" d="M40,27.625c0,6.627-5.372,12-12,12H13c-6.628,0-12-5.373-12-12v-15c0-6.627,5.372-12,12-12h15
		c6.628,0,12,5.373,12,12V27.625z"/>
	<path opacity="0.7" fill="none" stroke="#F3F3F3" stroke-width="1.5" stroke-linecap="round" stroke-miterlimit="10" d="
		M34.208,20.125c0,7.571-6.137,13.708-13.708,13.708c-7.569,0-13.708-6.15-13.708-13.708c0-7.571,6.137-13.708,13.708-13.708
		S34.208,12.555,34.208,20.125z"/>
	<g>
		<text transform="matrix(1 0 0 1 11.7207 27.8008)" fill="#EFEFEF" font-family="'LeagueGothic-Regular'" font-size="20.349">gif</text>
	</g>
</g>
</svg>
