<?xml version="1.0" encoding="utf-8"?>
<!-- Generator: Adobe Illustrator 16.0.0, SVG Export Plug-In . SVG Version: 6.00 Build 0)  -->
<!DOCTYPE svg PUBLIC "-//W3C//DTD SVG 1.1//EN" "http://www.w3.org/Graphics/SVG/1.1/DTD/svg11.dtd">
<svg version="1.1" id="Layer_1" xmlns="http://www.w3.org/2000/svg" xmlns:xlink="http://www.w3.org/1999/xlink" x="0px" y="0px"
	 width="293.334px" height="58px" viewBox="0 0 293.334 58" enable-background="new 0 0 293.334 58" xml:space="preserve">
<g>
	<path fill="#414244" d="M37.534,18.872h-5.702l2.185-15.544h5.703L37.534,18.872z"/>
	<path fill="#414244" d="M57.864,14.02l0.506,4.185c-1.448,0.483-3.426,0.966-5.381,0.966c-4.461,0-7.334-2.483-7.334-7.083
		c0-5.381,3.955-9.06,9.45-9.06c1.978,0,3.817,0.483,5.128,0.966L58.532,8.11c-0.668-0.322-1.68-0.575-2.736-0.575
		c-2.714,0-4.324,1.679-4.324,3.955c0,2.069,1.312,3.104,3.473,3.104C56.003,14.595,57.106,14.342,57.864,14.02z"/>
	<path fill="#414244" d="M75.413,18.872H69.71l-0.299-2.599h-4.369l-1.012,2.599h-5.726L65.64,3.327h6.783L75.413,18.872z
		 M66.491,12.64h2.482l-0.574-4.783L66.491,12.64z"/>
	<path fill="#414244" d="M93.835,3.327l-2.184,15.544h-5.381l-3.519-7.979l-1.127,7.979h-5.22L78.59,3.327h5.68l3.242,7.933
		l1.104-7.933H93.835z"/>
	<path fill="#414244" d="M103.037,18.872h-5.702l1.563-11.106H94.69l0.621-4.438h14.096l-0.621,4.438h-4.186L103.037,18.872z"/>
	<path fill="#414244" d="M119.114,19.17c-1.932,0-3.955-0.161-5.15-0.322l2.161-15.43c1.196-0.161,3.288-0.391,5.196-0.391
		c3.611,0,7.451,0.805,7.451,4.139c0,2-1.195,3.196-2.507,3.817c0.851,0.184,2.276,1.15,2.276,3.081
		C128.542,18.274,124.128,19.17,119.114,19.17z M123.253,13.652c0-1.081-1.195-1.242-2.046-1.242c-0.207,0-0.713,0.023-0.92,0.046
		l-0.392,2.759c0.139,0.023,0.76,0.023,0.967,0.023C121.827,15.238,123.253,14.939,123.253,13.652z M120.724,9.42
		c0.161,0.023,0.575,0.023,0.782,0.023c0.92,0,2.093-0.253,2.093-1.518c0-0.874-0.896-1.104-1.633-1.104
		c-0.207,0-0.689,0.023-0.896,0.046L120.724,9.42z"/>
	<path fill="#414244" d="M136.709,7.696l-0.185,1.357h5.818l-0.574,4.047h-5.818l-0.184,1.426h6.645l-0.62,4.346h-12.188
		l2.185-15.544h12.188l-0.621,4.369H136.709z"/>
	<path fill="#414244" d="M150.302,14.502h5.588l-0.621,4.369h-11.29l2.185-15.544h5.703L150.302,14.502z"/>
	<path fill="#414244" d="M162.47,18.872h-5.703l2.185-15.544h5.702L162.47,18.872z"/>
	<path fill="#414244" d="M172.105,7.696l-0.185,1.357h5.818l-0.574,4.047h-5.818l-0.184,1.426h6.645l-0.62,4.346H165l2.185-15.544
		h12.188l-0.621,4.369H172.105z"/>
	<path fill="#414244" d="M180.157,3.327h5.817l1.034,10.325l3.979-10.325h5.818l-6.646,15.544h-7.771L180.157,3.327z"/>
	<path fill="#414244" d="M202.856,7.696l-0.184,1.357h5.817l-0.575,4.047h-5.817l-0.185,1.426h6.646l-0.621,4.346h-12.188
		l2.185-15.544h12.188l-0.621,4.369H202.856z"/>
	<path fill="#414244" d="M226.316,18.872h-5.702l2.184-15.544h5.703L226.316,18.872z"/>
	<path fill="#414244" d="M237.7,18.872h-5.702l1.563-11.106h-4.208l0.621-4.438h14.096l-0.62,4.438h-4.186L237.7,18.872z"/>
	<path fill="#414244" d="M245.315,3.327h3.748l-0.23,1.563l-0.988,5.565h-3.334l0.574-5.565L245.315,3.327z"/>
	<path fill="#414244" d="M261.987,13.376c0,3.748-2.943,5.794-7.52,5.794c-2.207,0-4.208-0.483-5.727-1.173l1.496-4.323
		c1.057,0.598,2.574,1.265,4.506,1.265c1.288,0,1.495-0.299,1.495-0.529c0-1.288-6.163-0.023-6.163-5.312
		c0-3.541,2.783-6.071,7.268-6.071c1.725,0,3.771,0.368,5.38,0.897l-1.495,4.3c-0.896-0.46-2.552-0.92-4.139-0.92
		c-0.805,0-1.402,0.115-1.402,0.529C255.687,9.191,261.987,7.903,261.987,13.376z"/>
	<path fill="#414244" d="M32.94,28.188l-3.609,25.684H20.44l-5.813-13.184l-1.862,13.184H4.141L7.75,28.188h9.385l5.356,13.108
		l1.824-13.108H32.94z"/>
	<path fill="#414244" d="M61.972,39.32c0,9.004-6.725,15.046-15.768,15.046c-7.484,0-12.158-4.142-12.158-11.626
		c0-9.005,6.726-15.046,15.768-15.046C57.299,27.693,61.972,31.835,61.972,39.32z M52.474,39.852c0-3.153-1.102-4.787-3.647-4.787
		c-3.495,0-5.281,3.115-5.281,7.105c0,3.153,1.103,4.825,3.647,4.825C50.688,46.995,52.474,43.879,52.474,39.852z"/>
	<path fill="#414244" d="M77.364,53.872h-9.422l2.583-18.351h-6.952l1.025-7.333H87.89l-1.026,7.333h-6.915L77.364,53.872z"/>
	<path fill="#414244" d="M121.139,53.872h-9.423l-0.494-4.293h-7.219l-1.672,4.293H92.87l12.121-25.684h11.208L121.139,53.872z
		 M106.396,43.575h4.104l-0.95-7.903L106.396,43.575z"/>
	<path fill="#414244" d="M152.185,45.855l0.836,6.915c-2.395,0.798-5.662,1.596-8.891,1.596c-7.371,0-12.121-4.104-12.121-11.703
		c0-8.891,6.535-14.97,15.616-14.97c3.268,0,6.308,0.798,8.473,1.596l-2.812,6.801c-1.102-0.532-2.773-0.95-4.521-0.95
		c-4.483,0-7.143,2.774-7.143,6.535c0,3.419,2.166,5.129,5.736,5.129C149.106,46.805,150.931,46.387,152.185,45.855z"/>
	<path fill="#414244" d="M165.903,46.653h9.232l-1.025,7.219h-18.655l3.609-25.684h9.423L165.903,46.653z"/>
	<path fill="#414244" d="M186.005,53.872h-9.422l3.609-25.684h9.422L186.005,53.872z"/>
	<path fill="#414244" d="M210.931,45.855l0.836,6.915c-2.393,0.798-5.66,1.596-8.891,1.596c-7.371,0-12.119-4.104-12.119-11.703
		c0-8.891,6.535-14.97,15.615-14.97c3.268,0,6.307,0.798,8.473,1.596l-2.812,6.801c-1.103-0.532-2.773-0.95-4.521-0.95
		c-4.483,0-7.144,2.774-7.144,6.535c0,3.419,2.166,5.129,5.738,5.129C207.854,46.805,209.678,46.387,210.931,45.855z"/>
	<path fill="#414244" d="M239.886,47.451l-0.836,6.155c-1.367,0.418-2.963,0.76-5.166,0.76c-3.952,0-5.852-2.166-8.93-9.879
		l-1.33,9.385h-9.422l3.609-25.684h9.422l-1.367,9.612c2.812-1.899,5.51-4.901,6.117-9.612h9.271
		c-0.608,4.407-3.343,9.119-8.358,12.196C235.782,47.603,237.911,47.451,239.886,47.451z"/>
	<path fill="#414244" d="M252.998,35.406l-0.304,2.242h9.612l-0.95,6.687h-9.612l-0.304,2.355h10.98l-1.026,7.181h-20.137
		l3.609-25.684h20.137l-1.025,7.219H252.998z"/>
	<path fill="#414244" d="M283.929,44.411c2.318,3.533,4.56,3.04,6.155,3.04l-0.836,6.155c-1.368,0.418-2.964,0.76-5.167,0.76
		c-3.686,0-5.623-1.938-8.396-8.549c-0.152,0.038-0.305,0.038-0.457,0.038l-1.139,8.017h-9.081l3.571-25.418
		c2.128-0.38,6.27-0.76,9.498-0.76c6.498,0,12.729,1.596,12.729,7.789C290.806,40.688,287.767,43.119,283.929,44.411z
		 M281.497,36.888c0-1.862-2.166-2.28-3.686-2.28c-0.418,0-0.798,0.038-1.063,0.076l-0.722,5.129
		c0.228,0.038,0.494,0.038,0.797,0.038C278.458,39.852,281.497,39.434,281.497,36.888z"/>
</g>
</svg>
