<?xml version="1.0" encoding="utf-8"?>
<!-- Generator: Adobe Illustrator 16.0.0, SVG Export Plug-In . SVG Version: 6.00 Build 0)  -->
<!DOCTYPE svg PUBLIC "-//W3C//DTD SVG 1.1//EN" "http://www.w3.org/Graphics/SVG/1.1/DTD/svg11.dtd">
<svg version="1.1" id="Layer_1" xmlns="http://www.w3.org/2000/svg" xmlns:xlink="http://www.w3.org/1999/xlink" x="0px" y="0px"
	 width="78.333px" height="78.333px" viewBox="0 0 78.333 78.333" enable-background="new 0 0 78.333 78.333" xml:space="preserve">
<path fill-rule="evenodd" clip-rule="evenodd" fill="#A32941" d="M57.063,16.104c-9.62,0-17.387-0.04-27.007,0.02
	c-2.3,0.01-4.45,0.7-6.19,2.33c-0.91,0.84-1.47,1.81-1.47,3.12c0,12.16-0.03,24.33-0.05,36.49c0,3.06,0.78,3.91,3.86,4.15
	c0.37,0.02,0.74,0.01,1.11,0.01c9.04,0.01,13.234,0.01,22.274,0.01c0,0,4.832,0.147,5.694-0.807
	c0.875-0.969,0.732-6.934,0.692-6.874v-29.47c0-1.187-1.396-1.214-1.63-1.19c-0.576,0.058-1.06,0.03-1.59,0.03
	c-8.52,0-17.03,0.02-25.54-0.01c-0.97-0.01-2.24-0.2-2.78-0.71c-0.38-0.36-1.13-1-0.43-2.38c0.82-1.62,2.14-2.43,4.13-2.88
	c0.13-0.03,0.27-0.06,0.41-0.09c0.64-0.13,1.31-0.16,1.97-0.16c8.75-0.01,17.51-0.01,26.27,0c0.31,0,1.24,1.32,1.24,1.54
	c0,11.35,0.01,22.7-0.03,34.04l0,0c0,0,1.063-0.126,1.3-0.59c0.142-0.277,0.081-1.974,0.081-1.974l-0.081-32.344
	C59.296,16.09,57.134,16.104,57.063,16.104z"/>
<path fill-rule="evenodd" clip-rule="evenodd" fill="#F3F3F3" d="M57.997,53.274c0,0-1.98,4.7-2.02,4.76v-32.95
	c0-1.031-1.096-1.181-1.736-1.181c-0.6,0.054-18.514,0.041-27.024,0.011c-0.97-0.01-2.24-0.2-2.78-0.71c-0.38-0.36-1.13-1-0.43-2.38
	c0.82-1.62,2.14-2.43,4.13-2.88c0.13-0.03,0.27-0.06,0.41-0.09c0.64-0.13,1.31-0.16,1.97-0.16c8.75-0.01,17.51,0,26.27,0
	c1.429,0,1.24,1.32,1.24,1.54C58.026,30.583,58.037,41.934,57.997,53.274z"/>
<g>
	<path fill="none" stroke="#FFFFFF" stroke-width="1.7378" stroke-miterlimit="10" d="M47.64,47.604
		c0,4.587-3.718,8.305-8.304,8.305c-4.587,0-8.305-3.718-8.305-8.305c0-4.062,2.916-7.443,6.769-8.163
		c0.288-0.054,0.223-3.475,0.223-5.139c0-1.667,0.946-1.359,1.168-1.359c0.23,0,1.492-0.674,1.492,1.666
		c0,1.517-0.192,4.768,0.04,4.806C44.649,40.075,47.64,43.49,47.64,47.604z"/>
	
		<line fill="none" stroke="#FFFFFF" stroke-width="2.3171" stroke-linecap="round" stroke-miterlimit="10" x1="36.622" y1="33" x2="41.993" y2="33"/>
	<polygon fill="#FFFFFF" points="36.867,28.429 37.604,31.115 41.127,31.115 41.877,28.429 	"/>
</g>
</svg>
