<?xml version="1.0" encoding="utf-8"?>
<!-- Generator: Adobe Illustrator 16.0.0, SVG Export Plug-In . SVG Version: 6.00 Build 0)  -->
<!DOCTYPE svg PUBLIC "-//W3C//DTD SVG 1.1//EN" "http://www.w3.org/Graphics/SVG/1.1/DTD/svg11.dtd">
<svg version="1.1" id="Layer_1" xmlns="http://www.w3.org/2000/svg" xmlns:xlink="http://www.w3.org/1999/xlink" x="0px" y="0px"
	 width="41.001px" height="40.25px" viewBox="0 0 41.001 40.25" enable-background="new 0 0 41.001 40.25" xml:space="preserve">
<path fill="#684782" d="M40,27.625c0,6.627-5.373,12-12,12H13c-6.628,0-12-5.373-12-12v-15c0-6.627,5.372-12,12-12h15
	c6.627,0,12,5.373,12,12V27.625z"/>
<g>
	<path fill-rule="evenodd" clip-rule="evenodd" fill="#EFEFEF" d="M10.449,16.347c1.695,0,3.27,0,4.854,0
		c1.49-1.283,2.983-2.569,4.477-3.854c0.2-0.171,0.384-0.37,0.606-0.505c0.602-0.368,1.27-0.069,1.394,0.619
		c0.038,0.213,0.017,0.438,0.017,0.658c0.002,4.529-0.006,9.059,0.008,13.588c0.003,0.717-0.104,1.312-1.031,1.569
		c-0.395-0.291-0.871-0.595-1.293-0.961c-1.094-0.949-2.18-1.91-3.238-2.898c-0.545-0.51-1.127-0.763-1.893-0.723
		c-1.052,0.056-2.109,0.031-3.164,0.009c-0.949-0.02-1.281-0.331-1.294-1.259c-0.022-1.715,0.005-3.43-0.011-5.145
		C9.875,16.958,10.02,16.589,10.449,16.347z"/>
</g>
<line fill="none" stroke="#EFEFEF" stroke-width="1.5" stroke-linecap="round" stroke-miterlimit="10" x1="24.3" y1="17.762" x2="29.925" y2="23.387"/>
<line fill="none" stroke="#EFEFEF" stroke-width="1.5" stroke-linecap="round" stroke-miterlimit="10" x1="24.3" y1="23.387" x2="29.925" y2="17.762"/>
</svg>
