<?xml version="1.0" encoding="utf-8"?>
<!-- Generator: Adobe Illustrator 16.0.0, SVG Export Plug-In . SVG Version: 6.00 Build 0)  -->
<!DOCTYPE svg PUBLIC "-//W3C//DTD SVG 1.1//EN" "http://www.w3.org/Graphics/SVG/1.1/DTD/svg11.dtd">
<svg version="1.1" id="Layer_1" xmlns="http://www.w3.org/2000/svg" xmlns:xlink="http://www.w3.org/1999/xlink" x="0px" y="0px"
	 width="854.007px" height="704.385px" viewBox="0 0 854.007 704.385" enable-background="new 0 0 854.007 704.385"
	 xml:space="preserve">
<path fill="#2D2929" d="M25.803,670.048c0,6.627,5.373,12,12,12h778.4c6.627,0,12-5.373,12-12V36.62c0-6.627-5.373-12-12-12h-778.4
	c-6.627,0-12,5.373-12,12V670.048z"/>
<path fill="none" d="M828.204,35.478v634.57c0,6.631-5.371,12-12,12h-790.4V23.478h790.4
	C822.833,23.478,828.204,28.848,828.204,35.478z"/>
<g opacity="0.2">
	<defs>
		<path id="SVGID_1_" opacity="0.2" d="M25.803,670.048c0,6.627,5.373,12,12,12h778.4c6.627,0,12-5.373,12-12V36.62
			c0-6.627-5.373-12-12-12h-778.4c-6.627,0-12,5.373-12,12V670.048z"/>
	</defs>
	<clipPath id="SVGID_2_">
		<use xlink:href="#SVGID_1_"  overflow="visible"/>
	</clipPath>
	<g clip-path="url(#SVGID_2_)">
		<polygon fill="#AD1F1F" points="795.85,-54.704 433.002,280.647 720.077,-121.482 		"/>
	</g>
	<g clip-path="url(#SVGID_2_)">
		<polygon fill="#AD1F1F" points="561.105,-98.961 433.002,280.647 462.099,-118.935 		"/>
	</g>
	<g clip-path="url(#SVGID_2_)">
		<polygon fill="#AD1F1F" points="341.065,-120.196 433.002,280.647 246.139,-85.699 		"/>
	</g>
	<g clip-path="url(#SVGID_2_)">
		<polygon fill="#AD1F1F" points="122.72,-72.18 433.002,280.647 54.484,2.284 		"/>
	</g>
	<g clip-path="url(#SVGID_2_)">
		<polygon fill="#AD1F1F" points="-31.639,74.871 433.002,280.647 -63.157,170.827 		"/>
	</g>
	<g clip-path="url(#SVGID_2_)">
		<polygon fill="#AD1F1F" points="-25.761,269.741 433.002,280.647 -17.035,370.363 		"/>
	</g>
	<g clip-path="url(#SVGID_2_)">
		<polygon fill="#AD1F1F" points="-32.86,480.872 433.002,280.647 16.064,569.231 		"/>
	</g>
	<g clip-path="url(#SVGID_2_)">
		<polygon fill="#AD1F1F" points="48.461,701.151 433.002,280.647 128.743,762.437 		"/>
	</g>
	<g clip-path="url(#SVGID_2_)">
		<polygon fill="#AD1F1F" points="334.411,710.473 433.002,280.647 434.792,721.631 		"/>
	</g>
	<g clip-path="url(#SVGID_2_)">
		<polygon fill="#AD1F1F" points="945.082,68.762 433.002,280.647 898.123,-20.657 		"/>
	</g>
	<g clip-path="url(#SVGID_2_)">
		<polygon fill="#AD1F1F" points="871.54,288.311 433.002,280.647 861.665,187.794 		"/>
	</g>
	<g clip-path="url(#SVGID_2_)">
		<polygon fill="#AD1F1F" points="954.893,480.647 433.002,280.647 982.366,383.456 		"/>
	</g>
	<g clip-path="url(#SVGID_2_)">
		<polygon fill="#AD1F1F" points="851.831,676.882 433.002,280.647 914.549,597.714 		"/>
	</g>
	<g clip-path="url(#SVGID_2_)">
		<polygon fill="#AD1F1F" points="612.621,774.532 433.002,280.647 703.783,731.052 		"/>
	</g>
</g>
</svg>
