<?xml version="1.0" encoding="utf-8"?>
<!-- Generator: Adobe Illustrator 16.0.0, SVG Export Plug-In . SVG Version: 6.00 Build 0)  -->
<!DOCTYPE svg PUBLIC "-//W3C//DTD SVG 1.1//EN" "http://www.w3.org/Graphics/SVG/1.1/DTD/svg11.dtd">
<svg version="1.1" id="Layer_1" xmlns="http://www.w3.org/2000/svg" xmlns:xlink="http://www.w3.org/1999/xlink" x="0px" y="0px"
	 width="232.667px" height="205.333px" viewBox="0 0 232.667 205.333" enable-background="new 0 0 232.667 205.333"
	 xml:space="preserve">
<path fill="none" stroke="#F3F3F3" stroke-width="8" stroke-miterlimit="10" d="M189.354,111.331
	c2.111-0.783,4.641-4.161,2.114-6.947c-2.889-3.186-7.562,1.242-7.562,1.242c-0.578-2.741-1.753-4.254-4.031-4.156
	c-0.415-9.757-2.861-19.264-2.861-19.264c-6.811-16.074-17.778-20.469-26.351-21.141c9.681-17.664-3.196-24.556-2.955-23.357
	c0.262,1.314-5.28,9.237-18.435,7.795c-3.113-0.341-5.975-0.185-8.607,0.342c7.575-17.915-5.688-19.042-5.688-19.042
	c-1.954,9.901-23.809,6.491-35.964,19.608c-8.512,9.185-10.17,18.045-10.234,23.342c-0.775-0.25-1.771-0.061-3.587,0.851
	c-0.848,0.425-1.864,1.018-2.967,1.751c-3.301,1.827-7.163,4.829-9.893,9.612c-1.162,1.805-2.024,3.722-2.377,5.689
	c-0.003,0.017-0.006,0.037-0.009,0.054c-0.159,0.566-0.308,1.144-0.435,1.745c-1.438,6.778-1.607,13.595-0.931,19.331
	c0.196,2.821,0.62,5.272,1.373,6.924c1.337,4.496,3.323,7.44,5.558,7.745c0,0-0.748,0.076-1.672,0.6
	c-1.57,0.416-2.499,1.536-3.226,3.326c-0.082,0.202-0.119,0.388-0.131,0.565c-1.163,2.358-1.487,5.814,0.778,10.759
	c0.203,0.442,0.435,0.858,0.681,1.26c0.104,0.193,0.209,0.368,0.313,0.495c0.011,0.013,0.03,0.032,0.042,0.045
	c1.307,1.896,3.094,3.314,5.143,4.352l-0.004,0.004c0,0,4.909,13.011,12.576,11.844c0,0-2.375,1.5-2.105,3.29
	c0.3,1.977,4.687,2.21,11.105-0.206c0,0-4.492,4.467,1.914,4.296c7.694-0.205,12.419-1.046,12.586-3.38c0,0,50.065,2.471,50.5,1.167
	c1.083-3.25,4.5-6.333,4.5-6.333c-9,8.833,0.833,7.166,0.833,7.166c10.333-0.166,10.399-5.451,13.333-9.666
	c1.877-2.697,7.213-13.816,11.421-24.702c0.019,0.011,0.037,0.027,0.056,0.038c2.165,1.274,4.813-3.64,4.813-3.64
	c-0.188,2.266,0.958,4.193,3.625,3.813c3.938-0.563,3.275-3.981,3.275-3.981c2.6,2.481,5.81,0.891,6.393-1.586
	c0.6-2.548-1.712-4.6-1.23-4.472c4.265,1.13,4.625-3.46,4.625-3.46C195.506,110.507,191.091,110.971,189.354,111.331z"/>
<g>
	<path fill="#BEBDC5" d="M69.252,74.743c0,0-3.739-13.762,9.763-28.332c12.155-13.117,34.01-9.707,35.964-19.608
		c0,0,18.499,1.563-0.652,30.483c0,0-3.387,8.859-10.941,13.289C103.385,70.575,79.545,93.894,69.252,74.743"/>
	<path fill="none" stroke="#2B2C2E" stroke-width="2" stroke-linecap="round" stroke-linejoin="round" stroke-miterlimit="10" d="
		M69.252,74.743c0,0-3.739-13.762,9.763-28.332c12.155-13.117,34.01-9.707,35.964-19.608c0,0,18.499,1.563-0.652,30.483
		c0,0-3.387,8.859-10.941,13.289C103.385,70.575,79.545,93.894,69.252,74.743z"/>
	
		<path fill="#F0EFEF" stroke="#2B2C2E" stroke-width="2" stroke-linecap="round" stroke-linejoin="round" stroke-miterlimit="10" d="
		M177.238,107.793c0,0-1.423-5.493,1.5-6.167c3.043-0.702,4.5,0.834,5.168,4c0,0,4.673-4.428,7.562-1.242
		c2.813,3.103-0.646,6.951-2.812,7.117c0,0,6.813-2.109,7,3.548c0,0-0.36,4.59-4.625,3.46c-0.481-0.128,1.83,1.924,1.23,4.472
		c-0.583,2.478-3.793,4.068-6.393,1.586c0,0,0.662,3.419-3.275,3.981c-2.667,0.381-3.813-1.547-3.625-3.813
		c0,0-2.647,4.914-4.813,3.64c-2.168-1.273-4.685-5.799-3-6.875c1.684-1.076,1.014-8.541,1.014-8.541L177.238,107.793z"/>
	<path fill="#BEBDC5" stroke="#2B2C2E" stroke-width="2" stroke-linejoin="round" stroke-miterlimit="10" d="M57.438,144.862
		c0,0,4.909,13.011,12.576,11.844c0,0-2.375,1.5-2.105,3.29c0.3,1.977,4.687,2.21,11.105-0.206c0,0-4.492,4.467,1.914,4.296
		c7.694-0.205,12.419-1.046,12.586-3.38c0,0,50.065,2.471,50.5,1.167c1.083-3.25,4.5-6.333,4.5-6.333
		c-9,8.833,0.833,7.166,0.833,7.166c10.333-0.166,10.399-5.451,13.333-9.666c3.03-4.354,15.084-30.667,16.834-42.5
		c1.75-11.834-2.5-28.334-2.5-28.334c-12.5-29.5-39-19.666-39-19.666L57.438,144.862z"/>
	<path fill="#BEBDC5" d="M100.764,64.456c0,0-24.54,10.977-28.064,8.5c-3.525-2.477-2.994-4.616-7.506-2.352
		c-4.515,2.265-13.843,9.276-15.236,17.053c-1.395,7.775-2.555,22.459,0,28.057c2.556,5.6,5.557,7.742,5.557,7.742
		s-3.38,0.316-4.648,4.657c-1.267,4.34,0.164,10.839,1.392,12.348s9.771,8.099,17.999,6.856c8.229-1.243,10.258-2.361,10.258-2.361
		s20.291,5.901,24.02,1.576c0,0,9.23-2.826,10.48-8.326c0,0,17.25-3.098,19.25-17.924s4.5-37.076,2-41.326s-6.5-9.204-10.5-8.352
		c-4,0.852-15.117-2.148-15.117-2.148l-5.008-4H100.764z"/>
	<path fill="#C64982" d="M124.87,130.17c0,2.577-2.358,4.5-5.545,4.5s-5.488-0.202-5.488-2.779s2.527-4.91,5.714-4.91
		S124.87,127.593,124.87,130.17"/>
	<path fill="none" stroke="#2B2C2E" stroke-width="2" stroke-miterlimit="10" d="M124.87,130.17c0,2.577-2.358,4.5-5.545,4.5
		s-5.488-0.202-5.488-2.779s2.527-4.91,5.714-4.91S124.87,127.593,124.87,130.17z"/>
	<path fill="#C64982" d="M60.26,127.812c0,2.072-2.454,3.014-5.016,3.014s-5.158-0.793-4.377-2.713
		c0.937-2.307,2.193-3.516,4.754-3.516C58.184,124.597,60.26,125.739,60.26,127.812"/>
	<path fill="none" stroke="#2B2C2E" stroke-width="2" stroke-miterlimit="10" d="M60.009,127.081c0,2.072-2.454,3.014-5.016,3.014
		s-5.158-0.793-4.377-2.713c0.937-2.307,2.193-3.516,4.754-3.516C57.933,123.866,60.009,125.009,60.009,127.081z"/>
	<path fill="none" stroke="#2B2C2E" stroke-width="2" stroke-linecap="round" stroke-linejoin="round" stroke-miterlimit="10" d="
		M68.78,69.753c0,0-15.767,3.203-19.267,19.703s0.5,33.25,6,34c0,0-9.75,3.25-4.25,15.25s27.5,8.75,29.25,6.25
		c0,0,28,8.75,34.5-6.75"/>
	<path fill="#2B2C2E" d="M66.287,114.612c-2.44-1.084-5.347-0.158-6.793,2.086c-0.998,1.547-1.649,3.629-0.605,6.008
		c0.473,1.078,1.034,1.934,1.626,2.614c2.513,2.891,7.345,2.358,9.039-1.075c0.577-1.172,0.885-2.664,0.585-4.539
		C69.68,116.841,67.986,115.368,66.287,114.612"/>
	<path fill="#2B2C2E" d="M113.24,115.178c-1.582-1.61-4.262-1.296-5.538,0.565c-1.051,1.533-2.063,3.617-2.063,5.963
		c0,4.875,3.219,7.813,5.007,7.875c2.625,0.091,5.242-2.75,4.992-8C115.491,118.489,114.564,116.526,113.24,115.178"/>
	<path fill="#FFFFFF" d="M66.076,118.626c0.117,1.277-1.434,1.881-2.986,2.023c-1.554,0.143-2.703,0.291-2.82-0.984
		c-0.118-1.276,0.889-2.996,2.441-3.139S65.959,117.351,66.076,118.626"/>
	<path fill="#FFFFFF" d="M67.139,123.596c0,0.958-1.146,1.735-2.563,1.735s-2.5-0.779-2.563-1.735
		c-0.119-1.815,0.813-2.015,2.563-2.202C66.492,121.188,67.139,122.638,67.139,123.596"/>
	<path fill="#FFFFFF" d="M113.804,121.089c-0.241,1.129-1.657,1.252-2.953,0.977c-1.295-0.275-2.267-0.443-2.024-1.574
		c0.239-1.13,1.508-2.355,2.804-2.078C112.925,118.688,114.045,119.958,113.804,121.089"/>
	<path fill="#FFFFFF" d="M113.389,125.425c-0.257,0.95-1.03,1.781-2.3,1.781c-1.271,0-2.3-0.797-2.3-1.781
		c0-1.344,1.029-2.156,2.3-2.156C112.358,123.269,113.837,123.769,113.389,125.425"/>
	<path fill="#2B2C2E" d="M79.033,124.894c0,0,1.75-0.313,2.375,1.375c0,0,1.875-1.671,2.5-1.398
		c0.625,0.273,0.125,1.273-0.438,2.337c-0.563,1.062-1.719,3.374-1.719,3.374l-1.656-2.87
		C80.096,127.711,78.847,125.894,79.033,124.894"/>
	
		<path fill="#BEBDC5" stroke="#2B2C2E" stroke-width="2" stroke-linecap="round" stroke-linejoin="round" stroke-miterlimit="10" d="
		M96.845,70.778"/>
	
		<path fill="#BEBDC5" stroke="#2B2C2E" stroke-width="2" stroke-linecap="round" stroke-linejoin="round" stroke-miterlimit="10" d="
		M123.844,44.695"/>
	
		<path fill="#BEBDC5" stroke="#2B2C2E" stroke-width="2" stroke-linecap="round" stroke-linejoin="round" stroke-miterlimit="10" d="
		M97.764,69.182"/>
	
		<path fill="#BEBDC5" stroke="#2B2C2E" stroke-width="2" stroke-linecap="round" stroke-linejoin="round" stroke-miterlimit="10" d="
		M94.928,72.778c0,0,8.902-30.064,34.346-27.275c13.154,1.442,18.696-6.48,18.435-7.795c-0.264-1.313,15.22,7.07-0.437,28.686
		c-7.34,10.134-21.553,7.843-29.344,12.218"/>
</g>
</svg>
