<?xml version="1.0" encoding="utf-8"?>
<!-- Generator: Adobe Illustrator 16.0.0, SVG Export Plug-In . SVG Version: 6.00 Build 0)  -->
<!DOCTYPE svg PUBLIC "-//W3C//DTD SVG 1.1//EN" "http://www.w3.org/Graphics/SVG/1.1/DTD/svg11.dtd">
<svg version="1.1" id="Layer_1" xmlns="http://www.w3.org/2000/svg" xmlns:xlink="http://www.w3.org/1999/xlink" x="0px" y="0px"
	 width="294px" height="50.333px" viewBox="0 0 294 50.333" enable-background="new 0 0 294 50.333" xml:space="preserve">
<path fill="#252728" d="M63.546,25.164c0,4.83-3.914,8.748-8.744,8.748H16.64c-4.83,0-8.746-3.918-8.746-8.748l0,0
	c0-4.828,3.916-8.742,8.746-8.742h38.162C59.632,16.421,63.546,20.335,63.546,25.164L63.546,25.164z"/>
<path fill="#252728" d="M119.2,25.164c0,4.83-3.915,8.748-8.746,8.748H72.293c-4.831,0-8.747-3.918-8.747-8.748l0,0
	c0-4.828,3.916-8.742,8.747-8.742h38.161C115.285,16.421,119.2,20.335,119.2,25.164L119.2,25.164z"/>
<path fill="#252728" d="M174.854,25.164c0,4.83-3.916,8.748-8.745,8.748h-38.163c-4.829,0-8.745-3.918-8.745-8.748l0,0
	c0-4.828,3.916-8.742,8.745-8.742h38.163C170.938,16.421,174.854,20.335,174.854,25.164L174.854,25.164z"/>
<path fill="#252728" d="M230.507,25.164c0,4.83-3.916,8.748-8.746,8.748h-38.162c-4.83,0-8.745-3.918-8.745-8.748l0,0
	c0-4.828,3.915-8.742,8.745-8.742h38.162C226.591,16.421,230.507,20.335,230.507,25.164L230.507,25.164z"/>
<path fill="#252728" d="M286.159,25.164c0,4.83-3.915,8.748-8.744,8.748h-38.163c-4.831,0-8.745-3.918-8.745-8.748l0,0
	c0-4.828,3.914-8.742,8.745-8.742h38.163C282.244,16.421,286.159,20.335,286.159,25.164L286.159,25.164z"/>
</svg>
