<?xml version="1.0" encoding="utf-8"?>
<!-- Generator: Adobe Illustrator 16.0.0, SVG Export Plug-In . SVG Version: 6.00 Build 0)  -->
<!DOCTYPE svg PUBLIC "-//W3C//DTD SVG 1.1//EN" "http://www.w3.org/Graphics/SVG/1.1/DTD/svg11.dtd">
<svg version="1.1" id="Layer_1" xmlns="http://www.w3.org/2000/svg" xmlns:xlink="http://www.w3.org/1999/xlink" x="0px" y="0px"
	 width="216px" height="297.167px" viewBox="0 0 216 297.167" enable-background="new 0 0 216 297.167" xml:space="preserve">
<path fill="#F9F9F9" stroke="#F3F3F3" stroke-width="8" stroke-linecap="round" stroke-linejoin="round" stroke-miterlimit="10" d="
	M161.792,136.919c17.656-21.367,1.725-37.94-4.621-43.241c0.187-2.714,0.302-4.279,0.302-4.279l3.417-21.12
	c0,0,7.144-52.49-36.339-53.111c-43.482-0.621-50.472,26.4-53.423,35.718c-2.95,9.318-4.348,87.276-4.348,87.276
	s0.095,5.482,0.184,13.231c-1.285,1.224-2.634,2.411-4.065,3.536c-4.62,3.631-4.673,8.553-2.146,13.792
	c-0.786,3.817-1.581,8.164-1.581,10.128c-0.002,3.313,1.587,12.669,7.674,16.727c-0.095,2.373-0.217,4.217-0.375,5.325
	c-1.242,8.697,3.416,27.332,3.727,39.134c0.311,11.803-3.635,15.183-3.635,15.183c1.511,0.905,3.442,2.428,6.947,4.972
	c-0.102,2.128-0.084,4.522,0.361,5.885c0.932,2.845,9.922,12.474,24.529,4.709c8.053-4.281,11.283-9.802,12.565-13.897
	c1.104,0.369,2.187,0.865,3.217,1.368c-0.099,1.933-0.093,4.154,0.315,5.401c0.829,2.53,8.824,11.093,21.814,4.187
	c7.534-4.006,10.323-9.232,11.34-12.918c2.839,1.076,4.852,2.503,4.852,2.503c9.008-12.424,4.683-62.181,2.485-84.481
	c-0.656-6.646-0.662-17.248-0.36-28.697C157.051,142.161,159.454,139.749,161.792,136.919z"/>
<g>
	
		<path fill="#6D6E70" stroke="#2A2B2E" stroke-width="2" stroke-linecap="round" stroke-linejoin="round" stroke-miterlimit="10" d="
		M73.87,255.875c0,0-0.932,7.355,0,10.2c0.932,2.845,9.922,12.474,24.529,4.709c14.605-7.765,13.363-19.62,13.363-19.62
		L73.87,255.875z"/>
	
		<path fill="#6D6E70" stroke="#2A2B2E" stroke-width="1.7787" stroke-linecap="round" stroke-linejoin="round" stroke-miterlimit="10" d="
		M114.497,254.584c0,0-0.829,6.541,0,9.072c0.829,2.53,8.824,11.093,21.814,4.187c12.989-6.906,11.885-17.449,11.885-17.449
		L114.497,254.584z"/>
	
		<path fill="#FFFFFF" stroke="#2A2B2E" stroke-width="2" stroke-linecap="round" stroke-linejoin="round" stroke-miterlimit="10" d="
		M71.128,50.885c2.951-9.318,9.94-36.339,53.423-35.718c43.482,0.622,36.339,53.111,36.339,53.111l-3.417,21.12
		c0,0-4.591,62.188-2.484,83.549c2.197,22.3,6.522,72.057-2.485,84.481c0,0-8.695-6.212-15.529-2.485
		c-6.833,3.728-13.718,6.561-18.377,5.28c-4.072-1.12-10.87-7.247-16.098-1.553c-2.733,2.975-17.81,9.586-28.265,2.046
		c-3.986-2.875-6.058-4.531-7.673-5.499c0,0,3.945-3.38,3.635-15.183c-0.311-11.802-4.969-30.438-3.727-39.134
		s0.311-62.74,0.311-62.74S68.178,60.203,71.128,50.885z"/>
	
		<path fill="#FFFFFF" stroke="#2A2B2E" stroke-width="2" stroke-linecap="round" stroke-linejoin="round" stroke-miterlimit="10" d="
		M62.277,161.767c0,0-3.106,13.199-3.106,17.082c-0.003,5.496,4.349,27.643,26.4,14.598c22.052-13.044-10.223-17.563-17.99-18.014"
		/>
	<path fill="#2A2B2E" d="M140.456,85.982c0,11.322-3.475,16.617-12.482,17.394c-10.056,0.867-18.984-9.68-17.646-20.447
		c1.34-10.767,5.078-20.15,13.453-19.356C135.79,64.711,140.456,74.661,140.456,85.982z"/>
	<path fill="#2A2B2E" d="M90.82,79.149c0,4.631-1.289,9.007-5.887,9.007c-3.25,0-6.076-3.827-5.258-8.386
		c0.765-4.255,2.008-8.386,5.258-8.386C88.185,71.384,90.82,74.518,90.82,79.149z"/>
	<path fill="#2A2B2E" d="M91.265,102.133c1.656-2.174,7.588-2.053,14.599-0.414c4.762,1.113,5.6,2.091,5.45,3.354
		c-0.181,1.534-3.957,4.14-7.218,4.348c-2.487,0.158-9.658,0.062-10.76-0.455C91.679,108.189,89.608,104.307,91.265,102.133z"/>
	
		<path fill="#2A2B2E" stroke="#2A2B2E" stroke-width="2" stroke-linecap="round" stroke-linejoin="round" stroke-miterlimit="10" d="
		M133.092,161.767c0,0-17.394-1.243-30.438-14.288c-13.046-13.044-11.804-33.854-11.804-33.854s11.039,4.072,19.702,13.424
		c8.665,9.353,22.639,18.895,22.539,23.226C132.99,154.605,133.092,161.767,133.092,161.767z"/>
	
		<path fill="#FFFFFF" stroke="#2A2B2E" stroke-width="2" stroke-linecap="round" stroke-linejoin="round" stroke-miterlimit="10" d="
		M154.833,91.883c0,0,28.516,18.946,6.959,45.036c-21.558,26.09-48.516,18.495-48.516,18.495s-22.426-5.139-3.79-22.532
		c18.636-17.394,16.772-15.53,19.257-19.567"/>
	
		<path fill="#F5A01D" stroke="#2A2B2E" stroke-width="2" stroke-linecap="round" stroke-linejoin="round" stroke-miterlimit="10" d="
		M129.054,161.767"/>
	
		<path fill="#F5A01D" stroke="#2A2B2E" stroke-width="2" stroke-linecap="round" stroke-linejoin="round" stroke-miterlimit="10" d="
		M87.604,117.011c-1.051,2.149-7.312,24.247-24.705,37.917c-17.394,13.67,29.642,45.71,35.939,43.798s0.399-9.007,10.648-13.044
		c10.25-4.038,24.848-22.673,23.605-23.916c-1.243-1.243-8.122-5.252-18.015-9.628c-15.126-6.692-20.033-20.499-21.275-22.363
		c-1.242-1.863-1.062-15.685-2.537-16.15C89.79,113.159,88.677,114.815,87.604,117.011z"/>
	<polygon fill="#FFDE59" points="84.187,129.199 91.358,129.475 91.358,136.515 95.181,137.551 95.181,148.318 104.059,146.539 
		104.059,156.963 115.384,153.64 115.384,162.708 123.591,157.586 128.111,167.782 123.852,172.792 113.369,182.266 
		110.781,183.208 101.143,186.209 101.143,176.686 92.213,180.414 89.877,169.024 78.883,168.61 80.177,160.328 69.823,157.384 
		73.759,148.525 73.069,146.392 	"/>
	<polygon fill="#F27121" points="92.624,174.741 96.169,171.86 97.345,176.274 101.905,176.028 100.262,180.29 104.096,182.772 
		100.262,185.253 101.905,189.516 97.345,189.269 96.169,193.683 92.624,190.803 89.078,193.683 87.902,189.269 83.342,189.516 
		84.986,185.253 81.151,182.772 84.986,180.29 83.342,176.028 87.902,176.274 89.078,171.86 	"/>
	<g>
		<path fill="#F2CB2A" d="M86.421,189.33c0,0-0.017-0.214-0.01-0.567c0.024-1.56,0.456-5.816,4.417-5.999
			c0,0,1.598,0.061,2.19,0.262c0.592,0.202,2.633,1.73,5.435,3.078c1.689,0.813,2.74,2.597,1.845,2.675
			c-0.896,0.078-5.201-1.621-6.508-1.729C91.531,186.862,88.153,191.773,86.421,189.33z"/>
		<path fill="#F8EC88" d="M93.61,183.228c0,0,5.366,5.047,6.287,5.324c0.916,0.276,3.351-1.386-0.091-3.829
			C99.807,184.723,96.289,185.5,93.61,183.228z"/>
	</g>
	<g>
		<path fill="#F8D540" d="M84.981,188.314c0,0-0.09-0.195-0.21-0.526c-0.532-1.468-1.642-5.599,1.993-7.179
			c0,0,1.518-0.512,2.141-0.534c0.626-0.023,3.077,0.679,6.175,0.941c1.866,0.159,3.485,1.452,2.676,1.844
			c-0.81,0.393-5.437,0.336-6.696,0.7C88.881,184.19,87.472,189.981,84.981,188.314z"/>
		<path fill="#F8EC88" d="M89.531,180.053c0,0,6.812,2.807,7.77,2.739c0.956-0.069,2.638-2.487-1.448-3.547
			C95.853,179.245,92.843,181.224,89.531,180.053z"/>
	</g>
	<g>
		<path fill="#FFD34A" d="M84.687,184.395c0,0,7.074,0.857,9.799,3.158c2.726,2.3-7.055-0.916-7.055-0.916
			S83.412,184.961,84.687,184.395z"/>
		<path fill="#FFEF9C" d="M87.775,186.749l3.418-1.771c0,0,1.177-0.637,3.438,0.513c2.266,1.15,2.417,3.596,1.697,5.501
			c0,0-1.188-2.369-4.228-3.039C89.063,187.284,87.775,186.749,87.775,186.749z"/>
	</g>
	<path fill="#FFFFFF" d="M76.156,157.379"/>
	
		<polygon fill="#F9F9F9" stroke="#2A2B2E" stroke-width="2" stroke-linecap="round" stroke-linejoin="round" stroke-miterlimit="10" points="
		82.163,129.775 89.05,131.341 87.459,140.67 93.134,140.67 93.134,152.165 101.037,152.165 101.037,159.109 111.979,160.205 
		114.815,168.038 123.613,163.369 125.327,172.858 115.424,182.266 113.804,177.316 105.9,181.439 105.292,170.925 95.971,174.43 
		94.241,161.235 83.67,163.915 85.433,153.607 74.7,152.782 79.151,144.536 76.351,140.67 	"/>
</g>
</svg>
