<?xml version="1.0" encoding="utf-8"?>
<!-- Generator: Adobe Illustrator 16.0.0, SVG Export Plug-In . SVG Version: 6.00 Build 0)  -->
<!DOCTYPE svg PUBLIC "-//W3C//DTD SVG 1.1//EN" "http://www.w3.org/Graphics/SVG/1.1/DTD/svg11.dtd">
<svg version="1.1" id="Layer_1" xmlns="http://www.w3.org/2000/svg" xmlns:xlink="http://www.w3.org/1999/xlink" x="0px" y="0px"
	 width="57.334px" height="62.167px" viewBox="0 0 57.334 62.167" enable-background="new 0 0 57.334 62.167" xml:space="preserve">
<path fill="#EF3D5C" d="M45.271,25.729c0,2.625-1.063,5.01-2.777,6.739l-0.022,0.024l-0.521,0.482L27.875,46.001L13.801,32.98
	l-0.529-0.489l-0.022-0.024c-1.714-1.729-2.776-4.114-2.776-6.739c0-5.278,4.283-9.563,9.563-9.563c3.243,0,6.111,2.903,7.84,5.373
	c1.723-2.47,4.59-5.373,7.834-5.373C40.996,16.166,45.271,20.45,45.271,25.729z"/>
<path fill="#F3F3F3" d="M20.406,19.256c0.145-0.522-2.957-0.472-4.649,0.956c-1.837,1.552-3.103,4.025-2.474,6.971
	c0.43,2.017,2.76,4.84,3.318,4.344c0.56-0.496-0.473-1.877-0.759-3.966c-0.237-1.729-0.075-4.293,1.566-5.932
	C18.934,20.104,20.223,20.007,20.406,19.256z"/>
</svg>
