<?xml version="1.0" encoding="UTF-8" standalone="no"?>
<svg
   xmlns:dc="http://purl.org/dc/elements/1.1/"
   xmlns:cc="http://creativecommons.org/ns#"
   xmlns:rdf="http://www.w3.org/1999/02/22-rdf-syntax-ns#"
   xmlns:svg="http://www.w3.org/2000/svg"
   xmlns="http://www.w3.org/2000/svg"
   xml:space="preserve"
   enable-background="new 0 0 306.5 49.5"
   viewBox="0 0 306.5 49.5"
   height="49.5px"
   width="306.5px"
   y="0px"
   x="0px"
   id="Layer_1"
   version="1.1"><metadata
     id="metadata15"><rdf:RDF><cc:Work
         rdf:about=""><dc:format>image/svg+xml</dc:format><dc:type
           rdf:resource="http://purl.org/dc/dcmitype/StillImage" /><dc:title></dc:title></cc:Work></rdf:RDF></metadata><defs
     id="defs13" /><path
     id="black-bar"
     d="M302.939,25.833c0,4.233-3.433,7.667-7.667,7.667H54.939c-4.233,0-7.667-3.434-7.667-7.667l0,0  c0-4.234,3.434-7.667,7.667-7.667h240.333C299.507,18.166,302.939,21.599,302.939,25.833L302.939,25.833z"
     fill="#252628" /><path
     id="path7"
     d="M39.193,21.478c0,2.625-1.063,5.01-2.777,6.739l-0.023,0.024l-0.52,0.482L21.797,41.75L7.722,28.73  l-0.528-0.489L7.17,28.217c-1.713-1.729-2.776-4.114-2.776-6.739c0-5.278,4.283-9.563,9.563-9.563c3.243,0,6.112,2.903,7.841,5.373  c1.722-2.47,4.59-5.373,7.834-5.373C34.917,11.916,39.193,16.2,39.193,21.478z"
     fill="#EE3A5B" /><path
     id="path9"
     d="M14.328,15.005c0.145-0.522-2.958-0.472-4.65,0.956c-1.837,1.552-3.102,4.025-2.474,6.971  c0.431,2.017,2.76,4.84,3.319,4.344c0.559-0.496-0.473-1.877-0.76-3.966c-0.236-1.729-0.074-4.293,1.566-5.932  C12.855,15.854,14.144,15.756,14.328,15.005z"
     fill="#F3F3F3" /><rect
     ry="7.5383697"
     y="18.366219"
     x="46.468906"
     height="15.076739"
     width="255"
     id="health-bar"
     style="fill:#30BF5B;fill-rule:evenodd;stroke:#000000;stroke-width:0.35444462;stroke-linecap:butt;stroke-linejoin:miter;stroke-miterlimit:4;stroke-dasharray:none;stroke-opacity:1" /></svg>
