<?xml version="1.0" encoding="utf-8"?>
<!-- Generator: Adobe Illustrator 16.0.0, SVG Export Plug-In . SVG Version: 6.00 Build 0)  -->
<!DOCTYPE svg PUBLIC "-//W3C//DTD SVG 1.1//EN" "http://www.w3.org/Graphics/SVG/1.1/DTD/svg11.dtd">
<svg version="1.1" id="Layer_1" xmlns="http://www.w3.org/2000/svg" xmlns:xlink="http://www.w3.org/1999/xlink" x="0px" y="0px"
	 width="216px" height="297.167px" viewBox="0 0 216 297.167" enable-background="new 0 0 216 297.167" xml:space="preserve">
<path fill="none" stroke="#F3F3F3" stroke-width="8" stroke-linecap="round" stroke-linejoin="round" stroke-miterlimit="10" d="
	M176.336,165.983c7.472,1.126,21.087-7.875,19.46-17.962c-1.066-6.614-6.757-4.195-10.717-1.598l0.55-0.543
	c0,0,8.75-12.193,6.25-48.193s-23.75-45.5-33.25-54s-51.5-8-64-3.25s-22.84,6.999-31.459,21
	c-10.875,17.667-3.333,35.837-3.333,35.837c0-0.002,0-0.004,0.001-0.006c0.221,9.951,1.13,22.641,3.819,34.342
	c-2.586-0.42-4.73-0.498-5.79,0.069l-1.134,1.654l7.684,1.383c0.69,2.631,1.477,5.193,2.378,7.639c0,0-8.371,4.667-7.019,13.333
	c0.059,0.371,0.162,0.771,0.287,1.182l-17.147-10.21l-4.908,3.828l3.871-3.633c0,0-5.338-8.537-9.938-7.631
	c-3.84,0.756-3.188,4.206-2.563,6.131c0,0-3.542-4.001-5.959-1.334c-2.416,2.667,1.084,6.333,1.084,6.333s-3.112-0.792-4.258,2.188
	c-1.112,2.891,3.323,6.038,5.604,7.427l-0.685,0.535c0,0,0,15.49,14.5,22.99c4.144,2.143,8.319,3.897,12.173,5.311
	c0.037,0.014,0.06,0.022,0.06,0.022l0.001,0c9.604,3.518,17.183,4.917,17.183,4.917l1.717-0.476l0.384,0.212
	c-2.914,7.331-4.821,16.357-4.929,22.65c-0.094,5.495-0.885,10.383,0.25,12.996c0.823,1.896,2.099,2.957,3.275,3.552
	c-1.079-0.13-2.317-0.102-3.463,0.364c-2.875,1.167-2.063,7.313-2.063,7.313l19.597,2.445l5.029,13.457
	c-10.98-0.182-13.037,8.457-13.037,8.457l32.056,0.702c0,0-0.018-0.032-0.036-0.064l7.05,0.017l1.324,0.047h3.246v-0.036
	l14.636,0.036c0,0-0.357-1.378-1.819-2.973l5.399-18.003h5.681l8.957,0.034c0,0,1.152-7.854-5.832-8.368
	c-3.753-0.276-7.954,1.463-9.429,2.141c1.793-0.866,7.525-3.705,8.263-4.975c0.875-1.507,0.416-8.167,0.666-10.833
	c0.065-0.691-0.124-3.66-0.437-7.665c14.26,1.723,26.813,1.314,26.813,1.314l2.54-5.675l-1.716,5.018c0,0,8.715,5.042,12.355,2.087
	c3.039-2.467,0.846-5.209-0.608-6.618c0,0,5.003,1.876,5.89-1.612c0.886-3.488-3.924-5.088-3.924-5.088s3.12-0.758,2.736-3.927
	c-0.371-3.075-5.765-3.777-8.431-3.936l0.354-0.793c0,0-7.256-13.685-23.579-13.519c-5.785,0.059-11.333,0.67-16.09,1.434
	l2.678-1.994l-0.906,0.078c12.719-3.65,25.196-7.865,27.698-10.029C172.946,170.156,174.726,168.123,176.336,165.983z
	 M99.629,232.758l0.875-24.28l1.125,22.303l0.428,1.948l-2.497,0.337L99.629,232.758z"/>
<g>
	
		<path fill="#D8C049" stroke="#2A2B2E" stroke-width="2" stroke-linecap="round" stroke-linejoin="round" stroke-miterlimit="10" d="
		M27.129,160.698l14.75-13.843c0,0-5.338-8.537-9.938-7.631c-3.84,0.756-3.188,4.206-2.563,6.131c0,0-3.542-4.001-5.959-1.334
		c-2.416,2.667,1.084,6.333,1.084,6.333s-3.112-0.792-4.258,2.188C18.764,156.392,27.129,160.698,27.129,160.698z"/>
	<path fill="#A5837C" stroke="#2A2B2E" stroke-width="2" stroke-miterlimit="10" d="M42.916,146.66l-17.75,13.843
		c0,0,0,15.49,14.5,22.99s29.416,10.25,29.416,10.25l10.834-3l3.194-7.246l-16.944-22.994L42.916,146.66z"/>
	
		<path fill="#A53738" stroke="#2A2B2E" stroke-width="2" stroke-linecap="round" stroke-linejoin="round" stroke-miterlimit="10" d="
		M70.082,168.438l-18.184,20.389c0,0-15.67-5.861-19.326-11.555l22.566-22.613l10.365,5.05L70.082,168.438z"/>
	<circle fill="#BEB494" cx="51.328" cy="173.076" r="7.875"/>
	<polyline fill="none" stroke="#2A2B2E" stroke-width="2" stroke-miterlimit="10" points="51.546,166.645 48.293,170.743 
		54.754,174.895 51.671,178.812 	"/>
	<polyline fill="none" stroke="#2A2B2E" stroke-width="2" stroke-miterlimit="10" points="45.075,173.625 48.463,175.979 
		53.949,169.509 57.421,171.742 	"/>
	
		<path fill="#D8C049" stroke="#2A2B2E" stroke-width="2" stroke-linecap="round" stroke-linejoin="round" stroke-miterlimit="10" d="
		M179.752,196.289l-6.547,19.14c0,0,8.715,5.042,12.355,2.087c3.039-2.467,0.846-5.209-0.608-6.618c0,0,5.003,1.876,5.89-1.612
		c0.886-3.488-3.924-5.088-3.924-5.088s3.12-0.758,2.736-3.927C189.16,196.175,179.752,196.289,179.752,196.289z"/>
	<path fill="#A5837C" stroke="#2A2B2E" stroke-width="2" stroke-miterlimit="10" d="M172.381,216.086l9.197-20.545
		c0,0-7.256-13.685-23.579-13.519c-16.325,0.166-30.792,4.724-30.792,4.724l-8.166,7.725l1.082,20.987
		c0,0,10.863-2.466,25.232-0.711C159.702,216.5,172.381,216.086,172.381,216.086z"/>
	
		<polygon fill="#D2C8AD" stroke="#2A2B2E" stroke-width="2" stroke-linecap="round" stroke-linejoin="round" stroke-miterlimit="10" points="
		144.587,181.462 125.83,195.425 100.129,207.938 87.273,192.441 78.004,180.938 98.379,185.438 	"/>
	
		<path fill="#D8C049" stroke="#2A2B2E" stroke-width="2" stroke-linecap="round" stroke-linejoin="round" stroke-miterlimit="10" d="
		M60.129,79.354c0,0-2.666,37.667,6.666,63c0,0-8.371,4.667-7.019,13.333c1.353,8.667,21.687,29,28.019,30
		c0,0,8.334,7.667,15.668,1.667c0,0,2,2.667,15.332,0.333c13.334-2.333,48.209-12.393,52.584-16.176s10.416-12.824,9.75-14.824
		l6.346-18.583c0,0,0.988-33.417-0.346-33.417s0,1.667-1.334,0c-1.332-1.667-85.666-54.667-92-53
		c-6.332,1.667-23.666,14.333-23.666,14.333L60.129,79.354z"/>
	
		<path fill="#D8C049" stroke="#2A2B2E" stroke-width="2" stroke-linecap="round" stroke-linejoin="round" stroke-miterlimit="10" d="
		M181.171,149.401c0,0,12.958-11.714,14.625-1.38s-12.667,19.534-20,17.867C178.296,149.979,181.171,149.401,181.171,149.401z"/>
	
		<polygon fill="#BEB494" stroke="#2A2B2E" stroke-width="2" stroke-linecap="round" stroke-linejoin="round" stroke-miterlimit="10" points="
		119.482,230.379 119.482,265.413 116.236,265.413 91.98,264.555 81.143,235.549 	"/>
	
		<polygon fill="#BEB494" stroke="#2A2B2E" stroke-width="2" stroke-linecap="round" stroke-linejoin="round" stroke-miterlimit="10" points="
		139.295,239.115 131.409,265.406 134.118,265.413 107.173,265.344 112.118,240.549 	"/>
	<path fill="none" stroke="#2A2B2E" stroke-width="2" stroke-linecap="round" stroke-linejoin="round" stroke-miterlimit="10" d="
		M95.129,226.438"/>
	
		<path fill="#A5837C" stroke="#2A2B2E" stroke-width="2" stroke-linecap="round" stroke-linejoin="round" stroke-miterlimit="10" d="
		M146.004,222.437c-0.25,2.667,0.209,9.326-0.666,10.833s-8.813,5.237-8.813,5.237s5.336-2.745,9.979-2.404
		c6.984,0.514,5.832,8.368,5.832,8.368l-8.957-0.034h-38.75l-4.316-12l0.191-23.959l-0.875,24.28l-2.637,11.679l-32.738-4.084
		c0,0-0.813-6.145,2.063-7.313s6.354,0.396,6.354,0.396s-4.273,0.043-6.166-4.312c-1.135-2.613-0.344-7.501-0.25-12.996
		c0.184-10.76,5.625-29.524,12.375-34.108l21.5,25.917l42.625-24.584C142.754,183.354,146.254,219.771,146.004,222.437z"/>
	<path fill="none" stroke="#2A2B2E" stroke-width="2" stroke-linecap="round" stroke-linejoin="round" stroke-miterlimit="10" d="
		M188.129,153.013c0,0-6.491,8.002-10.583,7.685"/>
	
		<path fill="#2A2B2E" stroke="#2A2B2E" stroke-width="2" stroke-linecap="round" stroke-linejoin="round" stroke-miterlimit="10" d="
		M106.504,132.593c0.459-1.75,3.125-3.405,3.125-3.405l-0.625,7.478c0,0,35.25-12.812,42.416-8.978l2,2.917l-46.75,8.417
		C106.67,139.02,106.045,134.343,106.504,132.593z"/>
	
		<path fill="#2A2B2E" stroke="#2A2B2E" stroke-width="2" stroke-linecap="round" stroke-linejoin="round" stroke-miterlimit="10" d="
		M83.336,134.46c-0.26-0.992-1.771-1.931-1.771-1.931l0.354,4.24c0,0-19.986-7.264-24.051-5.091l-1.134,1.654l26.508,4.772
		C83.241,138.104,83.596,135.452,83.336,134.46z"/>
	
		<polygon fill="#2A2B2E" stroke="#2A2B2E" stroke-width="2" stroke-linecap="round" stroke-linejoin="round" stroke-miterlimit="10" points="
		112.463,143.272 111.295,146.399 129.379,146.399 129.379,145.324 132.004,144.572 132.004,142.746 	"/>
	
		<polygon fill="#2A2B2E" stroke="#2A2B2E" stroke-width="2" stroke-linecap="round" stroke-linejoin="round" stroke-miterlimit="10" points="
		82.529,143.339 82.854,145.721 73.967,145.015 74.486,143.629 71.819,142.88 71.999,141.538 	"/>
	
		<polygon fill="#2A2B2E" stroke="#2A2B2E" stroke-width="2" stroke-linecap="round" stroke-linejoin="round" stroke-miterlimit="10" points="
		97.129,163.187 94.463,163.187 92.879,160.104 91.295,161.937 90.635,163.293 88.322,163.383 88.322,157.982 86.463,158.146 
		87.768,154.658 98.016,154.658 99.91,159.021 97.324,159.501 97.324,160.751 	"/>
	<path fill="none" stroke="#2A2B2E" stroke-width="2" stroke-linecap="round" stroke-linejoin="round" stroke-miterlimit="10" d="
		M89.004,167.354c0,0,3.771-2.156,8.125,0"/>
	<path fill="none" stroke="#2A2B2E" stroke-width="2" stroke-linecap="round" stroke-linejoin="round" stroke-miterlimit="10" d="
		M85.963,172.521c0,0,0,9.083,9,9.5"/>
	<path fill="#2A2B2E" d="M87.3,58.842c0,0,0.029,0.247,0.083,0.709c0.061,0.459,0.154,1.163,0.302,2.052
		c0.292,1.781,0.78,4.338,1.56,7.366c0.781,3.027,1.855,6.525,3.322,10.152c0.732,1.814,1.578,3.649,2.504,5.482
		c0.492,0.901,0.988,1.808,1.486,2.719c0.547,0.882,1.098,1.768,1.646,2.653c0.607,0.848,1.213,1.695,1.818,2.539
		c0.277,0.385,0.652,0.82,0.973,1.226l0.996,1.149c1.375,1.518,2.857,2.906,4.379,4.154c3.045,2.5,2.313,3.732-1.054,1.398
		c-1.683-1.167-3.349-2.49-4.931-3.974l-1.179-1.159c-0.37-0.398-0.722-0.741-1.11-1.188c-0.711-0.833-1.424-1.67-2.137-2.507
		c-0.657-0.881-1.313-1.762-1.969-2.641c-0.604-0.913-1.205-1.821-1.803-2.724c-1.135-1.84-2.188-3.694-3.116-5.533
		c-1.862-3.674-3.3-7.247-4.391-10.358c-1.091-3.114-1.833-5.768-2.31-7.651c-0.238-0.942-0.404-1.687-0.52-2.215
		c-0.105-0.527-0.163-0.809-0.163-0.809c-0.313-1.537,0.679-3.037,2.216-3.35c1.538-0.313,3.039,0.68,3.352,2.218
		c0.016,0.078,0.028,0.154,0.037,0.231L87.3,58.842z"/>
	<path fill="#2A2B2E" d="M182.295,112.438c0,0-48.916,3.75-64.166-11S84.172,60.005,84.172,60.005S63.004,69.44,59.837,97.274
		c0,0-7.542-18.17,3.333-35.837c8.619-14.001,18.959-16.25,31.459-21s54.5-5.25,64,3.25s30.75,18,33.25,54s-6.25,48.193-6.25,48.193
		l-5.708,5.64c0,0-1.967-2.824-1.568-5.427c0.62-4.049,1.472-9.579,1.776-11.405C180.629,131.688,182.295,112.438,182.295,112.438z"
		/>
	
		<path fill="#5A3D48" stroke="#2A2B2E" stroke-width="2" stroke-linecap="round" stroke-linejoin="round" stroke-miterlimit="10" d="
		M107.629,71.438c-2.291,3,3.708,15.5,15.25,23.5s37.708,14.334,38.5,10.75s-29.042-9.666-25.75-15.75s8.052-6.039,17.734-9.426
		c6.322-2.212,17.891,0.093,19.266-0.824s-2.042-3.416,0-3.75s9.291,11.5,10.75,11.25c0.912-0.156-0.37-9.507-3.498-16.545
		c-3.127-7.039-13.961-14.037-15.002-12.705s2.25,9,0.5,12.5s-30.917,14.5-40.834,12.5C114.629,80.938,109.92,68.438,107.629,71.438
		z"/>
	
		<path fill="#5A3D48" stroke="#2A2B2E" stroke-width="2" stroke-linecap="round" stroke-linejoin="round" stroke-miterlimit="10" d="
		M75.843,264.711c0,0,2.318-9.758,15.204-8.317c12.887,1.441,16.852,9.019,16.852,9.019L75.843,264.711z"/>
	
		<path fill="#5A3D48" stroke="#2A2B2E" stroke-width="2" stroke-linecap="round" stroke-linejoin="round" stroke-miterlimit="10" d="
		M104.681,265.341c0,0,1.687-8.181,14.803-7.667c12.76,0.5,14.635,7.739,14.635,7.739L104.681,265.341z"/>
	<polygon fill="#2A2B2E" points="95.879,189.648 98.254,193.743 92.775,200.5 100.129,207.938 107.045,204.329 101.754,193.743 
		105.963,188.365 103.441,188.104 	"/>
	<path fill="#2A2B2E" d="M106.513,214.521c0,0.915-0.797,1.309-1.832,1.309s-1.258-0.693-1.258-1.608
		c0-0.915,0.84-1.608,1.875-1.608S106.513,213.606,106.513,214.521z"/>
	<path fill="#2A2B2E" d="M106.513,221.15c0,0.915-0.797,1.309-1.832,1.309s-1.258-0.693-1.258-1.608c0-0.915,0.84-1.608,1.875-1.608
		S106.513,220.235,106.513,221.15z"/>
	<path fill="#2A2B2E" d="M106.138,228.345c0,0.915-0.797,1.309-1.832,1.309s-1.258-0.693-1.258-1.608
		c0-0.915,0.84-1.608,1.875-1.608S106.138,227.43,106.138,228.345z"/>
	
		<polygon fill="#A5837C" stroke="#2A2B2E" stroke-width="2" stroke-linecap="round" stroke-linejoin="round" stroke-miterlimit="10" points="
		100.129,207.938 121.648,210.155 127.338,201.27 150.67,196.104 142.754,183.354 	"/>
	
		<polygon fill="#A5837C" stroke="#2A2B2E" stroke-width="2" stroke-linecap="round" stroke-linejoin="round" stroke-miterlimit="10" points="
		100.129,207.938 83.573,209.313 81.129,198.979 64.254,189.648 78.004,180.938 	"/>
</g>
</svg>
