<?xml version="1.0" encoding="utf-8"?>
<!-- Generator: Adobe Illustrator 16.0.0, SVG Export Plug-In . SVG Version: 6.00 Build 0)  -->
<!DOCTYPE svg PUBLIC "-//W3C//DTD SVG 1.1//EN" "http://www.w3.org/Graphics/SVG/1.1/DTD/svg11.dtd">
<svg version="1.1" id="Layer_1" xmlns="http://www.w3.org/2000/svg" xmlns:xlink="http://www.w3.org/1999/xlink" x="0px" y="0px"
	 width="25.503px" height="33.192px" viewBox="0 0 25.503 33.192" enable-background="new 0 0 25.503 33.192" xml:space="preserve">
<g>
	<path fill="none" stroke="#FFFFFF" stroke-width="1.5" stroke-miterlimit="10" d="M20.189,21.279c0,3.959-3.209,7.168-7.167,7.168
		c-3.959,0-7.168-3.209-7.168-7.168c0-3.506,2.517-6.424,5.842-7.046c0.249-0.046,0.193-3,0.193-4.436
		c0-1.439,0.817-1.173,1.008-1.173c0.199,0,1.288-0.582,1.288,1.438c0,1.31-0.166,4.115,0.034,4.148
		C17.607,14.781,20.189,17.729,20.189,21.279z"/>
	
		<line fill="none" stroke="#FFFFFF" stroke-width="2" stroke-linecap="round" stroke-miterlimit="10" x1="10.678" y1="8.674" x2="15.314" y2="8.674"/>
	<polygon fill="#FFFFFF" points="10.89,4.728 11.526,7.046 14.567,7.046 15.215,4.728 	"/>
</g>
<path fill="#EFEFEF" d="M18.705,21.281c0,3.153-2.556,5.708-5.708,5.708s-5.708-2.556-5.708-5.708s3.871-0.833,7.023-0.833
	S18.705,18.128,18.705,21.281z"/>
</svg>
