<?xml version="1.0" encoding="utf-8"?>
<!-- Generator: Adobe Illustrator 16.0.0, SVG Export Plug-In . SVG Version: 6.00 Build 0)  -->
<!DOCTYPE svg PUBLIC "-//W3C//DTD SVG 1.1//EN" "http://www.w3.org/Graphics/SVG/1.1/DTD/svg11.dtd">
<svg version="1.1" id="Layer_1" xmlns="http://www.w3.org/2000/svg" xmlns:xlink="http://www.w3.org/1999/xlink" x="0px" y="0px"
	 width="236.667px" height="351.167px" viewBox="0 0 236.667 351.167" enable-background="new 0 0 236.667 351.167"
	 xml:space="preserve">
<g>
	
		<path fill="#6B4C5A" stroke="#F3F3F3" stroke-width="8" stroke-linecap="round" stroke-linejoin="round" stroke-miterlimit="10" d="
		M44.108,202.916C44.108,202.916,44.108,202.916,44.108,202.916l0.218,0.563c1.066-0.555,2.054-0.982,2.974-1.31
		c7.864-1.389,10.425,1.909,11.176,3.455c0.202,0.449,0.285,0.747,0.285,0.747s-0.012-0.05-0.038-0.134l-12.348-43.938l-3.237,8.882
		l-1.925,3.863c0,0-0.001,0.001-0.001,0.001c-4.114,7.635-4.778,7.988-4.778,7.988l0.348,0.902l-0.492,0.989L44.108,202.916z"/>
	
		<path fill="#6B4C5A" stroke="#F3F3F3" stroke-width="8" stroke-linecap="round" stroke-linejoin="round" stroke-miterlimit="10" d="
		M200.867,245.127c2.711-2.943,5.92-7.769,6.809-14.737c1.074-8.438-3.383-18.611-8.05-19.994c-0.622-0.184-1.102-0.483-1.479-0.853
		c0.729-1.247,1.266-2.862,1.266-4.929c0-1.609-0.256-2.97-0.684-4.124c2.175-2.713,7.195-10.509,0.062-17.714
		c1.485-1.348,2.769-2.627,3.836-3.496c5-4.065,7.333-18.601,4-32.44c-3.333-13.838-22.349-20.256-22.35-20.256l-12.65-33.238
		l-9.525-20.853c3.117,0.154,7.345,0.182,10.312-0.508c5.25-1.222,9.147-5.5,10.214-7.497c1.589-2.975,1.589-7.308,1.589-7.308
		s-10.78-1.039-18.09,1.764c0.312-0.627,0.58-1.276,0.781-1.954c3.709-12.51-3.911-20.218-4.161-25.692s5.167-10.535,11.714-8.631
		c0,0-2.525-12.992-19.406-11.166c-8.951,0.968-15.588,10.788-16.405,17.849c-0.667,5.764,1.623,9.514,2.221,12.908
		c-2.154-2.228-3.96-3.654-5.009-3.578c-4.063,0.296-20.33,4.019-30.681,4.838c-0.525-1.381-0.825-3.003-0.612-4.866
		c0.744-6.536,7.526-12.886,2.416-20.779c-7.127-11.004-27.96-4.812-27.96-4.812s11.04,3.247,8.883,11.132
		c-2.157,7.886-7.25,9.64-9.129,17.256c-0.798,3.232-0.355,7.012,1.118,10.228c-4.945-1.195-9.853-2.107-10.637-1.249
		c0,0,4.201,5.25,7.861,9.75c2.215,2.724,4.558,4.343,6.065,5.201c-0.42,1.583-0.809,3.236-1.161,4.965
		c-3.397,16.667,4.529,14.667,4.529,14.667l2.853-0.07c-0.483,1.574,0.321,4.203-3.196,5.695c-3.535,1.5-6.125,1.135-9.045,2.042
		c-4.232,1.314-6.58,3.667-8.12,6.667h-5.598c-0.409,0.439-0.759,0.873-1.056,1.298c-0.209,0.153-0.4,0.442-0.556,0.917
		c-0.959,1.803-0.97,3.451-0.412,4.871l0,0l0,0c1.108,2.826,4.438,4.741,6.892,5.159c0.826,2.748,1.877,4.755,1.877,4.755
		l6.928-0.781l0,0l-6.928,0.781l2.73,4.776l3.178-4.984l5.244,5.127l2.006-6.752l4.172,5.167l2.938-8l7.092,2.869l3.584-7.928
		l8.574,1.81l1.917-6.417c0,0,4.97,3.331,8.492,6.958c-0.218,0.271-0.471,0.576-0.761,0.914l-5.191-2.17l-3.957,5.715l-5.88-2.167
		l-0.833,6.917l-4.589-1l-1.656,5.117l-5.625-3.867l-3.714,7.961c-0.415,0.036-0.825,0.074-1.223,0.119l-2.381-2.563l-1.184,3.229
		c-0.323,0.093-0.647,0.185-0.937,0.296c-0.558,0.215-1.134,0.468-1.716,0.756l-2.227-2.799l-0.657,4.518
		c-0.769,0.545-1.522,1.157-2.238,1.842l-2.478-1.947l0.15,4.665c-0.341,0.491-0.66,1.007-0.955,1.549l-2.811-1.709l0.934,5.833
		H70.5c-0.589,2.499-0.672,5.383-0.023,8.686c-2.97,6.337-11.3,25.977-5.018,34.814c0.988,1.391,3.229,2.709,5.28,3.703l-4.446-1.87
		c0,0-0.256,7.078,1.666,9.167c3.999,4.346,10.952,5.973,14.204,6.761l-2.007-0.209c0,0-1.362,0.495-1.209,4.448
		c0.073,1.899,1.845,4.2,3.262,5.75c-2.45,0.748-5.278,2.492-6.797,5.709c-4.76,1.06-8.791,3.568-12.625,8.5
		c0,0-5.339-1.86-10.982-0.731c-7.372-17.344-15.088-34.994-17.279-39.996l0.42-4.108l-1.262-2.077l-4.98-4.682l-1.314,9.854
		c0,0,1.076,1.032,2.104,1.832l-15.717,0.592l16.708,29.828c0,0-0.372-5.973,4.154-9.234c0.558-0.355,1.172-0.708,1.864-1.052
		c0.355-0.152,0.72-0.299,1.119-0.42l-3.895-10.728l13.522,31.872c-2.173,1.242-4.179,3.165-5.691,6.092
		c-2.905,5.621,1.632,8.875,3.121,9.755c0.111,0.21,0.262,0.395,0.448,0.555c0.01,1.163,0.117,5.331,1.119,6.19
		c0.273,0.234,0.998,0.505,1.933,0.783c0.593,1.853,1.978,5.999,2.55,6.194c2.436,0.832,5.886,0.768,9.154,0.208l3.588,8.457
		c0,0,2.551,1.311,3.6-1.065c0.199-0.452-0.878-3.638-2.751-8.495c2.609-0.876,4.573-2.015,4.938-3.105
		c0.398-1.189-0.691-3.117-1.465-4.276c-0.157-0.732-0.279-1.499-0.373-2.225c0.225-0.261,0.388-0.497,0.473-0.688
		c0.251-0.566,0.16-1.532-0.098-2.568c1.678,0.103,6.188,0.167,9.334-1.76c4.627-2.833,8.148-5.174,7.068-9.026
		c3.1,5.339,15.054-3.267,15.054-3.267c1.175,7.185,11.188,9.603,11.188,9.603s0.003,0.003,0.004,0.003
		c0.801,1.052,1.42,1.685,1.42,1.685l-0.186-0.353c2.244,2.611,6.798,8.856,7.281,17c0.017,0.277,0.246,0.583,0.625,0.905
		c-0.671-0.084-1.047-0.148-1.047-0.148s-0.316,2.221-0.191,3.967l-0.031,0.003l-0.777,3.546l-1.576,10.829l2.142-2.475
		c-0.233,8.776-0.103,20.599,1.935,26.1c1.25,3.375,0.873,8.904,1.125,12.125c0.156,1.999,0.386,10.909,0.475,14.53
		c-0.383-0.225-0.759-0.492-1.127-0.792c-2.079,0.339-3.625,2.243-5.432,2.334c-3.471,0.174-5.584-0.668-6.082,0.554
		c-0.785,1.921,1.557,3.806,4.908,5.917c4.613,2.552,10.705,2.103,15.095-1.542s-0.49-10.592-0.49-10.592
		c-0.253,0.55-0.506,1.026-0.759,1.468l0.171-10.501c0,0,1.021-4.833,1.021-7c0-2.167-1.021-6.5-1.021-6.5s2.101-2.167,2.38-4.333
		c0.226-1.737,1.078-9.366,1.047-16.446l2.778,4.446c0,0,0.667,2.688,3.667,6.594s2.5,2.572,2.5,2.572l0.031-5.167l3.696,3.242
		l0.772-1.242v-0.97c0.274,0.372,0.557,0.698,0.846,0.97c0.068,0.063,0.186,0.128,0.336,0.192c-0.396,0.015-0.635,0.126-0.563,0.402
		c0.615,2.333,1.58,6.673,4.5,6.506c0,0,6.777,14.594,17.719,20.494c-0.001,0-0.002,0-0.002,0
		c-3.717,4.906-10.615,5.704-9.883,7.573c0.756,1.932,6,3.615,9.883,2.833c5.102-1.333,10.489-5.333,11.156-11
		c0.666-5.667-7.659-7.333-7.659-7.333c0.279,0.817,0.478,1.548,0.61,2.208l-0.13-0.375l-7.837-6.333c0,0-2.232-6.208-5.992-12.667
		c0,0,0.327-0.883,0.694-2.188l0.153,0.283l1.834-0.928c0,0,2-6.5,2.167-9.333c0.167-2.833,0-4.667,0-4.667l2.812,2.274
		c0,0-2.479-15.774-4.312-17.608c-0.268-0.268-0.622-0.496-1.023-0.697c0.297-0.239,0.487-0.477,0.523-0.71
		c0.5-3.241-1.833-4.593-1.833-4.593s-0.604,0.144-1.658,0.38l0.158-0.38c0,0-3.256-13.375-2.029-20.333
		c0.316-1.793,0.875-5.949,1.465-10.557c0.277,4.904,1.826,9.355,6.23,10.557c1.66,0.453,3.076,0.767,4.293,0.977l-2.626,0.356
		c0,0-3.214,9.067-0.881,13.917c2.396,4.979,8.548,5.083,8.548,5.083s-3.334,6.425-1.334,9.546c2,3.121,5.667,8.121,5.667,8.121
		l0.641-0.379c-0.005,0.244-0.012,0.487-0.013,0.73c-0.068,14.571,5.025,24.705,14.084,24.749
		c14.674,0.069,21.435-10.01,21.502-24.581C212.905,257.401,215.441,249.552,200.867,245.127z M30.471,187.431l-0.424-1.293
		c0.02,0.013,0.038,0.026,0.058,0.039l0.536,1.265L30.471,187.431z M123.223,116.608c-0.18,0.68-0.422,1.392-0.723,2.133
		c0.032-0.278,0.048-0.55,0.071-0.825L123.223,116.608z M85.789,113.36l-0.002,0l7.468-3.279L85.789,113.36z M115.87,112.681
		l2.542-1.726c-2.436,2.667-6.47,6.453-11.813,9.292L115.87,112.681z M106.588,120.252c-1.548,0.822-3.201,1.566-4.962,2.178
		c-0.921,0.32-1.837,0.653-2.743,0.997L106.588,120.252z M93.1,125.809c-0.015,0.006-0.029,0.013-0.043,0.019l0.019-0.009
		L93.1,125.809z M98.527,223.538L98.527,223.538c0.001,0.006,0.002,0.013,0.003,0.019L98.527,223.538z M158.749,206.416
		c0,0-0.057,0.195-0.149,0.542c0.094-0.777,0.172-1.429,0.23-1.927c2.921,2.056,5.796,2.708,5.796,2.708L158.749,206.416z"/>
</g>
<path fill="#CECBC2" stroke="#2A2B2E" stroke-width="2" stroke-linecap="round" stroke-linejoin="round" stroke-miterlimit="10" d="
	M109.282,48.884c0,0-5.462-3.695-4.716-10.231c0.744-6.536,7.526-12.886,2.416-20.779c-7.127-11.004-27.96-4.812-27.96-4.812
	s11.04,3.247,8.883,11.132c-2.157,7.886-7.25,9.64-9.129,17.256c-1.88,7.616,3.103,18.278,12.317,17.423
	c9.215-0.856,18.741-6.119,18.741-6.119L109.282,48.884z"/>
<path fill="#343342" stroke="#2A2B2E" stroke-width="2" stroke-linecap="round" stroke-linejoin="round" stroke-miterlimit="10" d="
	M121.078,107.716c0,0-7.268,10.483-19.452,14.714c-14.159,4.917-27.017,12.822-28.1,17.087c-2.067,8.142,19.045,4.83,19.045,4.83
	s18.392-6.851,21.333-9.183C123.33,127.69,124.169,113.522,121.078,107.716z"/>
<path fill="#7B8581" stroke="#2A2B2E" stroke-width="2" stroke-linecap="round" stroke-linejoin="round" stroke-miterlimit="10" d="
	M69.258,50.431c0,0,8.929,0.25,9.44,2.5c0.511,2.25,3.325,4.061,3.325,4.061s-1.564,4.939,4.186,5.439l-1.408,3.75
	c0,0-4.021-1.5-7.682-6S69.258,50.431,69.258,50.431z"/>
<path fill="#7B8581" stroke="#2A2B2E" stroke-width="2" stroke-linecap="round" stroke-linejoin="round" stroke-miterlimit="10" d="
	M157.959,72.181c0,0,9.203,1.027,14.453-0.195s9.147-5.5,10.214-7.497c1.589-2.975,1.589-7.308,1.589-7.308l-26.256,11.25V72.181z"
	/>
<path fill="#6B4C5A" stroke="#2A2B2E" stroke-width="2" stroke-linecap="round" stroke-linejoin="round" stroke-miterlimit="10" d="
	M90.909,54.681c0,0-19.997-6.06-21.651-4.25c3.395,4.226,6.723,5.296,10.674,8.952c3.186,2.946,6.277,5.464,6.277,5.464
	L90.909,54.681z"/>
<path fill="#6B4C5A" stroke="#2A2B2E" stroke-width="2" stroke-linecap="round" stroke-linejoin="round" stroke-miterlimit="10" d="
	M138.264,266.347c0,0,2.766,18,7.375,22.333c0.579,0.544,4.594,1.138,4.594,1.138s-5.127-1.711-4.82-0.544
	c0.615,2.333,1.58,6.673,4.5,6.506c0,0,7.533,16.236,19.541,21.383l3.536-2.983l-1.383-4l-7.837-6.333c0,0-2.232-6.208-5.992-12.667
	c0,0,2.612-7,1.383-11s-5.07-19.667-5.07-19.667s-15.826,0.167-15.826,3C138.264,266.347,138.264,266.347,138.264,266.347z"/>
<path fill="#6B4C5A" stroke="#2A2B2E" stroke-width="2" stroke-linecap="round" stroke-linejoin="round" stroke-miterlimit="10" d="
	M118.605,262.181c0,0-2.021,27.508,1.432,36.833c1.25,3.375,0.873,8.904,1.125,12.125c0.197,2.523,0.512,16.071,0.512,16.071
	l6.02-0.667l0.228-14.03c0,0,1.021-4.833,1.021-7c0-2.167-1.021-6.5-1.021-6.5s2.101-2.167,2.38-4.333
	c0.281-2.167,1.541-13.5,0.841-21.5s-0.841-9.167-1.54-8.333C128.901,265.681,118.605,262.181,118.605,262.181z"/>
<path fill="#6B4C5A" stroke="#2A2B2E" stroke-width="2" stroke-linecap="round" stroke-linejoin="round" stroke-miterlimit="10" d="
	M71.459,146.842c0,0-13.547,26.223-6,36.839c2.046,2.877,9.453,5.458,9.453,5.458l-8.619-3.625c0,0-0.256,7.078,1.666,9.167
	c4.12,4.478,11.387,6.071,14.5,6.833c4.088,1,8,1.402,8,1.402l-3.333-17.735l-6-31l-4.007-10L71.459,146.842z"/>
<path fill="#6B4C5A" stroke="#2A2B2E" stroke-width="2" stroke-linecap="round" stroke-linejoin="round" stroke-miterlimit="10" d="
	M93.126,205.681l3,7.5H83.959c0,0-4.889-4.321-5.012-7.5c-0.153-3.953,1.209-4.448,1.209-4.448l12.277,1.281L93.126,205.681z"/>
<path fill="#6B4C5A" stroke="#2A2B2E" stroke-width="2" stroke-linecap="round" stroke-linejoin="round" stroke-miterlimit="10" d="
	M91.459,210.847c0,0-3.444-0.874-8.645,0.404c-2.571,0.632-5.758,2.404-7.402,5.888c-4.76,1.06-8.791,3.568-12.625,8.5
	c0,0-14.901-5.202-21.229,7.042c-3.443,6.663,3.568,10,3.568,10s-0.047,5.5,1.12,6.5c1.166,1,10.38,2.667,10.38,2.667
	s12.333,0,11.5-2.667c-0.833-2.667-1-6.833-1-6.833s6.072,0.701,10.003-1.707c5.138-3.146,8.934-5.679,6.552-10.355
	c1.882,7.92,15.57-1.938,15.57-1.938l-0.724-4.809l5.932-4.691L91.459,210.847z"/>
<path fill="#6B4C5A" stroke="#2A2B2E" stroke-width="2" stroke-linecap="round" stroke-linejoin="round" stroke-miterlimit="10" d="
	M74.797,146.842l15.662-2.661c0,0,19.057-5.5,23.445-11.5s9.173-13.047,9.632-17.714c0.459-4.667-11.91-12.953-11.91-12.953
	l-29.603,13l-11.832,1.333c0,0-4.381-8.333-2.279-14.333c1.496-4.27,3.832-7.65,9.252-9.333c2.92-0.907,5.51-0.542,9.045-2.042
	c3.536-1.5,2.703-4.15,3.203-5.721l37.881-0.904l-40.74,1c0,0-7.927,2-4.529-14.667c3.398-16.667,9.936-26.667,19.603-26.667
	s29.667-4.667,34.233-5c4.567-0.333,23.434,27.667,23.434,27.667l12.333,27l17,44.667l-20.333,24.537l-9.334,41.403
	c0,0-2.807,23.688-3.695,28.728c-1.227,6.958,2.029,20.333,2.029,20.333l-1.667,4l-10.086,5.546l-14.081-0.379
	c0,0-12.373-3.77-12.5-5.895c-0.645-10.854-8.52-18.336-8.52-18.336s-10.014-2.418-11.188-9.603
	c-1.286-7.867-1.216-9.961-1.216-9.961s-8.386-5.337-10.504-13.771c-2.119-8.435-0.979-13.601-0.979-13.601l-10.927-39.109"/>
<path fill="#6B4C5A" stroke="#2A2B2E" stroke-width="2" stroke-linecap="round" stroke-linejoin="round" stroke-miterlimit="10" d="
	M113.904,186.649c0,0,11.701,9.865,22.889,10.032c9.911,0.148,18.833-12.346,18.833-12.346s-3.849,12.34-0.362,17.211
	c3.485,4.87,9.362,6.194,9.362,6.194l-5.877-1.324c0,0-6.79,23.265,4.21,26.265s11.5,0,11.5,0l-9.833,1.333
	c0,0-3.214,9.067-0.881,13.917c2.396,4.979,8.548,5.083,8.548,5.083s-3.334,6.425-1.334,9.546c2,3.121,5.667,8.121,5.667,8.121
	l18.667-11.054l1.466-10.938c0,0,9.302-5.625,10.917-18.298c1.074-8.438-3.383-18.611-8.05-19.994s-1.767-8.907-1.767-8.907
	s9.746-9.81,0.931-18.712l4.169-20.227l-19-28.203"/>
<path fill="#6B4C5A" stroke="#2A2B2E" stroke-width="2" stroke-linecap="round" stroke-linejoin="round" stroke-miterlimit="10" d="
	M163.745,102.014c0,0-14.127,30.535-26.833,32.333c-10.412,1.474-7.971,0.188-13.249,4.417c-4.952,3.966-33.69,17.503-36.196,16.543
	"/>
<path fill="#6B4C5A" stroke="#2A2B2E" stroke-width="2" stroke-linecap="round" stroke-linejoin="round" stroke-miterlimit="10" d="
	M143.746,68.647c0,0,16.213,6.533,24.963,0.783s15.506-12.25,15.506-12.25s-12.554-1.213-19.753,2.5
	c-7.198,3.712-17.003,6.25-17.003,6.25L143.746,68.647z"/>
<path fill="#6B4C5A" stroke="#2A2B2E" stroke-width="2" stroke-linecap="round" stroke-linejoin="round" stroke-miterlimit="10" d="
	M184.276,126.585c0,0,19.017,6.418,22.35,20.256c3.333,13.839,1,28.375-4,32.44s-14.667,17.135-28.167,4.101"/>
<path fill="#5A3D48" stroke="#2A2B2E" stroke-width="2" stroke-linecap="round" stroke-linejoin="round" stroke-miterlimit="10" d="
	M167.629,316.274c3.131-0.239,5.664-1.594,3.497-7.927c0,0,8.325,1.667,7.659,7.333c-0.667,5.667-6.055,9.667-11.156,11
	c-3.883,0.782-9.127-0.901-9.883-2.833C157.014,321.979,163.912,321.181,167.629,316.274z"/>
<path fill="#5A3D48" stroke="#2A2B2E" stroke-width="2" stroke-linecap="round" stroke-linejoin="round" stroke-miterlimit="10" d="
	M120.51,324.876c2.432,1.986,5.201,2.752,7.999-3.329c0,0,4.88,6.947,0.49,10.592s-10.481,4.094-15.095,1.542
	c-3.352-2.111-5.693-3.995-4.908-5.917c0.498-1.222,2.611-0.38,6.082-0.554C116.885,327.119,118.431,325.215,120.51,324.876z"/>
<path fill="#323F3F" stroke="#2A2B2E" stroke-width="2" stroke-linecap="round" stroke-linejoin="round" stroke-miterlimit="10" d="
	M119.459,271.347v8.333l2.5-1.333l3.667,10.928l5.167-11.928l3.333,5.333c0,0,0.667,2.688,3.667,6.594s2.5,2.572,2.5,2.572
	l0.031-5.167l3.696,3.242l0.772-1.242v-5.333l2.666,5.928l2.834,1.406c0,0-1.167-15.667,0-15.833l0,0l2.333,6.167
	c0,0-2,5.667-0.667,7c1.334,1.333,2.167-0.833,2.167-0.833l1.138,6.583l1.862-7.25l1.499,2.761l1.834-0.928c0,0,2-6.5,2.167-9.333
	c0.167-2.833,0-4.667,0-4.667l2.812,2.274c0,0-2.479-15.774-4.312-17.608c-1.833-1.833-7.5-2-7.5-2l-35.312,4l-0.777,3.546
	l-1.576,10.829L119.459,271.347z"/>
<path fill="#7B8581" stroke="#2A2B2E" stroke-width="2" stroke-linecap="round" stroke-linejoin="round" stroke-miterlimit="10" d="
	M118.537,257.043c0,0,7.422,1.304,18.256-0.029c10.833-1.333,22-4,22-4s2.333,1.352,1.833,4.593s-27.998,7.225-30,7.241
	c-2.001,0.015-11.589-0.971-12.089-2.637C118.037,260.543,118.537,257.043,118.537,257.043z"/>
<path fill="#7B8581" stroke="#2A2B2E" stroke-width="2" stroke-linecap="round" stroke-linejoin="round" stroke-miterlimit="10" d="
	M29.908,185.715l33.563,79.107c0,0,2.551,1.311,3.6-1.065s-33.158-80.244-33.158-80.244l-5.209-9.468L29.908,185.715z"/>
<g>
	
		<path fill="#2A2B2E" stroke="#2A2B2E" stroke-width="2" stroke-linecap="round" stroke-linejoin="round" stroke-miterlimit="10" d="
		M31.098,187.473l-17.322-1.149l16.708,29.828c0,0-0.548-8.368,7.138-10.707L31.098,187.473z"/>
	
		<path fill="#2A2B2E" stroke="#2A2B2E" stroke-width="2" stroke-linecap="round" stroke-linejoin="round" stroke-miterlimit="10" d="
		M29.908,185.715l-16.133,0.608l16.708,29.828c0,0-3.095-5.755,6.03-10.293L29.908,185.715z"/>
	<path fill="none" stroke="#2A2B2E" stroke-width="2" stroke-linecap="round" stroke-linejoin="round" stroke-miterlimit="10" d="
		M17.463,186.185"/>
	
		<path fill="#7B8581" stroke="#2A2B2E" stroke-width="2" stroke-linecap="round" stroke-linejoin="round" stroke-miterlimit="10" d="
		M31.939,207.064l-12.194-20.741h-5.97l16.708,29.828C30.483,216.151,29.855,211.314,31.939,207.064z"/>
	<path fill="none" stroke="#2A2B2E" stroke-width="2" stroke-linecap="round" stroke-linejoin="round" stroke-miterlimit="10" d="
		M23.145,211.608"/>
</g>
<path fill="#CECBC2" stroke="#2A2B2E" stroke-width="2" stroke-linecap="round" stroke-linejoin="round" stroke-miterlimit="10" d="
	M27.389,183.899c0,0,1.365,1.31,2.486,2.122c0.593,0.43,1.117,0.72,1.334,0.601c0.623-0.342,3.252-1.078,3.252-1.078l0.484-4.74
	l-1.262-2.077l-4.98-4.682L27.389,183.899z"/>
<g>
	
		<path fill="#2A2B2E" stroke="#2A2B2E" stroke-width="2" stroke-linecap="round" stroke-linejoin="round" stroke-miterlimit="10" d="
		M36.289,184.924l6.849-13.743l3.237-8.882l12.386,44.072c0,0-1.599-7.212-14.652-3.455L36.289,184.924z"/>
	
		<path fill="#2A2B2E" stroke="#2A2B2E" stroke-width="2" stroke-linecap="round" stroke-linejoin="round" stroke-miterlimit="10" d="
		M36.434,183.033c0,0,0.664-0.353,4.778-7.988c3.931-7.294,5.163-12.747,5.163-12.747l12.386,44.072c0,0-2.486-9.107-14.435-2.892
		L36.434,183.033z"/>
	<path fill="none" stroke="#2A2B2E" stroke-width="2" stroke-linecap="round" stroke-linejoin="round" stroke-miterlimit="10" d="
		M42.631,165.754"/>
	
		<path fill="#7B8581" stroke="#2A2B2E" stroke-width="2" stroke-linecap="round" stroke-linejoin="round" stroke-miterlimit="10" d="
		M52.543,201.757l-9.405-30.576l3.237-8.882l12.386,44.072C58.761,206.371,57.662,201.813,52.543,201.757z"/>
	<path fill="none" stroke="#2A2B2E" stroke-width="2" stroke-linecap="round" stroke-linejoin="round" stroke-miterlimit="10" d="
		M63.967,199.727"/>
	<path fill="none" stroke="#2A2B2E" stroke-width="2" stroke-linecap="round" stroke-linejoin="round" stroke-miterlimit="10" d="
		M46.984,164.036"/>
</g>
<path fill="#6B4C5A" stroke="#2A2B2E" stroke-width="2" stroke-linecap="round" stroke-linejoin="round" stroke-miterlimit="10" d="
	M47.626,234.961c0,0,3.233,0.656,6.099-0.073c2.402-0.611,2.711-2.916,4.855-2.208s5.158,6.245,4.082,6.958
	c-4.514,2.989-16.486,6.201-18.045,2.69"/>
<path fill="#6B4C5A" stroke="#2A2B2E" stroke-width="2" stroke-linecap="round" stroke-linejoin="round" stroke-miterlimit="10" d="
	M50.729,256.158c5.855,2,17.582-1.167,18.529-4c0.598-1.787-2.164-5.25-2.164-5.25l-19.195,2.167
	C47.898,249.074,49.99,255.906,50.729,256.158z"/>
<path fill="none" stroke="#2A2B2E" stroke-width="2" stroke-linecap="round" stroke-linejoin="round" stroke-miterlimit="10" d="
	M167.629,202.514c0,0-4.003,8.833,6.83,10.667"/>
<path fill="#6B4C5A" stroke="#2A2B2E" stroke-width="2" stroke-linecap="round" stroke-linejoin="round" stroke-miterlimit="10" d="
	M188.626,194.112c0,0,10.786,0,10.786,10.502c0,6.5-5.286,8.566-5.286,8.566s5.948,6.306,1.615,12.124s-13.115,0.709-13.115,0.709"
	/>
<path fill="none" stroke="#2A2B2E" stroke-width="2" stroke-linecap="round" stroke-linejoin="round" stroke-miterlimit="10" d="
	M118.73,197.864c0,0,12.832-1.079,13.75,6.194"/>
<path fill="none" stroke="#2A2B2E" stroke-width="2" stroke-linecap="round" stroke-linejoin="round" stroke-miterlimit="10" d="
	M97.188,206.079c0,0,1.357-7.402,9.781-6.304"/>
<path fill="none" stroke="#2A2B2E" stroke-width="2" stroke-linecap="round" stroke-linejoin="round" stroke-miterlimit="10" d="
	M117.572,209.78c0,0,5.453,5.449,11.619,3.043"/>
<path fill="none" stroke="#2A2B2E" stroke-width="2" stroke-linecap="round" stroke-linejoin="round" stroke-miterlimit="10" d="
	M102.078,214.681c0,0,9.548,1.471,11.826-4.142"/>
<path fill="none" stroke="#2A2B2E" stroke-width="2" stroke-linecap="round" stroke-linejoin="round" stroke-miterlimit="10" d="
	M107.991,222.004c0,0,8.302,1.123,10.968-2.934c0,0,8.667,5.466,12.5,1.538"/>
<path fill="none" stroke="#2A2B2E" stroke-width="2" stroke-linecap="round" stroke-linejoin="round" stroke-miterlimit="10" d="
	M111.863,233.764c0,0,7.143,5.917,10.549-1.083c0,0,10.766,4,12.49,0"/>
<path fill="none" stroke="#2A2B2E" stroke-width="2" stroke-linecap="round" stroke-linejoin="round" stroke-miterlimit="10" d="
	M147.412,232.681c0,0,7.852,0,9.313-10.534"/>
<path fill="none" stroke="#2A2B2E" stroke-width="2" stroke-linecap="round" stroke-linejoin="round" stroke-miterlimit="10" d="
	M155.051,238.557c0,0,0.213,4.524-4.092,7.756"/>
<path fill="#343342" stroke="#2A2B2E" stroke-width="2" stroke-linecap="round" stroke-linejoin="round" stroke-miterlimit="10" d="
	M63.446,99.347h9.647c0,0,2.343-3,5.604-3c1.081,0,2.28,0.11,3.327,0.5c2.111,0.786,3.604,2.71,2.268,7.167
	c-2,6.667-11.07,7.667-15.035,7.667S56.934,106.347,63.446,99.347z"/>
<path fill="#2A2B2E" d="M75.293,104.014c0,0,2.799-7.333,6.732-7.167c3.934,0.167,2.734,11.35-3.219,12.97
	C72.852,111.438,75.293,104.014,75.293,104.014z"/>
<path fill="#2A2B2E" d="M61.423,106.433c0,0,4.347,1.112,3.185-2.987C63.446,99.347,61.219,98.852,61.423,106.433z"/>
<polygon fill="#CECBC2" stroke="#2A2B2E" stroke-width="2" stroke-linecap="round" stroke-linejoin="round" stroke-miterlimit="10" points="
	119.746,110.048 114.166,107.716 110.209,113.431 104.329,111.264 103.496,118.18 98.907,117.18 97.251,122.297 91.626,118.431 
	87.467,127.347 84.309,123.948 82.023,130.181 78.246,125.431 77.119,133.181 72.873,129.843 73.094,136.681 69.258,134.347 
	70.191,140.181 73.094,140.181 74.797,134.347 80.959,131.681 93.075,125.818 106.596,120.25 115.87,112.681 "/>
<polygon fill="#CECBC2" stroke="#2A2B2E" stroke-width="2" stroke-linecap="round" stroke-linejoin="round" stroke-miterlimit="10" points="
	70.191,116.347 72.922,121.123 76.1,116.139 81.344,121.266 83.35,114.514 87.521,119.681 90.459,111.681 97.551,114.549 
	101.135,106.621 109.709,108.431 111.626,102.014 93.33,110.048 85.789,113.36 77.119,115.566 "/>
<circle fill="#2A2B2E" cx="119.412" cy="86.442" r="3.181"/>
<circle fill="#2A2B2E" cx="96.299" cy="87.108" r="2.189"/>
<path fill="#CECBC2" stroke="#2A2B2E" stroke-width="2" stroke-linecap="round" stroke-linejoin="round" stroke-miterlimit="10" d="
	M130.834,54.881c-2.168,3.566-1.327,7.847,2.912,12.132c6.333,6.404,29.478,2.395,33.16-10.022
	c3.709-12.51-3.911-20.218-4.161-25.692s5.167-10.535,11.714-8.631c0,0-2.525-12.992-19.406-11.166
	c-8.951,0.968-15.588,10.788-16.405,17.849c-1.062,9.17,5.366,13.244,0.546,18.893C137.813,49.862,133.746,50.093,130.834,54.881z"
	/>
<path fill="none" stroke="#2A2B2E" stroke-width="2" stroke-linecap="round" stroke-linejoin="round" stroke-miterlimit="10" d="
	M74.02,227.998c0,0,10.725,7.671,13.59-4.459"/>
<g>
	
		<path fill="#7B8581" stroke="#2A2B2E" stroke-width="2" stroke-linecap="round" stroke-linejoin="round" stroke-miterlimit="10" d="
		M212.84,271.199c-0.067,14.571-6.828,24.65-21.502,24.581c-9.059-0.043-14.152-10.177-14.084-24.749
		c0.068-14.572,6.069-30.274,21.011-26.619C215.746,248.688,212.909,256.628,212.84,271.199z"/>
	<path fill="#A32941" stroke="#2A2B2E" stroke-width="2" stroke-linejoin="round" stroke-miterlimit="10" d="M204.825,270.103
		c-0.026,5.623-3.374,8.592-8.126,8.569c-4.753-0.022-7.385-3.626-7.91-9.225c-0.954-10.185,5.264-11.616,10.016-11.593
		S204.853,264.48,204.825,270.103z"/>
	
		<line fill="none" stroke="#2A2B2E" stroke-width="2" stroke-linecap="round" stroke-linejoin="round" stroke-miterlimit="10" x1="195.027" y1="283.795" x2="194.991" y2="290.417"/>
	
		<line fill="none" stroke="#2A2B2E" stroke-width="2" stroke-linecap="round" stroke-linejoin="round" stroke-miterlimit="10" x1="187.247" y1="277.51" x2="182.752" y2="281.42"/>
	
		<line fill="none" stroke="#2A2B2E" stroke-width="2" stroke-linecap="round" stroke-linejoin="round" stroke-miterlimit="10" x1="181.152" y1="259.23" x2="185.486" y2="261.155"/>
	
		<line fill="none" stroke="#2A2B2E" stroke-width="2" stroke-linecap="round" stroke-linejoin="round" stroke-miterlimit="10" x1="193.07" y1="247.533" x2="194.041" y2="254.16"/>
	
		<line fill="none" stroke="#2A2B2E" stroke-width="2" stroke-linecap="round" stroke-linejoin="round" stroke-miterlimit="10" x1="202.983" y1="255.144" x2="205.859" y2="251.817"/>
	
		<line fill="none" stroke="#2A2B2E" stroke-width="2" stroke-linecap="round" stroke-linejoin="round" stroke-miterlimit="10" x1="207.676" y1="268.201" x2="210.683" y2="268.215"/>
	
		<line fill="none" stroke="#2A2B2E" stroke-width="2" stroke-linecap="round" stroke-linejoin="round" stroke-miterlimit="10" x1="205.316" y1="277.571" x2="207.605" y2="283.027"/>
	
		<path fill="#202C2D" stroke="#2A2B2E" stroke-width="2" stroke-linecap="round" stroke-linejoin="round" stroke-miterlimit="10" d="
		M201.868,267.14l-1.97,0.681c-0.158,1.784-1.037,3.137-2.083,3.133c-1.153-0.005-2.085-1.663-2.074-3.711
		c0.009-2.041,0.956-3.697,2.109-3.692c0.938,0.004,1.722,1.094,1.981,2.592L201.868,267.14z"/>
</g>
<path fill="#6B4C5A" stroke="#2A2B2E" stroke-width="2" stroke-linecap="round" stroke-linejoin="round" stroke-miterlimit="10" d="
	M76.626,156.014c0,0-0.022,0.975-2.214,4.833c-1.963,3.455-3.84,10.219-1.576,15.5c3.781,8.821,4.283,10.083,13.711,13.209
	c6.92,2.294,15.079-3.209,15.079-3.209"/>
<path fill="#A32941" stroke="#2A2B2E" stroke-width="2" stroke-linejoin="round" stroke-miterlimit="10" d="M77.119,177.908
	c0,0,6.371-1.895,10.412-7.319c2.482-3.333,4.75-13.035,0.078-21c-5.088-8.675,10.879-11.908,10.879-11.908l19.392-10.333
	l5.808-11.675c0,0,0.463-3.059-2.321-5.325c0,0-5.692,9.056-11.907,13.028c-6.213,3.972-20.937,1.65-27.271,4.099
	s-14.93,9.448-11.315,23.145c2.534,9.602,7.815,11.072,9.314,15.804C81.854,171.68,80.23,174.08,77.119,177.908z"/>
<path fill="#CECBC2" stroke="#2A2B2E" stroke-width="2" stroke-linecap="round" stroke-linejoin="round" stroke-miterlimit="10" d="
	M92.626,141.681l3.202-8.25l4.709,3.958l2.291-7.875l4.959,4.208l1.959-7l3.75,3.25l2.666-7.542l3.249,2.177
	c0,0-3.371,7.281-7.118,10.24c-3.693,2.917-20.667,10.167-20.667,10.167L92.626,141.681z"/>
<path fill="#6B4C5A" stroke="#2A2B2E" stroke-width="2" stroke-linecap="round" stroke-linejoin="round" stroke-miterlimit="10" d="
	M160.696,158.681c0,0-13.206,20-1.722,27.75"/>
<path fill="#6B4C5A" stroke="#2A2B2E" stroke-width="2" stroke-linecap="round" stroke-linejoin="round" stroke-miterlimit="10" d="
	M56.664,250.264c5.703,0,10.585-3.841,11.229-5.295c0.645-1.455-0.955-5.547-1.896-6.697c-1.945-2.375-3.584,2.326-10.268,4.354
	c-6.273,1.904-10.603,0.056-10.603,0.056s0.583,4.833,1.452,5.667C47.448,249.18,50.961,250.264,56.664,250.264z"/>
<path fill="#5A3D48" stroke="#2A2B2E" stroke-width="2" stroke-linecap="round" stroke-linejoin="round" stroke-miterlimit="10" d="
	M188.439,141.596c0,0-0.523-4.716-1.209-7.249s-2.615-6.873-2.615-6.873"/>
<path fill="#5A3D48" stroke="#2A2B2E" stroke-width="2" stroke-linecap="round" stroke-linejoin="round" stroke-miterlimit="10" d="
	M111.863,239.638c0,0-4.316-4.406-4.936-9.354"/>
<path fill="#5A3D48" stroke="#2A2B2E" stroke-width="2" stroke-linecap="round" stroke-linejoin="round" stroke-miterlimit="10" d="
	M96.877,217.681c0,0,1.916,1.613,4.749,1.39"/>
<path fill="#6B4C5A" stroke="#2A2B2E" stroke-width="2" stroke-linecap="round" stroke-linejoin="round" stroke-miterlimit="10" d="
	M178.785,258.931c0,0-8.369-2.112-2.351-12.618"/>
</svg>
