<?xml version="1.0" encoding="utf-8"?>
<!-- Generator: Adobe Illustrator 16.0.0, SVG Export Plug-In . SVG Version: 6.00 Build 0)  -->
<!DOCTYPE svg PUBLIC "-//W3C//DTD SVG 1.1//EN" "http://www.w3.org/Graphics/SVG/1.1/DTD/svg11.dtd">
<svg version="1.1" id="Layer_1" xmlns="http://www.w3.org/2000/svg" xmlns:xlink="http://www.w3.org/1999/xlink" x="0px" y="0px"
	 width="854.007px" height="704.385px" viewBox="0 0 854.007 704.385" enable-background="new 0 0 854.007 704.385"
	 xml:space="preserve">
<path fill="#2A2B2E" d="M27.524,671.141c0,6.627,5.373,12,12,12h778.401c6.627,0,12-5.373,12-12V37.713c0-6.627-5.373-12-12-12
	H39.524c-6.627,0-12,5.373-12,12V671.141z"/>
<path fill="none" d="M829.926,36.572v634.569c0,6.631-5.371,12-12,12H27.524V24.572h790.401
	C824.555,24.572,829.926,29.942,829.926,36.572z"/>
<g opacity="0.2">
	<defs>
		<path id="SVGID_1_" opacity="0.2" d="M27.524,671.141c0,6.627,5.373,12,12,12h778.401c6.627,0,12-5.373,12-12V37.713
			c0-6.627-5.373-12-12-12H39.524c-6.627,0-12,5.373-12,12V671.141z"/>
	</defs>
	<clipPath id="SVGID_2_">
		<use xlink:href="#SVGID_1_"  overflow="visible"/>
	</clipPath>
	<g clip-path="url(#SVGID_2_)">
		<polygon fill="#5D7241" points="797.573,-53.611 434.725,281.741 721.798,-120.388 		"/>
	</g>
	<g clip-path="url(#SVGID_2_)">
		<polygon fill="#5D7241" points="562.827,-97.867 434.725,281.741 463.821,-117.841 		"/>
	</g>
	<g clip-path="url(#SVGID_2_)">
		<polygon fill="#5D7241" points="342.787,-119.103 434.725,281.741 247.861,-84.605 		"/>
	</g>
	<g clip-path="url(#SVGID_2_)">
		<polygon fill="#5D7241" points="124.441,-71.086 434.725,281.741 56.205,3.378 		"/>
	</g>
	<g clip-path="url(#SVGID_2_)">
		<polygon fill="#5D7241" points="-29.917,75.965 434.725,281.741 -61.437,171.921 		"/>
	</g>
	<g clip-path="url(#SVGID_2_)">
		<polygon fill="#5D7241" points="-24.04,270.835 434.725,281.741 -15.313,371.457 		"/>
	</g>
	<g clip-path="url(#SVGID_2_)">
		<polygon fill="#5D7241" points="-31.14,481.965 434.725,281.741 17.786,570.325 		"/>
	</g>
	<g clip-path="url(#SVGID_2_)">
		<polygon fill="#5D7241" points="36.67,691.929 434.725,281.741 143.977,773.845 		"/>
	</g>
	<g clip-path="url(#SVGID_2_)">
		<polygon fill="#5D7241" points="319.237,709.688 434.725,281.741 453.411,724.602 		"/>
	</g>
	<g clip-path="url(#SVGID_2_)">
		<polygon fill="#5D7241" points="946.804,69.855 434.725,281.741 899.845,-19.563 		"/>
	</g>
	<g clip-path="url(#SVGID_2_)">
		<polygon fill="#5D7241" points="873.261,289.404 434.725,281.741 863.388,188.888 		"/>
	</g>
	<g clip-path="url(#SVGID_2_)">
		<polygon fill="#5D7241" points="956.615,481.741 434.725,281.741 984.088,384.549 		"/>
	</g>
	<g clip-path="url(#SVGID_2_)">
		<polygon fill="#5D7241" points="853.553,677.975 434.725,281.741 916.271,598.807 		"/>
	</g>
	<g clip-path="url(#SVGID_2_)">
		<polygon fill="#5D7241" points="598.999,782.944 434.725,281.741 720.849,724.825 		"/>
	</g>
</g>
</svg>
