<?xml version="1.0" encoding="utf-8"?>
<!-- Generator: Adobe Illustrator 16.0.0, SVG Export Plug-In . SVG Version: 6.00 Build 0)  -->
<!DOCTYPE svg PUBLIC "-//W3C//DTD SVG 1.1//EN" "http://www.w3.org/Graphics/SVG/1.1/DTD/svg11.dtd">
<svg version="1.1" id="Layer_1" xmlns="http://www.w3.org/2000/svg" xmlns:xlink="http://www.w3.org/1999/xlink" x="0px" y="0px"
	 width="232.667px" height="383.333px" viewBox="0 0 232.667 383.333" enable-background="new 0 0 232.667 383.333"
	 xml:space="preserve">
<g>
	<path fill="#F2F2F2" stroke="#F2F2F2" stroke-width="8" stroke-linejoin="round" stroke-miterlimit="10" d="M184.965,229.821
		c0,0-5.541-4.24-6.191-1.96c-0.648,2.279,4.67,2.5,4.67,2.5c0,0.01-0.01,2.68-7.85,9.449c-3.039,2.62-6.51,4.73-9.879,6.4
		c-0.041-0.01-0.09-0.021-0.121-0.03c-1.01-0.14,0.551-0.63,0.551-2.52c0-1.88-3.721-3.811-3.73-3.82c0,0.021,1,3.521-0.879,4.12
		c0.109-0.24-0.061-0.9,0.299-2.41c0.09-0.42,0.301-1.01,0.58-1.71c2.211-5.58,9.49-19.01,11.291-23.64
		c2.029-5.2,6.479-18.57,6.5-18.61c0.658-0.54,1.148-1.16,1.398-1.88c1.951-5.65,0-10.86,0-10.86l-1.609,1.511
		c2.301-2.73,5.141-7.851,3.779-15.641c-1.889-10.77-2.959-4.78-3.209-3.04c0.15-1.58,0.52-7.09-1.141-11.51
		c-1.949-5.21-11.289-21.97-14.33-26.63c-3.049-4.65-9.709-15.55-16.369-16.07c0.49-0.77,0.73-1.39,0.73-2.06
		c0-0.36-0.07-0.74-0.221-1.16c-1.02-2.82-6.32-6.88-6.32-6.88c2.109-1.53,3.529-2.63,3.85-3.03c1.061-1.33-0.41-2.97-2.119-4.22
		c2.561-3.07,4.17-6.48,4.369-10.55c0.25-5.261,3.9-20.96,4.131-34.32c0.01,0,0.01-0.01,0.02-0.01c2.58-2.61,0.99-10.721-1.15-10.9
		c-1.59-4.57-4.949-8.25-9.26-11.13c-4.311-2.89-9.57-5-14.92-6.45c-7.35-1.99-16.84-4.109-25.75-0.41
		c-8.9,3.69-14.99,7.16-19.109,9.34c-4.131,2.171-3.701,7.601-6.961,15.421c-0.809,1.949-1.24,3.909-1.43,5.859
		c-0.641-0.1-1.23-0.2-1.709-0.3c-2.191-0.47-4.771,14.2-0.65,17.47c0.59,0.471,2.049,0.83,4.129,1.08
		c0.141,6.32-1.529,15.3-2.51,18.04c-1.08,3.04,1.74,9.12,1.961,13.03c0.01,0.31,0.08,0.67,0.17,1.04
		c-0.971-0.79-1.801-1.29-2.381-1.25c-1.859,0.109-1.559,8.25-0.689,9.7c0.551,0.909,3.289,4.14,5.789,7.08
		c0,0-1.068,0.399-2.229,1.71c-1.18,1.31-2.451,3.52-2.871,7.14c-0.24,2.14-0.52,4.05-0.809,5.7c-0.191,0.05-0.381,0.1-0.561,0.17
		c-4.68,1.729-8.23,12.87-10.041,17.81c-4.92,13.44-4.309,19.63-3.539,22.08c-0.49-0.43-1.26-0.18-2.391,2.76
		c-2.18,5.65-4.129,17.74-6.09,21.65c-1.949,3.91,0,12.38,0,12.38s-1.74,6.3,0.439,7.61c0.781,0.47,2.92-0.311,5.33-1.58
		c3.602,6.75,19.121,17.57,19.121,17.57c0.719,3.79,1.51,9.13,1.33,13.05c-0.291,6.22-3.191,15.93-3.781,16.58
		c-0.58,0.649,5.371,1.52,6.67,0.87c1.311-0.65,0.871-8.91,1.961-14.12c0.629-3.021,0.641-4.73,0.07-6.92
		c0.23,0.34,0.48,0.659,0.75,0.97c-0.051-0.05-0.08-0.08-0.08-0.08s-0.551,16.39,0,23.7c0.189,2.46,1.299,4.74,2.689,6.71
		l-0.039-0.04c0,0-1.221,12.149,3.129,16.72c0.189,0.21,0.359,0.38,0.531,0.55c-0.012,0.08-1.771,16.051,0.77,20.66
		c-0.711-0.89-2.33-1.77-2.58,8.55c0,0-0.68,0.431-1.551,1.521c-0.869,1.09-1.299,10.43-1.299,10.43s1.359-0.68,3.488-1.33
		c0,0-0.59,0.67-1.559,1.55c-0.971,0.881-2.32,1.98-3.83,2.82c-3.23,1.811-7.111,2.66-6.361,3.11c0.16,0.1,0.422,0.17,0.74,0.22
		c-1.549,0.32-2.85,0.83-3.49,1.67c-2.318,3.04-1.158,11.15,0,12.021c1.16,0.869,17.092,1.3,20.281,0
		c2.529-1.04,7.529-3.91,9.469-5.04c0.141,2.199,0.57,4.04,1.08,4.42c1.16,0.87,17.092,1.3,20.281,0
		c3.18-1.311,10.27-5.511,10.27-5.511s4.869-4.52,6.75-6.109c0.41-0.34,0.439-0.7,0.27-1.05c0.25-0.19,0.5-0.53,0.76-1.051
		c1.371-2.75-2.25-21-2.25-21l-1.988,2.36c0.568-1.14,1.09-2.66,1.408-4.68c0.98-6.13-1.939-2.07-2.158-1.76
		c4.479-10.141,1.729-30.971,1.729-30.971c2.17-4.49,2.211-17.51,2.211-17.51c0.311-0.67,0.6-1.39,0.85-2.16
		c0.65,0.83,1.5,1.351,2.439,1.351c0.801,0,1.541-0.381,2.15-1c-0.35,0.909-0.09,1.689,0.391,2.59
		c0.789,1.52,0.939,2.029,2.529,1.96c1.16-0.061,2.85-1.2,4.35-2.41c0.371,0.58,1.391,1.87,3.041,1.25
		c2.1-0.8,4.049-3.62,4.049-3.62c0.541-0.65,0.281-5.8-0.549-9.46c0.02-0.01,0.039-0.03,0.07-0.04c0.869,3.24,0.43,6.11,1.279,7.11
		c0.721,0.85,5.109-0.42,5.34-1.271c0.121-0.43,0.631-2.28,0.02-4.55c0.24,0.32,0.451,0.53,0.65,0.53c0.721,0,4.779-1.59,4.779-3.91
		c0-1.26-1.639-2.69-3.289-3.76C183.154,237.19,184.965,229.821,184.965,229.821z M76.795,220.831
		c-7.041-2.26-13.301-9.57-13.301-9.58c1.141-0.98,1.881-1.82,1.881-2.29c0-1.9-4.33-8.48-4.602-8.89
		c0.281,0.31,3.561,3.84,4.602-2.41c1.09-6.51,1.068-9.12,5.309-11.08c3.26-1.5,4.781-3.521,5.021-7.72
		c0.539,10.6,1.889,33.579,1.889,33.579S76.965,216.44,76.795,220.831z M155.094,243.291c0.49,0.06,1,0.11,1.52,0.14
		c2.65,0.17,3.871,0.5,4.451,0.601C159.965,244.09,157.664,243.791,155.094,243.291z M159.734,204.02
		c-1.16,2.66-2.541,6.17-3.41,9.58c-1.73,6.801-4.199,13.75-6.08,17.521c-1.881,3.76-1.74,6.08-3.039,7.819
		c-0.75,1,0.279,2.19,2.559,3.11c-2.889-0.8-5.24-1.7-5.52-2.42c-0.721-1.89,2.721-2.57,2.721-2.57
		c-1.891-0.1-2.941,0.801-3.441,2.511c-0.059-1.07-0.109-1.851-0.139-2.24c1.119-1.141,1.889-2.16,2.15-2.95
		c1.738-5.22-5.211-27.95-3.691-40.7c1.291-10.81,5.871-26.2,7.23-30.63c-0.699,2.851-1.4,10.08,7.09,15.99
		c-1.67-1.07-4.971-2.94-3,0.38c2.58,4.34,3.891,6.51,3.891,6.51s-1.311,5.95,4.559,7.75c0,0-4.559,2.681-1.52,5.07
		c0.381,0.3,0.98,0.57,1.74,0.79C161.834,199.541,160.895,201.35,159.734,204.02z"/>
</g>
<path fill="#828E5C" stroke="#2B2C2E" stroke-width="2" stroke-miterlimit="10" d="M127.832,22.76
	c12.252,3.316,23.965,10.066,25.092,21.745c1.377,14.267-3.611,34.889-3.91,41.061c-0.508,10.427-10.211,16.511-21.51,23.68
	c-11.295,7.168-23.244,8.037-34.322,7.168c-11.08-0.869-17.164-10.21-17.381-14.12S72.76,92.3,73.846,89.257
	c1.086-3.041,3.041-13.843,2.391-20.064c-0.652-6.222-3.477-14.259-0.219-22.08c3.26-7.821,2.824-13.253,6.953-15.424
	c4.127-2.174,10.211-5.649,19.117-9.342C110.994,18.653,120.48,20.772,127.832,22.76z"/>
<path fill="#6A724A" stroke="#2B2C2E" stroke-width="2" stroke-miterlimit="10" d="M93.238,123.775
	c-4.895,0.092-9.711-1.187-8.49,3.604s2.006,22.996,6.264,22.055c4.26-0.941,17.625-19.564,15.916-23.539
	S98.131,123.683,93.238,123.775z"/>
<path fill="#828E5C" stroke="#2B2C2E" stroke-width="2" stroke-miterlimit="10" d="M73.598,102.077
	c-1.867,0.117-1.563,8.255-0.691,9.703c0.867,1.448,7.24,8.688,9.414,11.441c2.172,2.753,22.881,3.33,25.924,2.606
	c3.041-0.724,36.785-23.316,38.525-25.49c1.736-2.171-3.332-5.213-5.07-5.937c-0.879-0.367-8.113,4.889-17.379,9.268
	c-9.061,4.28-20.15,7.681-21.725,7.966c-1.16,0.212-3.838-0.658-6.518-0.724c-4.682-0.113-9.969,0.369-11.441,0
	C82.32,110.332,75.885,101.931,73.598,102.077z"/>
<path fill="#A42942" stroke="#2B2C2E" stroke-width="2" stroke-linejoin="round" stroke-miterlimit="10" d="M72.877,52.672
	c-2.188-0.472-4.775,14.198-0.656,17.469c4.119,3.27,49.527,0.868,54.74,0.217c5.215-0.651,6.41-4.313,11.189-8.038
	c4.779-3.724,12.428-8.473,15.012-11.08c2.586-2.606,0.994-10.722-1.143-10.9c-0.719-0.06-3.244,2.798-6.699,4.928
	c-6.842,4.211-16.664,9.306-18.684,9.448C123.594,54.934,81.971,54.627,72.877,52.672z"/>
<path fill="#2B2C2E" d="M111.291,89.042c0,4.879-1.846,8.697-5.609,8.697c-3.76,0-8.266-0.451-8.266-5.33
	c0-4.88,0.91-10.21,4.672-10.21S111.291,84.162,111.291,89.042z"/>
<path fill="#2B2C2E" d="M87.67,86.667c0.99,2.229-1.977,4.414-4.414,4.414s-3.268-1.977-3.268-4.414
	c0-2.437,1.031-3.433,3.469-3.433S86.715,84.516,87.67,86.667z"/>
<polyline fill="none" stroke="#F3F3F3" stroke-miterlimit="10" points="96.58,56.803 92.896,60.993 100.686,65.263 97.25,69.069 "/>
<polyline fill="none" stroke="#F3F3F3" stroke-miterlimit="10" points="90.527,64.487 93.711,66.662 99.906,59.208 103.34,61.888 
	"/>
<path fill="none" stroke="#2B2C2E" stroke-linecap="round" stroke-miterlimit="10" d="M79.35,90.634c0,0,0.58,1.521,2.027,1.666"/>
<path fill="none" stroke="#2B2C2E" stroke-linecap="round" stroke-miterlimit="10" d="M107.875,99.387c0,0,3.904-0.959,4.084-3.542"
	/>
<path fill="#828E5C" stroke="#2B2C2E" stroke-width="2" stroke-miterlimit="10" d="M161.832,199.544c0,0-3.766,7.245-5.506,14.053
	c-1.736,6.806-4.201,13.758-6.082,17.522c-1.883,3.766-1.738,6.084-3.041,7.822c-1.305,1.737,2.754,4.055,9.414,4.489
	c6.662,0.434,4.346,1.884,5.215-1.882c0.869-3.768,9.846-20.133,11.875-25.347c2.027-5.214,6.494-18.616,6.494-18.616"/>
<path fill="#645743" stroke="#2B2C2E" stroke-width="2" stroke-linejoin="round" stroke-miterlimit="10" d="M111.012,275.837
	c-0.58,4.344,3.594,11.55,3.594,11.55c-2.895-2.557-1.148-0.219-0.713,12.237c0.434,12.455,5.793,13.615,5.793,13.615
	s-1.555-0.896-2.789-2.572c-1.197-1.622-2.068-4.022-2.426-4.236c-0.723-0.435-1.014,0.87-1.014,9.994s8.691,11.441,8.691,11.441
	c-4.201-1.015-8.98-9.414-9.453-6.662c-0.471,2.753-1.404,13.035-1.404,13.035s-3.193,2.461,0,0.579
	c3.195-1.884,10.133-3.621,14.043-3.332c3.91,0.29,8.834,3.91,11.441,5.794c2.605,1.883,3.621,4.199,4.996,1.449
	c1.375-2.754-2.246-21.001-2.246-21.001l-4.633,5.503c0,0,3.043-1.448,4.055-7.82s-2.172-1.738-2.172-1.738
	c4.488-10.137,1.738-30.993,1.738-30.993c2.172-4.49,2.213-17.512,2.213-17.512l-2.938,3.752c7.82-5.213,5.576-31.868,5.576-31.868
	c-1.709,2.612-16.047,12.299-20.91,14.932c-4.863,2.632-6.889,2.302-20.584-0.769c-16.492-3.695-19.895-7-19.895-7
	s-2.178,16.456-0.67,23.698c1.494,7.176,9.92,13.173,9.92,13.173l-6.598-6.505c0,0-1.225,12.153,3.121,16.716
	c4.344,4.563,0.531,0.554,0.531,0.554s-1.92,17.364,1.098,21.171c0,0-2.584-5.22-2.902,8.038c0,0-0.682,0.435-1.551,1.52
	c-0.869,1.087-1.303,10.428-1.303,10.428s6.115-3.059,12.816-2.39c5.07,0.508,12.377,4.017,14.24,4.11
	c1.861,0.095,0.459-14.017,2.379-14.067c1.412-0.036,0.133-3.965,0.424-8.252c0.301-4.419,0.045-6.413,0.627-6.629
	c0.688-0.253,0-2.969-0.217-6.155s-1.105-13.436,0-12.817c1.102,0.617,0.713,0.58,0.713,0.58L111.012,275.837z"/>
<path fill="#645743" stroke="#2B2C2E" stroke-width="2" stroke-linecap="round" stroke-linejoin="round" stroke-miterlimit="10" d="
	M100.834,251.984c0,0-1.207,8.292-10.234,14.932c-7.432,4.888-8.516-21.445-8.516-21.445"/>
<path fill="none" stroke="#2B2C2E" stroke-linecap="round" stroke-miterlimit="10" d="M110.18,100.97c0,0,2.283-0.36,2.863-2.099"/>
<path fill="#43452E" stroke="#2B2C2E" stroke-width="2" stroke-linejoin="round" stroke-miterlimit="10" d="M72.221,133.577
	c-4.676,1.737-8.227,12.875-10.033,17.812c-6.93,18.909-2.898,23.466-2.898,23.466s-0.867-4.273-3.039,1.375
	c-2.174,5.648-4.129,17.741-6.084,21.651c-1.955,3.911,0,12.384,0,12.384s-1.738,6.301,0.436,7.604
	c2.172,1.305,14.771-6.951,14.771-8.907c0-1.955-4.613-8.906-4.613-8.906s3.527,4.127,4.613-2.391s1.072-9.124,5.316-11.079
	c4.242-1.954,5.547-4.779,4.895-12.166c-0.652-7.386,2.012,38.019,2.012,38.019s-1.896,11.948,0,17.161
	c1.898,5.216,0.84,13.688,6.908,16.512c6.07,2.823,27.074,7.147,31.922,7.603c4.311,0.404,27.373-14.121,29.111-19.335
	c1.738-5.213-5.215-27.946-3.693-40.692c1.521-12.749,7.619-31.867,7.619-31.867s-6.098,1.103-8.922-14.772
	c0,0,3.504,15.643,8.922,14.772c0,0-4.359,10.212,7.588,17.814c0,0-6.473-4.562-3.889-0.217c2.586,4.345,3.889,6.518,3.889,6.518
	s-1.303,5.943,4.563,7.752c0,0-4.563,2.675-1.52,5.065c3.041,2.391,19.551,2.607,21.506-3.041s0-10.863,0-10.863l-4.127,3.911
	c0,0,8.473-5.648,6.299-18.032c-2.172-12.382-3.258-2.606-3.258-2.606s0.869-6.735-1.088-11.949
	c-1.953-5.214-11.295-21.967-14.336-26.625c-3.043-4.657-9.705-15.55-16.365-16.077c0,0-47.215,17.285-52.791,25.106
	c-5.578,7.82-5.143,6.735-5.359,10.862c-0.219,4.127,2.664,29.545,2.664,29.545s-2.664-32.739-2.447-34.728
	c0.217-1.986-0.449-8.722-3.375-9.156S76.895,131.839,72.221,133.577z"/>
<path fill="#D1D2D3" stroke="#2B2C2E" stroke-width="2" stroke-linejoin="round" stroke-miterlimit="10" d="M81.377,135.766
	c0,0-1.334,1.537,1.158,1.504c2.764-0.037,7.055-0.587,7.713-2.391c0.689-1.887-3.85-5.322-2.832-6.734
	c0.551-0.766,6.273-0.768,5.793-2.031l-5.793-1.124l-3.736-0.161C83.68,124.829,86.701,133.03,81.377,135.766z"/>
<path fill="#D1D2D3" stroke="#2B2C2E" stroke-width="2" stroke-linejoin="round" stroke-miterlimit="10" d="M106.006,126.053
	c0,0-5.004,6.22-8.59,8.718c-3.584,2.499,3.043,9.017,5.648,9.451c2.607,0.434,4.896-3.652,4.896-3.652s-3.283-1.7-2.785-2.826
	c0.496-1.126,3.484-0.854,12.305-16.784c0,0-5.611,4.093-8.543,4.593C106.006,126.053,106.006,126.053,106.006,126.053z"/>
<path fill="#483A28" stroke="#2B2C2E" stroke-width="2" stroke-linejoin="round" stroke-miterlimit="10" d="M99.408,151.03
	c0,1.839-0.973,3.33-2.172,3.33c-1.201,0-2.172-1.491-2.172-3.33c0-1.84,0.113-3.695,1.313-3.695S99.408,149.19,99.408,151.03z"/>
<path fill="#483A28" stroke="#2B2C2E" stroke-width="2" stroke-linejoin="round" stroke-miterlimit="10" d="M99.914,165.801
	c0,2-0.51,3.621-1.586,3.621c-1.078,0-2.25-0.754-2.25-2.753c0-2,1.172-4.489,2.25-4.489
	C99.404,162.18,99.914,163.801,99.914,165.801z"/>
<path fill="#483A28" stroke="#2B2C2E" stroke-width="2" stroke-linejoin="round" stroke-miterlimit="10" d="M102.469,179.143
	c0,1.302-0.379,2.445-1.541,2.445c-1.158,0-2.1-1.055-2.1-2.354c0-1.299,0.941-1.99,2.1-1.99
	C102.09,177.244,102.469,177.844,102.469,179.143z"/>
<path fill="#2B2C2E" d="M143.365,253.792l6.941-2.133c0,0,15.047-3.013,25.283-11.85c7.867-6.792,7.857-9.449,7.857-9.449
	s-5.324-0.218-4.672-2.498c0.65-2.281,6.191,1.954,6.191,1.954s-2.949,12.037-31.184,27.418l-6.402,4.01
	C147.381,261.244,148.869,254.51,143.365,253.792z"/>
<path fill="#61492F" stroke="#2B2C2E" stroke-width="2" stroke-linejoin="round" stroke-miterlimit="10" d="M146.959,237.059
	c0,0-2.025,0.98-1.303,2.861c0.725,1.885,13.996,4.651,15.881,4.044c1.887-0.606,0.873-4.124,0.873-4.124s3.73,1.938,3.73,3.822
	c0,1.883-1.561,2.375-0.545,2.521c1.014,0.146,6.518,3.042,6.518,5.359c0,2.316-4.057,3.909-4.779,3.909
	c-0.725,0-1.738-2.752-2.607-4.055c-0.869-1.304-4.346-3.766-5.502-4.057c-1.158-0.288,1.293-0.265,5.047,3.502
	c3.752,3.766,2.576,7.954,2.393,8.628c-0.232,0.851-4.617,2.118-5.34,1.268c-1.146-1.347,0.072-6.155-2.832-10.645
	c-1.268-1.966-4.338-0.796-4.338-0.796s3.188-1.232,4.779,1.376c1.594,2.606,2.316,11.586,1.594,12.454c0,0-1.957,2.824-4.057,3.622
	c-2.1,0.795-3.186-1.521-3.186-1.521s3.113-1.521,3.186-2.97c0.074-1.449-2.895-8.617-3.619-9.414
	c-0.727-0.798-2.246-1.715-4.854-0.858c-2.607,0.857-6.227,2.379-6.227,2.379s1.842-4.669,1.521-8.328
	C142.785,240.245,143.387,236.88,146.959,237.059z"/>
<path fill="#61492F" stroke="#2B2C2E" stroke-width="2" stroke-linejoin="round" stroke-miterlimit="10" d="M154.371,256.9
	c0,0-4.201,2.317-6.518,4.344c-2.316,2.028-2.1,3.187-1.303,4.708s0.941,2.028,2.535,1.955c1.592-0.074,4.195-2.205,5.936-3.745
	C156.762,262.621,156.545,260.666,154.371,256.9z"/>
<path fill="#828E5C" stroke="#2B2C2E" stroke-width="2" stroke-miterlimit="10" d="M63.494,211.253c0,0,6.258,7.32,13.301,9.575
	c0,0-0.104,9.546,2.342,16.224c2.447,6.678,3.182,7.971,2.096,13.186c-1.086,5.214-0.652,13.47-1.955,14.121
	c-1.305,0.651-7.256-0.218-6.67-0.869c0.586-0.652,3.482-10.356,3.773-16.583c0.291-6.228-1.883-16.076-2.316-17.524
	c-0.436-1.449,0.988,4.48,0.988,4.48s-15.516-10.821-19.115-17.572L63.494,211.253z"/>
<path fill="#483A28" stroke="#2B2C2E" stroke-width="2" stroke-linejoin="round" stroke-miterlimit="10" d="M87.113,331.685
	c0,0-2.365,2.671-5.385,4.364c-3.232,1.812-7.109,2.665-6.361,3.114c1.447,0.87,10.717,0,10.717,0s-11.15-1.158-13.469,1.884
	c-2.316,3.041-1.158,11.15,0,12.021c1.158,0.869,17.09,1.304,20.277,0c3.186-1.304,10.268-5.505,10.268-5.505
	s-0.129-8.398,1.752-9.992c1.883-1.594,5.008-2.152,5.008-2.152C107.084,332.744,92.488,327.248,87.113,331.685z"/>
<ellipse fill="#2B2C2E" cx="144.016" cy="259.076" rx="3.693" ry="5.283"/>
<path fill="#483A28" stroke="#2B2C2E" stroke-width="2" stroke-linejoin="round" stroke-miterlimit="10" d="M117.186,333.225
	c0,0-2.396-0.361-5.414,1.331c-3.232,1.811-8.109,3.225-7.361,3.675c1.449,0.868,12.504,0.313,12.504,0.313
	s-10.797-1.592-13.115,1.45s-1.514,11.584-0.355,12.453s17.09,1.304,20.275,0c3.188-1.303,10.271-5.503,10.271-5.503
	s4.875-4.522,6.758-6.116s-3.973-3.548-3.973-3.548C133.939,334.608,125.658,328.337,117.186,333.225z"/>
<path fill="#43452E" stroke="#2B2C2E" stroke-width="2" stroke-linejoin="round" stroke-miterlimit="10" d="M78.689,118.862
	c0,0-4.254,1.607-5.092,8.85c-0.838,7.24-1.996,11.875-2.865,12.455c-0.869,0.579,11.613-3.041,13.193-7.098
	c1.58-4.055-0.572-9.148-0.572-9.148L78.689,118.862z"/>
<path fill="#43452E" stroke="#2B2C2E" stroke-width="2" stroke-linejoin="round" stroke-miterlimit="10" d="M117.871,120.227
	c0,0-8.18,15.595-12.09,17.043s11.297,6.952,13.613,13.18c2.318,6.228,16.945-20.276,22.74-28.387
	c5.793-8.11,8.111-9.004,7.096-11.814c-1.014-2.814-6.313-6.877-6.313-6.877L117.871,120.227z"/>
<circle fill="#F2F2F2" cx="85.398" cy="86.924" r="0.65"/>
<circle fill="#F2F2F2" cx="101.595" cy="87.956" r="0.989"/>
<path fill="#645743" stroke="#2B2C2E" stroke-width="2" stroke-linecap="round" stroke-linejoin="round" stroke-miterlimit="10" d="
	M108.537,253.792c0,0-0.334,9.241,2.5,13.124"/>
<path fill="none" stroke="#2B2C2E" stroke-width="2" stroke-linecap="round" stroke-linejoin="round" stroke-miterlimit="10" d="
	M117.131,253.792c0,0,3.703,8.508,9.703,13.758s10.535-12.293,9.535-23.48"/>
<line fill="none" stroke="#2B2C2E" stroke-width="2" stroke-linecap="round" stroke-linejoin="round" stroke-miterlimit="10" x1="139.459" y1="244.637" x2="139.459" y2="247.011"/>
<line fill="none" stroke="#2B2C2E" stroke-width="2" stroke-linecap="round" stroke-linejoin="round" stroke-miterlimit="10" x1="139.211" y1="250.587" x2="139.08" y2="253.38"/>
<line fill="none" stroke="#2B2C2E" stroke-width="2" stroke-linecap="round" stroke-linejoin="round" stroke-miterlimit="10" x1="138.357" y1="256.527" x2="137.76" y2="259.257"/>
<line fill="none" stroke="#2B2C2E" stroke-width="2" stroke-linecap="round" stroke-linejoin="round" stroke-miterlimit="10" x1="129.434" y1="271.811" x2="126.738" y2="271.068"/>
<line fill="none" stroke="#2B2C2E" stroke-width="2" stroke-linecap="round" stroke-linejoin="round" stroke-miterlimit="10" x1="124.227" y1="269.552" x2="122.371" y2="267.46"/>
<line fill="none" stroke="#2B2C2E" stroke-width="2" stroke-linecap="round" stroke-linejoin="round" stroke-miterlimit="10" x1="120.25" y1="264.947" x2="118.734" y2="262.598"/>
<line fill="none" stroke="#2B2C2E" stroke-width="2" stroke-linecap="round" stroke-linejoin="round" stroke-miterlimit="10" x1="98.664" y1="264.363" x2="99.684" y2="262.743"/>
<line fill="none" stroke="#2B2C2E" stroke-width="2" stroke-linecap="round" stroke-linejoin="round" stroke-miterlimit="10" x1="93.947" y1="268.454" x2="96.027" y2="266.587"/>
<line fill="none" stroke="#2B2C2E" stroke-width="2" stroke-linecap="round" stroke-linejoin="round" stroke-miterlimit="10" x1="88.15" y1="270.609" x2="90.484" y2="270.305"/>
<polygon fill="#D1D2D3" stroke="#2B2C2E" stroke-width="2" stroke-linejoin="round" stroke-miterlimit="10" points="128.584,38.761 
	125.084,37.136 122.834,32.261 121.586,38.136 117.48,41.044 120.711,42.23 125.689,49.213 124.975,42.275 "/>
</svg>
