<?xml version="1.0" encoding="utf-8"?>
<!-- Generator: Adobe Illustrator 16.0.0, SVG Export Plug-In . SVG Version: 6.00 Build 0)  -->
<!DOCTYPE svg PUBLIC "-//W3C//DTD SVG 1.1//EN" "http://www.w3.org/Graphics/SVG/1.1/DTD/svg11.dtd">
<svg version="1.1" id="Layer_1" xmlns="http://www.w3.org/2000/svg" xmlns:xlink="http://www.w3.org/1999/xlink" x="0px" y="0px"
	 width="78.333px" height="78.333px" viewBox="0 0 78.333 78.333" enable-background="new 0 0 78.333 78.333" xml:space="preserve">
<g>
	<path fill-rule="evenodd" clip-rule="evenodd" fill="#A32941" d="M65.506,36.61c-6.249,0-12.397,0-18.636,0
		c-1.203-3.537-3.653-5.701-7.462-5.673c-3.732,0.028-6.12,2.189-7.319,5.68c-6.2,0-12.35,0-18.5,0
		c0.095-12.199,11.467-23.572,24.249-24.224C51.932,11.673,64.185,21.834,65.506,36.61z"/>
	<path fill-rule="evenodd" clip-rule="evenodd" fill="#F3F3F3" d="M13.467,40.318c6.295,0,12.444,0,18.631,0
		c1.229,3.598,3.703,5.736,7.511,5.681c3.642-0.052,6.04-2.125,7.234-5.653c6.187,0,12.38,0,18.579,0
		c-0.717,12.123-10.386,23.525-24.721,24.161C26.339,65.145,15.129,55.018,13.467,40.318z"/>
	<path fill-rule="evenodd" clip-rule="evenodd" fill="#F3F3F3" d="M39.55,42.476c-2.246,0.032-4.038-1.703-4.07-3.94
		c-0.033-2.252,1.697-4.041,3.936-4.07c2.251-0.029,4.04,1.699,4.074,3.937C43.524,40.643,41.783,42.444,39.55,42.476z"/>
</g>
</svg>
