<?xml version="1.0" encoding="utf-8"?>
<!-- Generator: Adobe Illustrator 16.0.0, SVG Export Plug-In . SVG Version: 6.00 Build 0)  -->
<!DOCTYPE svg PUBLIC "-//W3C//DTD SVG 1.1//EN" "http://www.w3.org/Graphics/SVG/1.1/DTD/svg11.dtd">
<svg version="1.1" id="Layer_1" xmlns="http://www.w3.org/2000/svg" xmlns:xlink="http://www.w3.org/1999/xlink" x="0px" y="0px"
	 width="315.5px" height="60.5px" viewBox="0 0 315.5 60.5" enable-background="new 0 0 315.5 60.5" xml:space="preserve">
<g>
	<path fill="#F3F3F3" d="M25.131,13.434c12.807,0,20.658,8.834,20.666,16.5c0.008,7.101-7.996,10.875-7.996,10.875
		s2.25,12.125-0.5,14.875s-20.375,3.625-24.127-0.125c-3.75-3.75-1.879-14.55-1.879-14.55s-8.873-1.325-8.873-10.95
		S12.381,13.434,25.131,13.434z"/>
	<path fill="#2A2B2E" d="M21.119,33.685c0,0,1.125-6.125-2.375-8.875S9.535,23.647,7.91,27.852c-2.125,5.5,3.084,8.25,5.59,7.803
		c0,0-1.256-5.239,2.869-5.792S21.119,33.685,21.119,33.685z"/>
	<path fill="#2A2B2E" d="M27.418,33.685c0,0-1.125-6.125,2.375-8.875s9.209-1.162,10.834,3.042c2.125,5.5-3.084,8.25-5.588,7.803
		c0,0,1.254-5.239-2.871-5.792S27.418,33.685,27.418,33.685z"/>
	
		<line fill="none" stroke="#2A2B2E" stroke-width="2" stroke-linecap="round" stroke-miterlimit="10" x1="18.551" y1="44.309" x2="18.551" y2="52.059"/>
	
		<line fill="none" stroke="#2A2B2E" stroke-width="2" stroke-linecap="round" stroke-miterlimit="10" x1="24.674" y1="44.873" x2="24.674" y2="52.623"/>
	
		<line fill="none" stroke="#2A2B2E" stroke-width="2" stroke-linecap="round" stroke-miterlimit="10" x1="29.988" y1="44.309" x2="29.988" y2="52.059"/>
</g>
<path fill="#252628" d="M312.771,35.702c0,4.234-3.434,7.667-7.668,7.667H64.771c-4.234,0-7.668-3.433-7.668-7.667l0,0
	c0-4.234,3.434-7.667,7.668-7.667h240.332C309.338,28.035,312.771,31.467,312.771,35.702L312.771,35.702z"/>
<path fill="#A42941" d="M270.633,35.701c0,4.234-3.434,7.667-7.668,7.667H64.771c-4.234,0-7.668-3.433-7.668-7.667l0,0
	c0-4.234,3.434-7.667,7.668-7.667h198.193C267.199,28.035,270.633,31.467,270.633,35.701L270.633,35.701z"/>
<g>
	<text transform="matrix(1 0 0 1 130.5527 19.6748)" fill="#EFEFEF" font-family="'Blanch-Caps'" font-size="31">EMO ZOMBIE</text>
</g>
</svg>
