<?xml version="1.0" encoding="utf-8"?>
<!-- Generator: Adobe Illustrator 16.0.0, SVG Export Plug-In . SVG Version: 6.00 Build 0)  -->
<!DOCTYPE svg PUBLIC "-//W3C//DTD SVG 1.1//EN" "http://www.w3.org/Graphics/SVG/1.1/DTD/svg11.dtd">
<svg version="1.1" id="Layer_1" xmlns="http://www.w3.org/2000/svg" xmlns:xlink="http://www.w3.org/1999/xlink" x="0px" y="0px"
	 width="71.75px" height="71.5px" viewBox="0 0 71.75 71.5" enable-background="new 0 0 71.75 71.5" xml:space="preserve">
<g>
	<path fill="#F3F3F3" d="M35.855,10.625c12.807,0,20.658,8.834,20.666,16.5C56.529,34.227,48.525,38,48.525,38
		s2.25,12.125-0.5,14.875S27.65,56.5,23.898,52.75c-3.75-3.75-1.879-14.55-1.879-14.55s-8.873-1.325-8.873-10.95
		S23.105,10.625,35.855,10.625z"/>
	<path fill="#2B2C2E" d="M31.844,30.876c0,0,1.125-6.125-2.375-8.875s-9.209-1.162-10.834,3.042c-2.125,5.5,3.084,8.25,5.59,7.803
		c0,0-1.256-5.239,2.869-5.792S31.844,30.876,31.844,30.876z"/>
	<path fill="#2B2C2E" d="M38.143,30.876c0,0-1.125-6.125,2.375-8.875s9.209-1.162,10.834,3.042c2.125,5.5-3.084,8.25-5.588,7.803
		c0,0,1.254-5.239-2.871-5.792S38.143,30.876,38.143,30.876z"/>
	
		<line fill="none" stroke="#2B2C2E" stroke-width="2" stroke-linecap="round" stroke-miterlimit="10" x1="29.275" y1="41.5" x2="29.275" y2="49.25"/>
	
		<line fill="none" stroke="#2B2C2E" stroke-width="2" stroke-linecap="round" stroke-miterlimit="10" x1="35.398" y1="42.064" x2="35.398" y2="49.814"/>
	
		<line fill="none" stroke="#2B2C2E" stroke-width="2" stroke-linecap="round" stroke-miterlimit="10" x1="40.713" y1="41.5" x2="40.713" y2="49.25"/>
</g>
</svg>
