<?xml version="1.0" encoding="utf-8"?>
<!-- Generator: Adobe Illustrator 16.0.0, SVG Export Plug-In . SVG Version: 6.00 Build 0)  -->
<!DOCTYPE svg PUBLIC "-//W3C//DTD SVG 1.1//EN" "http://www.w3.org/Graphics/SVG/1.1/DTD/svg11.dtd">
<svg version="1.1" id="Layer_1" xmlns="http://www.w3.org/2000/svg" xmlns:xlink="http://www.w3.org/1999/xlink" x="0px" y="0px"
	 width="44.167px" height="45.333px" viewBox="-13.75 -13.25 44.167 45.333" enable-background="new -13.75 -13.25 44.167 45.333"
	 xml:space="preserve">
<g>
	<path fill="#F3F3F3" d="M9.381-12.883c12.807,0,20.658,8.834,20.666,16.5c0.008,7.101-7.996,10.875-7.996,10.875
		s2.25,12.125-0.5,14.875c-2.75,2.75-20.375,3.625-24.127-0.125c-3.75-3.75-1.879-14.55-1.879-14.55s-8.873-1.325-8.873-10.95
		C-13.328-5.883-3.369-12.883,9.381-12.883z"/>
	<path fill="#2A2B2E" d="M5.369,7.369c0,0,1.125-6.125-2.375-8.875S-6.215-2.67-7.84,1.535c-2.125,5.5,3.084,8.25,5.59,7.803
		c0,0-1.256-5.239,2.869-5.792C4.744,2.993,5.369,7.369,5.369,7.369z"/>
	<path fill="#2A2B2E" d="M11.668,7.369c0,0-1.125-6.125,2.375-8.875s9.209-1.162,10.834,3.042c2.125,5.5-3.084,8.25-5.588,7.803
		c0,0,1.254-5.239-2.871-5.792C12.293,2.993,11.668,7.369,11.668,7.369z"/>
	
		<line fill="none" stroke="#2A2B2E" stroke-width="2" stroke-linecap="round" stroke-miterlimit="10" x1="2.801" y1="17.992" x2="2.801" y2="25.742"/>
	
		<line fill="none" stroke="#2A2B2E" stroke-width="2" stroke-linecap="round" stroke-miterlimit="10" x1="8.924" y1="18.556" x2="8.924" y2="26.306"/>
	
		<line fill="none" stroke="#2A2B2E" stroke-width="2" stroke-linecap="round" stroke-miterlimit="10" x1="14.238" y1="17.992" x2="14.238" y2="25.742"/>
</g>
</svg>
