<?xml version="1.0" encoding="utf-8"?>
<!-- Generator: Adobe Illustrator 16.0.0, SVG Export Plug-In . SVG Version: 6.00 Build 0)  -->
<!DOCTYPE svg PUBLIC "-//W3C//DTD SVG 1.1//EN" "http://www.w3.org/Graphics/SVG/1.1/DTD/svg11.dtd">
<svg version="1.1" id="Layer_1" xmlns="http://www.w3.org/2000/svg" xmlns:xlink="http://www.w3.org/1999/xlink" x="0px" y="0px"
	 width="41.001px" height="40.25px" viewBox="0 0 41.001 40.25" enable-background="new 0 0 41.001 40.25" xml:space="preserve">
<g>
	<path fill="#684782" d="M40.001,27.625c0,6.627-5.373,12-12,12h-15c-6.628,0-12-5.373-12-12v-15c0-6.627,5.372-12,12-12h15
		c6.627,0,12,5.373,12,12V27.625z"/>
	<g>
		<path fill-rule="evenodd" clip-rule="evenodd" fill="#EFEFEF" d="M10.45,16.347c1.695,0,3.27,0,4.854,0
			c1.49-1.283,2.983-2.569,4.477-3.854c0.2-0.171,0.384-0.37,0.606-0.505c0.602-0.368,1.27-0.069,1.394,0.619
			c0.038,0.213,0.017,0.438,0.017,0.658c0.002,4.529-0.006,9.059,0.008,13.588c0.003,0.717-0.104,1.312-1.031,1.569
			c-0.395-0.291-0.871-0.595-1.293-0.961c-1.094-0.949-2.18-1.91-3.238-2.898c-0.545-0.51-1.127-0.763-1.893-0.723
			c-1.052,0.056-2.109,0.031-3.164,0.009c-0.949-0.02-1.281-0.331-1.294-1.259c-0.022-1.715,0.005-3.43-0.011-5.145
			C9.876,16.958,10.021,16.589,10.45,16.347z"/>
		<path fill-rule="evenodd" clip-rule="evenodd" fill="#EFEFEF" d="M27.583,14.542c0.295-0.63,0.295-0.63,1-0.605
			c2.803,3.123,2.956,8.292,0.594,11.609c-0.174,0.243-0.342,0.513-0.577,0.68c-0.15,0.106-0.475,0.132-0.62,0.039
			c-0.152-0.101-0.28-0.402-0.248-0.585c0.05-0.281,0.225-0.55,0.385-0.798c0.549-0.843,0.992-1.733,1.217-2.719
			c0.552-2.431,0.17-4.696-1.222-6.778c-0.167-0.25-0.334-0.5-0.499-0.75C27.595,14.608,27.593,14.573,27.583,14.542z"/>
		<path fill-rule="evenodd" clip-rule="evenodd" fill="#EFEFEF" d="M28.33,20.071c-0.091,1.503-0.481,2.929-1.288,4.228
			c-0.088,0.14-0.2,0.277-0.332,0.372c-0.27,0.192-0.572,0.201-0.828-0.015c-0.231-0.195-0.248-0.448-0.094-0.721
			c0.213-0.377,0.423-0.758,0.604-1.151c0.947-2.049,0.81-4.044-0.323-5.982c-0.119-0.202-0.27-0.391-0.348-0.607
			c-0.107-0.304-0.059-0.597,0.246-0.788c0.283-0.178,0.538-0.064,0.711,0.154c0.308,0.39,0.633,0.784,0.847,1.226
			C28.022,17.813,28.268,18.913,28.33,20.071z"/>
		<path fill-rule="evenodd" clip-rule="evenodd" fill="#EFEFEF" d="M25.669,20.364c0.022,0.87-0.279,1.644-0.683,2.384
			c-0.226,0.414-0.564,0.543-0.903,0.395c-0.318-0.141-0.44-0.509-0.234-0.947c0.316-0.672,0.551-1.346,0.532-2.108
			c-0.015-0.613-0.081-1.191-0.401-1.729c-0.115-0.195-0.191-0.427-0.232-0.652c-0.061-0.324,0.048-0.614,0.375-0.737
			c0.295-0.11,0.563,0.05,0.682,0.291c0.293,0.594,0.578,1.199,0.771,1.829C25.694,19.487,25.643,19.938,25.669,20.364z"/>
	</g>
</g>
<g>
	<path fill-rule="evenodd" clip-rule="evenodd" fill="#EFEFEF" d="M10.449,16.347c1.695,0,3.27,0,4.854,0
		c1.49-1.283,2.983-2.569,4.477-3.854c0.2-0.171,0.384-0.37,0.606-0.505c0.602-0.368,1.27-0.069,1.394,0.619
		c0.038,0.213,0.017,0.438,0.017,0.658c0.002,4.529-0.006,9.059,0.008,13.588c0.003,0.717-0.104,1.312-1.031,1.569
		c-0.395-0.291-0.871-0.595-1.293-0.961c-1.094-0.949-2.18-1.91-3.238-2.898c-0.545-0.51-1.127-0.763-1.893-0.723
		c-1.052,0.056-2.109,0.031-3.164,0.009c-0.949-0.02-1.281-0.331-1.294-1.259c-0.022-1.715,0.005-3.43-0.011-5.145
		C9.875,16.958,10.02,16.589,10.449,16.347z"/>
</g>
</svg>
