<?xml version="1.0" encoding="utf-8"?>
<!-- Generator: Adobe Illustrator 16.0.0, SVG Export Plug-In . SVG Version: 6.00 Build 0)  -->
<!DOCTYPE svg PUBLIC "-//W3C//DTD SVG 1.1//EN" "http://www.w3.org/Graphics/SVG/1.1/DTD/svg11.dtd">
<svg version="1.1" id="Layer_1" xmlns="http://www.w3.org/2000/svg" xmlns:xlink="http://www.w3.org/1999/xlink" x="0px" y="0px"
	 width="285.333px" height="296.667px" viewBox="0 0 285.333 296.667" enable-background="new 0 0 285.333 296.667"
	 xml:space="preserve">
<path fill="none" stroke="#F2F2F2" stroke-width="8" stroke-linecap="round" stroke-linejoin="round" stroke-miterlimit="10" d="
	M267.351,25.441c0,0-9.688-0.542-17.835,3.325c0,0-26.753,9.976-43.984,36.275c0,0-39.954-11.109-65.749,1.361
	c0,0-7.366-7.896-20.443-12.047c0,0-0.131,3.398-2.331,3.307c-1.699-0.071-2.531-3.242-2.531-3.242s-1.345,4.112-5.694,3.242
	c-3.353-0.671-0.788-5.395-0.788-5.395s-3,0.981-3.996,0.551c-2.826-1.221-1.048-5.254-1.048-5.254
	c-5.571-2.979-12.614-3.695-18.94-3.836c0,0-12.999-2.115-19.498,2.57c0,0,8.16,13.793,32.069,24.145c0,0-0.654-0.5-1.663-1.437
	c1.81,1.46,3.894,2.874,6.322,4.196c15.609,8.502,26.3,7.709,26.3,7.709s-7.709,14.057-10.43,34.008
	c-1.678,12.306-4.221,27.371-7.41,42.537l-2.67,12.016c-1.255,5.358-2.58,10.646-3.977,15.73c-0.728,2.65-1.236,5.397-1.557,8.186
	c-0.001,0-0.009-0.002-0.009-0.002s-0.403,2.518-0.563,5.84c-0.001,0.015-0.001,0.029-0.001,0.044l-8.904-5.753l6.046-12.697
	l-11.186-7.255l7.859-21.464l-19.347-6.348l26.451-40.205L35.793,64.74l-21.765,45.345l14.146,4.594c0,0,1.717-2.049,3.471-1.572
	c1.752,0.478,2.179,3.408,2.179,3.408s0.916-5.849,5.36-5.15c5.536,0.87,1.367,7.335,1.367,7.335s2.391-2.411,4.169-1.799
	c2.293,0.791,1.201,3.542,1.201,3.542l21.159,6.872L59.825,151.8l17.231,8.012l-4.233,17.836l16.174,8.01l-5.301,11.488
	l17.312,5.911c0.121,1.445,0.298,2.407,0.298,2.407h0.003c1.405,17.235,9.796,33.293,22.955,36.206
	c4.636,5.304,14.38,15.39,20.215,13.819c5.704-1.535,3.339-9.166,0.241-13.725c8.979-1.473,16.507-4.237,24.537-3.961
	c7.729,0.267,16.869,1.94,25.393,1.62c5.476,5.53,15.136,14.212,20.556,12.753c6.783-1.826-2.34-13.581-5.917-16.461
	c0.573-0.337,1.138-0.692,1.685-1.086c11.203-8.066,7.242-24.723,0.25-36.75c2.561-1.617,6.224-4.319,8.637-10.361
	c0.995-2.492,1.729-5.396,2.014-8.791c0,0-2.664,0.246-3.157-2.193c-0.396-1.958,2.32-3.401,2.32-3.401s-5.721,2.214-6.828-2.847
	c-1.063-4.865,5.668-5.537,5.668-5.537s-2.562-0.145-2.582-2.53c-0.022-2.483,2.565-3.473,2.565-3.473
	c-2.514-8.774-6.219-14.815-6.219-14.815l-0.534,0.429c0.36-0.773,0.587-1.167,0.587-1.167s5.468-4.672,9.721-10.868
	c0.016,0.019,0.027,0.036,0.043,0.054c0,0,5.668-7.368,5.668-10.996c0-3.839-2.282-7.085-3.167-8.199
	c-1.213-1.71-2.46-3.614-2.647-7.162c-0.453-8.615-2.362-24.201-6.442-28.282c0,0,22.301-11.742,29.068-22.042
	c-0.207,0.384-0.42,0.769-0.645,1.153C245.292,56.85,266.746,34.511,267.351,25.441z"/>
<g>
	<path fill="#D8BA2B" stroke="#2B2C2E" stroke-width="2" stroke-linecap="round" stroke-miterlimit="10" d="M121.655,238.56
		c0,0,14.963,19.045,22.823,16.93c7.618-2.051,0.844-14.973-2.847-16.93"/>
	<path fill="#D8BA2B" stroke="#2B2C2E" stroke-width="2" stroke-linecap="round" stroke-miterlimit="10" d="M190.567,235.083
		c0,0,16.778,19.209,24.638,17.094c7.619-2.051-4.837-16.641-6.952-17.094"/>
	
		<path fill="#D8BA2B" stroke="#2B2C2E" stroke-width="2" stroke-linecap="round" stroke-linejoin="round" stroke-miterlimit="10" d="
		M84.01,43.729c0,0-3.784,18.028,17.23,29.475c15.609,8.502,26.3,7.709,26.3,7.709s-7.709,14.057-10.43,34.008
		s-7.708,47.157-14.057,70.283c-6.349,23.127,3.174,53.508,22.219,56.682c19.044,3.172,30.835-4.535,43.984-4.082
		s30.38,4.988,41.716-3.174c11.337-8.162,7.147-25.125,0-37.182c-2.796-4.719-2.343-4.047-2.796-23.999
		c-0.453-19.951,5.517-30.257,5.517-30.257s11.336-9.681,14.058-19.656c2.721-9.976-3.986-8.9-4.44-17.516
		c-0.453-8.615-2.362-24.201-6.442-28.282c0,0,23.231-12.228,29.474-22.672c7.807-13.063,3.174-26.3,3.174-26.3
		s-26.753,9.976-43.984,36.275c0,0-39.954-11.109-65.749,1.361c0,0-7.366-7.896-20.443-12.047c0,0-0.131,3.398-2.331,3.307
		c-1.699-0.071-2.531-3.242-2.531-3.242s-1.345,4.112-5.694,3.242c-3.353-0.671-0.788-5.395-0.788-5.395s-3,0.981-3.996,0.551
		c-2.826-1.221-1.048-5.254-1.048-5.254C97.379,44.587,90.336,43.87,84.01,43.729z"/>
	<path fill="#746E51" stroke="#2B2C2E" stroke-width="2" stroke-miterlimit="10" d="M84.01,43.729c0,0-12.999-2.115-19.498,2.57
		c0,0,8.16,13.793,32.069,24.145C96.581,70.444,82.347,59.601,84.01,43.729z"/>
	<path fill="#746E51" stroke="#2B2C2E" stroke-width="2" stroke-miterlimit="10" d="M249.516,28.767c0,0,4,14.027-4.224,28.083
		c0,0,21.454-22.339,22.059-31.408C267.351,25.441,257.662,24.899,249.516,28.767z"/>
	
		<path fill="#D8BA2B" stroke="#2B2C2E" stroke-width="2" stroke-linecap="round" stroke-linejoin="round" stroke-miterlimit="10" d="
		M101.845,203.343l-18.148-6.197l5.301-11.488l-16.174-8.01l4.233-17.836L59.825,151.8l7.256-24.485l-21.159-6.872
		c0,0,1.092-2.751-1.201-3.542c-1.778-0.612-4.169,1.799-4.169,1.799s4.169-6.465-1.367-7.335c-4.444-0.698-5.36,5.15-5.36,5.15
		s-0.427-2.931-2.179-3.408c-1.754-0.477-3.471,1.572-3.471,1.572l-14.146-4.594L35.793,64.74l66.052,40.81l-26.451,40.205
		l19.347,6.348l-7.859,21.464l11.186,7.255l-6.046,12.697l9.824,6.348"/>
	<path fill="#746E51" stroke="#2B2C2E" stroke-width="2" stroke-miterlimit="10" d="M225.611,112.767c0,0-3.619,1.984-4.999,5.933
		c-1.135,3.24-1.537,8.615,2.845,13.679c0,0,5.668-7.368,5.668-10.996C229.125,116.621,225.611,112.767,225.611,112.767z"/>
	<path fill="#746E51" stroke="#2B2C2E" stroke-width="2" stroke-miterlimit="10" d="M149.788,127.112
		c0,5.678-4.541,11.388-10.217,11.388s-10.278-4.603-10.278-10.278s4.603-9.522,10.278-9.522S149.788,121.437,149.788,127.112z"/>
	<path fill="#2B2C2E" d="M160.543,102.829c0,4.508-2.479,10.277-8.68,10.277c-7.856,0-9.144-5.808-8.56-10.277
		c0.612-4.686,4.569-8.162,9.077-8.162S160.543,98.321,160.543,102.829z"/>
	<path fill="#F3F3F3" d="M154.056,103.809c0,0.607,0,1.343-1.097,1.244c-0.603-0.057-1.097-0.637-1.097-1.244
		c0-0.605,0.49-1.096,1.097-1.096C153.564,102.713,154.056,103.203,154.056,103.809z"/>
	<path fill="#2B2C2E" d="M215.901,103.645c0,4.694-1.661,8.5-6.232,8.5c-4.042,0-6.874-2.587-6.874-7.281s0.121-8.077,4.587-9.125
		C210.581,94.987,215.901,98.95,215.901,103.645z"/>
	<path fill="#F3F3F3" d="M208.834,104.318c0,0.784-0.455,1.224-1.03,1.224c-0.573,0-0.937-0.512-0.937-1.298
		s0.358-1.298,0.933-1.298S208.834,103.534,208.834,104.318z"/>
	<path fill="#2B2C2E" d="M182.271,115.472c0.091-0.672,5.093-1.219,5.576,0.158c0.235,0.672-1.622,2.461-2.464,2.451
		C184.577,118.073,182.181,116.144,182.271,115.472z"/>
	<path fill="#A42942" stroke="#2B2C2E" stroke-width="2" stroke-miterlimit="10" d="M109.744,157.257c0,0,11.59,3.533,11.906,6.696
		c0.315,3.163-14.729,6.011-14.729,6.011L109.744,157.257z"/>
	<path fill="#A42942" stroke="#2B2C2E" stroke-width="2" stroke-miterlimit="10" d="M101.488,193.388c0,0,14.77,3.531,15.086,6.695
		s-15.269,5.381-15.269,5.381s-0.538-2.916-0.38-6.236C101.085,195.905,101.488,193.388,101.488,193.388z"/>
	
		<path fill="#D8BA2B" stroke="#2B2C2E" stroke-width="2" stroke-linecap="round" stroke-linejoin="round" stroke-miterlimit="10" d="
		M143.523,157.257c0,0,6.952,5.431,13.597,15.238c6.643,9.807,4.942,21.227,6.34,22.836c1.397,1.607,1.595,6.354,1.595,6.354
		l-3.203-0.949l0.316,4.666l-3.797-2.768l0.316,3.598l-4.508-1.938l0.485,2.926c0,0-4.388-0.5-6.127-3.084
		c-0.903-1.342-11.54-4.609-15.943-9.303c-8.044-8.572-12.172-18.542-12.172-18.542"/>
	
		<path fill="#D8BA2B" stroke="#2B2C2E" stroke-width="2" stroke-linecap="round" stroke-linejoin="round" stroke-miterlimit="10" d="
		M197.434,156.94c0,0-12.884,22.309-5.054,39.049c0.986,2.109-0.771,5.932,0.88,7.436l2.758-2.611l0.237,3.877l3.084-3.086
		l0.734,5.236l2.825-4.141l2.372,3.096c0,0,2.742-3.334,3.006-5.535c0.226-1.879,7.608-2.791,11.583-12.742
		c0.995-2.492,1.729-5.396,2.014-8.791c0,0-2.664,0.246-3.157-2.193c-0.396-1.958,2.32-3.401,2.32-3.401s-5.721,2.214-6.828-2.847
		c-1.063-4.865,5.668-5.537,5.668-5.537s-2.562-0.145-2.582-2.53c-0.022-2.483,2.565-3.473,2.565-3.473
		c-2.514-8.774-6.219-14.815-6.219-14.815"/>
	<path fill="#A42942" d="M178.188,129.312c0,0,6.52,7.124,8.576,7.124c2.056,0,7.083-8.23,7.083-8.23l-7.435-2.688L178.188,129.312z
		"/>
	<path fill="#EF3D5C" d="M180.49,132.048c0,0,1.144-2.503,5.528-2.734c4.384-0.231,6.336,2.202,6.336,2.202
		s-3.271,6.826-5.484,6.984C184.655,138.658,180.49,132.048,180.49,132.048z"/>
	<path fill="none" stroke="#2B2C2E" stroke-width="2" stroke-linecap="round" stroke-miterlimit="10" d="M178.546,129.696
		c0,0,5.478,8.883,8.324,8.804s6.978-10.295,6.978-10.295"/>
	<path fill="#E4E1DE" d="M180.49,128.555c0,0,1.528,3.493,2.172,3.493c0.571,0,0.885-5.271,0.885-5.271"/>
	<path fill="#E4E1DE" d="M188.097,126.471c0,0,0.961,4.563,1.525,4.563c0.502,0,1.523-3.702,1.523-3.702"/>
	<path fill="none" stroke="#2B2C2E" stroke-width="2" stroke-linecap="round" stroke-miterlimit="10" d="M172.651,126.939
		c0,0,4.103,2.294,5.537,2.372c1.434,0.08,6.396-3.875,8.225-3.795c1.83,0.078,6,2.688,7.435,2.688c1.434,0,3.638-2.688,3.638-2.688
		"/>
</g>
<path fill="none" stroke="#2B2C2E" stroke-width="2" stroke-miterlimit="10" d="M121.847,94.667c0,0,32.442-9.047,38.696-33.696"/>
<line fill="none" stroke="#2B2C2E" stroke-width="2" stroke-linecap="round" stroke-linejoin="round" stroke-miterlimit="10" x1="127.131" y1="89.904" x2="129.293" y2="94.667"/>
<line fill="none" stroke="#2B2C2E" stroke-width="2" stroke-linecap="round" stroke-linejoin="round" stroke-miterlimit="10" x1="133.631" y1="86.238" x2="136.465" y2="92.286"/>
<line fill="none" stroke="#2B2C2E" stroke-width="2" stroke-linecap="round" stroke-linejoin="round" stroke-miterlimit="10" x1="140.689" y1="81.404" x2="144.631" y2="88.404"/>
<line fill="none" stroke="#2B2C2E" stroke-width="2" stroke-linecap="round" stroke-linejoin="round" stroke-miterlimit="10" x1="146.631" y1="75.904" x2="151.862" y2="82.071"/>
<line fill="none" stroke="#2B2C2E" stroke-width="2" stroke-linecap="round" stroke-linejoin="round" stroke-miterlimit="10" x1="152.959" y1="70.444" x2="158.131" y2="74.071"/>
</svg>
